<?xml version="1.0" encoding="utf-8" standalone="no"?>
<!DOCTYPE svg PUBLIC "-//W3C//DTD SVG 1.1//EN"
  "http://www.w3.org/Graphics/SVG/1.1/DTD/svg11.dtd">
<svg xmlns:xlink="http://www.w3.org/1999/xlink" width="518.4pt" height="518.4pt" viewBox="0 0 518.4 518.4" xmlns="http://www.w3.org/2000/svg" version="1.1">
 <metadata>
  <rdf:RDF xmlns:dc="http://purl.org/dc/elements/1.1/" xmlns:cc="http://creativecommons.org/ns#" xmlns:rdf="http://www.w3.org/1999/02/22-rdf-syntax-ns#">
   <cc:Work>
    <dc:type rdf:resource="http://purl.org/dc/dcmitype/StillImage"/>
    <dc:date>2026-07-02T08:06:06.787433</dc:date>
    <dc:format>image/svg+xml</dc:format>
    <dc:creator>
     <cc:Agent>
      <dc:title>Matplotlib v3.11.0, https://matplotlib.org/</dc:title>
     </cc:Agent>
    </dc:creator>
   </cc:Work>
  </rdf:RDF>
 </metadata>
 <defs>
  <style type="text/css">*{stroke-linejoin: round; stroke-linecap: butt}</style>
 </defs>
 <g id="figure_1">
  <g id="patch_1">
   <path d="M 0 518.4 
L 518.4 518.4 
L 518.4 0 
L 0 0 
z
" style="fill: #ffffff"/>
  </g>
  <g id="axes_1">
   <g id="patch_2">
    <path d="M 53.241875 431.465946 
L 507.6 431.465946 
L 507.6 86.934054 
L 53.241875 86.934054 
z
" style="fill: #ffffff"/>
   </g>
   <g id="patch_3">
    <path d="M 206.802445 190.164572 
L 206.69683 188.662342 
L 206.50357 187.167817 
L 206.224202 185.685568 
L 205.860919 184.219992 
L 205.416573 182.775243 
L 204.894682 181.355166 
L 204.299432 179.963226 
L 203.635674 178.60243 
L 202.908945 177.275248 
L 202.125522 175.983515 
L 201.292567 174.728287 
L 200.418548 173.509597 
L 199.514803 172.325738 
L 198.597319 171.172211 
L 197.657089 170.05251 
L 196.686095 168.970811 
L 195.68106 167.930213 
L 194.640662 166.933414 
L 193.564839 165.982797 
L 192.454479 165.080432 
L 191.311233 164.228043 
L 190.137392 163.426979 
L 188.935781 162.678178 
L 187.709666 161.982144 
L 186.462657 161.338925 
L 185.198626 160.748112 
L 183.921613 160.208837 
L 182.635746 159.719787 
L 181.345152 159.279229 
L 180.053887 158.885037 
L 178.765858 158.534734 
L 177.484768 158.225535 
L 176.214055 157.954393 
L 174.956849 157.718053 
L 173.715937 157.513104 
L 172.493736 157.336029 
L 171.29282 157.182557 
L 170.143255 157.010364 
L 169.057601 156.793393 
L 168.02956 156.529075 
L 167.052011 156.21653 
L 166.117268 155.856518 
L 165.217335 155.451353 
L 164.344154 155.004791 
L 163.489829 154.521869 
L 162.646829 154.008734 
L 161.808169 153.472445 
L 160.967559 152.920762 
L 160.119516 152.361928 
L 159.259457 151.804449 
L 158.383749 151.256873 
L 157.489732 150.727582 
L 156.575714 150.224589 
L 155.640935 149.755363 
L 154.685513 149.326657 
L 153.710356 148.944375 
L 152.717072 148.613457 
L 151.707849 148.337785 
L 150.685335 148.120127 
L 149.652506 147.962107 
L 148.612533 147.864194 
L 147.56865 147.825732 
L 146.524025 147.844983 
L 145.481637 147.919207 
L 144.444173 148.044751 
L 143.413927 148.217163 
L 142.392719 148.431326 
L 141.381835 148.681595 
L 140.381981 148.961946 
L 139.39326 149.266135 
L 138.415159 149.587849 
L 137.44657 149.920853 
L 136.485811 150.259133 
L 135.530672 150.597015 
L 134.578461 150.929254 
L 133.626043 151.251054 
L 132.66977 151.557764 
L 131.705755 151.845656 
L 130.731306 152.115323 
L 129.743723 152.367454 
L 128.740473 152.603225 
L 127.723216 152.832524 
L 126.711174 153.097406 
L 125.709291 153.404264 
L 124.719951 153.753538 
L 123.74549 154.145348 
L 122.78817 154.579503 
L 121.850147 155.055508 
L 120.933437 155.572579 
L 120.039895 156.129655 
L 119.171177 156.725413 
L 118.328722 157.358285 
L 117.513718 158.026485 
L 116.727085 158.728026 
L 115.969453 159.460748 
L 115.24114 160.222348 
L 114.542143 161.010412 
L 113.872123 161.822442 
L 113.230397 162.6559 
L 112.615939 163.508234 
L 112.027377 164.376924 
L 111.463001 165.259516 
L 110.920778 166.15366 
L 110.398362 167.057152 
L 109.893123 167.967967 
L 109.402173 168.884299 
L 108.9224 169.804594 
L 108.45051 170.727581 
L 107.983072 171.652305 
L 107.516572 172.578144 
L 107.047467 173.504838 
L 106.572252 174.432498 
L 106.087523 175.361616 
L 105.590052 176.293066 
L 105.076855 177.228099 
L 104.54527 178.168329 
L 103.993029 179.115709 
L 103.418333 180.072499 
L 102.819919 181.04123 
L 102.197123 182.024648 
L 101.549935 183.025663 
L 100.879046 184.047281 
L 100.185874 185.092532 
L 99.472589 186.164397 
L 98.742111 187.265726 
L 97.998092 188.399162 
L 97.24488 189.567061 
L 96.487468 190.771416 
L 95.731415 192.013797 
L 94.982752 193.295288 
L 94.247876 194.616446 
L 93.533417 195.977273 
L 92.846101 197.377199 
L 92.192591 198.815097 
L 91.579321 200.289308 
L 91.012302 201.797701 
L 90.4969 203.337769 
L 90.037548 204.906765 
L 89.637288 206.501945 
L 89.296766 208.121053 
L 89.009942 209.764115 
L 88.780131 211.428373 
L 88.628695 213.103491 
L 88.569511 214.779922 
L 88.613227 216.447919 
L 88.768301 218.097399 
L 89.041293 219.718028 
L 89.436965 221.299367 
L 89.958316 222.831032 
L 90.606608 224.302882 
L 91.381409 225.705187 
L 92.280648 227.028801 
L 93.300701 228.265313 
L 94.4365 229.407186 
L 95.681667 230.447868 
L 97.028668 231.381884 
L 98.468978 232.204894 
L 99.993259 232.913739 
L 101.591547 233.506447 
L 103.25343 233.982229 
L 104.968228 234.341445 
L 106.725164 234.585555 
L 108.51352 234.717058 
L 110.322783 234.739417 
L 112.142772 234.65697 
L 113.963754 234.474842 
L 115.776538 234.19885 
L 117.572552 233.835403 
L 119.343912 233.391411 
L 121.083467 232.874181 
L 122.784836 232.291332 
L 124.442429 231.650702 
L 126.051458 230.960263 
L 127.607937 230.228041 
L 129.108678 229.462044 
L 130.551268 228.670187 
L 131.934052 227.860232 
L 133.256101 227.039725 
L 134.517179 226.215947 
L 135.717705 225.395863 
L 136.858714 224.586077 
L 137.94181 223.792797 
L 138.969122 223.021801 
L 139.943255 222.278411 
L 140.867241 221.567463 
L 141.744491 220.893296 
L 142.578742 220.259733 
L 143.374013 219.670075 
L 144.134546 219.127091 
L 144.864768 218.633021 
L 145.569236 218.189577 
L 146.252593 217.79795 
L 146.919527 217.458821 
L 147.574722 217.172376 
L 148.222825 216.938324 
L 148.868404 216.755918 
L 149.515917 216.623979 
L 150.16968 216.540928 
L 150.833838 216.504819 
L 151.512348 216.513373 
L 152.208959 216.564027 
L 152.927207 216.65399 
L 153.670422 216.780328 
L 154.441778 216.940132 
L 155.244486 217.131036 
L 156.080845 217.34848 
L 156.952397 217.586828 
L 157.860477 217.840981 
L 158.806094 218.105958 
L 159.789909 218.376835 
L 160.812226 218.64873 
L 161.872997 218.916816 
L 162.971825 219.176336 
L 164.107972 219.422624 
L 165.280372 219.651128 
L 166.487637 219.857431 
L 167.728079 220.037276 
L 168.999722 220.186581 
L 170.300318 220.301463 
L 171.627367 220.378251 
L 172.978136 220.413509 
L 174.349678 220.40404 
L 175.738853 220.346907 
L 177.142345 220.239436 
L 178.556685 220.079228 
L 179.978268 219.864163 
L 181.403373 219.592404 
L 182.828179 219.262401 
L 184.248783 218.87289 
L 185.661217 218.422892 
L 187.061461 217.911715 
L 188.445454 217.338947 
L 189.809111 216.704456 
L 191.148331 216.008384 
L 192.459008 215.251145 
L 193.737038 214.43342 
L 194.978333 213.556154 
L 196.178824 212.62055 
L 197.334475 211.628072 
L 198.44129 210.580436 
L 199.495327 209.479611 
L 200.492708 208.32782 
L 201.429639 207.127534 
L 202.302426 205.881474 
L 203.107499 204.592607 
L 203.841439 203.264143 
L 204.501006 201.899533 
L 205.083178 200.502456 
L 205.58519 199.076813 
L 206.004573 197.626712 
L 206.339203 196.156446 
L 206.587349 194.670469 
L 206.747718 193.173369 
L 206.819508 191.669826 
L 206.802445 190.164572 
z
" clip-path="url(#pefebb2b672)" style="fill: #e8edf2; stroke: #e8edf2; stroke-linejoin: miter"/>
   </g>
   <g id="line2d_1">
    <path d="M 222.680629 190.164572 
L 222.362477 186.385658 
L 221.662044 182.657574 
L 220.59966 179.016283 
L 219.206373 175.49276 
L 217.524136 172.110608 
L 215.607689 168.882857 
L 213.540107 165.802872 
L 211.346249 162.871909 
L 208.982587 160.119758 
L 206.443352 157.568565 
L 203.739249 155.235141 
L 200.89148 153.130224 
L 197.928392 151.257603 
L 194.882557 149.613732 
L 191.788006 148.187974 
L 188.677706 146.963436 
L 184.046574 145.455133 
L 178.151595 143.777402 
L 175.493798 142.768372 
L 172.986418 141.603679 
L 169.37201 139.625109 
L 163.290378 136.155823 
L 160.732509 134.900172 
L 158.082382 133.81608 
L 155.345767 132.95438 
L 152.539473 132.350572 
L 149.687613 132.022448 
L 146.817436 131.969511 
L 143.955204 132.174098 
L 141.122555 132.604027 
L 138.333708 133.216429 
L 134.241044 134.369605 
L 118.111397 139.461928 
L 115.470021 140.59421 
L 112.917196 141.928471 
L 110.471151 143.458591 
L 108.147419 145.17396 
L 105.957943 147.060023 
L 103.910307 149.098997 
L 102.00711 151.270751 
L 100.245554 153.553822 
L 97.849016 157.140017 
L 95.700428 160.860653 
L 93.091793 165.941693 
L 85.874963 180.493478 
L 81.367901 189.371447 
L 79.134684 194.272763 
L 77.752739 197.734236 
L 76.517619 201.347283 
L 75.481094 205.098961 
L 74.687816 208.969083 
L 74.165777 212.934567 
L 73.904625 216.981395 
L 73.985606 221.058969 
L 74.188449 223.08437 
L 74.511406 225.087225 
L 74.960938 227.056987 
L 75.541697 228.983001 
L 76.256571 230.854678 
L 77.106704 232.661668 
L 78.091543 234.394039 
L 79.208887 236.042444 
L 80.45498 237.598275 
L 81.824619 239.053801 
L 83.311283 240.40228 
L 84.90729 241.638048 
L 86.603965 242.756585 
L 88.391815 243.754551 
L 90.260714 244.629799 
L 92.200087 245.381367 
L 94.199086 246.009448 
L 96.246761 246.515341 
L 98.332217 246.901384 
L 100.444761 247.170886 
L 104.710098 247.377809 
L 108.965729 247.178541 
L 113.144375 246.625091 
L 117.190344 245.775998 
L 121.060468 244.693426 
L 124.724312 243.440539 
L 129.796962 241.3763 
L 135.763596 238.57305 
L 143.254712 234.98088 
L 146.546005 233.673422 
L 148.649802 233.014123 
L 150.722543 232.525474 
L 152.798375 232.200005 
L 155.986938 231.986206 
L 159.348407 232.041182 
L 165.531275 232.489583 
L 171.079721 232.828396 
L 175.581631 232.873422 
L 178.723843 232.7388 
L 181.958004 232.436222 
L 185.261749 231.938486 
L 188.609355 231.222351 
L 191.972374 230.26888 
L 195.320259 229.063658 
L 198.620942 227.596891 
L 201.841356 225.863413 
L 204.947885 223.86262 
L 207.906739 221.598356 
L 210.684266 219.078789 
L 213.247255 216.316297 
L 215.563247 213.327378 
L 217.600947 210.132588 
L 219.330797 206.756492 
L 220.725765 203.22756 
L 221.762408 199.577955 
L 222.422172 195.843113 
L 222.692872 192.061024 
L 222.680629 190.164572 
L 222.680629 190.164572 
" clip-path="url(#pefebb2b672)" style="fill: none; stroke: #9aa5b1; stroke-width: 0.6; stroke-linecap: square"/>
   </g>
   <g id="line2d_2">
    <path d="M 220.412317 190.164572 
L 220.096919 186.497395 
L 219.404741 182.880777 
L 218.356092 179.350409 
L 216.981987 175.936998 
L 215.324334 172.66388 
L 213.437811 169.54382 
L 211.405423 166.56992 
L 209.251941 163.743181 
L 206.93374 161.093137 
L 204.444942 158.641689 
L 201.796126 156.405404 
L 199.008364 154.394784 
L 196.109854 152.61339 
L 193.133012 151.057455 
L 190.111703 149.716126 
L 187.078715 148.572307 
L 182.570768 147.1777 
L 176.852453 145.63683 
L 174.287828 144.689538 
L 171.876549 143.581919 
L 168.41127 141.679913 
L 162.589431 138.313116 
L 160.138681 137.089374 
L 157.597115 136.031876 
L 154.970239 135.191391 
L 152.274596 134.603365 
L 149.53403 134.285555 
L 146.77552 134.237435 
L 144.025057 134.441334 
L 141.304007 134.86507 
L 138.626319 135.465789 
L 134.698976 136.591212 
L 123.128356 140.204323 
L 120.495102 140.99001 
L 117.915015 141.967043 
L 115.410894 143.142528 
L 113.001732 144.512893 
L 110.704302 146.069868 
L 108.532229 147.800955 
L 106.495159 149.690059 
L 104.598048 151.718287 
L 102.840644 153.864901 
L 101.217193 156.108397 
L 99.007048 159.609564 
L 97.01217 163.218621 
L 93.942956 169.360072 
L 89.507455 178.211578 
L 82.878629 190.939085 
L 80.688583 195.788704 
L 79.361014 199.215964 
L 78.201183 202.790115 
L 77.258193 206.494547 
L 76.570155 210.307028 
L 76.146111 214.208265 
L 75.9994 218.175917 
L 76.249132 222.136306 
L 76.548106 224.088679 
L 76.972417 226.008564 
L 77.526735 227.885339 
L 78.213963 229.708443 
L 79.035262 231.467556 
L 79.990095 233.152775 
L 81.076281 234.754781 
L 82.290083 236.264995 
L 83.626316 237.675713 
L 85.078481 238.980221 
L 86.638916 240.172882 
L 88.298967 241.249201 
L 90.049164 242.205863 
L 91.879404 243.040748 
L 93.779136 243.752919 
L 95.737535 244.342591 
L 97.743676 244.811086 
L 99.786689 245.160766 
L 101.855907 245.394962 
L 106.032049 245.534528 
L 110.195275 245.272378 
L 114.278531 244.660676 
L 118.226356 243.758099 
L 121.995821 242.626943 
L 125.556734 241.330489 
L 130.471279 239.210535 
L 136.221529 236.351443 
L 143.380403 232.716053 
L 146.504089 231.405498 
L 148.496219 230.751016 
L 150.457666 230.27268 
L 152.422847 229.962994 
L 155.447226 229.783037 
L 158.64746 229.883889 
L 164.570535 230.434779 
L 169.92145 230.878102 
L 174.282489 231.013994 
L 177.334682 230.945626 
L 180.482198 230.713655 
L 183.702882 230.290708 
L 186.97121 229.653363 
L 190.258931 228.782492 
L 193.535676 227.663479 
L 196.769553 226.28632 
L 199.927656 224.645632 
L 202.976521 222.740586 
L 205.882496 220.574794 
L 208.61206 218.156184 
L 211.132117 215.496889 
L 213.410313 212.613155 
L 215.415444 209.525286 
L 217.118031 206.257585 
L 218.49111 202.838259 
L 219.511289 199.299206 
L 220.160054 195.675593 
L 220.425248 192.005139 
L 220.412317 190.164572 
L 220.412317 190.164572 
" clip-path="url(#pefebb2b672)" style="fill: none; stroke: #9aa5b1; stroke-width: 0.6; stroke-linecap: square"/>
   </g>
   <g id="line2d_3">
    <path d="M 218.144005 190.164572 
L 217.831361 186.609132 
L 217.147437 183.103979 
L 216.112524 179.684535 
L 214.757602 176.381237 
L 213.124532 173.217153 
L 211.267934 170.204783 
L 209.270739 167.336969 
L 207.157634 164.614452 
L 204.884894 162.066517 
L 202.446531 159.714813 
L 199.853004 157.575666 
L 197.125248 155.659344 
L 194.291316 153.969177 
L 191.383468 152.501177 
L 188.435401 151.244278 
L 185.479724 150.181178 
L 181.094963 148.900268 
L 175.553311 147.496257 
L 173.081859 146.610703 
L 170.76668 145.560158 
L 167.450529 143.734716 
L 161.888484 140.470409 
L 159.544853 139.278577 
L 157.111848 138.247673 
L 154.594711 137.428402 
L 152.009719 136.856159 
L 149.380447 136.548661 
L 146.733604 136.50536 
L 144.094909 136.70857 
L 141.485459 137.126113 
L 137.653559 138.058798 
L 132.696609 139.615255 
L 126.569194 141.565072 
L 120.282224 143.445453 
L 117.83444 144.465964 
L 115.469467 145.679053 
L 113.205078 147.078895 
L 111.056363 148.655196 
L 109.034841 150.393738 
L 107.147688 152.277098 
L 105.397113 154.28552 
L 103.77995 156.39794 
L 101.583805 159.715343 
L 99.615212 163.153123 
L 97.213159 167.837822 
L 92.386077 177.441851 
L 83.662703 193.993484 
L 82.261504 197.232247 
L 80.996183 200.623801 
L 79.918582 204.155744 
L 79.073454 207.808421 
L 78.488917 211.559277 
L 78.15477 215.394817 
L 78.152436 219.264956 
L 78.309814 221.188241 
L 78.584805 223.090132 
L 78.983897 224.960141 
L 79.511774 226.787677 
L 80.171355 228.562208 
L 80.96382 230.273444 
L 81.888647 231.91151 
L 82.943676 233.467117 
L 84.125186 234.931714 
L 85.428014 236.297625 
L 86.845678 237.558162 
L 88.370541 238.707716 
L 89.993969 239.741816 
L 91.706513 240.657176 
L 93.498095 241.451698 
L 95.358185 242.124471 
L 97.275984 242.675733 
L 99.240591 243.10683 
L 101.241161 243.420148 
L 103.267053 243.619038 
L 107.354 243.691247 
L 111.424821 243.366216 
L 115.412687 242.69626 
L 119.262369 241.740199 
L 122.931173 240.560459 
L 126.389156 239.220439 
L 131.145595 237.04477 
L 135.37917 234.841048 
L 144.515504 229.969202 
L 147.408422 228.789839 
L 149.269292 228.231503 
L 151.117415 227.851899 
L 152.986478 227.640218 
L 155.896346 227.600003 
L 159.013908 227.827878 
L 171.545052 229.105479 
L 175.945522 229.152452 
L 179.006393 228.991088 
L 182.144014 228.64293 
L 185.333066 228.084375 
L 188.545487 227.296104 
L 191.751093 226.263299 
L 194.918163 224.975749 
L 198.013955 223.427852 
L 201.005156 221.618553 
L 203.858253 219.551231 
L 206.539854 217.233578 
L 209.016979 214.67748 
L 211.257379 211.898933 
L 213.229941 208.917984 
L 214.905266 205.758678 
L 216.256455 202.448958 
L 217.26017 199.020457 
L 217.897937 195.508072 
L 218.157625 191.949253 
L 218.144005 190.164572 
L 218.144005 190.164572 
" clip-path="url(#pefebb2b672)" style="fill: none; stroke: #9aa5b1; stroke-width: 0.6; stroke-linecap: square"/>
   </g>
   <g id="line2d_4">
    <path d="M 215.875693 190.164572 
L 215.565802 186.720869 
L 214.890133 183.327182 
L 213.868955 180.018662 
L 212.533216 176.825476 
L 210.92473 173.770425 
L 209.098057 170.865746 
L 206.117641 166.774875 
L 203.969884 164.239791 
L 201.661811 161.888548 
L 199.196692 159.739908 
L 196.590583 157.807055 
L 193.868214 156.09664 
L 191.059945 154.608119 
L 188.198927 153.333676 
L 185.318435 152.258783 
L 181.028036 150.975316 
L 173.041304 148.965594 
L 170.750351 148.05534 
L 168.587328 146.984859 
L 165.447463 145.161045 
L 161.187537 142.627702 
L 158.951025 141.467779 
L 156.626581 140.46347 
L 154.219183 139.665413 
L 151.744842 139.108953 
L 149.226865 138.811768 
L 146.691688 138.773285 
L 144.164762 138.975806 
L 141.666911 139.387155 
L 138.001499 140.300265 
L 133.263422 141.811607 
L 127.401617 143.675122 
L 121.367637 145.437215 
L 119.01665 146.401841 
L 116.745603 147.554344 
L 114.572042 148.889047 
L 112.510834 150.395814 
L 110.57329 152.060595 
L 108.766378 153.866148 
L 107.092115 155.792905 
L 105.547148 157.819999 
L 103.4512 161.003007 
L 101.572604 164.299359 
L 98.713807 169.916811 
L 95.221753 176.794384 
L 91.888988 182.821438 
L 87.414909 190.883195 
L 85.208347 195.397952 
L 83.856043 198.603043 
L 82.660563 201.956513 
L 81.671095 205.442287 
L 80.925866 209.038667 
L 80.434055 212.726882 
L 80.209165 216.485109 
L 80.370497 220.240177 
L 80.621504 222.091585 
L 80.995376 223.911719 
L 81.496812 225.690015 
L 82.128747 227.415973 
L 82.892377 229.079331 
L 83.7872 230.670246 
L 84.81107 232.179454 
L 85.960289 233.598434 
L 87.229711 234.919537 
L 88.612876 236.136104 
L 90.102167 237.242549 
L 91.68897 238.234432 
L 93.363862 239.108489 
L 95.116785 239.862648 
L 96.937234 240.496022 
L 98.814433 241.008875 
L 100.737505 241.402575 
L 102.695633 241.67953 
L 106.674919 241.897578 
L 110.671994 241.700014 
L 114.615072 241.134918 
L 118.443182 240.258381 
L 122.107531 239.131509 
L 125.572054 237.817648 
L 128.813319 236.379906 
L 133.234693 234.122745 
L 138.331021 231.20727 
L 143.631784 228.186399 
L 146.420257 226.869648 
L 148.189053 226.224803 
L 149.927912 225.767092 
L 151.671791 225.488972 
L 153.453416 225.37656 
L 156.260758 225.475958 
L 159.306302 225.829061 
L 167.604908 226.977513 
L 171.684205 227.29514 
L 174.556362 227.359278 
L 177.530588 227.26852 
L 180.585147 226.995152 
L 183.694922 226.515387 
L 186.832043 225.809716 
L 189.96651 224.86312 
L 193.066774 223.665177 
L 196.100255 222.210071 
L 199.033791 220.496519 
L 201.83401 218.527669 
L 204.467648 216.310973 
L 206.901841 213.858071 
L 209.104445 211.18471 
L 211.044438 208.310682 
L 212.6925 205.259771 
L 214.021799 202.059658 
L 215.00905 198.741708 
L 215.635819 195.340552 
L 215.890002 191.893368 
L 215.875693 190.164572 
L 215.875693 190.164572 
" clip-path="url(#pefebb2b672)" style="fill: none; stroke: #9aa5b1; stroke-width: 0.6; stroke-linecap: square"/>
   </g>
   <g id="line2d_5">
    <path d="M 213.607381 190.164572 
L 213.300244 186.832606 
L 212.63283 183.550384 
L 211.625387 180.352788 
L 210.30883 177.269714 
L 208.724928 174.323698 
L 206.928179 171.526709 
L 204.002503 167.594283 
L 201.897678 165.162396 
L 199.637568 162.91211 
L 197.225327 160.861942 
L 194.676882 159.024836 
L 192.016825 157.407211 
L 189.275362 156.008298 
L 186.485483 154.820065 
L 183.680291 153.827771 
L 179.51024 152.661 
L 171.788368 150.856465 
L 169.59208 150.005635 
L 167.526534 148.989842 
L 164.537639 147.238895 
L 160.48659 144.784995 
L 158.357197 143.656982 
L 156.141314 142.679266 
L 153.843656 141.902424 
L 151.479965 141.361746 
L 149.073282 141.074874 
L 146.649772 141.041209 
L 144.234615 141.243042 
L 141.848363 141.648198 
L 138.349439 142.541733 
L 133.830234 144.007959 
L 128.234039 145.785172 
L 122.453051 147.428977 
L 120.19886 148.337718 
L 118.021739 149.429635 
L 115.939005 150.699199 
L 113.965306 152.136432 
L 112.111739 153.727453 
L 110.385069 155.455198 
L 108.787117 157.300289 
L 106.622285 160.24266 
L 104.702705 163.333358 
L 102.416072 167.582314 
L 96.798979 178.49411 
L 93.422726 184.339548 
L 89.683049 190.85525 
L 87.468229 195.202575 
L 86.103557 198.296582 
L 84.890252 201.539711 
L 83.877546 204.916158 
L 83.103722 208.404486 
L 82.578026 211.98619 
L 82.314047 215.639704 
L 82.43118 219.292112 
L 82.658203 221.093039 
L 83.006855 222.863296 
L 83.48185 224.592353 
L 84.086139 226.269738 
L 84.820935 227.885219 
L 85.685752 229.428981 
L 86.678465 230.891791 
L 87.795392 232.265154 
L 89.031408 233.54145 
L 90.380074 234.714045 
L 91.833792 235.777383 
L 93.383972 236.727047 
L 95.021212 237.559801 
L 96.735476 238.273598 
L 98.516283 238.867574 
L 100.352882 239.342018 
L 102.23442 239.69832 
L 104.150105 239.938912 
L 108.041882 240.087426 
L 111.94813 239.824723 
L 115.797282 239.199041 
L 119.528596 238.266619 
L 123.093512 237.088698 
L 126.45621 235.728747 
L 129.593502 234.249987 
L 133.855446 231.941025 
L 138.734079 228.975055 
L 143.757474 225.921572 
L 146.378341 224.601724 
L 148.03547 223.961696 
L 149.663035 223.514299 
L 151.296263 223.251961 
L 152.968149 223.160763 
L 155.613174 223.30205 
L 158.499938 223.708916 
L 167.725881 225.18612 
L 171.761757 225.517842 
L 174.599071 225.576676 
L 177.531527 225.470561 
L 180.535826 225.17352 
L 183.585594 224.663684 
L 186.652006 223.923571 
L 189.704397 222.940251 
L 192.71081 221.705395 
L 195.638479 220.215243 
L 198.454239 218.470516 
L 201.124872 216.476292 
L 203.617398 214.241887 
L 205.899379 211.780757 
L 207.939271 209.110423 
L 209.706905 206.252424 
L 211.174162 203.232248 
L 212.315895 200.079192 
L 213.111114 196.826053 
L 213.544393 193.50858 
L 213.607381 190.164572 
L 213.607381 190.164572 
" clip-path="url(#pefebb2b672)" style="fill: none; stroke: #9aa5b1; stroke-width: 0.6; stroke-linecap: square"/>
   </g>
   <g id="line2d_6">
    <path d="M 211.339069 190.164572 
L 211.034686 186.944343 
L 210.375526 183.773587 
L 209.381819 180.686914 
L 208.084445 177.713953 
L 206.525126 174.87697 
L 204.758302 172.187671 
L 201.887365 168.413692 
L 199.825472 166.085002 
L 197.613325 163.935673 
L 195.253962 161.983976 
L 192.763182 160.242616 
L 190.165435 158.717782 
L 187.490779 157.408478 
L 184.77204 156.306453 
L 182.042147 155.396759 
L 177.992443 154.346684 
L 170.535432 152.747335 
L 168.43381 151.955929 
L 166.465741 150.994825 
L 163.627816 149.316745 
L 158.7849 146.379767 
L 156.720358 145.349026 
L 154.571413 144.490216 
L 152.348448 143.846617 
L 150.071092 143.444836 
L 147.764208 143.293325 
L 145.453692 143.38267 
L 143.162546 143.68751 
L 140.907628 144.169823 
L 137.609042 145.123419 
L 127.975411 148.189652 
L 123.538464 149.420739 
L 121.38107 150.273594 
L 119.297875 151.304926 
L 117.305968 152.509351 
L 115.419778 153.877049 
L 113.650187 155.394311 
L 112.003759 157.044248 
L 110.482119 158.807673 
L 108.423982 161.620748 
L 106.601257 164.574623 
L 104.427551 168.630736 
L 99.607391 177.955046 
L 96.384017 183.43436 
L 91.951189 190.827305 
L 89.728111 195.007199 
L 88.351072 197.990121 
L 87.119942 201.12291 
L 86.083997 204.390028 
L 85.281577 207.770306 
L 84.721998 211.245499 
L 84.41893 214.7943 
L 84.491862 218.344048 
L 84.694903 220.094492 
L 85.018335 221.814874 
L 85.466889 223.494691 
L 86.043531 225.123502 
L 86.749493 226.691107 
L 87.584305 228.187716 
L 88.545859 229.604127 
L 89.630495 230.931873 
L 90.833105 232.163362 
L 92.147272 233.291986 
L 93.565417 234.312216 
L 95.078974 235.219663 
L 96.678561 236.011114 
L 98.354166 236.684548 
L 100.095332 237.239126 
L 101.891331 237.67516 
L 103.731335 237.994065 
L 105.604577 238.198294 
L 109.408845 238.277274 
L 113.224266 237.949432 
L 116.979492 237.263164 
L 120.614009 236.274857 
L 124.079494 235.045886 
L 127.340366 233.639846 
L 130.373685 232.120069 
L 134.476199 229.759304 
L 139.137138 226.74284 
L 143.883165 223.656745 
L 146.336425 222.333799 
L 147.881888 221.69859 
L 149.398158 221.261505 
L 150.920735 221.01495 
L 152.482882 220.944966 
L 154.96559 221.128143 
L 157.693574 221.58877 
L 166.519911 223.264955 
L 170.417198 223.690987 
L 173.166153 223.818271 
L 176.01373 223.784877 
L 178.936835 223.564649 
L 181.909291 223.135532 
L 184.902462 222.479849 
L 187.885859 221.584464 
L 190.827693 220.440835 
L 193.695356 219.044981 
L 196.455829 217.397392 
L 199.076026 215.502912 
L 201.52309 213.370615 
L 203.764695 211.013708 
L 205.769394 208.44946 
L 207.507103 205.699152 
L 208.949777 202.78801 
L 210.072327 199.745065 
L 210.85381 196.602851 
L 211.278835 193.396843 
L 211.339069 190.164572 
L 211.339069 190.164572 
" clip-path="url(#pefebb2b672)" style="fill: none; stroke: #9aa5b1; stroke-width: 0.6; stroke-linecap: square"/>
   </g>
   <g id="line2d_7">
    <path d="M 209.070757 190.164572 
L 208.769128 187.05608 
L 208.118223 183.996789 
L 207.13825 181.02104 
L 205.860059 178.158191 
L 204.325324 175.430243 
L 202.588425 172.848634 
L 199.772227 169.233101 
L 197.753266 167.007608 
L 195.589082 164.959235 
L 193.282598 163.106009 
L 190.849482 161.460397 
L 188.314046 160.028354 
L 185.706196 158.808657 
L 183.058596 157.792841 
L 180.404003 156.965747 
L 176.474646 156.032369 
L 169.282496 154.638205 
L 167.275539 153.906223 
L 165.404948 152.999808 
L 162.717993 151.394595 
L 158.137316 148.553674 
L 156.180647 147.552194 
L 154.140884 146.717296 
L 152.028148 146.092201 
L 149.861799 145.703471 
L 147.666429 145.559528 
L 145.467665 145.650938 
L 143.288236 145.952336 
L 140.089371 146.712587 
L 135.973283 148.049483 
L 130.925571 149.715737 
L 126.737235 150.789713 
L 124.623878 151.412501 
L 122.56328 152.209471 
L 120.574011 153.180217 
L 118.672932 154.319503 
L 116.87425 155.617667 
L 115.188636 157.061168 
L 113.622449 158.633298 
L 112.177121 160.315058 
L 110.225679 162.998836 
L 108.49981 165.815887 
L 106.439031 169.679159 
L 102.367414 177.534149 
L 99.967433 181.607847 
L 92.718742 193.434927 
L 91.279034 196.228268 
L 89.95331 199.176838 
L 88.793558 202.26931 
L 87.844729 205.487096 
L 87.135196 208.808698 
L 86.655059 212.221662 
L 86.486096 215.676929 
L 86.552545 217.395983 
L 86.731602 219.095945 
L 87.029814 220.766451 
L 87.451927 222.397029 
L 88.000924 223.977267 
L 88.678051 225.496994 
L 89.482857 226.946452 
L 90.413254 228.316464 
L 91.465598 229.598593 
L 92.634803 230.785274 
L 93.91447 231.869927 
L 95.297043 232.84705 
L 96.773976 233.712279 
L 98.33591 234.462426 
L 99.972857 235.095498 
L 101.674381 235.610678 
L 103.429779 236.008303 
L 105.22825 236.28981 
L 107.059048 236.457676 
L 110.775809 236.467122 
L 114.500402 236.074141 
L 118.161702 235.327287 
L 121.699423 234.283094 
L 125.065476 233.003074 
L 128.224522 231.550945 
L 131.153869 229.99015 
L 135.096952 227.577583 
L 139.540196 224.510626 
L 144.008855 221.391918 
L 146.294509 220.065874 
L 147.728305 219.435483 
L 149.133281 219.008711 
L 150.545208 218.777939 
L 151.997615 218.72917 
L 154.318006 218.954235 
L 156.88721 219.468625 
L 165.313942 221.343789 
L 169.072638 221.864131 
L 171.733235 222.059867 
L 174.495933 222.099193 
L 177.337844 221.955778 
L 180.232988 221.60738 
L 183.152917 221.036127 
L 186.067321 220.228677 
L 188.944577 219.176275 
L 191.752234 217.874718 
L 194.457418 216.324269 
L 197.027179 214.529533 
L 199.428782 212.499344 
L 201.630011 210.24666 
L 203.599516 207.788497 
L 205.307301 205.145879 
L 206.725391 202.343771 
L 207.828759 199.410939 
L 208.596507 196.379648 
L 209.013277 193.285106 
L 209.070757 190.164572 
L 209.070757 190.164572 
" clip-path="url(#pefebb2b672)" style="fill: none; stroke: #9aa5b1; stroke-width: 0.6; stroke-linecap: square"/>
   </g>
   <g id="line2d_8">
    <path d="M 206.802445 190.164572 
L 206.50357 187.167817 
L 205.860919 184.219992 
L 204.894682 181.355166 
L 203.635674 178.60243 
L 202.125522 175.983515 
L 200.418548 173.509597 
L 197.657089 170.05251 
L 195.68106 167.930213 
L 193.564839 165.982797 
L 191.311233 164.228043 
L 188.935781 162.678178 
L 186.462657 161.338925 
L 183.921613 160.208837 
L 181.345152 159.279229 
L 178.765858 158.534734 
L 174.956849 157.718053 
L 168.02956 156.529075 
L 166.117268 155.856518 
L 164.344154 155.004791 
L 161.808169 153.472445 
L 157.489732 150.727582 
L 155.640935 149.755363 
L 153.710356 148.944375 
L 151.707849 148.337785 
L 149.652506 147.962107 
L 147.56865 147.825732 
L 145.481637 147.919207 
L 143.413927 148.217163 
L 140.381981 148.961946 
L 136.485811 150.259133 
L 131.705755 151.845656 
L 127.723216 152.832524 
L 125.709291 153.404264 
L 123.74549 154.145348 
L 121.850147 155.055508 
L 120.039895 156.129655 
L 118.328722 157.358285 
L 116.727085 158.728026 
L 115.24114 160.222348 
L 113.230397 162.6559 
L 111.463001 165.259516 
L 109.893123 167.967967 
L 107.047467 173.504838 
L 104.54527 178.168329 
L 102.197123 182.024648 
L 94.982752 193.295288 
L 93.533417 195.977273 
L 92.192591 198.815097 
L 91.012302 201.797701 
L 90.037548 204.906765 
L 89.296766 208.121053 
L 88.780131 211.428373 
L 88.569511 214.779922 
L 88.613227 216.447919 
L 88.768301 218.097399 
L 89.041293 219.718028 
L 89.436965 221.299367 
L 89.958316 222.831032 
L 90.606608 224.302882 
L 91.381409 225.705187 
L 92.280648 227.028801 
L 93.300701 228.265313 
L 94.4365 229.407186 
L 95.681667 230.447868 
L 97.028668 231.381884 
L 98.468978 232.204894 
L 99.993259 232.913739 
L 101.591547 233.506447 
L 103.25343 233.982229 
L 104.968228 234.341445 
L 106.725164 234.585555 
L 110.322783 234.739417 
L 113.963754 234.474842 
L 117.572552 233.835403 
L 121.083467 232.874181 
L 124.442429 231.650702 
L 127.607937 230.228041 
L 130.551268 228.670187 
L 133.256101 227.039725 
L 136.858714 224.586077 
L 142.578742 220.259733 
L 144.864768 218.633021 
L 146.919527 217.458821 
L 148.222825 216.938324 
L 149.515917 216.623979 
L 150.833838 216.504819 
L 152.208959 216.564027 
L 154.441778 216.940132 
L 157.860477 217.840981 
L 162.971825 219.176336 
L 166.487637 219.857431 
L 170.300318 220.301463 
L 172.978136 220.413509 
L 175.738853 220.346907 
L 178.556685 220.079228 
L 181.403373 219.592404 
L 184.248783 218.87289 
L 187.061461 217.911715 
L 189.809111 216.704456 
L 192.459008 215.251145 
L 194.978333 213.556154 
L 197.334475 211.628072 
L 199.495327 209.479611 
L 201.429639 207.127534 
L 203.107499 204.592607 
L 204.501006 201.899533 
L 205.58519 199.076813 
L 206.339203 196.156446 
L 206.747718 193.173369 
L 206.802445 190.164572 
L 206.802445 190.164572 
" clip-path="url(#pefebb2b672)" style="fill: none; stroke: #9aa5b1; stroke-width: 0.6; stroke-linecap: square"/>
   </g>
   <g id="matplotlib.axis_1">
    <g id="xtick_1">
     <g id="line2d_9">
      <defs>
       <path id="me0c8fc0edd" d="M 0 0 
L 0 3.5 
" style="stroke: #000000; stroke-width: 0.8"/>
      </defs>
      <g>
       <use xlink:href="#me0c8fc0edd" x="89.464593" y="431.465946" style="stroke: #000000; stroke-width: 0.8"/>
      </g>
     </g>
     <g id="text_1">
      <!-- −500 -->
      <g transform="translate(79.851078 443.784305) scale(0.07 -0.07)">
       <defs>
        <path id="DejaVuSans-c9c" d="M 678 2272 
L 4684 2272 
L 4684 1741 
L 678 1741 
L 678 2272 
z
" transform="scale(0.015625)"/>
        <path id="DejaVuSans-18" d="M 691 4666 
L 3169 4666 
L 3169 4134 
L 1269 4134 
L 1269 2991 
Q 1406 3038 1543 3061 
Q 1681 3084 1819 3084 
Q 2600 3084 3056 2656 
Q 3513 2228 3513 1497 
Q 3513 744 3044 326 
Q 2575 -91 1722 -91 
Q 1428 -91 1123 -41 
Q 819 9 494 109 
L 494 744 
Q 775 591 1075 516 
Q 1375 441 1709 441 
Q 2250 441 2565 725 
Q 2881 1009 2881 1497 
Q 2881 1984 2565 2268 
Q 2250 2553 1709 2553 
Q 1456 2553 1204 2497 
Q 953 2441 691 2322 
L 691 4666 
z
" transform="scale(0.015625)"/>
        <path id="DejaVuSans-13" d="M 2034 4250 
Q 1547 4250 1301 3770 
Q 1056 3291 1056 2328 
Q 1056 1369 1301 889 
Q 1547 409 2034 409 
Q 2525 409 2770 889 
Q 3016 1369 3016 2328 
Q 3016 3291 2770 3770 
Q 2525 4250 2034 4250 
z
M 2034 4750 
Q 2819 4750 3233 4129 
Q 3647 3509 3647 2328 
Q 3647 1150 3233 529 
Q 2819 -91 2034 -91 
Q 1250 -91 836 529 
Q 422 1150 422 2328 
Q 422 3509 836 4129 
Q 1250 4750 2034 4750 
z
" transform="scale(0.015625)"/>
       </defs>
       <use xlink:href="#DejaVuSans-c9c"/>
       <use xlink:href="#DejaVuSans-18" transform="translate(83.796875 0)"/>
       <use xlink:href="#DejaVuSans-13" transform="translate(147.421875 0)"/>
       <use xlink:href="#DejaVuSans-13" transform="translate(211.046875 0)"/>
      </g>
     </g>
    </g>
    <g id="xtick_2">
     <g id="line2d_10">
      <g>
       <use xlink:href="#me0c8fc0edd" x="145.741871" y="431.465946" style="stroke: #000000; stroke-width: 0.8"/>
      </g>
     </g>
     <g id="text_2">
      <!-- 0 -->
      <g transform="translate(143.514996 443.784305) scale(0.07 -0.07)">
       <use xlink:href="#DejaVuSans-13"/>
      </g>
     </g>
    </g>
    <g id="xtick_3">
     <g id="line2d_11">
      <g>
       <use xlink:href="#me0c8fc0edd" x="202.019149" y="431.465946" style="stroke: #000000; stroke-width: 0.8"/>
      </g>
     </g>
     <g id="text_3">
      <!-- 500 -->
      <g transform="translate(195.338524 443.784305) scale(0.07 -0.07)">
       <use xlink:href="#DejaVuSans-18"/>
       <use xlink:href="#DejaVuSans-13" transform="translate(63.625 0)"/>
       <use xlink:href="#DejaVuSans-13" transform="translate(127.25 0)"/>
      </g>
     </g>
    </g>
    <g id="xtick_4">
     <g id="line2d_12">
      <g>
       <use xlink:href="#me0c8fc0edd" x="258.296427" y="431.465946" style="stroke: #000000; stroke-width: 0.8"/>
      </g>
     </g>
     <g id="text_4">
      <!-- 1000 -->
      <g transform="translate(249.388927 443.784305) scale(0.07 -0.07)">
       <defs>
        <path id="DejaVuSans-14" d="M 794 531 
L 1825 531 
L 1825 4091 
L 703 3866 
L 703 4441 
L 1819 4666 
L 2450 4666 
L 2450 531 
L 3481 531 
L 3481 0 
L 794 0 
L 794 531 
z
" transform="scale(0.015625)"/>
       </defs>
       <use xlink:href="#DejaVuSans-14"/>
       <use xlink:href="#DejaVuSans-13" transform="translate(63.625 0)"/>
       <use xlink:href="#DejaVuSans-13" transform="translate(127.25 0)"/>
       <use xlink:href="#DejaVuSans-13" transform="translate(190.875 0)"/>
      </g>
     </g>
    </g>
    <g id="xtick_5">
     <g id="line2d_13">
      <g>
       <use xlink:href="#me0c8fc0edd" x="314.573705" y="431.465946" style="stroke: #000000; stroke-width: 0.8"/>
      </g>
     </g>
     <g id="text_5">
      <!-- 1500 -->
      <g transform="translate(305.666205 443.784305) scale(0.07 -0.07)">
       <use xlink:href="#DejaVuSans-14"/>
       <use xlink:href="#DejaVuSans-18" transform="translate(63.625 0)"/>
       <use xlink:href="#DejaVuSans-13" transform="translate(127.25 0)"/>
       <use xlink:href="#DejaVuSans-13" transform="translate(190.875 0)"/>
      </g>
     </g>
    </g>
    <g id="xtick_6">
     <g id="line2d_14">
      <g>
       <use xlink:href="#me0c8fc0edd" x="370.850983" y="431.465946" style="stroke: #000000; stroke-width: 0.8"/>
      </g>
     </g>
     <g id="text_6">
      <!-- 2000 -->
      <g transform="translate(361.943483 443.784305) scale(0.07 -0.07)">
       <defs>
        <path id="DejaVuSans-15" d="M 1228 531 
L 3431 531 
L 3431 0 
L 469 0 
L 469 531 
Q 828 903 1448 1529 
Q 2069 2156 2228 2338 
Q 2531 2678 2651 2914 
Q 2772 3150 2772 3378 
Q 2772 3750 2511 3984 
Q 2250 4219 1831 4219 
Q 1534 4219 1204 4116 
Q 875 4013 500 3803 
L 500 4441 
Q 881 4594 1212 4672 
Q 1544 4750 1819 4750 
Q 2544 4750 2975 4387 
Q 3406 4025 3406 3419 
Q 3406 3131 3298 2873 
Q 3191 2616 2906 2266 
Q 2828 2175 2409 1742 
Q 1991 1309 1228 531 
z
" transform="scale(0.015625)"/>
       </defs>
       <use xlink:href="#DejaVuSans-15"/>
       <use xlink:href="#DejaVuSans-13" transform="translate(63.625 0)"/>
       <use xlink:href="#DejaVuSans-13" transform="translate(127.25 0)"/>
       <use xlink:href="#DejaVuSans-13" transform="translate(190.875 0)"/>
      </g>
     </g>
    </g>
    <g id="xtick_7">
     <g id="line2d_15">
      <g>
       <use xlink:href="#me0c8fc0edd" x="427.128261" y="431.465946" style="stroke: #000000; stroke-width: 0.8"/>
      </g>
     </g>
     <g id="text_7">
      <!-- 2500 -->
      <g transform="translate(418.220761 443.784305) scale(0.07 -0.07)">
       <use xlink:href="#DejaVuSans-15"/>
       <use xlink:href="#DejaVuSans-18" transform="translate(63.625 0)"/>
       <use xlink:href="#DejaVuSans-13" transform="translate(127.25 0)"/>
       <use xlink:href="#DejaVuSans-13" transform="translate(190.875 0)"/>
      </g>
     </g>
    </g>
    <g id="xtick_8">
     <g id="line2d_16">
      <g>
       <use xlink:href="#me0c8fc0edd" x="483.405539" y="431.465946" style="stroke: #000000; stroke-width: 0.8"/>
      </g>
     </g>
     <g id="text_8">
      <!-- 3000 -->
      <g transform="translate(474.498039 443.784305) scale(0.07 -0.07)">
       <defs>
        <path id="DejaVuSans-16" d="M 2597 2516 
Q 3050 2419 3304 2112 
Q 3559 1806 3559 1356 
Q 3559 666 3084 287 
Q 2609 -91 1734 -91 
Q 1441 -91 1130 -33 
Q 819 25 488 141 
L 488 750 
Q 750 597 1062 519 
Q 1375 441 1716 441 
Q 2309 441 2620 675 
Q 2931 909 2931 1356 
Q 2931 1769 2642 2001 
Q 2353 2234 1838 2234 
L 1294 2234 
L 1294 2753 
L 1863 2753 
Q 2328 2753 2575 2939 
Q 2822 3125 2822 3475 
Q 2822 3834 2567 4026 
Q 2313 4219 1838 4219 
Q 1578 4219 1281 4162 
Q 984 4106 628 3988 
L 628 4550 
Q 988 4650 1302 4700 
Q 1616 4750 1894 4750 
Q 2613 4750 3031 4423 
Q 3450 4097 3450 3541 
Q 3450 3153 3228 2886 
Q 3006 2619 2597 2516 
z
" transform="scale(0.015625)"/>
       </defs>
       <use xlink:href="#DejaVuSans-16"/>
       <use xlink:href="#DejaVuSans-13" transform="translate(63.625 0)"/>
       <use xlink:href="#DejaVuSans-13" transform="translate(127.25 0)"/>
       <use xlink:href="#DejaVuSans-13" transform="translate(190.875 0)"/>
      </g>
     </g>
    </g>
    <g id="text_9">
     <!-- east [m] -->
     <g transform="translate(263.567813 455.544696) scale(0.08 -0.08)">
      <defs>
       <path id="DejaVuSans-48" d="M 3597 1894 
L 3597 1613 
L 953 1613 
Q 991 1019 1311 708 
Q 1631 397 2203 397 
Q 2534 397 2845 478 
Q 3156 559 3463 722 
L 3463 178 
Q 3153 47 2828 -22 
Q 2503 -91 2169 -91 
Q 1331 -91 842 396 
Q 353 884 353 1716 
Q 353 2575 817 3079 
Q 1281 3584 2069 3584 
Q 2775 3584 3186 3129 
Q 3597 2675 3597 1894 
z
M 3022 2063 
Q 3016 2534 2758 2815 
Q 2500 3097 2075 3097 
Q 1594 3097 1305 2825 
Q 1016 2553 972 2059 
L 3022 2063 
z
" transform="scale(0.015625)"/>
       <path id="DejaVuSans-44" d="M 2194 1759 
Q 1497 1759 1228 1600 
Q 959 1441 959 1056 
Q 959 750 1161 570 
Q 1363 391 1709 391 
Q 2188 391 2477 730 
Q 2766 1069 2766 1631 
L 2766 1759 
L 2194 1759 
z
M 3341 1997 
L 3341 0 
L 2766 0 
L 2766 531 
Q 2569 213 2275 61 
Q 1981 -91 1556 -91 
Q 1019 -91 701 211 
Q 384 513 384 1019 
Q 384 1609 779 1909 
Q 1175 2209 1959 2209 
L 2766 2209 
L 2766 2266 
Q 2766 2663 2505 2880 
Q 2244 3097 1772 3097 
Q 1472 3097 1187 3025 
Q 903 2953 641 2809 
L 641 3341 
Q 956 3463 1253 3523 
Q 1550 3584 1831 3584 
Q 2591 3584 2966 3190 
Q 3341 2797 3341 1997 
z
" transform="scale(0.015625)"/>
       <path id="DejaVuSans-56" d="M 2834 3397 
L 2834 2853 
Q 2591 2978 2328 3040 
Q 2066 3103 1784 3103 
Q 1356 3103 1142 2972 
Q 928 2841 928 2578 
Q 928 2378 1081 2264 
Q 1234 2150 1697 2047 
L 1894 2003 
Q 2506 1872 2764 1633 
Q 3022 1394 3022 966 
Q 3022 478 2636 193 
Q 2250 -91 1575 -91 
Q 1294 -91 989 -36 
Q 684 19 347 128 
L 347 722 
Q 666 556 975 473 
Q 1284 391 1588 391 
Q 1994 391 2212 530 
Q 2431 669 2431 922 
Q 2431 1156 2273 1281 
Q 2116 1406 1581 1522 
L 1381 1569 
Q 847 1681 609 1914 
Q 372 2147 372 2553 
Q 372 3047 722 3315 
Q 1072 3584 1716 3584 
Q 2034 3584 2315 3537 
Q 2597 3491 2834 3397 
z
" transform="scale(0.015625)"/>
       <path id="DejaVuSans-57" d="M 1172 4494 
L 1172 3500 
L 2356 3500 
L 2356 3053 
L 1172 3053 
L 1172 1153 
Q 1172 725 1289 603 
Q 1406 481 1766 481 
L 2356 481 
L 2356 0 
L 1766 0 
Q 1100 0 847 248 
Q 594 497 594 1153 
L 594 3053 
L 172 3053 
L 172 3500 
L 594 3500 
L 594 4494 
L 1172 4494 
z
" transform="scale(0.015625)"/>
       <path id="DejaVuSans-3" transform="scale(0.015625)"/>
       <path id="DejaVuSans-3e" d="M 550 4863 
L 1875 4863 
L 1875 4416 
L 1125 4416 
L 1125 -397 
L 1875 -397 
L 1875 -844 
L 550 -844 
L 550 4863 
z
" transform="scale(0.015625)"/>
       <path id="DejaVuSans-50" d="M 3328 2828 
Q 3544 3216 3844 3400 
Q 4144 3584 4550 3584 
Q 5097 3584 5394 3201 
Q 5691 2819 5691 2113 
L 5691 0 
L 5113 0 
L 5113 2094 
Q 5113 2597 4934 2840 
Q 4756 3084 4391 3084 
Q 3944 3084 3684 2787 
Q 3425 2491 3425 1978 
L 3425 0 
L 2847 0 
L 2847 2094 
Q 2847 2600 2669 2842 
Q 2491 3084 2119 3084 
Q 1678 3084 1418 2786 
Q 1159 2488 1159 1978 
L 1159 0 
L 581 0 
L 581 3500 
L 1159 3500 
L 1159 2956 
Q 1356 3278 1631 3431 
Q 1906 3584 2284 3584 
Q 2666 3584 2933 3390 
Q 3200 3197 3328 2828 
z
" transform="scale(0.015625)"/>
       <path id="DejaVuSans-40" d="M 1947 4863 
L 1947 -844 
L 622 -844 
L 622 -397 
L 1369 -397 
L 1369 4416 
L 622 4416 
L 622 4863 
L 1947 4863 
z
" transform="scale(0.015625)"/>
      </defs>
      <use xlink:href="#DejaVuSans-48"/>
      <use xlink:href="#DejaVuSans-44" transform="translate(61.53125 0)"/>
      <use xlink:href="#DejaVuSans-56" transform="translate(122.8125 0)"/>
      <use xlink:href="#DejaVuSans-57" transform="translate(174.90625 0)"/>
      <use xlink:href="#DejaVuSans-3" transform="translate(214.109375 0)"/>
      <use xlink:href="#DejaVuSans-3e" transform="translate(245.890625 0)"/>
      <use xlink:href="#DejaVuSans-50" transform="translate(284.90625 0)"/>
      <use xlink:href="#DejaVuSans-40" transform="translate(382.3125 0)"/>
     </g>
    </g>
   </g>
   <g id="matplotlib.axis_2">
    <g id="ytick_1">
     <g id="line2d_17">
      <defs>
       <path id="m52098a3d94" d="M 0 0 
L -3.5 0 
" style="stroke: #000000; stroke-width: 0.8"/>
      </defs>
      <g>
       <use xlink:href="#m52098a3d94" x="53.241875" y="415.273684" style="stroke: #000000; stroke-width: 0.8"/>
      </g>
     </g>
     <g id="text_10">
      <!-- −2000 -->
      <g transform="translate(22.561094 417.932864) scale(0.07 -0.07)">
       <use xlink:href="#DejaVuSans-c9c"/>
       <use xlink:href="#DejaVuSans-15" transform="translate(83.796875 0)"/>
       <use xlink:href="#DejaVuSans-13" transform="translate(147.421875 0)"/>
       <use xlink:href="#DejaVuSans-13" transform="translate(211.046875 0)"/>
       <use xlink:href="#DejaVuSans-13" transform="translate(274.671875 0)"/>
      </g>
     </g>
    </g>
    <g id="ytick_2">
     <g id="line2d_18">
      <g>
       <use xlink:href="#m52098a3d94" x="53.241875" y="358.996406" style="stroke: #000000; stroke-width: 0.8"/>
      </g>
     </g>
     <g id="text_11">
      <!-- −1500 -->
      <g transform="translate(22.561094 361.655586) scale(0.07 -0.07)">
       <use xlink:href="#DejaVuSans-c9c"/>
       <use xlink:href="#DejaVuSans-14" transform="translate(83.796875 0)"/>
       <use xlink:href="#DejaVuSans-18" transform="translate(147.421875 0)"/>
       <use xlink:href="#DejaVuSans-13" transform="translate(211.046875 0)"/>
       <use xlink:href="#DejaVuSans-13" transform="translate(274.671875 0)"/>
      </g>
     </g>
    </g>
    <g id="ytick_3">
     <g id="line2d_19">
      <g>
       <use xlink:href="#m52098a3d94" x="53.241875" y="302.719128" style="stroke: #000000; stroke-width: 0.8"/>
      </g>
     </g>
     <g id="text_12">
      <!-- −1000 -->
      <g transform="translate(22.561094 305.378308) scale(0.07 -0.07)">
       <use xlink:href="#DejaVuSans-c9c"/>
       <use xlink:href="#DejaVuSans-14" transform="translate(83.796875 0)"/>
       <use xlink:href="#DejaVuSans-13" transform="translate(147.421875 0)"/>
       <use xlink:href="#DejaVuSans-13" transform="translate(211.046875 0)"/>
       <use xlink:href="#DejaVuSans-13" transform="translate(274.671875 0)"/>
      </g>
     </g>
    </g>
    <g id="ytick_4">
     <g id="line2d_20">
      <g>
       <use xlink:href="#m52098a3d94" x="53.241875" y="246.44185" style="stroke: #000000; stroke-width: 0.8"/>
      </g>
     </g>
     <g id="text_13">
      <!-- −500 -->
      <g transform="translate(27.014844 249.10103) scale(0.07 -0.07)">
       <use xlink:href="#DejaVuSans-c9c"/>
       <use xlink:href="#DejaVuSans-18" transform="translate(83.796875 0)"/>
       <use xlink:href="#DejaVuSans-13" transform="translate(147.421875 0)"/>
       <use xlink:href="#DejaVuSans-13" transform="translate(211.046875 0)"/>
      </g>
     </g>
    </g>
    <g id="ytick_5">
     <g id="line2d_21">
      <g>
       <use xlink:href="#m52098a3d94" x="53.241875" y="190.164572" style="stroke: #000000; stroke-width: 0.8"/>
      </g>
     </g>
     <g id="text_14">
      <!-- 0 -->
      <g transform="translate(41.788125 192.823752) scale(0.07 -0.07)">
       <use xlink:href="#DejaVuSans-13"/>
      </g>
     </g>
    </g>
    <g id="ytick_6">
     <g id="line2d_22">
      <g>
       <use xlink:href="#m52098a3d94" x="53.241875" y="133.887294" style="stroke: #000000; stroke-width: 0.8"/>
      </g>
     </g>
     <g id="text_15">
      <!-- 500 -->
      <g transform="translate(32.880625 136.546474) scale(0.07 -0.07)">
       <use xlink:href="#DejaVuSans-18"/>
       <use xlink:href="#DejaVuSans-13" transform="translate(63.625 0)"/>
       <use xlink:href="#DejaVuSans-13" transform="translate(127.25 0)"/>
      </g>
     </g>
    </g>
    <g id="text_16">
     <!-- north [m] -->
     <g transform="translate(16.639219 278.21875) rotate(-90) scale(0.08 -0.08)">
      <defs>
       <path id="DejaVuSans-51" d="M 3513 2113 
L 3513 0 
L 2938 0 
L 2938 2094 
Q 2938 2591 2744 2837 
Q 2550 3084 2163 3084 
Q 1697 3084 1428 2787 
Q 1159 2491 1159 1978 
L 1159 0 
L 581 0 
L 581 3500 
L 1159 3500 
L 1159 2956 
Q 1366 3272 1645 3428 
Q 1925 3584 2291 3584 
Q 2894 3584 3203 3211 
Q 3513 2838 3513 2113 
z
" transform="scale(0.015625)"/>
       <path id="DejaVuSans-52" d="M 1959 3097 
Q 1497 3097 1228 2736 
Q 959 2375 959 1747 
Q 959 1119 1226 758 
Q 1494 397 1959 397 
Q 2419 397 2687 759 
Q 2956 1122 2956 1747 
Q 2956 2369 2687 2733 
Q 2419 3097 1959 3097 
z
M 1959 3584 
Q 2709 3584 3137 3096 
Q 3566 2609 3566 1747 
Q 3566 888 3137 398 
Q 2709 -91 1959 -91 
Q 1206 -91 779 398 
Q 353 888 353 1747 
Q 353 2609 779 3096 
Q 1206 3584 1959 3584 
z
" transform="scale(0.015625)"/>
       <path id="DejaVuSans-55" d="M 2631 2963 
Q 2534 3019 2420 3045 
Q 2306 3072 2169 3072 
Q 1681 3072 1420 2755 
Q 1159 2438 1159 1844 
L 1159 0 
L 581 0 
L 581 3500 
L 1159 3500 
L 1159 2956 
Q 1341 3275 1631 3429 
Q 1922 3584 2338 3584 
Q 2397 3584 2469 3576 
Q 2541 3569 2628 3553 
L 2631 2963 
z
" transform="scale(0.015625)"/>
       <path id="DejaVuSans-4b" d="M 3513 2113 
L 3513 0 
L 2938 0 
L 2938 2094 
Q 2938 2591 2744 2837 
Q 2550 3084 2163 3084 
Q 1697 3084 1428 2787 
Q 1159 2491 1159 1978 
L 1159 0 
L 581 0 
L 581 4863 
L 1159 4863 
L 1159 2956 
Q 1366 3272 1645 3428 
Q 1925 3584 2291 3584 
Q 2894 3584 3203 3211 
Q 3513 2838 3513 2113 
z
" transform="scale(0.015625)"/>
      </defs>
      <use xlink:href="#DejaVuSans-51"/>
      <use xlink:href="#DejaVuSans-52" transform="translate(63.375 0)"/>
      <use xlink:href="#DejaVuSans-55" transform="translate(124.5625 0)"/>
      <use xlink:href="#DejaVuSans-57" transform="translate(165.671875 0)"/>
      <use xlink:href="#DejaVuSans-4b" transform="translate(204.875 0)"/>
      <use xlink:href="#DejaVuSans-3" transform="translate(268.25 0)"/>
      <use xlink:href="#DejaVuSans-3e" transform="translate(300.03125 0)"/>
      <use xlink:href="#DejaVuSans-50" transform="translate(339.046875 0)"/>
      <use xlink:href="#DejaVuSans-40" transform="translate(436.453125 0)"/>
     </g>
    </g>
   </g>
   <g id="line2d_23">
    <path d="M 212.508781 176.781337 
L 210.861238 173.667125 
L 208.989081 170.70956 
L 206.981239 167.899741 
L 204.854008 165.241406 
L 202.564292 162.76494 
L 200.107843 160.492515 
L 197.497191 158.440513 
L 194.755684 156.618607 
L 191.913889 155.028854 
L 189.006401 153.665374 
L 186.068821 152.514744 
L 183.135026 151.557051 
L 180.234948 150.767399 
L 177.392964 150.117682 
L 174.698141 149.478383 
L 172.237337 148.667198 
L 169.952283 147.677684 
L 167.77651 146.532351 
L 165.645177 145.276487 
L 163.501995 143.971827 
L 161.304144 142.689122 
L 159.024943 141.500434 
L 156.654304 140.471906 
L 154.197216 139.657648 
L 151.670666 139.095223 
L 149.099516 138.803021 
L 146.511882 138.779651 
L 143.934594 139.00526 
L 141.389215 139.444555 
L 138.889042 140.051128 
L 136.437347 140.772605 
" clip-path="url(#pefebb2b672)" style="fill: none; stroke: #0369a1; stroke-width: 1.4; stroke-linecap: square"/>
   </g>
   <g id="line2d_24">
    <path d="M 160.318697 152.488351 
L 158.449073 151.293108 
L 156.496247 150.179866 
L 154.447793 149.22594 
L 152.309888 148.493193 
" clip-path="url(#pefebb2b672)" style="fill: none; stroke: #0369a1; stroke-width: 1.4; stroke-linecap: square"/>
   </g>
   <g id="line2d_25">
    <path d="M 173.979192 155.580531 
L 171.434925 155.167653 
L 169.143569 154.589728 
L 167.063819 153.808794 
L 165.124847 152.841225 
L 163.255401 151.729739 
L 161.392018 150.536772 
L 159.485023 149.336357 
L 157.502009 148.205514 
L 155.428752 147.216023 
L 153.267823 146.427382 
L 151.035339 145.881513 
L 148.756451 145.59961 
L 146.46021 145.581277 
L 144.174474 145.805889 
L 141.921437 146.235904 
L 139.714268 146.821684 
L 137.555164 147.507249 
L 135.434939 148.23626 
L 133.333997 148.957349 
" clip-path="url(#pefebb2b672)" style="fill: none; stroke: #0369a1; stroke-width: 1.4; stroke-linecap: square"/>
   </g>
   <g id="line2d_26">
    <path d="M 214.345783 214.97356 
L 230.794686 237.809078 
" clip-path="url(#pefebb2b672)" style="fill: none; stroke: #4d7c0f; stroke-width: 1.6; stroke-linecap: square"/>
   </g>
   <g id="line2d_27">
    <path d="M 230.794686 237.809078 
L 247.24359 260.644596 
" clip-path="url(#pefebb2b672)" style="fill: none; stroke: #4d7c0f; stroke-width: 1.6; stroke-linecap: square"/>
   </g>
   <g id="line2d_28">
    <path d="M 247.24359 260.644596 
L 263.692493 283.480114 
" clip-path="url(#pefebb2b672)" style="fill: none; stroke: #4d7c0f; stroke-width: 1.6; stroke-linecap: square"/>
   </g>
   <g id="line2d_29">
    <path d="M 263.692493 283.480114 
L 206.48549 400.546894 
" clip-path="url(#pefebb2b672)" style="fill: none; stroke: #4d7c0f; stroke-width: 1.6; stroke-linecap: square"/>
   </g>
   <g id="line2d_30">
    <path d="M 247.24359 260.644596 
L 486.947358 102.594595 
" clip-path="url(#pefebb2b672)" style="fill: none; stroke: #4d7c0f; stroke-width: 1.6; stroke-linecap: square"/>
   </g>
   <g id="line2d_31">
    <path d="M 263.692493 283.480114 
L 146.991343 415.805405 
" clip-path="url(#pefebb2b672)" style="fill: none; stroke: #4d7c0f; stroke-width: 1.6; stroke-linecap: square"/>
   </g>
   <g id="patch_4">
    <path d="M 53.241875 431.465946 
L 53.241875 86.934054 
" style="fill: none; stroke: #000000; stroke-width: 0.8; stroke-linejoin: miter; stroke-linecap: square"/>
   </g>
   <g id="patch_5">
    <path d="M 507.6 431.465946 
L 507.6 86.934054 
" style="fill: none; stroke: #000000; stroke-width: 0.8; stroke-linejoin: miter; stroke-linecap: square"/>
   </g>
   <g id="patch_6">
    <path d="M 53.241875 431.465946 
L 507.6 431.465946 
" style="fill: none; stroke: #000000; stroke-width: 0.8; stroke-linejoin: miter; stroke-linecap: square"/>
   </g>
   <g id="patch_7">
    <path d="M 53.241875 86.934054 
L 507.6 86.934054 
" style="fill: none; stroke: #000000; stroke-width: 0.8; stroke-linejoin: miter; stroke-linecap: square"/>
   </g>
   <g id="line2d_32">
    <path d="M 214.345783 214.97356 
L 215.667416 212.332157 
L 216.786167 209.596984 
L 217.689366 206.78268 
L 218.365596 203.905354 
L 218.608521 202.49432 
" clip-path="url(#pefebb2b672)" style="fill: none; stroke: #c2410c; stroke-width: 2; stroke-linecap: square"/>
   </g>
   <g id="line2d_33">
    <path d="M 218.608521 202.49432 
L 218.930353 199.556076 
L 219.004725 196.600489 
L 218.827764 193.647702 
L 218.39886 190.718375 
L 218.1018 189.314061 
" clip-path="url(#pefebb2b672)" style="fill: none; stroke: #c2410c; stroke-width: 2; stroke-linecap: square"/>
   </g>
   <g id="line2d_34">
    <path d="M 218.1018 189.314061 
L 217.305884 186.457584 
L 216.273456 183.674841 
L 215.018304 180.983986 
L 213.558711 178.400901 
L 212.508781 176.781337 
" clip-path="url(#pefebb2b672)" style="fill: none; stroke: #c2410c; stroke-width: 2; stroke-linecap: square"/>
   </g>
   <g id="line2d_35">
    <path d="M 212.508781 176.781337 
L 210.763514 174.402471 
L 208.884716 172.156142 
L 206.911957 170.040973 
L 204.898283 168.044674 
L 202.823525 166.177017 
L 202.776246 166.136717 
" clip-path="url(#pefebb2b672)" style="fill: none; stroke: #c2410c; stroke-width: 2; stroke-linecap: square"/>
   </g>
   <g id="line2d_36">
    <path d="M 202.776246 166.136717 
L 200.621055 164.414168 
L 198.385679 162.843111 
L 196.075867 161.430619 
L 193.702256 160.181168 
L 191.279037 159.0963 
L 189.800919 158.520122 
" clip-path="url(#pefebb2b672)" style="fill: none; stroke: #c2410c; stroke-width: 2; stroke-linecap: square"/>
   </g>
   <g id="line2d_37">
    <path d="M 189.800919 158.520122 
L 187.333531 157.694377 
L 184.862474 157.022344 
L 182.406112 156.494375 
L 179.981852 156.098294 
L 177.605425 155.819895 
L 175.290338 155.643524 
L 173.979192 155.580531 
" clip-path="url(#pefebb2b672)" style="fill: none; stroke: #c2410c; stroke-width: 2; stroke-linecap: square"/>
   </g>
   <g id="line2d_38">
    <path d="M 173.979192 155.580531 
L 171.794718 155.514914 
L 169.787723 155.369785 
L 167.950537 155.109299 
L 166.250762 154.733259 
L 164.653764 154.252352 
L 163.125391 153.686675 
L 161.634318 153.06375 
L 160.318697 152.488351 
" clip-path="url(#pefebb2b672)" style="fill: none; stroke: #c2410c; stroke-width: 2; stroke-linecap: square"/>
   </g>
   <g id="text_17">
    <!-- openpit-b2026-5 — spiral, 7 benches, 3 shovels, 3 dumps, seed 1157109644 -->
    <g transform="translate(87.645156 80.934054) scale(0.1 -0.1)">
     <defs>
      <path id="DejaVuSans-53" d="M 1159 525 
L 1159 -1331 
L 581 -1331 
L 581 3500 
L 1159 3500 
L 1159 2969 
Q 1341 3281 1617 3432 
Q 1894 3584 2278 3584 
Q 2916 3584 3314 3078 
Q 3713 2572 3713 1747 
Q 3713 922 3314 415 
Q 2916 -91 2278 -91 
Q 1894 -91 1617 61 
Q 1341 213 1159 525 
z
M 3116 1747 
Q 3116 2381 2855 2742 
Q 2594 3103 2138 3103 
Q 1681 3103 1420 2742 
Q 1159 2381 1159 1747 
Q 1159 1113 1420 752 
Q 1681 391 2138 391 
Q 2594 391 2855 752 
Q 3116 1113 3116 1747 
z
" transform="scale(0.015625)"/>
      <path id="DejaVuSans-4c" d="M 603 3500 
L 1178 3500 
L 1178 0 
L 603 0 
L 603 3500 
z
M 603 4863 
L 1178 4863 
L 1178 4134 
L 603 4134 
L 603 4863 
z
" transform="scale(0.015625)"/>
      <path id="DejaVuSans-10" d="M 313 2009 
L 1997 2009 
L 1997 1497 
L 313 1497 
L 313 2009 
z
" transform="scale(0.015625)"/>
      <path id="DejaVuSans-45" d="M 3116 1747 
Q 3116 2381 2855 2742 
Q 2594 3103 2138 3103 
Q 1681 3103 1420 2742 
Q 1159 2381 1159 1747 
Q 1159 1113 1420 752 
Q 1681 391 2138 391 
Q 2594 391 2855 752 
Q 3116 1113 3116 1747 
z
M 1159 2969 
Q 1341 3281 1617 3432 
Q 1894 3584 2278 3584 
Q 2916 3584 3314 3078 
Q 3713 2572 3713 1747 
Q 3713 922 3314 415 
Q 2916 -91 2278 -91 
Q 1894 -91 1617 61 
Q 1341 213 1159 525 
L 1159 0 
L 581 0 
L 581 4863 
L 1159 4863 
L 1159 2969 
z
" transform="scale(0.015625)"/>
      <path id="DejaVuSans-19" d="M 2113 2584 
Q 1688 2584 1439 2293 
Q 1191 2003 1191 1497 
Q 1191 994 1439 701 
Q 1688 409 2113 409 
Q 2538 409 2786 701 
Q 3034 994 3034 1497 
Q 3034 2003 2786 2293 
Q 2538 2584 2113 2584 
z
M 3366 4563 
L 3366 3988 
Q 3128 4100 2886 4159 
Q 2644 4219 2406 4219 
Q 1781 4219 1451 3797 
Q 1122 3375 1075 2522 
Q 1259 2794 1537 2939 
Q 1816 3084 2150 3084 
Q 2853 3084 3261 2657 
Q 3669 2231 3669 1497 
Q 3669 778 3244 343 
Q 2819 -91 2113 -91 
Q 1303 -91 875 529 
Q 447 1150 447 2328 
Q 447 3434 972 4092 
Q 1497 4750 2381 4750 
Q 2619 4750 2861 4703 
Q 3103 4656 3366 4563 
z
" transform="scale(0.015625)"/>
      <path id="DejaVuSans-af6" d="M 313 1978 
L 6088 1978 
L 6088 1528 
L 313 1528 
L 313 1978 
z
" transform="scale(0.015625)"/>
      <path id="DejaVuSans-4f" d="M 603 4863 
L 1178 4863 
L 1178 0 
L 603 0 
L 603 4863 
z
" transform="scale(0.015625)"/>
      <path id="DejaVuSans-f" d="M 750 794 
L 1409 794 
L 1409 256 
L 897 -744 
L 494 -744 
L 750 256 
L 750 794 
z
" transform="scale(0.015625)"/>
      <path id="DejaVuSans-1a" d="M 525 4666 
L 3525 4666 
L 3525 4397 
L 1831 0 
L 1172 0 
L 2766 4134 
L 525 4134 
L 525 4666 
z
" transform="scale(0.015625)"/>
      <path id="DejaVuSans-46" d="M 3122 3366 
L 3122 2828 
Q 2878 2963 2633 3030 
Q 2388 3097 2138 3097 
Q 1578 3097 1268 2742 
Q 959 2388 959 1747 
Q 959 1106 1268 751 
Q 1578 397 2138 397 
Q 2388 397 2633 464 
Q 2878 531 3122 666 
L 3122 134 
Q 2881 22 2623 -34 
Q 2366 -91 2075 -91 
Q 1284 -91 818 406 
Q 353 903 353 1747 
Q 353 2603 823 3093 
Q 1294 3584 2113 3584 
Q 2378 3584 2631 3529 
Q 2884 3475 3122 3366 
z
" transform="scale(0.015625)"/>
      <path id="DejaVuSans-59" d="M 191 3500 
L 800 3500 
L 1894 563 
L 2988 3500 
L 3597 3500 
L 2284 0 
L 1503 0 
L 191 3500 
z
" transform="scale(0.015625)"/>
      <path id="DejaVuSans-47" d="M 2906 2969 
L 2906 4863 
L 3481 4863 
L 3481 0 
L 2906 0 
L 2906 525 
Q 2725 213 2448 61 
Q 2172 -91 1784 -91 
Q 1150 -91 751 415 
Q 353 922 353 1747 
Q 353 2572 751 3078 
Q 1150 3584 1784 3584 
Q 2172 3584 2448 3432 
Q 2725 3281 2906 2969 
z
M 947 1747 
Q 947 1113 1208 752 
Q 1469 391 1925 391 
Q 2381 391 2643 752 
Q 2906 1113 2906 1747 
Q 2906 2381 2643 2742 
Q 2381 3103 1925 3103 
Q 1469 3103 1208 2742 
Q 947 2381 947 1747 
z
" transform="scale(0.015625)"/>
      <path id="DejaVuSans-58" d="M 544 1381 
L 544 3500 
L 1119 3500 
L 1119 1403 
Q 1119 906 1312 657 
Q 1506 409 1894 409 
Q 2359 409 2629 706 
Q 2900 1003 2900 1516 
L 2900 3500 
L 3475 3500 
L 3475 0 
L 2900 0 
L 2900 538 
Q 2691 219 2414 64 
Q 2138 -91 1772 -91 
Q 1169 -91 856 284 
Q 544 659 544 1381 
z
M 1991 3584 
L 1991 3584 
z
" transform="scale(0.015625)"/>
      <path id="DejaVuSans-1c" d="M 703 97 
L 703 672 
Q 941 559 1184 500 
Q 1428 441 1663 441 
Q 2288 441 2617 861 
Q 2947 1281 2994 2138 
Q 2813 1869 2534 1725 
Q 2256 1581 1919 1581 
Q 1219 1581 811 2004 
Q 403 2428 403 3163 
Q 403 3881 828 4315 
Q 1253 4750 1959 4750 
Q 2769 4750 3195 4129 
Q 3622 3509 3622 2328 
Q 3622 1225 3098 567 
Q 2575 -91 1691 -91 
Q 1453 -91 1209 -44 
Q 966 3 703 97 
z
M 1959 2075 
Q 2384 2075 2632 2365 
Q 2881 2656 2881 3163 
Q 2881 3666 2632 3958 
Q 2384 4250 1959 4250 
Q 1534 4250 1286 3958 
Q 1038 3666 1038 3163 
Q 1038 2656 1286 2365 
Q 1534 2075 1959 2075 
z
" transform="scale(0.015625)"/>
      <path id="DejaVuSans-17" d="M 2419 4116 
L 825 1625 
L 2419 1625 
L 2419 4116 
z
M 2253 4666 
L 3047 4666 
L 3047 1625 
L 3713 1625 
L 3713 1100 
L 3047 1100 
L 3047 0 
L 2419 0 
L 2419 1100 
L 313 1100 
L 313 1709 
L 2253 4666 
z
" transform="scale(0.015625)"/>
     </defs>
     <use xlink:href="#DejaVuSans-52"/>
     <use xlink:href="#DejaVuSans-53" transform="translate(61.1875 0)"/>
     <use xlink:href="#DejaVuSans-48" transform="translate(124.671875 0)"/>
     <use xlink:href="#DejaVuSans-51" transform="translate(186.203125 0)"/>
     <use xlink:href="#DejaVuSans-53" transform="translate(249.578125 0)"/>
     <use xlink:href="#DejaVuSans-4c" transform="translate(313.0625 0)"/>
     <use xlink:href="#DejaVuSans-57" transform="translate(340.84375 0)"/>
     <use xlink:href="#DejaVuSans-10" transform="translate(380.046875 0)"/>
     <use xlink:href="#DejaVuSans-45" transform="translate(416.125 0)"/>
     <use xlink:href="#DejaVuSans-15" transform="translate(479.609375 0)"/>
     <use xlink:href="#DejaVuSans-13" transform="translate(543.234375 0)"/>
     <use xlink:href="#DejaVuSans-15" transform="translate(606.859375 0)"/>
     <use xlink:href="#DejaVuSans-19" transform="translate(670.484375 0)"/>
     <use xlink:href="#DejaVuSans-10" transform="translate(734.109375 0)"/>
     <use xlink:href="#DejaVuSans-18" transform="translate(770.1875 0)"/>
     <use xlink:href="#DejaVuSans-3" transform="translate(833.8125 0)"/>
     <use xlink:href="#DejaVuSans-af6" transform="translate(865.59375 0)"/>
     <use xlink:href="#DejaVuSans-3" transform="translate(965.59375 0)"/>
     <use xlink:href="#DejaVuSans-56" transform="translate(997.375 0)"/>
     <use xlink:href="#DejaVuSans-53" transform="translate(1049.46875 0)"/>
     <use xlink:href="#DejaVuSans-4c" transform="translate(1112.953125 0)"/>
     <use xlink:href="#DejaVuSans-55" transform="translate(1140.734375 0)"/>
     <use xlink:href="#DejaVuSans-44" transform="translate(1181.84375 0)"/>
     <use xlink:href="#DejaVuSans-4f" transform="translate(1243.125 0)"/>
     <use xlink:href="#DejaVuSans-f" transform="translate(1270.90625 0)"/>
     <use xlink:href="#DejaVuSans-3" transform="translate(1302.6875 0)"/>
     <use xlink:href="#DejaVuSans-1a" transform="translate(1334.46875 0)"/>
     <use xlink:href="#DejaVuSans-3" transform="translate(1398.09375 0)"/>
     <use xlink:href="#DejaVuSans-45" transform="translate(1429.875 0)"/>
     <use xlink:href="#DejaVuSans-48" transform="translate(1493.359375 0)"/>
     <use xlink:href="#DejaVuSans-51" transform="translate(1554.890625 0)"/>
     <use xlink:href="#DejaVuSans-46" transform="translate(1618.265625 0)"/>
     <use xlink:href="#DejaVuSans-4b" transform="translate(1673.25 0)"/>
     <use xlink:href="#DejaVuSans-48" transform="translate(1736.625 0)"/>
     <use xlink:href="#DejaVuSans-56" transform="translate(1798.15625 0)"/>
     <use xlink:href="#DejaVuSans-f" transform="translate(1850.25 0)"/>
     <use xlink:href="#DejaVuSans-3" transform="translate(1882.03125 0)"/>
     <use xlink:href="#DejaVuSans-16" transform="translate(1913.8125 0)"/>
     <use xlink:href="#DejaVuSans-3" transform="translate(1977.4375 0)"/>
     <use xlink:href="#DejaVuSans-56" transform="translate(2009.21875 0)"/>
     <use xlink:href="#DejaVuSans-4b" transform="translate(2061.3125 0)"/>
     <use xlink:href="#DejaVuSans-52" transform="translate(2124.6875 0)"/>
     <use xlink:href="#DejaVuSans-59" transform="translate(2185.875 0)"/>
     <use xlink:href="#DejaVuSans-48" transform="translate(2245.0625 0)"/>
     <use xlink:href="#DejaVuSans-4f" transform="translate(2306.59375 0)"/>
     <use xlink:href="#DejaVuSans-56" transform="translate(2334.375 0)"/>
     <use xlink:href="#DejaVuSans-f" transform="translate(2386.46875 0)"/>
     <use xlink:href="#DejaVuSans-3" transform="translate(2418.25 0)"/>
     <use xlink:href="#DejaVuSans-16" transform="translate(2450.03125 0)"/>
     <use xlink:href="#DejaVuSans-3" transform="translate(2513.65625 0)"/>
     <use xlink:href="#DejaVuSans-47" transform="translate(2545.4375 0)"/>
     <use xlink:href="#DejaVuSans-58" transform="translate(2608.921875 0)"/>
     <use xlink:href="#DejaVuSans-50" transform="translate(2672.296875 0)"/>
     <use xlink:href="#DejaVuSans-53" transform="translate(2769.703125 0)"/>
     <use xlink:href="#DejaVuSans-56" transform="translate(2833.1875 0)"/>
     <use xlink:href="#DejaVuSans-f" transform="translate(2885.28125 0)"/>
     <use xlink:href="#DejaVuSans-3" transform="translate(2917.0625 0)"/>
     <use xlink:href="#DejaVuSans-56" transform="translate(2948.84375 0)"/>
     <use xlink:href="#DejaVuSans-48" transform="translate(3000.9375 0)"/>
     <use xlink:href="#DejaVuSans-48" transform="translate(3062.46875 0)"/>
     <use xlink:href="#DejaVuSans-47" transform="translate(3124 0)"/>
     <use xlink:href="#DejaVuSans-3" transform="translate(3187.484375 0)"/>
     <use xlink:href="#DejaVuSans-14" transform="translate(3219.265625 0)"/>
     <use xlink:href="#DejaVuSans-14" transform="translate(3282.890625 0)"/>
     <use xlink:href="#DejaVuSans-18" transform="translate(3346.515625 0)"/>
     <use xlink:href="#DejaVuSans-1a" transform="translate(3410.140625 0)"/>
     <use xlink:href="#DejaVuSans-14" transform="translate(3473.765625 0)"/>
     <use xlink:href="#DejaVuSans-13" transform="translate(3537.390625 0)"/>
     <use xlink:href="#DejaVuSans-1c" transform="translate(3601.015625 0)"/>
     <use xlink:href="#DejaVuSans-19" transform="translate(3664.640625 0)"/>
     <use xlink:href="#DejaVuSans-17" transform="translate(3728.265625 0)"/>
     <use xlink:href="#DejaVuSans-17" transform="translate(3791.890625 0)"/>
    </g>
   </g>
   <g id="PathCollection_1">
    <defs>
     <path id="m21b8029f54" d="M 0 5 
L 5 0 
L 0 -5 
L -5 0 
z
" style="stroke: #7c3aed"/>
    </defs>
    <g clip-path="url(#pefebb2b672)">
     <use xlink:href="#m21b8029f54" x="214.345783" y="214.97356" style="fill: #7c3aed; stroke: #7c3aed"/>
    </g>
   </g>
   <g id="PathCollection_2">
    <defs>
     <path id="me1610481a2" d="M 0 -4.743416 
L -4.743416 4.743416 
L 4.743416 4.743416 
z
" style="stroke: #111827"/>
    </defs>
    <g clip-path="url(#pefebb2b672)">
     <use xlink:href="#me1610481a2" x="136.437347" y="140.772605" style="fill: #111827; stroke: #111827"/>
    </g>
   </g>
   <g id="PathCollection_3">
    <g clip-path="url(#pefebb2b672)">
     <use xlink:href="#me1610481a2" x="152.309888" y="148.493193" style="fill: #111827; stroke: #111827"/>
    </g>
   </g>
   <g id="PathCollection_4">
    <g clip-path="url(#pefebb2b672)">
     <use xlink:href="#me1610481a2" x="133.333997" y="148.957349" style="fill: #111827; stroke: #111827"/>
    </g>
   </g>
   <g id="PathCollection_5">
    <defs>
     <path id="ma708495acb" d="M -4.472136 4.472136 
L 4.472136 4.472136 
L 4.472136 -4.472136 
L -4.472136 -4.472136 
z
" style="stroke: #1d4ed8"/>
    </defs>
    <g clip-path="url(#pefebb2b672)">
     <use xlink:href="#ma708495acb" x="206.48549" y="400.546894" style="fill: #1d4ed8; stroke: #1d4ed8"/>
    </g>
   </g>
   <g id="PathCollection_6">
    <g clip-path="url(#pefebb2b672)">
     <use xlink:href="#ma708495acb" x="486.947358" y="102.594595" style="fill: #1d4ed8; stroke: #1d4ed8"/>
    </g>
   </g>
   <g id="PathCollection_7">
    <defs>
     <path id="mff68c4592d" d="M -2.236068 4.472136 
L 0 2.236068 
L 2.236068 4.472136 
L 4.472136 2.236068 
L 2.236068 0 
L 4.472136 -2.236068 
L 2.236068 -4.472136 
L 0 -2.236068 
L -2.236068 -4.472136 
L -4.472136 -2.236068 
L -2.236068 0 
L -4.472136 2.236068 
z
" style="stroke: #a16207"/>
    </defs>
    <g clip-path="url(#pefebb2b672)">
     <use xlink:href="#mff68c4592d" x="146.991343" y="415.805405" style="fill: #a16207; stroke: #a16207"/>
    </g>
   </g>
   <g id="PathCollection_8">
    <defs>
     <path id="mf6bdbf6792" d="M 0 2.645751 
C 0.701661 2.645751 1.374679 2.366978 1.870829 1.870829 
C 2.366978 1.374679 2.645751 0.701661 2.645751 0 
C 2.645751 -0.701661 2.366978 -1.374679 1.870829 -1.870829 
C 1.374679 -2.366978 0.701661 -2.645751 0 -2.645751 
C -0.701661 -2.645751 -1.374679 -2.366978 -1.870829 -1.870829 
C -2.366978 -1.374679 -2.645751 -0.701661 -2.645751 0 
C -2.645751 0.701661 -2.366978 1.374679 -1.870829 1.870829 
C -1.374679 2.366978 -0.701661 2.645751 0 2.645751 
z
" style="stroke: #4d7c0f"/>
    </defs>
    <g clip-path="url(#pefebb2b672)">
     <use xlink:href="#mf6bdbf6792" x="230.794686" y="237.809078" style="fill: #4d7c0f; stroke: #4d7c0f"/>
    </g>
   </g>
   <g id="PathCollection_9">
    <g clip-path="url(#pefebb2b672)">
     <use xlink:href="#mf6bdbf6792" x="247.24359" y="260.644596" style="fill: #4d7c0f; stroke: #4d7c0f"/>
    </g>
   </g>
   <g id="PathCollection_10">
    <g clip-path="url(#pefebb2b672)">
     <use xlink:href="#mf6bdbf6792" x="263.692493" y="283.480114" style="fill: #4d7c0f; stroke: #4d7c0f"/>
    </g>
   </g>
   <g id="text_18">
    <!-- 1 -->
    <g transform="translate(142.437347 134.772605) scale(0.08 -0.08)">
     <defs>
      <path id="DejaVuSans-Bold-14" d="M 750 831 
L 1813 831 
L 1813 3847 
L 722 3622 
L 722 4441 
L 1806 4666 
L 2950 4666 
L 2950 831 
L 4013 831 
L 4013 0 
L 750 0 
L 750 831 
z
" transform="scale(0.015625)"/>
     </defs>
     <use xlink:href="#DejaVuSans-Bold-14"/>
    </g>
   </g>
   <g id="text_19">
    <!-- 2 -->
    <g transform="translate(158.309888 142.493193) scale(0.08 -0.08)">
     <defs>
      <path id="DejaVuSans-Bold-15" d="M 1844 884 
L 3897 884 
L 3897 0 
L 506 0 
L 506 884 
L 2209 2388 
Q 2438 2594 2547 2791 
Q 2656 2988 2656 3200 
Q 2656 3528 2436 3728 
Q 2216 3928 1850 3928 
Q 1569 3928 1234 3808 
Q 900 3688 519 3450 
L 519 4475 
Q 925 4609 1322 4679 
Q 1719 4750 2100 4750 
Q 2938 4750 3402 4381 
Q 3866 4013 3866 3353 
Q 3866 2972 3669 2642 
Q 3472 2313 2841 1759 
L 1844 884 
z
" transform="scale(0.015625)"/>
     </defs>
     <use xlink:href="#DejaVuSans-Bold-15"/>
    </g>
   </g>
   <g id="text_20">
    <!-- 3 -->
    <g transform="translate(139.333997 142.957349) scale(0.08 -0.08)">
     <defs>
      <path id="DejaVuSans-Bold-16" d="M 2981 2516 
Q 3453 2394 3698 2092 
Q 3944 1791 3944 1325 
Q 3944 631 3412 270 
Q 2881 -91 1863 -91 
Q 1503 -91 1142 -33 
Q 781 25 428 141 
L 428 1069 
Q 766 900 1098 814 
Q 1431 728 1753 728 
Q 2231 728 2486 893 
Q 2741 1059 2741 1369 
Q 2741 1688 2480 1852 
Q 2219 2016 1709 2016 
L 1228 2016 
L 1228 2791 
L 1734 2791 
Q 2188 2791 2409 2933 
Q 2631 3075 2631 3366 
Q 2631 3634 2415 3781 
Q 2200 3928 1806 3928 
Q 1516 3928 1219 3862 
Q 922 3797 628 3669 
L 628 4550 
Q 984 4650 1334 4700 
Q 1684 4750 2022 4750 
Q 2931 4750 3382 4451 
Q 3834 4153 3834 3553 
Q 3834 3144 3618 2883 
Q 3403 2622 2981 2516 
z
" transform="scale(0.015625)"/>
     </defs>
     <use xlink:href="#DejaVuSans-Bold-16"/>
    </g>
   </g>
  </g>
 </g>
 <defs>
  <clipPath id="pefebb2b672">
   <rect x="53.241875" y="86.934054" width="454.358125" height="344.531892"/>
  </clipPath>
 </defs>
</svg>
