<?xml version="1.0" encoding="utf-8" standalone="no"?>
<!DOCTYPE svg PUBLIC "-//W3C//DTD SVG 1.1//EN"
  "http://www.w3.org/Graphics/SVG/1.1/DTD/svg11.dtd">
<svg xmlns:xlink="http://www.w3.org/1999/xlink" width="518.4pt" height="518.4pt" viewBox="0 0 518.4 518.4" xmlns="http://www.w3.org/2000/svg" version="1.1">
 <metadata>
  <rdf:RDF xmlns:dc="http://purl.org/dc/elements/1.1/" xmlns:cc="http://creativecommons.org/ns#" xmlns:rdf="http://www.w3.org/1999/02/22-rdf-syntax-ns#">
   <cc:Work>
    <dc:type rdf:resource="http://purl.org/dc/dcmitype/StillImage"/>
    <dc:date>2026-07-02T08:06:08.050429</dc:date>
    <dc:format>image/svg+xml</dc:format>
    <dc:creator>
     <cc:Agent>
      <dc:title>Matplotlib v3.11.0, https://matplotlib.org/</dc:title>
     </cc:Agent>
    </dc:creator>
   </cc:Work>
  </rdf:RDF>
 </metadata>
 <defs>
  <style type="text/css">*{stroke-linejoin: round; stroke-linecap: butt}</style>
 </defs>
 <g id="figure_1">
  <g id="patch_1">
   <path d="M 0 518.4 
L 518.4 518.4 
L 518.4 0 
L 0 0 
z
" style="fill: #ffffff"/>
  </g>
  <g id="axes_1">
   <g id="patch_2">
    <path d="M 48.921875 355.248016 
L 507.6 355.248016 
L 507.6 163.151984 
L 48.921875 163.151984 
z
" style="fill: #ffffff"/>
   </g>
   <g id="patch_3">
    <path d="M 321.141409 292.466437 
L 321.324898 291.817917 
L 321.482144 291.160854 
L 321.612176 290.496446 
L 321.714153 289.825963 
L 321.787381 289.150724 
L 321.831317 288.472094 
L 321.845577 287.79146 
L 321.829943 287.11022 
L 321.784362 286.429768 
L 321.70895 285.751474 
L 321.603991 285.07667 
L 321.469932 284.406632 
L 321.307385 283.742566 
L 321.117112 283.085593 
L 320.900024 282.436731 
L 320.657169 281.796883 
L 320.38972 281.166822 
L 320.098961 280.547184 
L 319.786276 279.938453 
L 319.453129 279.340952 
L 319.101049 278.754843 
L 318.73161 278.180111 
L 318.346413 277.616573 
L 317.947064 277.06387 
L 317.535156 276.521471 
L 317.11224 275.988681 
L 316.679811 275.464644 
L 316.239284 274.94836 
L 315.791966 274.438696 
L 315.339045 273.934401 
L 314.881561 273.434133 
L 314.420388 272.936483 
L 313.956221 272.44 
L 313.489553 271.943225 
L 313.020663 271.444733 
L 312.549608 270.943166 
L 312.076206 270.437286 
L 311.60004 269.92602 
L 311.120445 269.408517 
L 310.636521 268.884209 
L 310.147128 268.352879 
L 309.650901 267.814738 
L 309.146263 267.270511 
L 308.631437 266.721547 
L 308.104461 266.169957 
L 307.563197 265.61881 
L 307.005311 265.072454 
L 306.428187 264.537122 
L 305.82859 264.022466 
L 305.20032 263.54946 
L 304.530686 263.165918 
L 303.83912 262.828757 
L 303.132625 262.522977 
L 302.414324 262.242579 
L 301.686071 261.984253 
L 300.949079 261.746074 
L 300.204188 261.526983 
L 299.452021 261.326531 
L 298.693086 261.144727 
L 297.927839 260.98193 
L 297.156741 260.838775 
L 296.38029 260.716107 
L 295.599052 260.614931 
L 294.813571 260.518775 
L 294.022295 260.396145 
L 293.222447 260.249714 
L 292.411615 260.083774 
L 291.587846 259.903295 
L 290.749708 259.713813 
L 289.896341 259.52131 
L 289.027488 259.332097 
L 288.14352 259.152688 
L 287.245443 258.989686 
L 286.334889 258.849661 
L 285.414099 258.739041 
L 284.485891 258.664 
L 283.553619 258.630362 
L 282.621121 258.643506 
L 281.692658 258.708283 
L 280.77284 258.828942 
L 279.866558 259.009071 
L 278.978896 259.251541 
L 278.115053 259.55847 
L 277.280248 259.931198 
L 276.479637 260.370266 
L 275.718227 260.87542 
L 275.000782 261.445618 
L 274.33175 262.079052 
L 273.715175 262.773179 
L 273.154635 263.524766 
L 272.653166 264.329945 
L 272.213211 265.184269 
L 271.836568 266.082789 
L 271.524351 267.020124 
L 271.276961 267.990548 
L 271.094069 268.988073 
L 270.974604 270.006543 
L 270.916764 271.039719 
L 270.918027 272.081375 
L 270.975177 273.125389 
L 271.084348 274.165826 
L 271.241069 275.197028 
L 271.440324 276.213693 
L 271.676628 277.210946 
L 271.944102 278.184408 
L 272.236567 279.130257 
L 272.547644 280.045275 
L 272.87087 280.926894 
L 273.199825 281.77323 
L 273.528287 282.58311 
L 273.850436 283.356105 
L 274.161172 284.092571 
L 274.456841 284.79381 
L 274.740338 285.463619 
L 275.013241 286.104892 
L 275.256474 286.714202 
L 275.461882 287.292914 
L 275.627611 287.844606 
L 275.780871 288.37908 
L 275.926117 288.898971 
L 276.061061 289.405304 
L 276.183721 289.89932 
L 276.292386 290.382444 
L 276.385594 290.856246 
L 276.462118 291.32242 
L 276.52096 291.782758 
L 276.56134 292.239134 
L 276.582692 292.693477 
L 276.584659 293.14776 
L 276.567086 293.603979 
L 276.530016 294.064141 
L 276.473686 294.530244 
L 276.398517 295.004264 
L 276.305115 295.488144 
L 276.194257 295.983778 
L 276.066891 296.492997 
L 275.924126 297.017563 
L 275.767225 297.55915 
L 275.597598 298.119338 
L 275.416794 298.699602 
L 275.226496 299.301298 
L 275.028508 299.92566 
L 274.824752 300.573782 
L 274.617255 301.246618 
L 274.408144 301.944965 
L 274.199636 302.669459 
L 273.99403 303.420566 
L 273.793697 304.198572 
L 273.60107 305.003573 
L 273.418639 305.835471 
L 273.248935 306.693961 
L 273.094526 307.578524 
L 272.958003 308.488419 
L 272.84197 309.422672 
L 272.749034 310.380067 
L 272.681792 311.359137 
L 272.642817 312.358156 
L 272.634649 313.375124 
L 272.659776 314.407763 
L 272.720622 315.453501 
L 272.819529 316.509468 
L 272.958739 317.572479 
L 273.140379 318.639029 
L 273.366436 319.705281 
L 273.638738 320.767051 
L 273.958935 321.819805 
L 274.32847 322.85864 
L 274.748559 323.878275 
L 275.220166 324.87303 
L 275.743981 325.836802 
L 276.320396 326.763028 
L 276.949497 327.644621 
L 277.631055 328.473864 
L 278.364549 329.242204 
L 279.149244 329.939829 
L 279.984435 330.554646 
L 280.870407 331.068858 
L 281.817371 331.430302 
L 282.813947 331.638809 
L 283.836534 331.738397 
L 284.874481 331.742172 
L 285.919761 331.65857 
L 286.965678 331.494353 
L 288.006445 331.255505 
L 289.03699 330.947594 
L 290.052853 330.575933 
L 291.050123 330.145669 
L 292.025388 329.661813 
L 292.975703 329.129255 
L 293.898562 328.552776 
L 294.791869 327.937036 
L 295.653918 327.286573 
L 296.483369 326.605793 
L 297.279226 325.898963 
L 298.040821 325.170206 
L 298.767787 324.423486 
L 299.460046 323.662607 
L 300.117787 322.891206 
L 300.741448 322.112741 
L 301.331697 321.330495 
L 301.889418 320.547563 
L 302.415691 319.76685 
L 302.911777 318.99107 
L 303.379099 318.222736 
L 303.81923 317.464165 
L 304.23387 316.717467 
L 304.624838 315.98455 
L 304.99405 315.267112 
L 305.343503 314.566645 
L 305.675264 313.88443 
L 305.991448 313.221538 
L 306.294206 312.578834 
L 306.585709 311.956971 
L 306.86813 311.356399 
L 307.143628 310.77736 
L 307.414335 310.2199 
L 307.682338 309.683865 
L 307.949665 309.16891 
L 308.218267 308.674503 
L 308.490006 308.199934 
L 308.766639 307.744321 
L 309.049803 307.306615 
L 309.341002 306.885618 
L 309.641591 306.479982 
L 309.952767 306.088231 
L 310.27555 305.708765 
L 310.610777 305.339875 
L 310.959085 304.97976 
L 311.320901 304.626537 
L 311.696431 304.278255 
L 312.085647 303.932914 
L 312.488275 303.588481 
L 312.90378 303.2429 
L 313.33135 302.894115 
L 313.769876 302.540079 
L 314.217918 302.17877 
L 314.673662 301.808203 
L 315.134837 301.426427 
L 315.598557 301.031512 
L 316.060937 300.62147 
L 316.515651 300.193853 
L 316.94524 299.743193 
L 317.356219 299.27317 
L 317.754817 298.786605 
L 318.141682 298.284195 
L 318.516383 297.766281 
L 318.878011 297.233114 
L 319.22539 296.684949 
L 319.557196 296.122103 
L 319.872021 295.544976 
L 320.16842 294.954068 
L 320.444948 294.349988 
L 320.700187 293.733454 
L 320.932772 293.105292 
L 321.141409 292.466437 
z
" clip-path="url(#p31e94b11af)" style="fill: #e8edf2; stroke: #e8edf2; stroke-linejoin: miter"/>
   </g>
   <g id="line2d_1">
    <path d="M 336.393662 292.466437 
L 336.822778 289.370029 
L 336.92403 287.276401 
L 336.871521 285.173781 
L 336.663118 283.075091 
L 336.299432 280.993138 
L 335.783831 278.940096 
L 334.739409 275.938404 
L 333.397396 273.055964 
L 331.797271 270.311202 
L 329.983998 267.709118 
L 328.003316 265.240694 
L 325.172091 262.118345 
L 321.416994 258.379886 
L 317.439177 254.700853 
L 314.023266 251.802199 
L 311.250626 249.766493 
L 309.243891 248.660163 
L 307.125556 247.80266 
L 303.843973 246.771068 
L 300.474132 245.996819 
L 297.037762 245.478031 
L 282.523611 244.08127 
L 279.951749 244.101281 
L 277.375125 244.321818 
L 274.827727 244.783058 
L 272.349101 245.515564 
L 269.981868 246.53848 
L 267.768983 247.858479 
L 265.750942 249.469493 
L 263.963099 251.353205 
L 262.433263 253.480259 
L 261.179737 255.812082 
L 260.209906 258.303213 
L 259.519479 260.903984 
L 259.092443 263.563388 
L 258.901736 266.231979 
L 258.910659 268.864615 
L 259.200138 272.664535 
L 259.84144 277.324583 
L 260.717248 283.390735 
L 261.310244 292.051231 
L 261.315095 296.217947 
L 261.087828 300.555287 
L 260.468733 310.470217 
L 260.482965 315.040292 
L 260.72726 318.68901 
L 261.245532 322.493891 
L 261.775613 325.092622 
L 262.474915 327.717509 
L 263.360431 330.343039 
L 264.447202 332.938612 
L 265.747663 335.468199 
L 267.270923 337.889971 
L 269.022017 340.155745 
L 271.00126 342.209841 
L 273.204131 343.985713 
L 274.387182 344.742739 
L 275.624411 345.390546 
L 276.925817 345.876891 
L 278.279805 346.201528 
L 281.063203 346.510564 
L 283.886517 346.432559 
L 286.697421 346.019344 
L 289.455829 345.314369 
L 292.130553 344.358075 
L 294.697916 343.189 
L 297.140841 341.843869 
L 299.448121 340.357396 
L 301.613758 338.762036 
L 304.594658 336.229633 
L 307.266167 333.608543 
L 309.655907 330.97344 
L 312.473778 327.537687 
L 321.796839 315.70332 
L 325.969441 311.11181 
L 329.068464 307.630077 
L 330.869383 305.351529 
L 332.450259 302.870137 
L 333.834901 300.220198 
L 335.00867 297.419299 
L 335.933924 294.484779 
L 336.393662 292.466437 
L 336.393662 292.466437 
" clip-path="url(#p31e94b11af)" style="fill: none; stroke: #9aa5b1; stroke-width: 0.6; stroke-linecap: square"/>
   </g>
   <g id="line2d_2">
    <path d="M 335.007094 292.466437 
L 335.439996 289.472431 
L 335.547971 287.446794 
L 335.505526 285.411752 
L 335.310504 283.380062 
L 334.963483 281.364368 
L 334.467791 279.376684 
L 333.459205 276.470993 
L 332.160021 273.681645 
L 330.609483 271.026557 
L 328.852285 268.510241 
L 326.933858 266.123209 
L 324.194664 263.101812 
L 320.567832 259.476013 
L 315.930644 255.177977 
L 312.566858 252.371021 
L 310.757714 251.06249 
L 308.815418 249.978868 
L 306.762562 249.140871 
L 303.580801 248.132432 
L 300.312219 247.373902 
L 296.977992 246.863311 
L 288.961046 245.96398 
L 284.112474 245.482587 
L 281.619574 245.40267 
L 279.106752 245.4971 
L 276.604245 245.810016 
L 274.148955 246.377118 
L 271.782142 247.223501 
L 269.546795 248.362231 
L 267.484841 249.793672 
L 265.634385 251.505613 
L 264.027146 253.474117 
L 262.686262 255.665057 
L 261.624587 258.036207 
L 260.843598 260.539763 
L 260.332987 263.12514 
L 260.070975 265.741882 
L 260.025358 268.342494 
L 260.271466 272.123577 
L 260.749937 275.669337 
L 262.140067 284.628493 
L 262.664745 291.2704 
L 262.715861 295.258434 
L 262.504205 299.375835 
L 261.659601 310.908335 
L 261.643508 314.281534 
L 261.828597 317.846615 
L 262.281649 321.572461 
L 262.765083 324.121272 
L 263.415335 326.698596 
L 264.249517 329.279039 
L 265.282797 331.832106 
L 266.527737 334.321876 
L 267.993581 336.706613 
L 269.685506 338.938226 
L 271.603969 340.961116 
L 273.744596 342.708814 
L 274.896023 343.452912 
L 276.10132 344.088574 
L 277.370503 344.563565 
L 278.691999 344.877645 
L 281.409683 345.167983 
L 284.166441 345.07454 
L 286.910109 344.649185 
L 289.600765 343.935397 
L 292.207385 342.973637 
L 294.706457 341.802458 
L 297.08107 340.458589 
L 299.320185 338.976742 
L 301.417966 337.389361 
L 304.298025 334.875166 
L 306.870313 332.279681 
L 309.162994 329.677442 
L 311.855731 326.296482 
L 320.199632 315.429482 
L 323.596717 311.662887 
L 327.801771 307.066109 
L 329.564498 304.882649 
L 331.114309 302.498907 
L 332.475183 299.948645 
L 333.632611 297.248906 
L 334.549039 294.416476 
L 335.007094 292.466437 
L 335.007094 292.466437 
" clip-path="url(#p31e94b11af)" style="fill: none; stroke: #9aa5b1; stroke-width: 0.6; stroke-linecap: square"/>
   </g>
   <g id="line2d_3">
    <path d="M 333.620525 292.466437 
L 334.057214 289.574832 
L 334.174306 286.633899 
L 334.067399 284.666242 
L 333.811159 282.707647 
L 333.15175 279.813272 
L 332.179002 277.003582 
L 330.922647 274.307325 
L 329.421696 271.741913 
L 327.720572 269.311364 
L 325.864401 267.005724 
L 323.217236 264.085279 
L 319.718669 260.57214 
L 315.252206 256.38723 
L 312.010703 253.641164 
L 310.264801 252.358488 
L 308.386945 251.297573 
L 306.399569 250.479082 
L 303.317629 249.493796 
L 300.150306 248.750984 
L 296.918222 248.248591 
L 290.283423 247.49254 
L 285.624206 246.93052 
L 281.999027 246.736307 
L 279.551439 246.810426 
L 277.113087 247.099843 
L 274.720715 247.640313 
L 272.415433 248.456998 
L 270.240079 249.563034 
L 268.236435 250.958867 
L 266.442464 252.632369 
L 264.889748 254.5597 
L 263.601293 256.706831 
L 262.589825 259.031641 
L 261.856699 261.486441 
L 261.391491 264.020764 
L 261.172312 266.584276 
L 261.166855 269.129614 
L 261.467976 272.824245 
L 261.994926 276.279726 
L 263.488822 284.950104 
L 264.050366 291.321636 
L 264.111639 294.372205 
L 263.927622 298.276809 
L 263.244742 305.224774 
L 262.87301 310.237359 
L 262.804051 313.522777 
L 262.929935 317.004221 
L 263.317766 320.65103 
L 263.754552 323.149921 
L 264.355754 325.679684 
L 265.138604 328.215038 
L 266.118391 330.725601 
L 267.30781 333.175552 
L 268.71624 335.523255 
L 270.348995 337.720706 
L 272.206678 339.712391 
L 274.285061 341.431916 
L 275.404864 342.163086 
L 276.578228 342.786603 
L 277.81519 343.250239 
L 279.104194 343.553761 
L 281.756163 343.825402 
L 284.446364 343.716521 
L 287.122797 343.279025 
L 289.7457 342.556424 
L 292.284217 341.589199 
L 294.714998 340.415916 
L 297.0213 339.073309 
L 299.192248 337.596089 
L 301.222174 336.016686 
L 304.001392 333.520699 
L 306.474459 330.95082 
L 308.670082 328.381445 
L 311.237684 325.055277 
L 318.65384 315.111768 
L 321.325587 312.085398 
L 327.697366 305.129446 
L 328.789605 303.672487 
L 330.243891 301.328023 
L 331.519344 298.826686 
L 332.586974 296.182017 
L 333.4081 293.412746 
L 333.620525 292.466437 
L 333.620525 292.466437 
" clip-path="url(#p31e94b11af)" style="fill: none; stroke: #9aa5b1; stroke-width: 0.6; stroke-linecap: square"/>
   </g>
   <g id="line2d_4">
    <path d="M 332.233957 292.466437 
L 332.674432 289.677234 
L 332.802863 286.838143 
L 332.605276 283.990003 
L 332.081113 281.174377 
L 331.243517 278.429641 
L 330.118274 275.787143 
L 328.741459 273.267849 
L 327.155921 270.879892 
L 325.406817 268.617456 
L 322.892449 265.761435 
L 319.556892 262.344179 
L 314.573768 257.596484 
L 311.454549 254.911308 
L 309.771889 253.654485 
L 307.958472 252.616278 
L 306.036575 251.817292 
L 303.054457 250.85516 
L 299.988392 250.128067 
L 296.858452 249.63387 
L 290.428359 248.871513 
L 285.90413 248.288538 
L 282.378479 248.069944 
L 279.996125 248.123752 
L 277.621928 248.38967 
L 275.292475 248.903508 
L 273.048724 249.690495 
L 270.933363 250.763838 
L 268.988029 252.124062 
L 267.250543 253.759126 
L 265.75235 255.645283 
L 264.516323 257.748604 
L 263.555062 260.027075 
L 262.869799 262.433119 
L 262.449995 264.916387 
L 262.273649 267.426671 
L 262.308352 269.916734 
L 262.664486 273.524913 
L 263.451093 277.946865 
L 264.738512 284.454966 
L 265.390609 290.639552 
L 265.499687 293.557646 
L 265.407674 296.502926 
L 265.043855 300.397098 
L 264.157451 308.547585 
L 263.964594 312.76402 
L 264.031272 316.161827 
L 264.353883 319.7296 
L 264.744021 322.17857 
L 265.296173 324.660771 
L 266.02769 327.151037 
L 266.953985 329.619095 
L 268.087883 332.029228 
L 269.438898 334.339896 
L 271.012484 336.503186 
L 272.809386 338.463666 
L 274.825525 340.155017 
L 275.913706 340.873259 
L 277.055137 341.484631 
L 278.259877 341.936913 
L 279.516389 342.229877 
L 282.102642 342.482821 
L 284.726288 342.358503 
L 287.335485 341.908866 
L 289.890636 341.177451 
L 292.361049 340.204761 
L 294.72354 339.029374 
L 296.96153 337.68803 
L 299.064312 336.215435 
L 301.026382 334.64401 
L 303.70476 332.166232 
L 306.078606 329.621959 
L 308.822381 326.25223 
L 311.721711 322.252861 
L 316.189002 315.98769 
L 318.654669 312.977532 
L 321.294503 310.116893 
L 325.840185 305.292224 
L 327.473565 303.235899 
L 328.899201 300.98982 
L 330.153349 298.588715 
L 331.207135 296.045578 
L 332.021952 293.378585 
L 332.233957 292.466437 
L 332.233957 292.466437 
" clip-path="url(#p31e94b11af)" style="fill: none; stroke: #9aa5b1; stroke-width: 0.6; stroke-linecap: square"/>
   </g>
   <g id="line2d_5">
    <path d="M 330.847388 292.466437 
L 331.29165 289.779635 
L 331.431419 287.042387 
L 331.252661 284.294974 
L 330.754715 281.578409 
L 329.95058 278.930527 
L 328.86586 276.382148 
L 327.536408 273.953723 
L 326.004814 271.652889 
L 324.315942 269.473355 
L 321.891088 266.720523 
L 318.020344 262.764395 
L 313.170512 258.142337 
L 310.898394 256.181451 
L 309.278977 254.950483 
L 307.529998 253.934983 
L 305.673581 253.155503 
L 302.791285 252.216525 
L 299.826479 251.505149 
L 296.798682 251.01915 
L 290.573295 250.250486 
L 286.184054 249.646557 
L 282.757931 249.403581 
L 280.440812 249.437078 
L 278.130769 249.679496 
L 275.864236 250.166704 
L 273.682015 250.923992 
L 271.626648 251.964641 
L 269.739624 253.289256 
L 268.058622 254.885883 
L 266.614952 256.730865 
L 265.431354 258.790377 
L 264.520299 261.022509 
L 263.8829 263.379797 
L 263.508499 265.812011 
L 263.374987 268.269065 
L 263.449848 270.703854 
L 263.860996 274.225581 
L 264.710742 278.526396 
L 266.078933 284.809709 
L 266.715685 290.020241 
L 266.87745 292.813051 
L 266.82731 295.604237 
L 266.482846 299.268842 
L 265.225499 309.908249 
L 265.10405 313.088363 
L 265.187294 316.464976 
L 265.542945 320.00187 
L 265.96396 322.421539 
L 266.553526 324.864891 
L 267.328222 327.30436 
L 268.302382 329.707101 
L 269.487401 332.034637 
L 270.890991 334.242427 
L 272.51646 336.279099 
L 274.362227 338.084571 
L 276.422547 339.583432 
L 277.532046 340.182659 
L 278.704564 340.623586 
L 279.928584 340.905994 
L 282.449122 341.14024 
L 285.006212 341.000484 
L 287.548173 340.538707 
L 290.035572 339.798478 
L 292.437881 338.820323 
L 294.732081 337.642831 
L 296.90176 336.30275 
L 298.936376 334.834781 
L 301.72465 332.46325 
L 304.198812 329.974797 
L 306.378412 327.453671 
L 308.887133 324.158115 
L 312.028406 319.576957 
L 315.261207 314.957269 
L 317.607279 312.068936 
L 320.143396 309.343895 
L 325.111493 304.127674 
L 326.157524 302.79931 
L 327.554511 300.651617 
L 328.787354 298.350744 
L 329.827295 295.909139 
L 330.635805 293.344423 
L 330.847388 292.466437 
L 330.847388 292.466437 
" clip-path="url(#p31e94b11af)" style="fill: none; stroke: #9aa5b1; stroke-width: 0.6; stroke-linecap: square"/>
   </g>
   <g id="line2d_6">
    <path d="M 329.46082 292.466437 
L 329.908868 289.882037 
L 330.059976 287.24663 
L 329.900047 284.599944 
L 329.428318 281.982441 
L 328.657644 279.431413 
L 327.613446 276.977153 
L 326.331357 274.639597 
L 324.853707 272.425886 
L 322.656028 269.65327 
L 320.284954 267.035681 
L 315.885264 262.588759 
L 311.812742 258.722725 
L 309.576344 256.836362 
L 307.965316 255.702971 
L 306.214242 254.85559 
L 303.465869 253.857451 
L 300.626773 253.090479 
L 297.720032 252.538456 
L 284.25601 250.794175 
L 282.012722 250.720699 
L 279.759669 250.831676 
L 277.530051 251.167551 
L 275.362645 251.75919 
L 273.299313 252.626079 
L 271.382276 253.775271 
L 269.651309 255.201111 
L 268.14107 256.885733 
L 266.878694 258.800264 
L 265.881834 260.906646 
L 265.157253 263.159968 
L 264.700064 265.511136 
L 264.493686 267.909752 
L 264.510524 270.307001 
L 264.713372 272.658402 
L 265.267187 276.019417 
L 266.209166 280.066184 
L 267.419354 285.164453 
L 268.097101 290.139671 
L 268.263913 292.795969 
L 268.205363 295.450809 
L 267.92928 298.2227 
L 266.345333 310.215076 
L 266.227459 313.378446 
L 266.330768 316.732878 
L 266.72296 320.235868 
L 267.177012 322.622945 
L 267.805862 325.023035 
L 268.625173 327.406084 
L 269.64803 329.736581 
L 270.884215 331.97318 
L 272.339462 334.068146 
L 274.014804 335.966215 
L 275.906455 337.60122 
L 276.931388 338.293606 
L 278.008954 338.880688 
L 279.14925 339.31026 
L 280.340778 339.58211 
L 282.795602 339.797659 
L 285.286136 339.642465 
L 287.760862 339.168548 
L 290.180508 338.419506 
L 292.514712 337.435884 
L 294.740622 336.256289 
L 296.84199 334.91747 
L 298.808439 333.454128 
L 301.495098 331.095815 
L 303.868898 328.628049 
L 305.949939 326.134966 
L 308.330978 322.887972 
L 311.738979 317.712441 
L 314.333411 313.926848 
L 316.100886 311.692982 
L 318.486708 309.084992 
L 324.34496 303.007131 
L 325.770512 301.013986 
L 327.036314 298.862433 
L 328.128375 296.567334 
L 329.009498 294.143267 
L 329.46082 292.466437 
L 329.46082 292.466437 
" clip-path="url(#p31e94b11af)" style="fill: none; stroke: #9aa5b1; stroke-width: 0.6; stroke-linecap: square"/>
   </g>
   <g id="line2d_7">
    <path d="M 328.074251 292.466437 
L 328.526086 289.984438 
L 328.688533 287.450874 
L 328.547433 284.904915 
L 328.10192 282.386472 
L 327.364707 279.9323 
L 326.361032 277.572159 
L 325.126305 275.325472 
L 323.7026 273.198884 
L 321.586571 270.535785 
L 318.720725 267.40375 
L 313.833039 262.481052 
L 310.499592 259.338532 
L 308.293152 257.542478 
L 306.673052 256.572393 
L 304.063891 255.50884 
L 301.351946 254.689808 
L 298.567521 254.078662 
L 295.727163 253.683273 
L 292.838288 253.327523 
L 284.60249 252.136756 
L 282.424917 252.044583 
L 280.236578 252.133648 
L 278.070516 252.444449 
L 275.965353 253.007915 
L 273.962802 253.843599 
L 272.104934 254.958629 
L 270.431383 256.347434 
L 268.976664 257.992238 
L 267.76778 259.864264 
L 266.822254 261.925559 
L 266.146722 264.131319 
L 265.73618 266.432567 
L 265.573934 268.779025 
L 265.632281 271.122006 
L 265.873915 273.417159 
L 266.480596 276.690393 
L 267.482711 280.614504 
L 268.759776 285.519196 
L 269.478516 290.2591 
L 269.650376 292.778887 
L 269.583417 295.297382 
L 269.285548 297.934416 
L 268.391413 303.157666 
L 267.726649 307.553453 
L 267.387043 311.514123 
L 267.347792 314.726431 
L 267.569146 318.108514 
L 267.894435 320.430671 
L 268.383587 322.781345 
L 269.053426 325.133194 
L 269.91854 327.453587 
L 270.990589 329.704248 
L 272.27756 331.84082 
L 273.783042 333.812105 
L 275.505748 335.558181 
L 277.440229 337.003779 
L 278.485863 337.578716 
L 279.593937 337.996934 
L 280.752973 338.258227 
L 283.142082 338.455077 
L 285.566059 338.284447 
L 287.97355 337.798389 
L 290.325444 337.040533 
L 292.591544 336.051446 
L 294.749163 334.869747 
L 296.78222 333.532191 
L 298.680503 332.073474 
L 301.265546 329.72838 
L 303.538985 327.281301 
L 305.521465 324.816261 
L 307.774824 321.617829 
L 310.973088 316.556594 
L 313.405616 312.896427 
L 315.076199 310.758857 
L 316.87906 308.770348 
L 320.404791 305.307174 
L 322.52562 303.125901 
L 323.988207 301.293329 
L 325.279454 299.291135 
L 326.414412 297.143323 
L 327.358858 294.861996 
L 328.074251 292.466437 
L 328.074251 292.466437 
" clip-path="url(#p31e94b11af)" style="fill: none; stroke: #9aa5b1; stroke-width: 0.6; stroke-linecap: square"/>
   </g>
   <g id="line2d_8">
    <path d="M 326.687683 292.466437 
L 327.143304 290.08684 
L 327.31709 287.655118 
L 327.194819 285.209886 
L 326.775522 282.790504 
L 326.071771 280.433186 
L 325.108618 278.167164 
L 323.921254 276.011346 
L 322.551493 273.971881 
L 320.517113 271.4183 
L 317.767824 268.411 
L 312.483001 263.046053 
L 309.22993 259.991881 
L 307.800239 258.838475 
L 306.244579 257.891098 
L 303.733977 256.855588 
L 301.122395 256.057243 
L 298.439585 255.459316 
L 295.701541 255.069604 
L 292.91512 254.711961 
L 284.94897 253.479337 
L 282.837112 253.368466 
L 280.713487 253.43562 
L 278.610981 253.721348 
L 276.568062 254.25664 
L 274.626291 255.061119 
L 272.827593 256.141987 
L 271.211456 257.493758 
L 269.812258 259.098744 
L 268.656866 260.928265 
L 267.762673 262.944472 
L 267.136191 265.10267 
L 266.772297 267.353997 
L 266.654183 269.648298 
L 266.754039 271.93701 
L 267.034458 274.175916 
L 267.694006 277.361369 
L 268.756256 281.162824 
L 270.100197 285.87394 
L 270.859932 290.378529 
L 271.036839 292.761805 
L 270.961471 295.143954 
L 270.641817 297.646133 
L 269.678081 302.64089 
L 268.940058 306.882477 
L 268.52854 310.727003 
L 268.42804 313.857158 
L 268.582247 317.161836 
L 268.859673 319.435237 
L 269.298617 321.739572 
L 269.916028 324.047612 
L 270.726619 326.326831 
L 271.742183 328.539054 
L 272.970844 330.640016 
L 274.416333 332.578609 
L 276.077508 334.294986 
L 277.94907 335.713952 
L 278.962772 336.276744 
L 280.038624 336.683607 
L 281.165168 336.934343 
L 283.488562 337.112496 
L 285.845983 336.926428 
L 288.186238 336.42823 
L 290.47038 335.66156 
L 292.668376 334.667008 
L 294.757704 333.483205 
L 296.722449 332.146911 
L 298.552566 330.69282 
L 301.035994 328.360945 
L 303.209071 325.934554 
L 305.092992 323.497556 
L 307.218669 320.347686 
L 313.250712 310.819486 
L 314.888607 308.869936 
L 317.167484 306.56609 
L 321.232683 302.625015 
L 322.661809 300.889297 
L 323.92684 298.986164 
L 325.042969 296.939079 
L 325.976076 294.759594 
L 326.687683 292.466437 
L 326.687683 292.466437 
" clip-path="url(#p31e94b11af)" style="fill: none; stroke: #9aa5b1; stroke-width: 0.6; stroke-linecap: square"/>
   </g>
   <g id="line2d_9">
    <path d="M 325.301114 292.466437 
L 325.760522 290.189242 
L 325.945646 287.859362 
L 325.842205 285.514856 
L 325.449125 283.194536 
L 324.778834 280.934072 
L 323.856204 278.762169 
L 322.716203 276.69722 
L 321.400386 274.744878 
L 319.447656 272.300815 
L 316.814923 269.41825 
L 310.576755 263.044743 
L 308.002266 260.686742 
L 306.582818 259.626216 
L 305.026681 258.842174 
L 302.57597 257.920852 
L 300.039397 257.208505 
L 297.438387 256.688616 
L 289.258277 255.410833 
L 286.305553 254.937556 
L 283.249306 254.69235 
L 281.190395 254.737591 
L 279.151445 254.998246 
L 277.17077 255.505365 
L 275.28978 256.278638 
L 273.550251 257.325345 
L 271.991529 258.640081 
L 270.647853 260.205249 
L 269.545953 261.992266 
L 268.703093 263.963385 
L 268.125661 266.074021 
L 267.808414 268.275428 
L 267.734431 270.51757 
L 267.875796 272.752015 
L 268.195 274.934674 
L 268.907415 278.032346 
L 270.029801 281.711144 
L 271.440618 286.228683 
L 272.158225 289.922161 
L 272.40195 292.187887 
L 272.38577 294.422429 
L 272.105379 296.748122 
L 271.452836 299.960628 
L 270.153468 306.211501 
L 269.670037 309.939884 
L 269.508289 312.987885 
L 269.595347 316.215158 
L 269.82491 318.439803 
L 270.213648 320.697798 
L 270.77863 322.962029 
L 271.534698 325.200074 
L 272.493777 327.373859 
L 273.664128 329.439213 
L 275.049624 331.345112 
L 276.649268 333.03179 
L 278.457912 334.424126 
L 279.439681 334.974773 
L 280.48331 335.370281 
L 281.577362 335.61046 
L 283.835042 335.769915 
L 286.125907 335.568409 
L 288.398926 335.058071 
L 290.615316 334.282588 
L 292.745208 333.28257 
L 294.766245 332.096663 
L 296.662679 330.761631 
L 298.42463 329.312167 
L 300.806443 326.99351 
L 302.879158 324.587806 
L 304.664519 322.178851 
L 306.662514 319.077542 
L 312.273284 309.836019 
L 313.819149 307.987421 
L 315.997682 305.821688 
L 320.430306 301.600492 
L 321.762665 299.900296 
L 322.957163 298.047773 
L 324.000198 296.056155 
L 324.854842 293.938361 
L 325.301114 292.466437 
L 325.301114 292.466437 
" clip-path="url(#p31e94b11af)" style="fill: none; stroke: #9aa5b1; stroke-width: 0.6; stroke-linecap: square"/>
   </g>
   <g id="line2d_10">
    <path d="M 323.914546 292.466437 
L 324.37774 290.291643 
L 324.574203 288.063606 
L 324.489591 285.819827 
L 324.122727 283.598568 
L 323.485897 281.434959 
L 322.60379 279.357174 
L 321.511151 277.383094 
L 320.249279 275.517875 
L 318.378199 273.18333 
L 315.345144 269.882383 
L 308.737755 263.106699 
L 306.814415 261.43047 
L 305.387632 260.528508 
L 303.074151 259.549083 
L 300.663291 258.792113 
L 298.183712 258.220623 
L 295.650296 257.842268 
L 293.068784 257.480837 
L 285.64193 256.164499 
L 283.661501 256.016233 
L 281.667304 256.039563 
L 279.69191 256.275145 
L 277.773479 256.75409 
L 275.953269 257.496158 
L 274.27291 258.508704 
L 272.771603 259.786405 
L 271.483447 261.311755 
L 270.435039 263.056267 
L 269.643512 264.982298 
L 269.11513 267.045371 
L 268.844531 269.196858 
L 268.81468 271.386843 
L 268.997554 273.567019 
L 269.355543 275.693431 
L 270.120825 278.703322 
L 271.303346 282.259464 
L 272.78104 286.583427 
L 273.536279 290.075589 
L 273.788414 292.20497 
L 273.767185 294.303 
L 273.468338 296.49334 
L 272.774156 299.540286 
L 271.366878 305.540524 
L 270.811533 309.152764 
L 270.588537 312.118613 
L 270.608448 315.26848 
L 270.93869 318.547293 
L 271.362207 320.767031 
L 271.96755 322.980062 
L 272.768324 325.151287 
L 273.774849 327.239747 
L 274.993418 329.198067 
L 276.425638 330.971315 
L 278.068314 332.493626 
L 278.966753 333.134299 
L 279.916589 333.672801 
L 280.927997 334.056955 
L 281.989557 334.286576 
L 284.181522 334.427334 
L 286.405831 334.21039 
L 288.611614 333.687912 
L 290.760252 332.903615 
L 292.82204 331.898132 
L 294.774787 330.710121 
L 296.602909 329.376352 
L 298.296694 327.931513 
L 300.576891 325.626075 
L 302.549244 323.241058 
L 304.236046 320.860146 
L 306.106359 317.807399 
L 310.955604 309.321115 
L 312.37033 307.525956 
L 313.959857 305.8805 
L 317.178491 302.998213 
L 319.125421 301.131613 
L 320.426716 299.529065 
L 321.597445 297.77622 
L 322.624139 295.885762 
L 323.469957 293.870058 
L 323.914546 292.466437 
L 323.914546 292.466437 
" clip-path="url(#p31e94b11af)" style="fill: none; stroke: #9aa5b1; stroke-width: 0.6; stroke-linecap: square"/>
   </g>
   <g id="line2d_11">
    <path d="M 322.527978 292.466437 
L 322.994958 290.394045 
L 323.20276 288.26785 
L 323.136977 286.124798 
L 322.79633 284.0026 
L 322.192961 281.935845 
L 321.351375 279.952179 
L 320.3061 278.068968 
L 319.098171 276.290873 
L 317.308741 274.065845 
L 314.417348 270.912804 
L 307.561465 263.802311 
L 306.321502 262.726468 
L 304.959159 261.847213 
L 302.744237 260.895831 
L 300.433739 260.159548 
L 298.055776 259.601277 
L 295.624674 259.228599 
L 293.145615 258.865276 
L 285.034646 257.405404 
L 283.108932 257.317036 
L 281.183816 257.418456 
L 279.294797 257.745875 
L 277.481762 258.324973 
L 275.786353 259.169462 
L 274.249188 260.280424 
L 272.907096 261.646422 
L 271.790564 263.244362 
L 270.921537 265.041015 
L 270.311724 266.995113 
L 269.961504 269.059865 
L 269.859523 271.185752 
L 269.983011 273.323431 
L 270.298828 275.426573 
L 271.040057 278.429589 
L 272.268638 282.00358 
L 274.278857 287.522995 
L 275.004178 290.736817 
L 275.196229 292.710559 
L 275.148601 294.183571 
L 274.831298 296.238559 
L 274.095475 299.119944 
L 272.580287 304.869548 
L 271.95303 308.365644 
L 271.668786 311.24934 
L 271.621548 314.321802 
L 271.87911 317.528381 
L 272.251293 319.70303 
L 272.803144 321.873556 
L 273.548397 324.004964 
L 274.497508 326.056388 
L 275.656907 327.980548 
L 277.028347 329.72259 
L 278.608779 331.216727 
L 279.475594 331.844473 
L 280.393498 332.370829 
L 281.372684 332.743629 
L 282.401752 332.962692 
L 284.528002 333.084753 
L 286.685755 332.852372 
L 288.824302 332.317753 
L 290.905187 331.524642 
L 292.898871 330.513694 
L 294.783328 329.323578 
L 296.543139 327.991072 
L 298.168757 326.55086 
L 300.347339 324.258641 
L 302.219331 321.894311 
L 303.807572 319.541441 
L 305.550205 316.537256 
L 310.002704 308.313865 
L 311.32294 306.617361 
L 312.828144 305.079378 
L 315.455293 302.804451 
L 317.820536 300.662733 
L 319.090766 299.157835 
L 320.237728 297.504667 
L 321.24808 295.715369 
L 322.085072 293.801756 
L 322.527978 292.466437 
L 322.527978 292.466437 
" clip-path="url(#p31e94b11af)" style="fill: none; stroke: #9aa5b1; stroke-width: 0.6; stroke-linecap: square"/>
   </g>
   <g id="line2d_12">
    <path d="M 321.141409 292.466437 
L 321.612176 290.496446 
L 321.831317 288.472094 
L 321.784362 286.429768 
L 321.469932 284.406632 
L 320.900024 282.436731 
L 320.098961 280.547184 
L 319.101049 278.754843 
L 317.535156 276.521471 
L 315.791966 274.438696 
L 311.60004 269.92602 
L 307.005311 265.072454 
L 305.20032 263.54946 
L 303.83912 262.828757 
L 301.686071 261.984253 
L 299.452021 261.326531 
L 297.156741 260.838775 
L 291.587846 259.903295 
L 287.245443 258.989686 
L 284.485891 258.664 
L 282.621121 258.643506 
L 280.77284 258.828942 
L 278.978896 259.251541 
L 277.280248 259.931198 
L 275.718227 260.87542 
L 274.33175 262.079052 
L 273.154635 263.524766 
L 272.213211 265.184269 
L 271.524351 267.020124 
L 271.094069 268.988073 
L 270.916764 271.039719 
L 270.975177 273.125389 
L 271.241069 275.197028 
L 271.676628 277.210946 
L 272.547644 280.045275 
L 273.850436 283.356105 
L 275.627611 287.844606 
L 276.385594 290.856246 
L 276.582692 292.693477 
L 276.530016 294.064141 
L 276.194257 295.983778 
L 275.416794 298.699602 
L 273.793697 304.198572 
L 273.094526 307.578524 
L 272.749034 310.380067 
L 272.634649 313.375124 
L 272.819529 316.509468 
L 273.140379 318.639029 
L 273.638738 320.767051 
L 274.32847 322.85864 
L 275.220166 324.87303 
L 276.320396 326.763028 
L 277.631055 328.473864 
L 279.149244 329.939829 
L 279.984435 330.554646 
L 280.870407 331.068858 
L 281.817371 331.430302 
L 282.813947 331.638809 
L 284.874481 331.742172 
L 286.965678 331.494353 
L 289.03699 330.947594 
L 291.050123 330.145669 
L 292.975703 329.129255 
L 294.791869 327.937036 
L 296.483369 326.605793 
L 298.040821 325.170206 
L 300.117787 322.891206 
L 301.889418 320.547563 
L 303.379099 318.222736 
L 304.99405 315.267112 
L 309.049803 307.306615 
L 310.27555 305.708765 
L 311.696431 304.278255 
L 314.217918 302.17877 
L 316.515651 300.193853 
L 317.754817 298.786605 
L 318.878011 297.233114 
L 319.872021 295.544976 
L 320.700187 293.733454 
L 321.141409 292.466437 
L 321.141409 292.466437 
" clip-path="url(#p31e94b11af)" style="fill: none; stroke: #9aa5b1; stroke-width: 0.6; stroke-linecap: square"/>
   </g>
   <g id="matplotlib.axis_1">
    <g id="xtick_1">
     <g id="line2d_13">
      <defs>
       <path id="mcda34d76c6" d="M 0 0 
L 0 3.5 
" style="stroke: #000000; stroke-width: 0.8"/>
      </defs>
      <g>
       <use xlink:href="#mcda34d76c6" x="100.075957" y="355.248016" style="stroke: #000000; stroke-width: 0.8"/>
      </g>
     </g>
     <g id="text_1">
      <!-- −2000 -->
      <g transform="translate(88.235566 367.566376) scale(0.07 -0.07)">
       <defs>
        <path id="DejaVuSans-c9c" d="M 678 2272 
L 4684 2272 
L 4684 1741 
L 678 1741 
L 678 2272 
z
" transform="scale(0.015625)"/>
        <path id="DejaVuSans-15" d="M 1228 531 
L 3431 531 
L 3431 0 
L 469 0 
L 469 531 
Q 828 903 1448 1529 
Q 2069 2156 2228 2338 
Q 2531 2678 2651 2914 
Q 2772 3150 2772 3378 
Q 2772 3750 2511 3984 
Q 2250 4219 1831 4219 
Q 1534 4219 1204 4116 
Q 875 4013 500 3803 
L 500 4441 
Q 881 4594 1212 4672 
Q 1544 4750 1819 4750 
Q 2544 4750 2975 4387 
Q 3406 4025 3406 3419 
Q 3406 3131 3298 2873 
Q 3191 2616 2906 2266 
Q 2828 2175 2409 1742 
Q 1991 1309 1228 531 
z
" transform="scale(0.015625)"/>
        <path id="DejaVuSans-13" d="M 2034 4250 
Q 1547 4250 1301 3770 
Q 1056 3291 1056 2328 
Q 1056 1369 1301 889 
Q 1547 409 2034 409 
Q 2525 409 2770 889 
Q 3016 1369 3016 2328 
Q 3016 3291 2770 3770 
Q 2525 4250 2034 4250 
z
M 2034 4750 
Q 2819 4750 3233 4129 
Q 3647 3509 3647 2328 
Q 3647 1150 3233 529 
Q 2819 -91 2034 -91 
Q 1250 -91 836 529 
Q 422 1150 422 2328 
Q 422 3509 836 4129 
Q 1250 4750 2034 4750 
z
" transform="scale(0.015625)"/>
       </defs>
       <use xlink:href="#DejaVuSans-c9c"/>
       <use xlink:href="#DejaVuSans-15" transform="translate(83.796875 0)"/>
       <use xlink:href="#DejaVuSans-13" transform="translate(147.421875 0)"/>
       <use xlink:href="#DejaVuSans-13" transform="translate(211.046875 0)"/>
       <use xlink:href="#DejaVuSans-13" transform="translate(274.671875 0)"/>
      </g>
     </g>
    </g>
    <g id="xtick_2">
     <g id="line2d_14">
      <g>
       <use xlink:href="#mcda34d76c6" x="197.543163" y="355.248016" style="stroke: #000000; stroke-width: 0.8"/>
      </g>
     </g>
     <g id="text_2">
      <!-- −1000 -->
      <g transform="translate(185.702773 367.566376) scale(0.07 -0.07)">
       <defs>
        <path id="DejaVuSans-14" d="M 794 531 
L 1825 531 
L 1825 4091 
L 703 3866 
L 703 4441 
L 1819 4666 
L 2450 4666 
L 2450 531 
L 3481 531 
L 3481 0 
L 794 0 
L 794 531 
z
" transform="scale(0.015625)"/>
       </defs>
       <use xlink:href="#DejaVuSans-c9c"/>
       <use xlink:href="#DejaVuSans-14" transform="translate(83.796875 0)"/>
       <use xlink:href="#DejaVuSans-13" transform="translate(147.421875 0)"/>
       <use xlink:href="#DejaVuSans-13" transform="translate(211.046875 0)"/>
       <use xlink:href="#DejaVuSans-13" transform="translate(274.671875 0)"/>
      </g>
     </g>
    </g>
    <g id="xtick_3">
     <g id="line2d_15">
      <g>
       <use xlink:href="#mcda34d76c6" x="295.01037" y="355.248016" style="stroke: #000000; stroke-width: 0.8"/>
      </g>
     </g>
     <g id="text_3">
      <!-- 0 -->
      <g transform="translate(292.783495 367.566376) scale(0.07 -0.07)">
       <use xlink:href="#DejaVuSans-13"/>
      </g>
     </g>
    </g>
    <g id="xtick_4">
     <g id="line2d_16">
      <g>
       <use xlink:href="#mcda34d76c6" x="392.477577" y="355.248016" style="stroke: #000000; stroke-width: 0.8"/>
      </g>
     </g>
     <g id="text_4">
      <!-- 1000 -->
      <g transform="translate(383.570077 367.566376) scale(0.07 -0.07)">
       <use xlink:href="#DejaVuSans-14"/>
       <use xlink:href="#DejaVuSans-13" transform="translate(63.625 0)"/>
       <use xlink:href="#DejaVuSans-13" transform="translate(127.25 0)"/>
       <use xlink:href="#DejaVuSans-13" transform="translate(190.875 0)"/>
      </g>
     </g>
    </g>
    <g id="xtick_5">
     <g id="line2d_17">
      <g>
       <use xlink:href="#mcda34d76c6" x="489.944784" y="355.248016" style="stroke: #000000; stroke-width: 0.8"/>
      </g>
     </g>
     <g id="text_5">
      <!-- 2000 -->
      <g transform="translate(481.037284 367.566376) scale(0.07 -0.07)">
       <use xlink:href="#DejaVuSans-15"/>
       <use xlink:href="#DejaVuSans-13" transform="translate(63.625 0)"/>
       <use xlink:href="#DejaVuSans-13" transform="translate(127.25 0)"/>
       <use xlink:href="#DejaVuSans-13" transform="translate(190.875 0)"/>
      </g>
     </g>
    </g>
    <g id="text_6">
     <!-- east [m] -->
     <g transform="translate(261.407813 379.326766) scale(0.08 -0.08)">
      <defs>
       <path id="DejaVuSans-48" d="M 3597 1894 
L 3597 1613 
L 953 1613 
Q 991 1019 1311 708 
Q 1631 397 2203 397 
Q 2534 397 2845 478 
Q 3156 559 3463 722 
L 3463 178 
Q 3153 47 2828 -22 
Q 2503 -91 2169 -91 
Q 1331 -91 842 396 
Q 353 884 353 1716 
Q 353 2575 817 3079 
Q 1281 3584 2069 3584 
Q 2775 3584 3186 3129 
Q 3597 2675 3597 1894 
z
M 3022 2063 
Q 3016 2534 2758 2815 
Q 2500 3097 2075 3097 
Q 1594 3097 1305 2825 
Q 1016 2553 972 2059 
L 3022 2063 
z
" transform="scale(0.015625)"/>
       <path id="DejaVuSans-44" d="M 2194 1759 
Q 1497 1759 1228 1600 
Q 959 1441 959 1056 
Q 959 750 1161 570 
Q 1363 391 1709 391 
Q 2188 391 2477 730 
Q 2766 1069 2766 1631 
L 2766 1759 
L 2194 1759 
z
M 3341 1997 
L 3341 0 
L 2766 0 
L 2766 531 
Q 2569 213 2275 61 
Q 1981 -91 1556 -91 
Q 1019 -91 701 211 
Q 384 513 384 1019 
Q 384 1609 779 1909 
Q 1175 2209 1959 2209 
L 2766 2209 
L 2766 2266 
Q 2766 2663 2505 2880 
Q 2244 3097 1772 3097 
Q 1472 3097 1187 3025 
Q 903 2953 641 2809 
L 641 3341 
Q 956 3463 1253 3523 
Q 1550 3584 1831 3584 
Q 2591 3584 2966 3190 
Q 3341 2797 3341 1997 
z
" transform="scale(0.015625)"/>
       <path id="DejaVuSans-56" d="M 2834 3397 
L 2834 2853 
Q 2591 2978 2328 3040 
Q 2066 3103 1784 3103 
Q 1356 3103 1142 2972 
Q 928 2841 928 2578 
Q 928 2378 1081 2264 
Q 1234 2150 1697 2047 
L 1894 2003 
Q 2506 1872 2764 1633 
Q 3022 1394 3022 966 
Q 3022 478 2636 193 
Q 2250 -91 1575 -91 
Q 1294 -91 989 -36 
Q 684 19 347 128 
L 347 722 
Q 666 556 975 473 
Q 1284 391 1588 391 
Q 1994 391 2212 530 
Q 2431 669 2431 922 
Q 2431 1156 2273 1281 
Q 2116 1406 1581 1522 
L 1381 1569 
Q 847 1681 609 1914 
Q 372 2147 372 2553 
Q 372 3047 722 3315 
Q 1072 3584 1716 3584 
Q 2034 3584 2315 3537 
Q 2597 3491 2834 3397 
z
" transform="scale(0.015625)"/>
       <path id="DejaVuSans-57" d="M 1172 4494 
L 1172 3500 
L 2356 3500 
L 2356 3053 
L 1172 3053 
L 1172 1153 
Q 1172 725 1289 603 
Q 1406 481 1766 481 
L 2356 481 
L 2356 0 
L 1766 0 
Q 1100 0 847 248 
Q 594 497 594 1153 
L 594 3053 
L 172 3053 
L 172 3500 
L 594 3500 
L 594 4494 
L 1172 4494 
z
" transform="scale(0.015625)"/>
       <path id="DejaVuSans-3" transform="scale(0.015625)"/>
       <path id="DejaVuSans-3e" d="M 550 4863 
L 1875 4863 
L 1875 4416 
L 1125 4416 
L 1125 -397 
L 1875 -397 
L 1875 -844 
L 550 -844 
L 550 4863 
z
" transform="scale(0.015625)"/>
       <path id="DejaVuSans-50" d="M 3328 2828 
Q 3544 3216 3844 3400 
Q 4144 3584 4550 3584 
Q 5097 3584 5394 3201 
Q 5691 2819 5691 2113 
L 5691 0 
L 5113 0 
L 5113 2094 
Q 5113 2597 4934 2840 
Q 4756 3084 4391 3084 
Q 3944 3084 3684 2787 
Q 3425 2491 3425 1978 
L 3425 0 
L 2847 0 
L 2847 2094 
Q 2847 2600 2669 2842 
Q 2491 3084 2119 3084 
Q 1678 3084 1418 2786 
Q 1159 2488 1159 1978 
L 1159 0 
L 581 0 
L 581 3500 
L 1159 3500 
L 1159 2956 
Q 1356 3278 1631 3431 
Q 1906 3584 2284 3584 
Q 2666 3584 2933 3390 
Q 3200 3197 3328 2828 
z
" transform="scale(0.015625)"/>
       <path id="DejaVuSans-40" d="M 1947 4863 
L 1947 -844 
L 622 -844 
L 622 -397 
L 1369 -397 
L 1369 4416 
L 622 4416 
L 622 4863 
L 1947 4863 
z
" transform="scale(0.015625)"/>
      </defs>
      <use xlink:href="#DejaVuSans-48"/>
      <use xlink:href="#DejaVuSans-44" transform="translate(61.53125 0)"/>
      <use xlink:href="#DejaVuSans-56" transform="translate(122.8125 0)"/>
      <use xlink:href="#DejaVuSans-57" transform="translate(174.90625 0)"/>
      <use xlink:href="#DejaVuSans-3" transform="translate(214.109375 0)"/>
      <use xlink:href="#DejaVuSans-3e" transform="translate(245.890625 0)"/>
      <use xlink:href="#DejaVuSans-50" transform="translate(284.90625 0)"/>
      <use xlink:href="#DejaVuSans-40" transform="translate(382.3125 0)"/>
     </g>
    </g>
   </g>
   <g id="matplotlib.axis_2">
    <g id="ytick_1">
     <g id="line2d_18">
      <defs>
       <path id="m5a209a2335" d="M 0 0 
L -3.5 0 
" style="stroke: #000000; stroke-width: 0.8"/>
      </defs>
      <g>
       <use xlink:href="#m5a209a2335" x="48.921875" y="341.20004" style="stroke: #000000; stroke-width: 0.8"/>
      </g>
     </g>
     <g id="text_7">
      <!-- −500 -->
      <g transform="translate(22.694844 343.85922) scale(0.07 -0.07)">
       <defs>
        <path id="DejaVuSans-18" d="M 691 4666 
L 3169 4666 
L 3169 4134 
L 1269 4134 
L 1269 2991 
Q 1406 3038 1543 3061 
Q 1681 3084 1819 3084 
Q 2600 3084 3056 2656 
Q 3513 2228 3513 1497 
Q 3513 744 3044 326 
Q 2575 -91 1722 -91 
Q 1428 -91 1123 -41 
Q 819 9 494 109 
L 494 744 
Q 775 591 1075 516 
Q 1375 441 1709 441 
Q 2250 441 2565 725 
Q 2881 1009 2881 1497 
Q 2881 1984 2565 2268 
Q 2250 2553 1709 2553 
Q 1456 2553 1204 2497 
Q 953 2441 691 2322 
L 691 4666 
z
" transform="scale(0.015625)"/>
       </defs>
       <use xlink:href="#DejaVuSans-c9c"/>
       <use xlink:href="#DejaVuSans-18" transform="translate(83.796875 0)"/>
       <use xlink:href="#DejaVuSans-13" transform="translate(147.421875 0)"/>
       <use xlink:href="#DejaVuSans-13" transform="translate(211.046875 0)"/>
      </g>
     </g>
    </g>
    <g id="ytick_2">
     <g id="line2d_19">
      <g>
       <use xlink:href="#m5a209a2335" x="48.921875" y="316.833238" style="stroke: #000000; stroke-width: 0.8"/>
      </g>
     </g>
     <g id="text_8">
      <!-- −250 -->
      <g transform="translate(22.694844 319.492418) scale(0.07 -0.07)">
       <use xlink:href="#DejaVuSans-c9c"/>
       <use xlink:href="#DejaVuSans-15" transform="translate(83.796875 0)"/>
       <use xlink:href="#DejaVuSans-18" transform="translate(147.421875 0)"/>
       <use xlink:href="#DejaVuSans-13" transform="translate(211.046875 0)"/>
      </g>
     </g>
    </g>
    <g id="ytick_3">
     <g id="line2d_20">
      <g>
       <use xlink:href="#m5a209a2335" x="48.921875" y="292.466437" style="stroke: #000000; stroke-width: 0.8"/>
      </g>
     </g>
     <g id="text_9">
      <!-- 0 -->
      <g transform="translate(37.468125 295.125616) scale(0.07 -0.07)">
       <use xlink:href="#DejaVuSans-13"/>
      </g>
     </g>
    </g>
    <g id="ytick_4">
     <g id="line2d_21">
      <g>
       <use xlink:href="#m5a209a2335" x="48.921875" y="268.099635" style="stroke: #000000; stroke-width: 0.8"/>
      </g>
     </g>
     <g id="text_10">
      <!-- 250 -->
      <g transform="translate(28.560625 270.758815) scale(0.07 -0.07)">
       <use xlink:href="#DejaVuSans-15"/>
       <use xlink:href="#DejaVuSans-18" transform="translate(63.625 0)"/>
       <use xlink:href="#DejaVuSans-13" transform="translate(127.25 0)"/>
      </g>
     </g>
    </g>
    <g id="ytick_5">
     <g id="line2d_22">
      <g>
       <use xlink:href="#m5a209a2335" x="48.921875" y="243.732833" style="stroke: #000000; stroke-width: 0.8"/>
      </g>
     </g>
     <g id="text_11">
      <!-- 500 -->
      <g transform="translate(28.560625 246.392013) scale(0.07 -0.07)">
       <use xlink:href="#DejaVuSans-18"/>
       <use xlink:href="#DejaVuSans-13" transform="translate(63.625 0)"/>
       <use xlink:href="#DejaVuSans-13" transform="translate(127.25 0)"/>
      </g>
     </g>
    </g>
    <g id="ytick_6">
     <g id="line2d_23">
      <g>
       <use xlink:href="#m5a209a2335" x="48.921875" y="219.366032" style="stroke: #000000; stroke-width: 0.8"/>
      </g>
     </g>
     <g id="text_12">
      <!-- 750 -->
      <g transform="translate(28.560625 222.025211) scale(0.07 -0.07)">
       <defs>
        <path id="DejaVuSans-1a" d="M 525 4666 
L 3525 4666 
L 3525 4397 
L 1831 0 
L 1172 0 
L 2766 4134 
L 525 4134 
L 525 4666 
z
" transform="scale(0.015625)"/>
       </defs>
       <use xlink:href="#DejaVuSans-1a"/>
       <use xlink:href="#DejaVuSans-18" transform="translate(63.625 0)"/>
       <use xlink:href="#DejaVuSans-13" transform="translate(127.25 0)"/>
      </g>
     </g>
    </g>
    <g id="ytick_7">
     <g id="line2d_24">
      <g>
       <use xlink:href="#m5a209a2335" x="48.921875" y="194.99923" style="stroke: #000000; stroke-width: 0.8"/>
      </g>
     </g>
     <g id="text_13">
      <!-- 1000 -->
      <g transform="translate(24.106875 197.65841) scale(0.07 -0.07)">
       <use xlink:href="#DejaVuSans-14"/>
       <use xlink:href="#DejaVuSans-13" transform="translate(63.625 0)"/>
       <use xlink:href="#DejaVuSans-13" transform="translate(127.25 0)"/>
       <use xlink:href="#DejaVuSans-13" transform="translate(190.875 0)"/>
      </g>
     </g>
    </g>
    <g id="ytick_8">
     <g id="line2d_25">
      <g>
       <use xlink:href="#m5a209a2335" x="48.921875" y="170.632428" style="stroke: #000000; stroke-width: 0.8"/>
      </g>
     </g>
     <g id="text_14">
      <!-- 1250 -->
      <g transform="translate(24.106875 173.291608) scale(0.07 -0.07)">
       <use xlink:href="#DejaVuSans-14"/>
       <use xlink:href="#DejaVuSans-15" transform="translate(63.625 0)"/>
       <use xlink:href="#DejaVuSans-18" transform="translate(127.25 0)"/>
       <use xlink:href="#DejaVuSans-13" transform="translate(190.875 0)"/>
      </g>
     </g>
    </g>
    <g id="text_15">
     <!-- north [m] -->
     <g transform="translate(16.772969 278.21875) rotate(-90) scale(0.08 -0.08)">
      <defs>
       <path id="DejaVuSans-51" d="M 3513 2113 
L 3513 0 
L 2938 0 
L 2938 2094 
Q 2938 2591 2744 2837 
Q 2550 3084 2163 3084 
Q 1697 3084 1428 2787 
Q 1159 2491 1159 1978 
L 1159 0 
L 581 0 
L 581 3500 
L 1159 3500 
L 1159 2956 
Q 1366 3272 1645 3428 
Q 1925 3584 2291 3584 
Q 2894 3584 3203 3211 
Q 3513 2838 3513 2113 
z
" transform="scale(0.015625)"/>
       <path id="DejaVuSans-52" d="M 1959 3097 
Q 1497 3097 1228 2736 
Q 959 2375 959 1747 
Q 959 1119 1226 758 
Q 1494 397 1959 397 
Q 2419 397 2687 759 
Q 2956 1122 2956 1747 
Q 2956 2369 2687 2733 
Q 2419 3097 1959 3097 
z
M 1959 3584 
Q 2709 3584 3137 3096 
Q 3566 2609 3566 1747 
Q 3566 888 3137 398 
Q 2709 -91 1959 -91 
Q 1206 -91 779 398 
Q 353 888 353 1747 
Q 353 2609 779 3096 
Q 1206 3584 1959 3584 
z
" transform="scale(0.015625)"/>
       <path id="DejaVuSans-55" d="M 2631 2963 
Q 2534 3019 2420 3045 
Q 2306 3072 2169 3072 
Q 1681 3072 1420 2755 
Q 1159 2438 1159 1844 
L 1159 0 
L 581 0 
L 581 3500 
L 1159 3500 
L 1159 2956 
Q 1341 3275 1631 3429 
Q 1922 3584 2338 3584 
Q 2397 3584 2469 3576 
Q 2541 3569 2628 3553 
L 2631 2963 
z
" transform="scale(0.015625)"/>
       <path id="DejaVuSans-4b" d="M 3513 2113 
L 3513 0 
L 2938 0 
L 2938 2094 
Q 2938 2591 2744 2837 
Q 2550 3084 2163 3084 
Q 1697 3084 1428 2787 
Q 1159 2491 1159 1978 
L 1159 0 
L 581 0 
L 581 4863 
L 1159 4863 
L 1159 2956 
Q 1366 3272 1645 3428 
Q 1925 3584 2291 3584 
Q 2894 3584 3203 3211 
Q 3513 2838 3513 2113 
z
" transform="scale(0.015625)"/>
      </defs>
      <use xlink:href="#DejaVuSans-51"/>
      <use xlink:href="#DejaVuSans-52" transform="translate(63.375 0)"/>
      <use xlink:href="#DejaVuSans-55" transform="translate(124.5625 0)"/>
      <use xlink:href="#DejaVuSans-57" transform="translate(165.671875 0)"/>
      <use xlink:href="#DejaVuSans-4b" transform="translate(204.875 0)"/>
      <use xlink:href="#DejaVuSans-3" transform="translate(268.25 0)"/>
      <use xlink:href="#DejaVuSans-3e" transform="translate(300.03125 0)"/>
      <use xlink:href="#DejaVuSans-50" transform="translate(339.046875 0)"/>
      <use xlink:href="#DejaVuSans-40" transform="translate(436.453125 0)"/>
     </g>
    </g>
   </g>
   <g id="line2d_26">
    <path d="M 289.937605 259.528697 
L 291.680502 259.92158 
L 293.363481 260.273846 
L 295.001935 260.540366 
L 296.616266 260.746679 
L 298.209583 261.034536 
L 299.777325 261.405254 
L 301.315299 261.855687 
L 302.817708 262.390167 
L 304.272737 263.027868 
L 305.636664 263.860719 
L 306.865021 264.929871 
L 308.007343 266.059581 
L 309.086723 267.195928 
L 310.121431 268.314082 
L 311.12632 269.404079 
L 312.112411 270.465609 
L 313.086497 271.504807 
L 314.051018 272.531816 
L 315.004218 273.558834 
L 315.940542 274.598508 
L 316.851219 275.662671 
L 317.724979 276.761363 
L 318.548837 277.902154 
L 319.308909 279.089703 
L 319.991225 280.325568 
L 320.582481 281.60821 
L 321.070733 282.933179 
L 321.445977 284.293442 
L 321.700628 285.679829 
L 321.829861 287.081563 
L 321.831815 288.486845 
L 321.707663 289.883463 
L 321.461528 291.259385 
L 321.100269 292.603333 
L 320.633114 293.905271 
L 320.071159 295.15681 
L 319.426698 296.351458 
L 318.71231 297.484676 
L 317.939452 298.553552 
L 317.115291 299.55551 
L 316.219665 300.478442 
L 315.26587 301.319185 
" clip-path="url(#p31e94b11af)" style="fill: none; stroke: #0369a1; stroke-width: 1.4; stroke-linecap: square"/>
   </g>
   <g id="line2d_27">
    <path d="M 289.937605 259.528697 
L 288.723304 259.267107 
L 287.480282 259.028962 
" clip-path="url(#p31e94b11af)" style="fill: none; stroke: #0369a1; stroke-width: 1.4; stroke-linecap: square"/>
   </g>
   <g id="line2d_28">
    <path d="M 307.316287 263.567923 
L 305.979716 262.456187 
L 304.496635 261.613362 
L 302.926933 260.957133 
L 301.309131 260.408408 
L 299.654552 259.950183 
L 297.969087 259.579713 
L 296.257413 259.301638 
L 294.52444 259.089853 
L 292.760802 258.789621 
L 290.944659 258.416376 
L 289.062907 258.022118 
L 287.114155 257.666415 
L 285.109543 257.411332 
L 283.072364 257.316532 
L 281.036608 257.434867 
L 279.044583 257.808652 
L 277.143852 258.466859 
L 275.383714 259.423311 
L 273.81151 260.675972 
L 272.469007 262.207328 
L 271.389127 263.98577 
" clip-path="url(#p31e94b11af)" style="fill: none; stroke: #0369a1; stroke-width: 1.4; stroke-linecap: square"/>
   </g>
   <g id="line2d_29">
    <path d="M 305.259188 325.163439 
L 303.921523 326.833019 
L 302.452743 328.501014 
L 300.844642 330.142949 
L 299.092516 331.731203 
L 297.195766 333.235179 
L 295.158521 334.621523 
L 292.990307 335.854364 
L 290.706746 336.895592 
L 288.330339 337.705092 
L 285.891396 338.240733 
L 283.429414 338.457443 
L 280.99618 338.302539 
L 278.674814 337.67225 
L 276.586569 336.434845 
L 274.714491 334.823677 
L 273.06361 332.939742 
L 271.637976 330.853056 
L 270.436553 328.62173 
L 269.453294 326.295804 
L 268.677838 323.918517 
L 268.096316 321.526896 
L 267.692132 319.152169 
L 267.446667 316.820124 
L 267.3399 314.551467 
L 267.35095 312.362174 
L 267.458552 310.263829 
L 267.641471 308.26396 
L 267.878883 306.366351 
L 268.150725 304.571351 
L 268.438015 302.876163 
L 268.723165 301.275151 
L 268.990281 299.760133 
L 269.225447 298.3207 
L 269.417001 296.944554 
L 269.555796 295.617867 
L 269.635447 294.325681 
L 269.652551 293.052338 
L 269.606891 291.781958 
L 269.501623 290.498967 
L 269.343457 289.188687 
L 269.142882 287.838007 
L 268.914552 286.436216 
L 268.641592 284.965767 
L 268.235475 283.379894 
L 267.771189 281.674756 
L 267.268579 279.835691 
L 266.753016 277.852585 
L 266.2734 275.731943 
L 265.882887 273.492454 
L 265.633492 271.163817 
L 265.572286 268.785138 
L 265.738404 266.402773 
L 266.160779 264.067693 
L 266.856637 261.832517 
L 267.830768 259.748394 
L 269.075616 257.861909 
L 270.572125 256.212205 
" clip-path="url(#p31e94b11af)" style="fill: none; stroke: #0369a1; stroke-width: 1.4; stroke-linecap: square"/>
   </g>
   <g id="line2d_30">
    <path d="M 260.726167 256.867855 
L 270.190383 246.945658 
" clip-path="url(#p31e94b11af)" style="fill: none; stroke: #4d7c0f; stroke-width: 1.6; stroke-linecap: square"/>
   </g>
   <g id="line2d_31">
    <path d="M 270.190383 246.945658 
L 279.654599 237.023461 
" clip-path="url(#p31e94b11af)" style="fill: none; stroke: #4d7c0f; stroke-width: 1.6; stroke-linecap: square"/>
   </g>
   <g id="line2d_32">
    <path d="M 279.654599 237.023461 
L 289.118816 227.101264 
" clip-path="url(#p31e94b11af)" style="fill: none; stroke: #4d7c0f; stroke-width: 1.6; stroke-linecap: square"/>
   </g>
   <g id="line2d_33">
    <path d="M 270.190383 246.945658 
L 69.770881 171.883621 
" clip-path="url(#p31e94b11af)" style="fill: none; stroke: #4d7c0f; stroke-width: 1.6; stroke-linecap: square"/>
   </g>
   <g id="line2d_34">
    <path d="M 289.118816 227.101264 
L 455.284251 186.011915 
" clip-path="url(#p31e94b11af)" style="fill: none; stroke: #4d7c0f; stroke-width: 1.6; stroke-linecap: square"/>
   </g>
   <g id="line2d_35">
    <path d="M 270.190383 246.945658 
L 182.526002 207.877945 
" clip-path="url(#p31e94b11af)" style="fill: none; stroke: #4d7c0f; stroke-width: 1.6; stroke-linecap: square"/>
   </g>
   <g id="line2d_36">
    <path d="M 289.118816 227.101264 
L 486.750994 302.942784 
" clip-path="url(#p31e94b11af)" style="fill: none; stroke: #4d7c0f; stroke-width: 1.6; stroke-linecap: square"/>
   </g>
   <g id="patch_4">
    <path d="M 48.921875 355.248016 
L 48.921875 163.151984 
" style="fill: none; stroke: #000000; stroke-width: 0.8; stroke-linejoin: miter; stroke-linecap: square"/>
   </g>
   <g id="patch_5">
    <path d="M 507.6 355.248016 
L 507.6 163.151984 
" style="fill: none; stroke: #000000; stroke-width: 0.8; stroke-linejoin: miter; stroke-linecap: square"/>
   </g>
   <g id="patch_6">
    <path d="M 48.921875 355.248016 
L 507.6 355.248016 
" style="fill: none; stroke: #000000; stroke-width: 0.8; stroke-linejoin: miter; stroke-linecap: square"/>
   </g>
   <g id="patch_7">
    <path d="M 48.921875 163.151984 
L 507.6 163.151984 
" style="fill: none; stroke: #000000; stroke-width: 0.8; stroke-linejoin: miter; stroke-linecap: square"/>
   </g>
   <g id="line2d_37">
    <path d="M 260.726167 256.867855 
L 260.126812 259.03104 
L 259.715641 261.247053 
L 259.482121 263.488221 
L 259.410956 265.727743 
L 259.482592 267.940663 
L 259.673913 270.104754 
L 259.959135 272.201289 
L 260.310873 274.215668 
L 260.701436 276.137895 
L 261.104475 277.962923 
L 261.20167 278.392937 
" clip-path="url(#p31e94b11af)" style="fill: none; stroke: #c2410c; stroke-width: 2; stroke-linecap: square"/>
   </g>
   <g id="line2d_38">
    <path d="M 261.20167 278.392937 
L 261.590315 280.098282 
L 261.96936 281.720072 
L 262.305967 283.258284 
L 262.562039 284.71634 
L 262.794317 286.121795 
L 263.022744 287.486223 
L 263.238537 288.814129 
L 263.434775 290.111221 
L 263.606188 291.384075 
L 263.749043 292.63988 
L 263.86107 293.886211 
L 263.941394 295.130832 
L 263.990474 296.381518 
L 264.005588 297.134185 
" clip-path="url(#p31e94b11af)" style="fill: none; stroke: #c2410c; stroke-width: 2; stroke-linecap: square"/>
   </g>
   <g id="line2d_39">
    <path d="M 264.005588 297.134185 
L 264.008844 298.41023 
L 263.98778 299.711426 
L 263.94706 301.044304 
L 263.892335 302.414746 
L 263.83015 303.827867 
L 263.767853 305.287909 
L 263.713502 306.798143 
L 263.675769 308.360769 
L 263.663835 309.976825 
L 263.687294 311.646097 
L 263.756044 313.367025 
L 263.88018 315.136614 
L 264.069873 316.950337 
L 264.081321 317.042079 
" clip-path="url(#p31e94b11af)" style="fill: none; stroke: #c2410c; stroke-width: 2; stroke-linecap: square"/>
   </g>
   <g id="line2d_40">
    <path d="M 264.081321 317.042079 
L 264.350747 318.895487 
L 264.706297 320.778548 
L 265.15757 322.681446 
L 265.713666 324.592421 
L 266.383002 326.497657 
L 267.173104 328.381175 
L 268.090388 330.22472 
L 269.139909 332.007642 
L 270.325106 333.706752 
L 271.647553 335.296076 
L 271.8746 335.540974 
" clip-path="url(#p31e94b11af)" style="fill: none; stroke: #c2410c; stroke-width: 2; stroke-linecap: square"/>
   </g>
   <g id="line2d_41">
    <path d="M 271.8746 335.540974 
L 273.355737 336.965767 
L 274.970418 338.211899 
L 276.714437 339.235747 
L 278.592137 339.950827 
L 280.601956 340.245034 
L 282.662549 340.247321 
L 284.734346 340.003456 
L 286.789106 339.542824 
L 288.804347 338.890557 
L 288.907764 338.851887 
" clip-path="url(#p31e94b11af)" style="fill: none; stroke: #c2410c; stroke-width: 2; stroke-linecap: square"/>
   </g>
   <g id="line2d_42">
    <path d="M 288.907764 338.851887 
L 290.861874 338.023207 
L 292.743069 337.049689 
L 294.540193 335.952714 
L 296.244989 334.752775 
L 297.851833 333.469403 
L 299.357484 332.12108 
L 300.760851 330.725154 
L 302.062769 329.297759 
L 303.265784 327.853751 
L 304.373951 326.406656 
L 305.259188 325.163439 
" clip-path="url(#p31e94b11af)" style="fill: none; stroke: #c2410c; stroke-width: 2; stroke-linecap: square"/>
   </g>
   <g id="line2d_43">
    <path d="M 305.259188 325.163439 
L 306.205744 323.741918 
L 307.075643 322.348298 
L 307.876941 320.990601 
L 308.618273 319.675379 
L 309.308672 318.407706 
L 309.957387 317.191189 
L 310.573699 316.027988 
L 311.166747 314.918846 
L 311.745351 313.863141 
L 312.317832 312.858947 
L 312.891853 311.903107 
L 313.474251 310.991336 
L 314.070883 310.118326 
L 314.686479 309.27787 
L 315.324504 308.463008 
L 315.647644 308.068821 
" clip-path="url(#p31e94b11af)" style="fill: none; stroke: #c2410c; stroke-width: 2; stroke-linecap: square"/>
   </g>
   <g id="line2d_44">
    <path d="M 315.647644 308.068821 
L 316.322527 307.277954 
L 317.022114 306.493076 
L 317.744421 305.705863 
L 318.485559 304.907991 
L 319.239462 304.091296 
L 319.997317 303.247872 
L 320.745957 302.369906 
L 321.454867 301.446068 
L 322.097786 300.471518 
L 322.698138 299.458143 
L 323.256363 298.408611 
L 323.768677 297.324539 
L 324.229891 296.207753 
L 324.634317 295.060652 
L 324.976246 293.886344 
L 325.250267 292.688666 
L 325.269578 292.589366 
" clip-path="url(#p31e94b11af)" style="fill: none; stroke: #c2410c; stroke-width: 2; stroke-linecap: square"/>
   </g>
   <g id="line2d_45">
    <path d="M 325.269578 292.589366 
L 325.464654 291.371515 
L 325.582529 290.140391 
L 325.620052 288.901641 
L 325.575089 287.66124 
L 325.446613 286.425328 
L 325.23475 285.200038 
L 324.940795 283.991308 
L 324.567195 282.804701 
L 324.117494 281.645228 
L 323.596254 280.517174 
L 323.008929 279.42395 
L 322.361727 278.367958 
L 321.661432 277.350488 
L 320.915206 276.371645 
L 320.531012 275.900945 
" clip-path="url(#p31e94b11af)" style="fill: none; stroke: #c2410c; stroke-width: 2; stroke-linecap: square"/>
   </g>
   <g id="line2d_46">
    <path d="M 320.531012 275.900945 
L 319.729757 274.977409 
L 318.900633 274.087493 
L 318.050326 273.227199 
L 317.184838 272.391573 
L 316.309251 271.574905 
L 315.427501 270.770995 
L 314.542186 269.973491 
L 313.654403 269.176292 
L 312.763635 268.374039 
L 311.867694 267.562673 
L 310.962731 266.740105 
L 310.04331 265.907007 
L 309.102555 265.067804 
L 308.132295 264.232122 
L 307.316287 263.567923 
" clip-path="url(#p31e94b11af)" style="fill: none; stroke: #c2410c; stroke-width: 2; stroke-linecap: square"/>
   </g>
   <g id="line2d_47">
    <path d="M 307.316287 263.567923 
L 306.266779 262.793229 
L 305.142012 262.154865 
L 303.947437 261.685545 
L 302.722599 261.299359 
L 301.478239 260.976156 
L 300.21952 260.707765 
L 298.949482 260.491281 
L 297.670348 260.326928 
L 296.384231 260.216967 
L 295.09357 260.159319 
L 293.79713 260.063405 
L 292.484525 259.908405 
L 291.14667 259.71417 
L 289.937605 259.528697 
" clip-path="url(#p31e94b11af)" style="fill: none; stroke: #c2410c; stroke-width: 2; stroke-linecap: square"/>
   </g>
   <g id="text_16">
    <!-- openpit-b2026-11 — spiral, 11 benches, 4 shovels, 4 dumps, seed 1704684320 -->
    <g transform="translate(79.122656 157.151984) scale(0.1 -0.1)">
     <defs>
      <path id="DejaVuSans-53" d="M 1159 525 
L 1159 -1331 
L 581 -1331 
L 581 3500 
L 1159 3500 
L 1159 2969 
Q 1341 3281 1617 3432 
Q 1894 3584 2278 3584 
Q 2916 3584 3314 3078 
Q 3713 2572 3713 1747 
Q 3713 922 3314 415 
Q 2916 -91 2278 -91 
Q 1894 -91 1617 61 
Q 1341 213 1159 525 
z
M 3116 1747 
Q 3116 2381 2855 2742 
Q 2594 3103 2138 3103 
Q 1681 3103 1420 2742 
Q 1159 2381 1159 1747 
Q 1159 1113 1420 752 
Q 1681 391 2138 391 
Q 2594 391 2855 752 
Q 3116 1113 3116 1747 
z
" transform="scale(0.015625)"/>
      <path id="DejaVuSans-4c" d="M 603 3500 
L 1178 3500 
L 1178 0 
L 603 0 
L 603 3500 
z
M 603 4863 
L 1178 4863 
L 1178 4134 
L 603 4134 
L 603 4863 
z
" transform="scale(0.015625)"/>
      <path id="DejaVuSans-10" d="M 313 2009 
L 1997 2009 
L 1997 1497 
L 313 1497 
L 313 2009 
z
" transform="scale(0.015625)"/>
      <path id="DejaVuSans-45" d="M 3116 1747 
Q 3116 2381 2855 2742 
Q 2594 3103 2138 3103 
Q 1681 3103 1420 2742 
Q 1159 2381 1159 1747 
Q 1159 1113 1420 752 
Q 1681 391 2138 391 
Q 2594 391 2855 752 
Q 3116 1113 3116 1747 
z
M 1159 2969 
Q 1341 3281 1617 3432 
Q 1894 3584 2278 3584 
Q 2916 3584 3314 3078 
Q 3713 2572 3713 1747 
Q 3713 922 3314 415 
Q 2916 -91 2278 -91 
Q 1894 -91 1617 61 
Q 1341 213 1159 525 
L 1159 0 
L 581 0 
L 581 4863 
L 1159 4863 
L 1159 2969 
z
" transform="scale(0.015625)"/>
      <path id="DejaVuSans-19" d="M 2113 2584 
Q 1688 2584 1439 2293 
Q 1191 2003 1191 1497 
Q 1191 994 1439 701 
Q 1688 409 2113 409 
Q 2538 409 2786 701 
Q 3034 994 3034 1497 
Q 3034 2003 2786 2293 
Q 2538 2584 2113 2584 
z
M 3366 4563 
L 3366 3988 
Q 3128 4100 2886 4159 
Q 2644 4219 2406 4219 
Q 1781 4219 1451 3797 
Q 1122 3375 1075 2522 
Q 1259 2794 1537 2939 
Q 1816 3084 2150 3084 
Q 2853 3084 3261 2657 
Q 3669 2231 3669 1497 
Q 3669 778 3244 343 
Q 2819 -91 2113 -91 
Q 1303 -91 875 529 
Q 447 1150 447 2328 
Q 447 3434 972 4092 
Q 1497 4750 2381 4750 
Q 2619 4750 2861 4703 
Q 3103 4656 3366 4563 
z
" transform="scale(0.015625)"/>
      <path id="DejaVuSans-af6" d="M 313 1978 
L 6088 1978 
L 6088 1528 
L 313 1528 
L 313 1978 
z
" transform="scale(0.015625)"/>
      <path id="DejaVuSans-4f" d="M 603 4863 
L 1178 4863 
L 1178 0 
L 603 0 
L 603 4863 
z
" transform="scale(0.015625)"/>
      <path id="DejaVuSans-f" d="M 750 794 
L 1409 794 
L 1409 256 
L 897 -744 
L 494 -744 
L 750 256 
L 750 794 
z
" transform="scale(0.015625)"/>
      <path id="DejaVuSans-46" d="M 3122 3366 
L 3122 2828 
Q 2878 2963 2633 3030 
Q 2388 3097 2138 3097 
Q 1578 3097 1268 2742 
Q 959 2388 959 1747 
Q 959 1106 1268 751 
Q 1578 397 2138 397 
Q 2388 397 2633 464 
Q 2878 531 3122 666 
L 3122 134 
Q 2881 22 2623 -34 
Q 2366 -91 2075 -91 
Q 1284 -91 818 406 
Q 353 903 353 1747 
Q 353 2603 823 3093 
Q 1294 3584 2113 3584 
Q 2378 3584 2631 3529 
Q 2884 3475 3122 3366 
z
" transform="scale(0.015625)"/>
      <path id="DejaVuSans-17" d="M 2419 4116 
L 825 1625 
L 2419 1625 
L 2419 4116 
z
M 2253 4666 
L 3047 4666 
L 3047 1625 
L 3713 1625 
L 3713 1100 
L 3047 1100 
L 3047 0 
L 2419 0 
L 2419 1100 
L 313 1100 
L 313 1709 
L 2253 4666 
z
" transform="scale(0.015625)"/>
      <path id="DejaVuSans-59" d="M 191 3500 
L 800 3500 
L 1894 563 
L 2988 3500 
L 3597 3500 
L 2284 0 
L 1503 0 
L 191 3500 
z
" transform="scale(0.015625)"/>
      <path id="DejaVuSans-47" d="M 2906 2969 
L 2906 4863 
L 3481 4863 
L 3481 0 
L 2906 0 
L 2906 525 
Q 2725 213 2448 61 
Q 2172 -91 1784 -91 
Q 1150 -91 751 415 
Q 353 922 353 1747 
Q 353 2572 751 3078 
Q 1150 3584 1784 3584 
Q 2172 3584 2448 3432 
Q 2725 3281 2906 2969 
z
M 947 1747 
Q 947 1113 1208 752 
Q 1469 391 1925 391 
Q 2381 391 2643 752 
Q 2906 1113 2906 1747 
Q 2906 2381 2643 2742 
Q 2381 3103 1925 3103 
Q 1469 3103 1208 2742 
Q 947 2381 947 1747 
z
" transform="scale(0.015625)"/>
      <path id="DejaVuSans-58" d="M 544 1381 
L 544 3500 
L 1119 3500 
L 1119 1403 
Q 1119 906 1312 657 
Q 1506 409 1894 409 
Q 2359 409 2629 706 
Q 2900 1003 2900 1516 
L 2900 3500 
L 3475 3500 
L 3475 0 
L 2900 0 
L 2900 538 
Q 2691 219 2414 64 
Q 2138 -91 1772 -91 
Q 1169 -91 856 284 
Q 544 659 544 1381 
z
M 1991 3584 
L 1991 3584 
z
" transform="scale(0.015625)"/>
      <path id="DejaVuSans-1b" d="M 2034 2216 
Q 1584 2216 1326 1975 
Q 1069 1734 1069 1313 
Q 1069 891 1326 650 
Q 1584 409 2034 409 
Q 2484 409 2743 651 
Q 3003 894 3003 1313 
Q 3003 1734 2745 1975 
Q 2488 2216 2034 2216 
z
M 1403 2484 
Q 997 2584 770 2862 
Q 544 3141 544 3541 
Q 544 4100 942 4425 
Q 1341 4750 2034 4750 
Q 2731 4750 3128 4425 
Q 3525 4100 3525 3541 
Q 3525 3141 3298 2862 
Q 3072 2584 2669 2484 
Q 3125 2378 3379 2068 
Q 3634 1759 3634 1313 
Q 3634 634 3220 271 
Q 2806 -91 2034 -91 
Q 1263 -91 848 271 
Q 434 634 434 1313 
Q 434 1759 690 2068 
Q 947 2378 1403 2484 
z
M 1172 3481 
Q 1172 3119 1398 2916 
Q 1625 2713 2034 2713 
Q 2441 2713 2670 2916 
Q 2900 3119 2900 3481 
Q 2900 3844 2670 4047 
Q 2441 4250 2034 4250 
Q 1625 4250 1398 4047 
Q 1172 3844 1172 3481 
z
" transform="scale(0.015625)"/>
      <path id="DejaVuSans-16" d="M 2597 2516 
Q 3050 2419 3304 2112 
Q 3559 1806 3559 1356 
Q 3559 666 3084 287 
Q 2609 -91 1734 -91 
Q 1441 -91 1130 -33 
Q 819 25 488 141 
L 488 750 
Q 750 597 1062 519 
Q 1375 441 1716 441 
Q 2309 441 2620 675 
Q 2931 909 2931 1356 
Q 2931 1769 2642 2001 
Q 2353 2234 1838 2234 
L 1294 2234 
L 1294 2753 
L 1863 2753 
Q 2328 2753 2575 2939 
Q 2822 3125 2822 3475 
Q 2822 3834 2567 4026 
Q 2313 4219 1838 4219 
Q 1578 4219 1281 4162 
Q 984 4106 628 3988 
L 628 4550 
Q 988 4650 1302 4700 
Q 1616 4750 1894 4750 
Q 2613 4750 3031 4423 
Q 3450 4097 3450 3541 
Q 3450 3153 3228 2886 
Q 3006 2619 2597 2516 
z
" transform="scale(0.015625)"/>
     </defs>
     <use xlink:href="#DejaVuSans-52"/>
     <use xlink:href="#DejaVuSans-53" transform="translate(61.1875 0)"/>
     <use xlink:href="#DejaVuSans-48" transform="translate(124.671875 0)"/>
     <use xlink:href="#DejaVuSans-51" transform="translate(186.203125 0)"/>
     <use xlink:href="#DejaVuSans-53" transform="translate(249.578125 0)"/>
     <use xlink:href="#DejaVuSans-4c" transform="translate(313.0625 0)"/>
     <use xlink:href="#DejaVuSans-57" transform="translate(340.84375 0)"/>
     <use xlink:href="#DejaVuSans-10" transform="translate(380.046875 0)"/>
     <use xlink:href="#DejaVuSans-45" transform="translate(416.125 0)"/>
     <use xlink:href="#DejaVuSans-15" transform="translate(479.609375 0)"/>
     <use xlink:href="#DejaVuSans-13" transform="translate(543.234375 0)"/>
     <use xlink:href="#DejaVuSans-15" transform="translate(606.859375 0)"/>
     <use xlink:href="#DejaVuSans-19" transform="translate(670.484375 0)"/>
     <use xlink:href="#DejaVuSans-10" transform="translate(734.109375 0)"/>
     <use xlink:href="#DejaVuSans-14" transform="translate(770.1875 0)"/>
     <use xlink:href="#DejaVuSans-14" transform="translate(833.8125 0)"/>
     <use xlink:href="#DejaVuSans-3" transform="translate(897.4375 0)"/>
     <use xlink:href="#DejaVuSans-af6" transform="translate(929.21875 0)"/>
     <use xlink:href="#DejaVuSans-3" transform="translate(1029.21875 0)"/>
     <use xlink:href="#DejaVuSans-56" transform="translate(1061 0)"/>
     <use xlink:href="#DejaVuSans-53" transform="translate(1113.09375 0)"/>
     <use xlink:href="#DejaVuSans-4c" transform="translate(1176.578125 0)"/>
     <use xlink:href="#DejaVuSans-55" transform="translate(1204.359375 0)"/>
     <use xlink:href="#DejaVuSans-44" transform="translate(1245.46875 0)"/>
     <use xlink:href="#DejaVuSans-4f" transform="translate(1306.75 0)"/>
     <use xlink:href="#DejaVuSans-f" transform="translate(1334.53125 0)"/>
     <use xlink:href="#DejaVuSans-3" transform="translate(1366.3125 0)"/>
     <use xlink:href="#DejaVuSans-14" transform="translate(1398.09375 0)"/>
     <use xlink:href="#DejaVuSans-14" transform="translate(1461.71875 0)"/>
     <use xlink:href="#DejaVuSans-3" transform="translate(1525.34375 0)"/>
     <use xlink:href="#DejaVuSans-45" transform="translate(1557.125 0)"/>
     <use xlink:href="#DejaVuSans-48" transform="translate(1620.609375 0)"/>
     <use xlink:href="#DejaVuSans-51" transform="translate(1682.140625 0)"/>
     <use xlink:href="#DejaVuSans-46" transform="translate(1745.515625 0)"/>
     <use xlink:href="#DejaVuSans-4b" transform="translate(1800.5 0)"/>
     <use xlink:href="#DejaVuSans-48" transform="translate(1863.875 0)"/>
     <use xlink:href="#DejaVuSans-56" transform="translate(1925.40625 0)"/>
     <use xlink:href="#DejaVuSans-f" transform="translate(1977.5 0)"/>
     <use xlink:href="#DejaVuSans-3" transform="translate(2009.28125 0)"/>
     <use xlink:href="#DejaVuSans-17" transform="translate(2041.0625 0)"/>
     <use xlink:href="#DejaVuSans-3" transform="translate(2104.6875 0)"/>
     <use xlink:href="#DejaVuSans-56" transform="translate(2136.46875 0)"/>
     <use xlink:href="#DejaVuSans-4b" transform="translate(2188.5625 0)"/>
     <use xlink:href="#DejaVuSans-52" transform="translate(2251.9375 0)"/>
     <use xlink:href="#DejaVuSans-59" transform="translate(2313.125 0)"/>
     <use xlink:href="#DejaVuSans-48" transform="translate(2372.3125 0)"/>
     <use xlink:href="#DejaVuSans-4f" transform="translate(2433.84375 0)"/>
     <use xlink:href="#DejaVuSans-56" transform="translate(2461.625 0)"/>
     <use xlink:href="#DejaVuSans-f" transform="translate(2513.71875 0)"/>
     <use xlink:href="#DejaVuSans-3" transform="translate(2545.5 0)"/>
     <use xlink:href="#DejaVuSans-17" transform="translate(2577.28125 0)"/>
     <use xlink:href="#DejaVuSans-3" transform="translate(2640.90625 0)"/>
     <use xlink:href="#DejaVuSans-47" transform="translate(2672.6875 0)"/>
     <use xlink:href="#DejaVuSans-58" transform="translate(2736.171875 0)"/>
     <use xlink:href="#DejaVuSans-50" transform="translate(2799.546875 0)"/>
     <use xlink:href="#DejaVuSans-53" transform="translate(2896.953125 0)"/>
     <use xlink:href="#DejaVuSans-56" transform="translate(2960.4375 0)"/>
     <use xlink:href="#DejaVuSans-f" transform="translate(3012.53125 0)"/>
     <use xlink:href="#DejaVuSans-3" transform="translate(3044.3125 0)"/>
     <use xlink:href="#DejaVuSans-56" transform="translate(3076.09375 0)"/>
     <use xlink:href="#DejaVuSans-48" transform="translate(3128.1875 0)"/>
     <use xlink:href="#DejaVuSans-48" transform="translate(3189.71875 0)"/>
     <use xlink:href="#DejaVuSans-47" transform="translate(3251.25 0)"/>
     <use xlink:href="#DejaVuSans-3" transform="translate(3314.734375 0)"/>
     <use xlink:href="#DejaVuSans-14" transform="translate(3346.515625 0)"/>
     <use xlink:href="#DejaVuSans-1a" transform="translate(3410.140625 0)"/>
     <use xlink:href="#DejaVuSans-13" transform="translate(3473.765625 0)"/>
     <use xlink:href="#DejaVuSans-17" transform="translate(3537.390625 0)"/>
     <use xlink:href="#DejaVuSans-19" transform="translate(3601.015625 0)"/>
     <use xlink:href="#DejaVuSans-1b" transform="translate(3664.640625 0)"/>
     <use xlink:href="#DejaVuSans-17" transform="translate(3728.265625 0)"/>
     <use xlink:href="#DejaVuSans-16" transform="translate(3791.890625 0)"/>
     <use xlink:href="#DejaVuSans-15" transform="translate(3855.515625 0)"/>
     <use xlink:href="#DejaVuSans-13" transform="translate(3919.140625 0)"/>
    </g>
   </g>
   <g id="PathCollection_1">
    <defs>
     <path id="m8c104db66d" d="M 0 5 
L 5 0 
L 0 -5 
L -5 0 
z
" style="stroke: #7c3aed"/>
    </defs>
    <g clip-path="url(#p31e94b11af)">
     <use xlink:href="#m8c104db66d" x="260.726167" y="256.867855" style="fill: #7c3aed; stroke: #7c3aed"/>
    </g>
   </g>
   <g id="PathCollection_2">
    <defs>
     <path id="mb4d31f4359" d="M 0 -4.743416 
L -4.743416 4.743416 
L 4.743416 4.743416 
z
" style="stroke: #111827"/>
    </defs>
    <g clip-path="url(#p31e94b11af)">
     <use xlink:href="#mb4d31f4359" x="315.26587" y="301.319185" style="fill: #111827; stroke: #111827"/>
    </g>
   </g>
   <g id="PathCollection_3">
    <g clip-path="url(#p31e94b11af)">
     <use xlink:href="#mb4d31f4359" x="287.480282" y="259.028962" style="fill: #111827; stroke: #111827"/>
    </g>
   </g>
   <g id="PathCollection_4">
    <g clip-path="url(#p31e94b11af)">
     <use xlink:href="#mb4d31f4359" x="271.389127" y="263.98577" style="fill: #111827; stroke: #111827"/>
    </g>
   </g>
   <g id="PathCollection_5">
    <g clip-path="url(#p31e94b11af)">
     <use xlink:href="#mb4d31f4359" x="270.572125" y="256.212205" style="fill: #111827; stroke: #111827"/>
    </g>
   </g>
   <g id="PathCollection_6">
    <defs>
     <path id="m9b6759ff14" d="M -4.472136 4.472136 
L 4.472136 4.472136 
L 4.472136 -4.472136 
L -4.472136 -4.472136 
z
" style="stroke: #1d4ed8"/>
    </defs>
    <g clip-path="url(#p31e94b11af)">
     <use xlink:href="#m9b6759ff14" x="69.770881" y="171.883621" style="fill: #1d4ed8; stroke: #1d4ed8"/>
    </g>
   </g>
   <g id="PathCollection_7">
    <defs>
     <path id="ma30bcde91e" d="M -2.236068 4.472136 
L 0 2.236068 
L 2.236068 4.472136 
L 4.472136 2.236068 
L 2.236068 0 
L 4.472136 -2.236068 
L 2.236068 -4.472136 
L 0 -2.236068 
L -2.236068 -4.472136 
L -4.472136 -2.236068 
L -2.236068 0 
L -4.472136 2.236068 
z
" style="stroke: #a16207"/>
    </defs>
    <g clip-path="url(#p31e94b11af)">
     <use xlink:href="#ma30bcde91e" x="455.284251" y="186.011915" style="fill: #a16207; stroke: #a16207"/>
    </g>
   </g>
   <g id="PathCollection_8">
    <g clip-path="url(#p31e94b11af)">
     <use xlink:href="#ma30bcde91e" x="182.526002" y="207.877945" style="fill: #a16207; stroke: #a16207"/>
    </g>
   </g>
   <g id="PathCollection_9">
    <g clip-path="url(#p31e94b11af)">
     <use xlink:href="#ma30bcde91e" x="486.750994" y="302.942784" style="fill: #a16207; stroke: #a16207"/>
    </g>
   </g>
   <g id="PathCollection_10">
    <defs>
     <path id="m9563260fc7" d="M 0 2.645751 
C 0.701661 2.645751 1.374679 2.366978 1.870829 1.870829 
C 2.366978 1.374679 2.645751 0.701661 2.645751 0 
C 2.645751 -0.701661 2.366978 -1.374679 1.870829 -1.870829 
C 1.374679 -2.366978 0.701661 -2.645751 0 -2.645751 
C -0.701661 -2.645751 -1.374679 -2.366978 -1.870829 -1.870829 
C -2.366978 -1.374679 -2.645751 -0.701661 -2.645751 0 
C -2.645751 0.701661 -2.366978 1.374679 -1.870829 1.870829 
C -1.374679 2.366978 -0.701661 2.645751 0 2.645751 
z
" style="stroke: #4d7c0f"/>
    </defs>
    <g clip-path="url(#p31e94b11af)">
     <use xlink:href="#m9563260fc7" x="270.190383" y="246.945658" style="fill: #4d7c0f; stroke: #4d7c0f"/>
    </g>
   </g>
   <g id="PathCollection_11">
    <g clip-path="url(#p31e94b11af)">
     <use xlink:href="#m9563260fc7" x="279.654599" y="237.023461" style="fill: #4d7c0f; stroke: #4d7c0f"/>
    </g>
   </g>
   <g id="PathCollection_12">
    <g clip-path="url(#p31e94b11af)">
     <use xlink:href="#m9563260fc7" x="289.118816" y="227.101264" style="fill: #4d7c0f; stroke: #4d7c0f"/>
    </g>
   </g>
   <g id="text_17">
    <!-- 1 -->
    <g transform="translate(321.26587 295.319185) scale(0.08 -0.08)">
     <defs>
      <path id="DejaVuSans-Bold-14" d="M 750 831 
L 1813 831 
L 1813 3847 
L 722 3622 
L 722 4441 
L 1806 4666 
L 2950 4666 
L 2950 831 
L 4013 831 
L 4013 0 
L 750 0 
L 750 831 
z
" transform="scale(0.015625)"/>
     </defs>
     <use xlink:href="#DejaVuSans-Bold-14"/>
    </g>
   </g>
   <g id="text_18">
    <!-- 2 -->
    <g transform="translate(293.480282 253.028962) scale(0.08 -0.08)">
     <defs>
      <path id="DejaVuSans-Bold-15" d="M 1844 884 
L 3897 884 
L 3897 0 
L 506 0 
L 506 884 
L 2209 2388 
Q 2438 2594 2547 2791 
Q 2656 2988 2656 3200 
Q 2656 3528 2436 3728 
Q 2216 3928 1850 3928 
Q 1569 3928 1234 3808 
Q 900 3688 519 3450 
L 519 4475 
Q 925 4609 1322 4679 
Q 1719 4750 2100 4750 
Q 2938 4750 3402 4381 
Q 3866 4013 3866 3353 
Q 3866 2972 3669 2642 
Q 3472 2313 2841 1759 
L 1844 884 
z
" transform="scale(0.015625)"/>
     </defs>
     <use xlink:href="#DejaVuSans-Bold-15"/>
    </g>
   </g>
   <g id="text_19">
    <!-- 3 -->
    <g transform="translate(277.389127 257.98577) scale(0.08 -0.08)">
     <defs>
      <path id="DejaVuSans-Bold-16" d="M 2981 2516 
Q 3453 2394 3698 2092 
Q 3944 1791 3944 1325 
Q 3944 631 3412 270 
Q 2881 -91 1863 -91 
Q 1503 -91 1142 -33 
Q 781 25 428 141 
L 428 1069 
Q 766 900 1098 814 
Q 1431 728 1753 728 
Q 2231 728 2486 893 
Q 2741 1059 2741 1369 
Q 2741 1688 2480 1852 
Q 2219 2016 1709 2016 
L 1228 2016 
L 1228 2791 
L 1734 2791 
Q 2188 2791 2409 2933 
Q 2631 3075 2631 3366 
Q 2631 3634 2415 3781 
Q 2200 3928 1806 3928 
Q 1516 3928 1219 3862 
Q 922 3797 628 3669 
L 628 4550 
Q 984 4650 1334 4700 
Q 1684 4750 2022 4750 
Q 2931 4750 3382 4451 
Q 3834 4153 3834 3553 
Q 3834 3144 3618 2883 
Q 3403 2622 2981 2516 
z
" transform="scale(0.015625)"/>
     </defs>
     <use xlink:href="#DejaVuSans-Bold-16"/>
    </g>
   </g>
   <g id="text_20">
    <!-- 4 -->
    <g transform="translate(276.572125 250.212205) scale(0.08 -0.08)">
     <defs>
      <path id="DejaVuSans-Bold-17" d="M 2356 3675 
L 1038 1722 
L 2356 1722 
L 2356 3675 
z
M 2156 4666 
L 3494 4666 
L 3494 1722 
L 4159 1722 
L 4159 850 
L 3494 850 
L 3494 0 
L 2356 0 
L 2356 850 
L 288 850 
L 288 1881 
L 2156 4666 
z
" transform="scale(0.015625)"/>
     </defs>
     <use xlink:href="#DejaVuSans-Bold-17"/>
    </g>
   </g>
  </g>
 </g>
 <defs>
  <clipPath id="p31e94b11af">
   <rect x="48.921875" y="163.151984" width="458.678125" height="192.096033"/>
  </clipPath>
 </defs>
</svg>
