<?xml version="1.0" encoding="utf-8" standalone="no"?>
<!DOCTYPE svg PUBLIC "-//W3C//DTD SVG 1.1//EN"
  "http://www.w3.org/Graphics/SVG/1.1/DTD/svg11.dtd">
<svg xmlns:xlink="http://www.w3.org/1999/xlink" width="518.4pt" height="518.4pt" viewBox="0 0 518.4 518.4" xmlns="http://www.w3.org/2000/svg" version="1.1">
 <metadata>
  <rdf:RDF xmlns:dc="http://purl.org/dc/elements/1.1/" xmlns:cc="http://creativecommons.org/ns#" xmlns:rdf="http://www.w3.org/1999/02/22-rdf-syntax-ns#">
   <cc:Work>
    <dc:type rdf:resource="http://purl.org/dc/dcmitype/StillImage"/>
    <dc:date>2026-07-02T08:06:06.459091</dc:date>
    <dc:format>image/svg+xml</dc:format>
    <dc:creator>
     <cc:Agent>
      <dc:title>Matplotlib v3.11.0, https://matplotlib.org/</dc:title>
     </cc:Agent>
    </dc:creator>
   </cc:Work>
  </rdf:RDF>
 </metadata>
 <defs>
  <style type="text/css">*{stroke-linejoin: round; stroke-linecap: butt}</style>
 </defs>
 <g id="figure_1">
  <g id="patch_1">
   <path d="M 0 518.4 
L 518.4 518.4 
L 518.4 0 
L 0 0 
z
" style="fill: #ffffff"/>
  </g>
  <g id="axes_1">
   <g id="patch_2">
    <path d="M 53.241875 469.313948 
L 507.6 469.313948 
L 507.6 37.006052 
L 53.241875 37.006052 
z
" style="fill: #ffffff"/>
   </g>
   <g id="patch_3">
    <path d="M 251.709253 302.242102 
L 251.668173 301.971112 
L 251.64102 301.701132 
L 251.627379 301.430835 
L 251.626628 301.158948 
L 251.637953 300.884274 
L 251.660358 300.605709 
L 251.692683 300.322255 
L 251.733624 300.033035 
L 251.781747 299.737307 
L 251.835508 299.434471 
L 251.893278 299.124077 
L 251.953361 298.805831 
L 252.014017 298.479596 
L 252.07348 298.145397 
L 252.129985 297.803415 
L 252.181785 297.453986 
L 252.22717 297.097593 
L 252.264489 296.734863 
L 252.292166 296.366552 
L 252.308717 295.993539 
L 252.312764 295.616811 
L 252.303049 295.23745 
L 252.278445 294.856618 
L 252.237967 294.475543 
L 252.180775 294.095502 
L 252.106186 293.717805 
L 252.013671 293.343779 
L 251.902862 292.974749 
L 251.773548 292.612025 
L 251.625673 292.256888 
L 251.459331 291.910569 
L 251.274763 291.574241 
L 251.072346 291.249005 
L 250.852582 290.93588 
L 250.616092 290.635792 
L 250.363595 290.349573 
L 250.09589 290.077965 
L 249.813793 289.821693 
L 249.518288 289.581239 
L 249.210585 289.35671 
L 248.891831 289.148191 
L 248.563171 288.955661 
L 248.225745 288.778986 
L 247.880678 288.617915 
L 247.529068 288.472085 
L 247.171975 288.341028 
L 246.81041 288.224179 
L 246.445326 288.120885 
L 246.077606 288.030418 
L 245.708057 287.951987 
L 245.337402 287.884746 
L 244.966277 287.827815 
L 244.595225 287.780289 
L 244.224695 287.741252 
L 243.855039 287.709794 
L 243.486517 287.685022 
L 243.119297 287.666077 
L 242.753458 287.652141 
L 242.388998 287.642456 
L 242.025838 287.636332 
L 241.663832 287.633156 
L 241.302774 287.632404 
L 240.942409 287.633647 
L 240.582443 287.636556 
L 240.222556 287.640911 
L 239.862412 287.6466 
L 239.501668 287.653621 
L 239.139993 287.662083 
L 238.777073 287.672203 
L 238.412626 287.684305 
L 238.046414 287.698811 
L 237.678247 287.716237 
L 237.308001 287.737182 
L 236.935618 287.762323 
L 236.56112 287.7924 
L 236.184609 287.828207 
L 235.806276 287.870575 
L 235.426401 287.920367 
L 235.045355 287.978455 
L 234.663598 288.045712 
L 234.281681 288.122995 
L 233.900239 288.211133 
L 233.519986 288.310912 
L 233.141709 288.423061 
L 232.766262 288.548244 
L 232.394551 288.687045 
L 232.02753 288.839957 
L 231.666184 289.00738 
L 231.31152 289.189606 
L 230.964555 289.386819 
L 230.626299 289.599089 
L 230.297745 289.826368 
L 229.979855 290.068497 
L 229.673548 290.3252 
L 229.379686 290.596091 
L 229.099068 290.880678 
L 228.832414 291.178375 
L 228.580364 291.488505 
L 228.343472 291.810313 
L 228.122206 292.142987 
L 227.916973 292.48568 
L 227.728247 292.837614 
L 227.555997 293.197666 
L 227.399932 293.564616 
L 227.259773 293.937346 
L 227.135164 294.314783 
L 227.025657 294.695886 
L 226.930723 295.079662 
L 226.849751 295.465169 
L 226.782059 295.851525 
L 226.726907 296.237915 
L 226.683508 296.623602 
L 226.651038 297.007926 
L 226.628652 297.390313 
L 226.615496 297.770275 
L 226.610723 298.147408 
L 226.613499 298.521399 
L 226.623024 298.892016 
L 226.638535 299.259109 
L 226.659326 299.622602 
L 226.684749 299.982489 
L 226.714227 300.338827 
L 226.747259 300.691726 
L 226.783428 301.04134 
L 226.822402 301.387863 
L 226.863937 301.731509 
L 226.907882 302.072515 
L 226.95417 302.411119 
L 227.002825 302.747559 
L 227.053952 303.08206 
L 227.107734 303.414826 
L 227.164426 303.746033 
L 227.22435 304.075819 
L 227.287881 304.404283 
L 227.355442 304.731476 
L 227.427497 305.057396 
L 227.504532 305.381992 
L 227.587054 305.705153 
L 227.675574 306.026717 
L 227.7706 306.346465 
L 227.872626 306.664127 
L 227.982119 306.979385 
L 228.099514 307.291878 
L 228.225204 307.601203 
L 228.359529 307.906928 
L 228.502774 308.208596 
L 228.65516 308.505731 
L 228.816841 308.797851 
L 228.987898 309.084473 
L 229.168341 309.365123 
L 229.358102 309.639346 
L 229.557043 309.906715 
L 229.764951 310.166838 
L 229.981544 310.419369 
L 230.206475 310.664012 
L 230.439338 310.900533 
L 230.679671 311.128762 
L 230.926969 311.348601 
L 231.180687 311.560024 
L 231.440253 311.763084 
L 231.705074 311.957914 
L 231.974551 312.144722 
L 232.24809 312.32379 
L 232.525112 312.495464 
L 232.805087 312.660127 
L 233.087575 312.818131 
L 233.37192 312.970232 
L 233.657562 313.117211 
L 233.944046 313.259851 
L 234.231 313.39896 
L 234.518133 313.535369 
L 234.805242 313.669926 
L 235.09221 313.803478 
L 235.37901 313.936869 
L 235.665706 314.070917 
L 235.952452 314.206409 
L 236.239492 314.344082 
L 236.527153 314.484612 
L 236.815845 314.6286 
L 237.106053 314.776561 
L 237.39833 314.928912 
L 237.693284 315.085957 
L 237.991577 315.247882 
L 238.293904 315.414746 
L 238.600986 315.586468 
L 238.913555 315.762828 
L 239.232343 315.943461 
L 239.558063 316.12785 
L 239.891396 316.315333 
L 240.232976 316.505099 
L 240.583376 316.696193 
L 240.943092 316.887523 
L 241.312528 317.077865 
L 241.691984 317.265874 
L 242.081642 317.450095 
L 242.481558 317.628977 
L 242.891647 317.800886 
L 243.311676 317.964125 
L 243.741261 318.116947 
L 244.179858 318.257577 
L 244.62676 318.384234 
L 245.081103 318.495148 
L 245.541857 318.588582 
L 246.007841 318.662856 
L 246.477721 318.716368 
L 246.950026 318.747611 
L 247.423153 318.755198 
L 247.895384 318.737882 
L 248.364899 318.694568 
L 248.829798 318.624338 
L 249.288116 318.526458 
L 249.737844 318.400395 
L 250.176955 318.24583 
L 250.603422 318.062659 
L 251.015246 317.851002 
L 251.410479 317.611206 
L 251.787246 317.343846 
L 252.143772 317.049714 
L 252.478405 316.729821 
L 252.789636 316.385383 
L 253.076118 316.01781 
L 253.33669 315.628691 
L 253.57039 315.219775 
L 253.776466 314.79295 
L 253.954392 314.350225 
L 254.103869 313.893699 
L 254.224827 313.425538 
L 254.317414 312.947937 
L 254.381919 312.463042 
L 254.418842 311.972997 
L 254.429461 311.480305 
L 254.415118 310.987256 
L 254.377312 310.495998 
L 254.317713 310.008541 
L 254.238152 309.52675 
L 254.140608 309.05232 
L 254.02718 308.586772 
L 253.900063 308.131431 
L 253.761528 307.687421 
L 253.613886 307.255655 
L 253.459469 306.836829 
L 253.300593 306.431421 
L 253.139539 306.039693 
L 252.978521 305.661692 
L 252.819662 305.297258 
L 252.664969 304.946035 
L 252.516311 304.607482 
L 252.375399 304.280886 
L 252.243769 303.96538 
L 252.122761 303.659962 
L 252.013515 303.363512 
L 251.916954 303.074814 
L 251.833778 302.792578 
L 251.764462 302.515465 
L 251.709253 302.242102 
z
" clip-path="url(#p4d6d31481d)" style="fill: #e8edf2; stroke: #e8edf2; stroke-linejoin: miter"/>
   </g>
   <g id="line2d_1">
    <path d="M 265.861576 302.242102 
L 265.635017 297.893353 
L 265.392079 293.359673 
L 265.047535 290.66181 
L 264.612391 288.616282 
L 263.986999 286.585773 
L 263.147939 284.607858 
L 262.084365 282.72253 
L 260.798341 280.968283 
L 259.303773 279.378636 
L 257.623821 277.980008 
L 255.789788 276.787496 
L 253.837301 275.803445 
L 251.800721 275.020962 
L 249.71071 274.425088 
L 246.882689 273.885122 
L 244.041603 273.586955 
L 240.495266 273.484502 
L 236.951434 273.638128 
L 234.110265 273.950859 
L 231.267482 274.465816 
L 228.445881 275.229909 
L 226.369659 275.996172 
L 224.356216 276.947137 
L 222.435876 278.093022 
L 220.640391 279.435406 
L 218.999827 280.966367 
L 217.539613 282.668931 
L 216.278777 284.519087 
L 215.227226 286.487109 
L 214.380816 288.538404 
L 213.728183 290.641362 
L 213.129154 293.47996 
L 212.795475 296.316676 
L 212.681844 299.125733 
L 212.756633 301.898163 
L 213.008006 304.633807 
L 213.44409 307.331958 
L 214.087623 309.98346 
L 214.966851 312.566477 
L 216.105253 315.04699 
L 217.135794 316.815361 
L 218.315481 318.485365 
L 219.635479 320.041915 
L 221.081446 321.474335 
L 223.173432 323.183754 
L 225.409926 324.67044 
L 227.746083 325.962258 
L 230.75885 327.371314 
L 234.495549 328.87228 
L 238.425959 330.234819 
L 241.922585 331.217032 
L 244.890042 331.811406 
L 247.207507 332.08225 
L 249.582226 332.151902 
L 251.981047 331.9755 
L 254.359094 331.514781 
L 255.906557 331.035833 
L 257.403572 330.413995 
L 258.832493 329.648411 
L 260.176143 328.741856 
L 261.418583 327.700757 
L 262.54587 326.535036 
L 263.546723 325.257752 
L 264.413085 323.884583 
L 265.140485 322.433127 
L 265.969924 320.149838 
L 266.500731 317.797433 
L 266.770149 315.438471 
L 266.828213 313.123409 
L 266.677713 310.163535 
L 266.030629 304.119999 
L 265.861576 302.242102 
L 265.861576 302.242102 
" clip-path="url(#p4d6d31481d)" style="fill: none; stroke: #9aa5b1; stroke-width: 0.6; stroke-linecap: square"/>
   </g>
   <g id="line2d_2">
    <path d="M 264.092535 302.242102 
L 263.908558 298.781631 
L 263.677052 293.330058 
L 263.343014 290.77867 
L 262.91104 288.848694 
L 262.287972 286.940766 
L 261.454063 285.093109 
L 260.40237 283.345072 
L 259.138615 281.733308 
L 257.679662 280.288579 
L 256.050676 279.033977 
L 254.284798 277.979284 
L 252.416896 277.123342 
L 250.479749 276.456015 
L 247.83708 275.828885 
L 245.169397 275.453675 
L 241.836574 275.260632 
L 238.511076 275.310023 
L 235.17828 275.58793 
L 232.503346 276.004756 
L 229.836769 276.641879 
L 227.864137 277.294694 
L 225.940572 278.118609 
L 224.09466 279.126674 
L 222.35742 280.3239 
L 220.759263 281.705985 
L 219.326925 283.259316 
L 218.081058 284.962354 
L 217.03526 286.788242 
L 216.188837 288.703475 
L 215.532277 290.675804 
L 214.924174 293.346692 
L 214.577455 296.019743 
L 214.444484 298.665781 
L 214.525539 301.919957 
L 214.857188 305.116276 
L 215.314819 307.632025 
L 215.970051 310.10049 
L 216.85132 312.498187 
L 217.980021 314.790263 
L 218.99343 316.41572 
L 220.145628 317.942695 
L 221.426232 319.357951 
L 223.306297 321.057707 
L 225.342492 322.5422 
L 227.490067 323.828286 
L 230.272686 325.218319 
L 233.717207 326.687119 
L 237.937938 328.258906 
L 241.171921 329.268691 
L 243.927588 329.927541 
L 246.091621 330.275132 
L 248.322957 330.446551 
L 250.593365 330.395715 
L 252.862337 330.081384 
L 255.079252 329.472161 
L 256.500245 328.892974 
L 257.855338 328.173735 
L 259.12753 327.317105 
L 260.301061 326.32939 
L 261.362151 325.220382 
L 262.299682 324.003005 
L 263.105748 322.692788 
L 263.776028 321.307178 
L 264.526039 319.127733 
L 264.985303 316.884754 
L 265.191457 314.640203 
L 265.194877 312.443911 
L 264.985442 309.648055 
L 264.092535 302.242102 
L 264.092535 302.242102 
" clip-path="url(#p4d6d31481d)" style="fill: none; stroke: #9aa5b1; stroke-width: 0.6; stroke-linecap: square"/>
   </g>
   <g id="line2d_3">
    <path d="M 262.323495 302.242102 
L 262.158815 299.042213 
L 261.981799 293.376995 
L 261.659994 290.97201 
L 261.233332 289.158186 
L 260.615775 287.373594 
L 259.791363 285.656684 
L 258.757013 284.045758 
L 257.521912 282.575284 
L 256.105465 281.273186 
L 254.534993 280.158371 
L 252.844509 279.235884 
L 251.067799 278.501177 
L 249.235751 277.941118 
L 246.750196 277.43184 
L 244.252254 277.144252 
L 241.138548 277.021217 
L 238.030502 277.105987 
L 234.909699 277.39744 
L 232.40218 277.817006 
L 229.904831 278.453181 
L 227.459141 279.356041 
L 225.694688 280.232224 
L 224.023044 281.288906 
L 222.474597 282.525378 
L 221.077085 283.931514 
L 219.852856 285.488666 
L 218.817791 287.17223 
L 217.975826 288.951139 
L 217.319308 290.792613 
L 216.707066 293.295845 
L 216.352516 295.805822 
L 216.20635 298.289775 
L 216.256944 301.339297 
L 216.532938 304.329062 
L 217.045201 307.264221 
L 217.655844 309.5642 
L 218.476161 311.798618 
L 219.528138 313.934204 
L 220.818837 315.932152 
L 222.336444 317.75657 
L 224.051319 319.383175 
L 225.921856 320.805647 
L 227.904077 322.036826 
L 230.47845 323.362523 
L 234.201328 324.985611 
L 238.708985 326.708077 
L 241.770071 327.68224 
L 244.390443 328.308776 
L 246.450595 328.626081 
L 248.572134 328.761072 
L 250.723292 328.668528 
L 252.860546 328.309728 
L 254.931318 327.657283 
L 256.246584 327.052478 
L 257.489628 326.31213 
L 258.644149 325.440616 
L 259.695455 324.44589 
L 260.631186 323.339233 
L 261.441928 322.134804 
L 262.121684 320.849041 
L 262.891509 318.807253 
L 263.370005 316.685688 
L 263.589429 314.548279 
L 263.596656 312.448632 
L 263.374941 309.773523 
L 262.656553 304.964328 
L 262.323495 302.242102 
L 262.323495 302.242102 
" clip-path="url(#p4d6d31481d)" style="fill: none; stroke: #9aa5b1; stroke-width: 0.6; stroke-linecap: square"/>
   </g>
   <g id="line2d_4">
    <path d="M 260.554455 302.242102 
L 260.416112 299.797302 
L 260.253893 292.939205 
L 259.880185 290.674053 
L 259.400201 288.984976 
L 258.725148 287.345006 
L 257.847216 285.792357 
L 256.771177 284.362614 
L 255.51287 283.085547 
L 254.096364 281.983329 
L 252.55364 281.064913 
L 250.918347 280.328395 
L 249.221994 279.762988 
L 246.910836 279.243572 
L 244.583654 278.942932 
L 241.68406 278.795424 
L 238.215417 278.865336 
L 235.309416 279.12073 
L 232.384104 279.614826 
L 230.055438 280.245262 
L 227.784566 281.138162 
L 226.15662 282.001798 
L 224.626084 283.038891 
L 223.222241 284.246015 
L 221.970765 285.610513 
L 220.891319 287.111876 
L 219.996595 288.724348 
L 219.285071 290.415592 
L 218.602705 292.74007 
L 218.186532 295.088828 
L 217.986623 297.420088 
L 217.971098 300.279477 
L 218.163664 303.074403 
L 218.555881 305.814879 
L 219.183105 308.499681 
L 219.8916 310.588502 
L 220.811468 312.594018 
L 221.954765 314.479613 
L 223.31535 316.20928 
L 224.868662 317.756468 
L 226.576429 319.111267 
L 228.395674 320.282862 
L 230.76535 321.538652 
L 234.186371 323.073921 
L 238.850498 324.944706 
L 242.290875 326.090777 
L 244.776033 326.687269 
L 246.731345 326.975411 
L 248.741158 327.075143 
L 250.770275 326.94265 
L 252.772444 326.542237 
L 254.693591 325.850933 
L 255.901026 325.224383 
L 257.030306 324.467602 
L 258.066017 323.586656 
L 258.994713 322.591076 
L 259.805598 321.493511 
L 260.491075 320.309198 
L 261.276332 318.407887 
L 261.772606 316.411411 
L 262.00498 314.383872 
L 262.016583 312.38243 
L 261.783593 309.827907 
L 261.190223 306.339774 
L 260.606978 302.733388 
L 260.554455 302.242102 
L 260.554455 302.242102 
" clip-path="url(#p4d6d31481d)" style="fill: none; stroke: #9aa5b1; stroke-width: 0.6; stroke-linecap: square"/>
   </g>
   <g id="line2d_5">
    <path d="M 258.785415 302.242102 
L 258.66048 300.014697 
L 258.542901 292.645853 
L 258.112483 290.530658 
L 257.580805 288.975819 
L 256.855019 287.489709 
L 255.935343 286.108644 
L 254.833684 284.864105 
L 253.571055 283.780623 
L 252.17648 282.871579 
L 250.683185 282.137765 
L 248.593116 281.416474 
L 246.447714 280.950915 
L 243.752656 280.646881 
L 240.538854 280.560529 
L 237.327202 280.691887 
L 234.624636 280.986367 
L 232.448553 281.396003 
L 230.288072 282.01593 
L 228.191873 282.893547 
L 226.700216 283.739921 
L 225.310123 284.751952 
L 224.049447 285.923523 
L 222.941543 287.239622 
L 222.003512 288.678351 
L 221.2435 290.212228 
L 220.65577 291.809033 
L 220.117176 293.986303 
L 219.816747 296.169037 
L 219.69915 298.854013 
L 219.832258 301.985339 
L 220.213068 305.031846 
L 220.746398 307.515538 
L 221.352805 309.454107 
L 222.149145 311.323633 
L 223.152067 313.090242 
L 224.36102 314.718412 
L 225.75675 316.179842 
L 227.304819 317.461268 
L 228.963654 318.568378 
L 231.132108 319.748814 
L 234.712266 321.384857 
L 240.015065 323.577904 
L 242.734548 324.49607 
L 245.084324 325.064481 
L 246.933591 325.324521 
L 248.829518 325.39028 
L 250.733643 325.219883 
L 252.597337 324.781145 
L 254.36553 324.055871 
L 255.463245 323.411822 
L 256.477357 322.643648 
L 257.393515 321.759055 
L 258.199688 320.769052 
L 259.183738 319.117404 
L 259.884548 317.315897 
L 260.303977 315.42519 
L 260.467526 313.508806 
L 260.418702 311.623298 
L 260.118768 309.229692 
L 259.346566 305.495337 
L 258.838475 302.689803 
L 258.785415 302.242102 
L 258.785415 302.242102 
" clip-path="url(#p4d6d31481d)" style="fill: none; stroke: #9aa5b1; stroke-width: 0.6; stroke-linecap: square"/>
   </g>
   <g id="line2d_6">
    <path d="M 257.016374 302.242102 
L 256.904848 300.232091 
L 257.05119 296.808545 
L 257.058131 294.457468 
L 256.849331 292.499412 
L 256.512431 291.029187 
L 255.996234 289.596903 
L 255.292062 288.239641 
L 254.403739 286.991921 
L 253.346078 285.882514 
L 252.142052 284.932682 
L 250.822482 284.150542 
L 249.419798 283.533448 
L 247.471904 282.946552 
L 245.487446 282.586546 
L 243.008725 282.371643 
L 240.059123 282.336308 
L 236.606833 282.518391 
L 234.104228 282.843791 
L 232.093256 283.288088 
L 230.112701 283.952143 
L 228.21858 284.876921 
L 226.894749 285.753882 
L 225.685219 286.786045 
L 224.614605 287.961709 
L 223.701581 289.261398 
L 222.95793 290.660455 
L 222.381306 292.12771 
L 221.852386 294.139208 
L 221.558118 296.161407 
L 221.442569 298.647421 
L 221.560441 301.535403 
L 221.889896 304.33328 
L 222.342145 306.612966 
L 223.010133 308.835426 
L 223.737552 310.544874 
L 224.656136 312.158962 
L 225.766151 313.643651 
L 227.049305 314.972031 
L 228.472252 316.132131 
L 230.386173 317.35781 
L 232.78533 318.583001 
L 239.133524 321.417964 
L 242.051318 322.560816 
L 244.19029 323.198012 
L 246.470469 323.617178 
L 248.241569 323.721802 
L 250.024078 323.599383 
L 251.770031 323.217473 
L 253.425003 322.557568 
L 254.933082 321.618099 
L 256.242545 320.415637 
L 257.311515 318.984016 
L 258.112777 317.37137 
L 258.636714 315.635148 
L 258.892562 313.836472 
L 258.913791 312.037514 
L 258.661535 309.725917 
L 258.091896 307.082583 
L 257.069972 302.646219 
L 257.016374 302.242102 
L 257.016374 302.242102 
" clip-path="url(#p4d6d31481d)" style="fill: none; stroke: #9aa5b1; stroke-width: 0.6; stroke-linecap: square"/>
   </g>
   <g id="line2d_7">
    <path d="M 255.247334 302.242102 
L 255.147538 300.8108 
L 255.266727 298.571485 
L 255.460251 295.2166 
L 255.333903 293.412091 
L 254.942715 291.603068 
L 254.446153 290.293578 
L 253.768847 289.064747 
L 252.918032 287.948956 
L 251.911017 286.972191 
L 250.772885 286.151584 
L 249.535289 285.490571 
L 247.784175 284.845904 
L 245.97637 284.436985 
L 243.70504 284.176819 
L 241.007789 284.09617 
L 237.417729 284.217035 
L 234.671578 284.519386 
L 232.362318 285.024785 
L 230.550557 285.667492 
L 228.832385 286.56337 
L 227.644989 287.410225 
L 226.574258 288.402101 
L 225.642507 289.524968 
L 224.865879 290.757982 
L 224.251637 292.074787 
L 223.672936 293.90765 
L 223.33638 295.770566 
L 223.181432 298.071367 
L 223.258496 300.736595 
L 223.582802 303.719571 
L 224.062941 306.202641 
L 224.667462 308.216746 
L 225.32596 309.766115 
L 226.160204 311.227682 
L 227.171282 312.568891 
L 228.341859 313.764221 
L 229.639685 314.802995 
L 231.381422 315.895284 
L 233.92006 317.16014 
L 242.408095 320.973083 
L 244.412793 321.590714 
L 246.551949 321.979412 
L 248.207782 322.054583 
L 249.863448 321.899622 
L 251.469002 321.486025 
L 252.969558 320.800354 
L 254.310564 319.846681 
L 255.443556 318.647117 
L 256.33162 317.240235 
L 256.953742 315.677436 
L 257.306613 314.017207 
L 257.408167 312.321356 
L 257.297994 310.648858 
L 256.913048 308.533757 
L 256.116409 305.724223 
L 255.367563 302.966864 
L 255.247334 302.242102 
L 255.247334 302.242102 
" clip-path="url(#p4d6d31481d)" style="fill: none; stroke: #9aa5b1; stroke-width: 0.6; stroke-linecap: square"/>
   </g>
   <g id="line2d_8">
    <path d="M 253.478294 302.242102 
L 253.387083 300.984874 
L 253.507467 299.348213 
L 253.86237 295.975731 
L 253.818476 294.324771 
L 253.524451 292.660437 
L 253.109851 291.452802 
L 252.521805 290.319494 
L 251.767062 289.292374 
L 250.862405 288.396942 
L 249.832358 287.649887 
L 248.707983 287.054243 
L 247.114751 286.483395 
L 245.471323 286.1324 
L 243.412168 285.921448 
L 240.571546 285.867549 
L 236.908284 286.013892 
L 234.396154 286.332842 
L 232.712007 286.737167 
L 231.068616 287.353355 
L 229.525757 288.214058 
L 228.473723 289.02523 
L 227.539859 289.970565 
L 226.743981 291.033934 
L 226.099629 292.193427 
L 225.47754 293.839827 
L 225.102067 295.538346 
L 224.912229 297.652815 
L 224.961406 300.09982 
L 225.288267 303.190964 
L 225.783736 305.792316 
L 226.324791 307.598066 
L 227.086422 309.323389 
L 227.877435 310.6074 
L 228.82825 311.773066 
L 229.918282 312.799312 
L 231.424569 313.880495 
L 233.346479 314.930994 
L 242.688134 319.385915 
L 244.558314 319.985661 
L 246.046903 320.283997 
L 247.578904 320.401097 
L 249.114174 320.297095 
L 250.603423 319.94321 
L 251.992402 319.325678 
L 253.227168 318.448197 
L 254.259837 317.332464 
L 255.054043 316.016592 
L 255.589284 314.551487 
L 255.862727 312.995102 
L 255.89274 311.408677 
L 255.719301 309.850589 
L 255.263467 307.894706 
L 254.390689 305.335129 
L 253.60067 302.879721 
L 253.478294 302.242102 
L 253.478294 302.242102 
" clip-path="url(#p4d6d31481d)" style="fill: none; stroke: #9aa5b1; stroke-width: 0.6; stroke-linecap: square"/>
   </g>
   <g id="line2d_9">
    <path d="M 251.709253 302.242102 
L 251.626628 301.158948 
L 251.781747 299.737307 
L 252.292166 296.366552 
L 252.278445 294.856618 
L 252.013671 293.343779 
L 251.625673 292.256888 
L 251.072346 291.249005 
L 250.363595 290.349573 
L 249.518288 289.581239 
L 248.563171 288.955661 
L 247.171975 288.341028 
L 245.708057 287.951987 
L 243.855039 287.709794 
L 241.302774 287.632404 
L 237.308001 287.737182 
L 235.045355 287.978455 
L 233.141709 288.423061 
L 231.666184 289.00738 
L 230.297745 289.826368 
L 229.379686 290.596091 
L 228.580364 291.488505 
L 227.916973 292.48568 
L 227.259773 293.937346 
L 226.849751 295.465169 
L 226.651038 297.007926 
L 226.623024 298.892016 
L 226.822402 301.387863 
L 227.287881 304.404283 
L 227.7706 306.346465 
L 228.359529 307.906928 
L 229.168341 309.365123 
L 229.981544 310.419369 
L 231.180687 311.560024 
L 232.525112 312.495464 
L 234.231 313.39896 
L 238.600986 315.586468 
L 242.081642 317.450095 
L 243.741261 318.116947 
L 245.541857 318.588582 
L 246.950026 318.747611 
L 248.364899 318.694568 
L 249.737844 318.400395 
L 251.015246 317.851002 
L 252.143772 317.049714 
L 253.076118 316.01781 
L 253.776466 314.79295 
L 254.224827 313.425538 
L 254.418842 311.972997 
L 254.377312 310.495998 
L 254.140608 309.05232 
L 253.613886 307.255655 
L 252.664969 304.946035 
L 251.833778 302.792578 
L 251.709253 302.242102 
L 251.709253 302.242102 
" clip-path="url(#p4d6d31481d)" style="fill: none; stroke: #9aa5b1; stroke-width: 0.6; stroke-linecap: square"/>
   </g>
   <g id="matplotlib.axis_1">
    <g id="xtick_1">
     <g id="line2d_10">
      <defs>
       <path id="m8e79bb49c4" d="M 0 0 
L 0 3.5 
" style="stroke: #000000; stroke-width: 0.8"/>
      </defs>
      <g>
       <use xlink:href="#m8e79bb49c4" x="103.121656" y="469.313948" style="stroke: #000000; stroke-width: 0.8"/>
      </g>
     </g>
     <g id="text_1">
      <!-- −1000 -->
      <g transform="translate(91.281266 481.632307) scale(0.07 -0.07)">
       <defs>
        <path id="DejaVuSans-c9c" d="M 678 2272 
L 4684 2272 
L 4684 1741 
L 678 1741 
L 678 2272 
z
" transform="scale(0.015625)"/>
        <path id="DejaVuSans-14" d="M 794 531 
L 1825 531 
L 1825 4091 
L 703 3866 
L 703 4441 
L 1819 4666 
L 2450 4666 
L 2450 531 
L 3481 531 
L 3481 0 
L 794 0 
L 794 531 
z
" transform="scale(0.015625)"/>
        <path id="DejaVuSans-13" d="M 2034 4250 
Q 1547 4250 1301 3770 
Q 1056 3291 1056 2328 
Q 1056 1369 1301 889 
Q 1547 409 2034 409 
Q 2525 409 2770 889 
Q 3016 1369 3016 2328 
Q 3016 3291 2770 3770 
Q 2525 4250 2034 4250 
z
M 2034 4750 
Q 2819 4750 3233 4129 
Q 3647 3509 3647 2328 
Q 3647 1150 3233 529 
Q 2819 -91 2034 -91 
Q 1250 -91 836 529 
Q 422 1150 422 2328 
Q 422 3509 836 4129 
Q 1250 4750 2034 4750 
z
" transform="scale(0.015625)"/>
       </defs>
       <use xlink:href="#DejaVuSans-c9c"/>
       <use xlink:href="#DejaVuSans-14" transform="translate(83.796875 0)"/>
       <use xlink:href="#DejaVuSans-13" transform="translate(147.421875 0)"/>
       <use xlink:href="#DejaVuSans-13" transform="translate(211.046875 0)"/>
       <use xlink:href="#DejaVuSans-13" transform="translate(274.671875 0)"/>
      </g>
     </g>
    </g>
    <g id="xtick_2">
     <g id="line2d_11">
      <g>
       <use xlink:href="#m8e79bb49c4" x="171.897035" y="469.313948" style="stroke: #000000; stroke-width: 0.8"/>
      </g>
     </g>
     <g id="text_2">
      <!-- −500 -->
      <g transform="translate(162.28352 481.632307) scale(0.07 -0.07)">
       <defs>
        <path id="DejaVuSans-18" d="M 691 4666 
L 3169 4666 
L 3169 4134 
L 1269 4134 
L 1269 2991 
Q 1406 3038 1543 3061 
Q 1681 3084 1819 3084 
Q 2600 3084 3056 2656 
Q 3513 2228 3513 1497 
Q 3513 744 3044 326 
Q 2575 -91 1722 -91 
Q 1428 -91 1123 -41 
Q 819 9 494 109 
L 494 744 
Q 775 591 1075 516 
Q 1375 441 1709 441 
Q 2250 441 2565 725 
Q 2881 1009 2881 1497 
Q 2881 1984 2565 2268 
Q 2250 2553 1709 2553 
Q 1456 2553 1204 2497 
Q 953 2441 691 2322 
L 691 4666 
z
" transform="scale(0.015625)"/>
       </defs>
       <use xlink:href="#DejaVuSans-c9c"/>
       <use xlink:href="#DejaVuSans-18" transform="translate(83.796875 0)"/>
       <use xlink:href="#DejaVuSans-13" transform="translate(147.421875 0)"/>
       <use xlink:href="#DejaVuSans-13" transform="translate(211.046875 0)"/>
      </g>
     </g>
    </g>
    <g id="xtick_3">
     <g id="line2d_12">
      <g>
       <use xlink:href="#m8e79bb49c4" x="240.672414" y="469.313948" style="stroke: #000000; stroke-width: 0.8"/>
      </g>
     </g>
     <g id="text_3">
      <!-- 0 -->
      <g transform="translate(238.445539 481.632307) scale(0.07 -0.07)">
       <use xlink:href="#DejaVuSans-13"/>
      </g>
     </g>
    </g>
    <g id="xtick_4">
     <g id="line2d_13">
      <g>
       <use xlink:href="#m8e79bb49c4" x="309.447793" y="469.313948" style="stroke: #000000; stroke-width: 0.8"/>
      </g>
     </g>
     <g id="text_4">
      <!-- 500 -->
      <g transform="translate(302.767168 481.632307) scale(0.07 -0.07)">
       <use xlink:href="#DejaVuSans-18"/>
       <use xlink:href="#DejaVuSans-13" transform="translate(63.625 0)"/>
       <use xlink:href="#DejaVuSans-13" transform="translate(127.25 0)"/>
      </g>
     </g>
    </g>
    <g id="xtick_5">
     <g id="line2d_14">
      <g>
       <use xlink:href="#m8e79bb49c4" x="378.223172" y="469.313948" style="stroke: #000000; stroke-width: 0.8"/>
      </g>
     </g>
     <g id="text_5">
      <!-- 1000 -->
      <g transform="translate(369.315672 481.632307) scale(0.07 -0.07)">
       <use xlink:href="#DejaVuSans-14"/>
       <use xlink:href="#DejaVuSans-13" transform="translate(63.625 0)"/>
       <use xlink:href="#DejaVuSans-13" transform="translate(127.25 0)"/>
       <use xlink:href="#DejaVuSans-13" transform="translate(190.875 0)"/>
      </g>
     </g>
    </g>
    <g id="xtick_6">
     <g id="line2d_15">
      <g>
       <use xlink:href="#m8e79bb49c4" x="446.998551" y="469.313948" style="stroke: #000000; stroke-width: 0.8"/>
      </g>
     </g>
     <g id="text_6">
      <!-- 1500 -->
      <g transform="translate(438.091051 481.632307) scale(0.07 -0.07)">
       <use xlink:href="#DejaVuSans-14"/>
       <use xlink:href="#DejaVuSans-18" transform="translate(63.625 0)"/>
       <use xlink:href="#DejaVuSans-13" transform="translate(127.25 0)"/>
       <use xlink:href="#DejaVuSans-13" transform="translate(190.875 0)"/>
      </g>
     </g>
    </g>
    <g id="text_7">
     <!-- east [m] -->
     <g transform="translate(263.567813 493.392698) scale(0.08 -0.08)">
      <defs>
       <path id="DejaVuSans-48" d="M 3597 1894 
L 3597 1613 
L 953 1613 
Q 991 1019 1311 708 
Q 1631 397 2203 397 
Q 2534 397 2845 478 
Q 3156 559 3463 722 
L 3463 178 
Q 3153 47 2828 -22 
Q 2503 -91 2169 -91 
Q 1331 -91 842 396 
Q 353 884 353 1716 
Q 353 2575 817 3079 
Q 1281 3584 2069 3584 
Q 2775 3584 3186 3129 
Q 3597 2675 3597 1894 
z
M 3022 2063 
Q 3016 2534 2758 2815 
Q 2500 3097 2075 3097 
Q 1594 3097 1305 2825 
Q 1016 2553 972 2059 
L 3022 2063 
z
" transform="scale(0.015625)"/>
       <path id="DejaVuSans-44" d="M 2194 1759 
Q 1497 1759 1228 1600 
Q 959 1441 959 1056 
Q 959 750 1161 570 
Q 1363 391 1709 391 
Q 2188 391 2477 730 
Q 2766 1069 2766 1631 
L 2766 1759 
L 2194 1759 
z
M 3341 1997 
L 3341 0 
L 2766 0 
L 2766 531 
Q 2569 213 2275 61 
Q 1981 -91 1556 -91 
Q 1019 -91 701 211 
Q 384 513 384 1019 
Q 384 1609 779 1909 
Q 1175 2209 1959 2209 
L 2766 2209 
L 2766 2266 
Q 2766 2663 2505 2880 
Q 2244 3097 1772 3097 
Q 1472 3097 1187 3025 
Q 903 2953 641 2809 
L 641 3341 
Q 956 3463 1253 3523 
Q 1550 3584 1831 3584 
Q 2591 3584 2966 3190 
Q 3341 2797 3341 1997 
z
" transform="scale(0.015625)"/>
       <path id="DejaVuSans-56" d="M 2834 3397 
L 2834 2853 
Q 2591 2978 2328 3040 
Q 2066 3103 1784 3103 
Q 1356 3103 1142 2972 
Q 928 2841 928 2578 
Q 928 2378 1081 2264 
Q 1234 2150 1697 2047 
L 1894 2003 
Q 2506 1872 2764 1633 
Q 3022 1394 3022 966 
Q 3022 478 2636 193 
Q 2250 -91 1575 -91 
Q 1294 -91 989 -36 
Q 684 19 347 128 
L 347 722 
Q 666 556 975 473 
Q 1284 391 1588 391 
Q 1994 391 2212 530 
Q 2431 669 2431 922 
Q 2431 1156 2273 1281 
Q 2116 1406 1581 1522 
L 1381 1569 
Q 847 1681 609 1914 
Q 372 2147 372 2553 
Q 372 3047 722 3315 
Q 1072 3584 1716 3584 
Q 2034 3584 2315 3537 
Q 2597 3491 2834 3397 
z
" transform="scale(0.015625)"/>
       <path id="DejaVuSans-57" d="M 1172 4494 
L 1172 3500 
L 2356 3500 
L 2356 3053 
L 1172 3053 
L 1172 1153 
Q 1172 725 1289 603 
Q 1406 481 1766 481 
L 2356 481 
L 2356 0 
L 1766 0 
Q 1100 0 847 248 
Q 594 497 594 1153 
L 594 3053 
L 172 3053 
L 172 3500 
L 594 3500 
L 594 4494 
L 1172 4494 
z
" transform="scale(0.015625)"/>
       <path id="DejaVuSans-3" transform="scale(0.015625)"/>
       <path id="DejaVuSans-3e" d="M 550 4863 
L 1875 4863 
L 1875 4416 
L 1125 4416 
L 1125 -397 
L 1875 -397 
L 1875 -844 
L 550 -844 
L 550 4863 
z
" transform="scale(0.015625)"/>
       <path id="DejaVuSans-50" d="M 3328 2828 
Q 3544 3216 3844 3400 
Q 4144 3584 4550 3584 
Q 5097 3584 5394 3201 
Q 5691 2819 5691 2113 
L 5691 0 
L 5113 0 
L 5113 2094 
Q 5113 2597 4934 2840 
Q 4756 3084 4391 3084 
Q 3944 3084 3684 2787 
Q 3425 2491 3425 1978 
L 3425 0 
L 2847 0 
L 2847 2094 
Q 2847 2600 2669 2842 
Q 2491 3084 2119 3084 
Q 1678 3084 1418 2786 
Q 1159 2488 1159 1978 
L 1159 0 
L 581 0 
L 581 3500 
L 1159 3500 
L 1159 2956 
Q 1356 3278 1631 3431 
Q 1906 3584 2284 3584 
Q 2666 3584 2933 3390 
Q 3200 3197 3328 2828 
z
" transform="scale(0.015625)"/>
       <path id="DejaVuSans-40" d="M 1947 4863 
L 1947 -844 
L 622 -844 
L 622 -397 
L 1369 -397 
L 1369 4416 
L 622 4416 
L 622 4863 
L 1947 4863 
z
" transform="scale(0.015625)"/>
      </defs>
      <use xlink:href="#DejaVuSans-48"/>
      <use xlink:href="#DejaVuSans-44" transform="translate(61.53125 0)"/>
      <use xlink:href="#DejaVuSans-56" transform="translate(122.8125 0)"/>
      <use xlink:href="#DejaVuSans-57" transform="translate(174.90625 0)"/>
      <use xlink:href="#DejaVuSans-3" transform="translate(214.109375 0)"/>
      <use xlink:href="#DejaVuSans-3e" transform="translate(245.890625 0)"/>
      <use xlink:href="#DejaVuSans-50" transform="translate(284.90625 0)"/>
      <use xlink:href="#DejaVuSans-40" transform="translate(382.3125 0)"/>
     </g>
    </g>
   </g>
   <g id="matplotlib.axis_2">
    <g id="ytick_1">
     <g id="line2d_16">
      <defs>
       <path id="m39f4efe5f1" d="M 0 0 
L -3.5 0 
" style="stroke: #000000; stroke-width: 0.8"/>
      </defs>
      <g>
       <use xlink:href="#m39f4efe5f1" x="53.241875" y="439.79286" style="stroke: #000000; stroke-width: 0.8"/>
      </g>
     </g>
     <g id="text_8">
      <!-- −1000 -->
      <g transform="translate(22.561094 442.45204) scale(0.07 -0.07)">
       <use xlink:href="#DejaVuSans-c9c"/>
       <use xlink:href="#DejaVuSans-14" transform="translate(83.796875 0)"/>
       <use xlink:href="#DejaVuSans-13" transform="translate(147.421875 0)"/>
       <use xlink:href="#DejaVuSans-13" transform="translate(211.046875 0)"/>
       <use xlink:href="#DejaVuSans-13" transform="translate(274.671875 0)"/>
      </g>
     </g>
    </g>
    <g id="ytick_2">
     <g id="line2d_17">
      <g>
       <use xlink:href="#m39f4efe5f1" x="53.241875" y="371.017481" style="stroke: #000000; stroke-width: 0.8"/>
      </g>
     </g>
     <g id="text_9">
      <!-- −500 -->
      <g transform="translate(27.014844 373.676661) scale(0.07 -0.07)">
       <use xlink:href="#DejaVuSans-c9c"/>
       <use xlink:href="#DejaVuSans-18" transform="translate(83.796875 0)"/>
       <use xlink:href="#DejaVuSans-13" transform="translate(147.421875 0)"/>
       <use xlink:href="#DejaVuSans-13" transform="translate(211.046875 0)"/>
      </g>
     </g>
    </g>
    <g id="ytick_3">
     <g id="line2d_18">
      <g>
       <use xlink:href="#m39f4efe5f1" x="53.241875" y="302.242102" style="stroke: #000000; stroke-width: 0.8"/>
      </g>
     </g>
     <g id="text_10">
      <!-- 0 -->
      <g transform="translate(41.788125 304.901282) scale(0.07 -0.07)">
       <use xlink:href="#DejaVuSans-13"/>
      </g>
     </g>
    </g>
    <g id="ytick_4">
     <g id="line2d_19">
      <g>
       <use xlink:href="#m39f4efe5f1" x="53.241875" y="233.466723" style="stroke: #000000; stroke-width: 0.8"/>
      </g>
     </g>
     <g id="text_11">
      <!-- 500 -->
      <g transform="translate(32.880625 236.125903) scale(0.07 -0.07)">
       <use xlink:href="#DejaVuSans-18"/>
       <use xlink:href="#DejaVuSans-13" transform="translate(63.625 0)"/>
       <use xlink:href="#DejaVuSans-13" transform="translate(127.25 0)"/>
      </g>
     </g>
    </g>
    <g id="ytick_5">
     <g id="line2d_20">
      <g>
       <use xlink:href="#m39f4efe5f1" x="53.241875" y="164.691344" style="stroke: #000000; stroke-width: 0.8"/>
      </g>
     </g>
     <g id="text_12">
      <!-- 1000 -->
      <g transform="translate(28.426875 167.350524) scale(0.07 -0.07)">
       <use xlink:href="#DejaVuSans-14"/>
       <use xlink:href="#DejaVuSans-13" transform="translate(63.625 0)"/>
       <use xlink:href="#DejaVuSans-13" transform="translate(127.25 0)"/>
       <use xlink:href="#DejaVuSans-13" transform="translate(190.875 0)"/>
      </g>
     </g>
    </g>
    <g id="ytick_6">
     <g id="line2d_21">
      <g>
       <use xlink:href="#m39f4efe5f1" x="53.241875" y="95.915965" style="stroke: #000000; stroke-width: 0.8"/>
      </g>
     </g>
     <g id="text_13">
      <!-- 1500 -->
      <g transform="translate(28.426875 98.575145) scale(0.07 -0.07)">
       <use xlink:href="#DejaVuSans-14"/>
       <use xlink:href="#DejaVuSans-18" transform="translate(63.625 0)"/>
       <use xlink:href="#DejaVuSans-13" transform="translate(127.25 0)"/>
       <use xlink:href="#DejaVuSans-13" transform="translate(190.875 0)"/>
      </g>
     </g>
    </g>
    <g id="text_14">
     <!-- north [m] -->
     <g transform="translate(16.639219 272.17875) rotate(-90) scale(0.08 -0.08)">
      <defs>
       <path id="DejaVuSans-51" d="M 3513 2113 
L 3513 0 
L 2938 0 
L 2938 2094 
Q 2938 2591 2744 2837 
Q 2550 3084 2163 3084 
Q 1697 3084 1428 2787 
Q 1159 2491 1159 1978 
L 1159 0 
L 581 0 
L 581 3500 
L 1159 3500 
L 1159 2956 
Q 1366 3272 1645 3428 
Q 1925 3584 2291 3584 
Q 2894 3584 3203 3211 
Q 3513 2838 3513 2113 
z
" transform="scale(0.015625)"/>
       <path id="DejaVuSans-52" d="M 1959 3097 
Q 1497 3097 1228 2736 
Q 959 2375 959 1747 
Q 959 1119 1226 758 
Q 1494 397 1959 397 
Q 2419 397 2687 759 
Q 2956 1122 2956 1747 
Q 2956 2369 2687 2733 
Q 2419 3097 1959 3097 
z
M 1959 3584 
Q 2709 3584 3137 3096 
Q 3566 2609 3566 1747 
Q 3566 888 3137 398 
Q 2709 -91 1959 -91 
Q 1206 -91 779 398 
Q 353 888 353 1747 
Q 353 2609 779 3096 
Q 1206 3584 1959 3584 
z
" transform="scale(0.015625)"/>
       <path id="DejaVuSans-55" d="M 2631 2963 
Q 2534 3019 2420 3045 
Q 2306 3072 2169 3072 
Q 1681 3072 1420 2755 
Q 1159 2438 1159 1844 
L 1159 0 
L 581 0 
L 581 3500 
L 1159 3500 
L 1159 2956 
Q 1341 3275 1631 3429 
Q 1922 3584 2338 3584 
Q 2397 3584 2469 3576 
Q 2541 3569 2628 3553 
L 2631 2963 
z
" transform="scale(0.015625)"/>
       <path id="DejaVuSans-4b" d="M 3513 2113 
L 3513 0 
L 2938 0 
L 2938 2094 
Q 2938 2591 2744 2837 
Q 2550 3084 2163 3084 
Q 1697 3084 1428 2787 
Q 1159 2491 1159 1978 
L 1159 0 
L 581 0 
L 581 4863 
L 1159 4863 
L 1159 2956 
Q 1366 3272 1645 3428 
Q 1925 3584 2291 3584 
Q 2894 3584 3203 3211 
Q 3513 2838 3513 2113 
z
" transform="scale(0.015625)"/>
      </defs>
      <use xlink:href="#DejaVuSans-51"/>
      <use xlink:href="#DejaVuSans-52" transform="translate(63.375 0)"/>
      <use xlink:href="#DejaVuSans-55" transform="translate(124.5625 0)"/>
      <use xlink:href="#DejaVuSans-57" transform="translate(165.671875 0)"/>
      <use xlink:href="#DejaVuSans-4b" transform="translate(204.875 0)"/>
      <use xlink:href="#DejaVuSans-3" transform="translate(268.25 0)"/>
      <use xlink:href="#DejaVuSans-3e" transform="translate(300.03125 0)"/>
      <use xlink:href="#DejaVuSans-50" transform="translate(339.046875 0)"/>
      <use xlink:href="#DejaVuSans-40" transform="translate(436.453125 0)"/>
     </g>
    </g>
   </g>
   <g id="line2d_22">
    <path d="M 225.64211 293.318352 
L 225.971916 292.470535 
L 226.373712 291.65141 
L 226.849349 290.871345 
L 227.396188 290.138553 
L 228.009807 289.460226 
L 228.684387 288.842408 
L 229.412704 288.289454 
L 230.186464 287.803757 
L 230.996742 287.385625 
L 231.834462 287.033299 
L 232.690885 286.743114 
L 233.55805 286.509775 
L 234.429147 286.326749 
L 235.2988 286.18673 
L 236.163221 286.082151 
L 237.020256 286.005704 
L 237.869296 285.950843 
L 238.71108 285.912228 
L 239.547398 285.886089 
L 240.380721 285.870481 
L 241.213772 285.865422 
L 242.049092 285.872904 
L 242.888608 285.896774 
L 243.733244 285.942494 
L 244.582594 286.016798 
L 245.434696 286.127265 
L 246.2859 286.281828 
L 247.130854 286.488252 
L 247.962619 286.75362 
L 248.772884 287.083839 
L 249.552294 287.483218 
L 250.290848 287.954141 
L 250.978275 288.496945 
L 251.604391 289.109917 
L 252.161324 289.787314 
L 252.642633 290.521641 
L 253.043794 291.30378 
L 253.36268 292.123234 
L 253.599856 292.968574 
L 253.758734 293.827992 
L 253.845575 294.689897 
L 253.869339 295.543529 
L 253.841382 296.379545 
L 253.775002 297.190539 
L 253.684863 297.971484 
L 253.586305 298.720035 
L 253.494589 299.436692 
L 253.424096 300.124803 
L 253.387538 300.790389 
L 253.395214 301.4418 
" clip-path="url(#p4d6d31481d)" style="fill: none; stroke: #0369a1; stroke-width: 1.4; stroke-linecap: square"/>
   </g>
   <g id="line2d_23">
    <path d="M 225.64211 293.318352 
L 225.382296 294.180487 
L 225.185806 295.052813 
L 225.046688 295.9277 
L 224.958112 296.79882 
L 224.912835 297.661312 
L 224.90367 298.511849 
L 224.923949 299.348582 
L 224.967919 300.170983 
L 225.031063 300.9796 
L 225.110318 301.77575 
L 225.204177 302.561175 
" clip-path="url(#p4d6d31481d)" style="fill: none; stroke: #0369a1; stroke-width: 1.4; stroke-linecap: square"/>
   </g>
   <g id="line2d_24">
    <path d="M 228.572312 308.342744 
L 228.909447 308.952366 
L 229.28739 309.536969 
L 229.705496 310.092463 
L 230.161748 310.615382 
L 230.652873 311.1032 
L 231.174572 311.554602 
" clip-path="url(#p4d6d31481d)" style="fill: none; stroke: #0369a1; stroke-width: 1.4; stroke-linecap: square"/>
   </g>
   <g id="line2d_25">
    <path d="M 228.572312 308.342744 
L 228.910921 308.95483 
L 229.290674 309.541673 
L 229.710911 310.099135 
L 230.169573 310.623715 
L 230.663333 311.112873 
L 231.18782 311.565302 
L 231.737931 311.981113 
L 232.308219 312.361903 
L 232.893409 312.710558 
L 233.488678 313.031187 
L 234.08892 313.330696 
L 234.690655 313.616523 
L 235.292043 313.896424 
L 235.892958 314.17808 
L 236.495007 314.468577 
L 237.101452 314.773872 
L 237.717001 315.09828 
L 238.347479 315.444008 
L 238.999403 315.810784 
L 239.67946 316.195602 
L 240.393929 316.592613 
L 241.148078 316.993168 
L 241.945572 317.386034 
L 242.787934 317.757776 
L 243.674092 318.093295 
" clip-path="url(#p4d6d31481d)" style="fill: none; stroke: #0369a1; stroke-width: 1.4; stroke-linecap: square"/>
   </g>
   <g id="line2d_26">
    <path d="M 255.592235 327.374509 
L 254.16833 327.936889 
L 252.693729 328.348278 
L 251.188423 328.614303 
L 249.671084 328.744322 
L 248.158317 328.750742 
L 246.664079 328.648212 
L 245.199305 328.452745 
L 243.77175 328.180811 
L 242.38602 327.848479 
L 241.043799 327.47063 
L 239.74423 327.0603 
L 238.484419 326.628165 
L 237.260017 326.182208 
L 236.065842 325.727549 
L 234.896508 325.266464 
L 233.746995 324.798555 
" clip-path="url(#p4d6d31481d)" style="fill: none; stroke: #0369a1; stroke-width: 1.4; stroke-linecap: square"/>
   </g>
   <g id="line2d_27">
    <path d="M 251.739962 284.669927 
L 252.623608 285.280659 
L 253.444331 285.973171 
L 254.191923 286.743554 
L 254.858456 287.584435 
L 255.437637 288.486801 
L 255.925525 289.439955 
L 256.320937 290.431921 
L 256.625695 291.449998 
L 256.844714 292.481399 
L 256.985914 293.513907 
L 257.059969 294.536542 
L 257.079877 295.540158 
L 257.06039 296.51797 
L 257.017307 297.465945 
L 256.966672 298.383048 
L 256.923918 299.271302 
L 256.902995 300.135675 
L 256.915541 300.98376 
" clip-path="url(#p4d6d31481d)" style="fill: none; stroke: #0369a1; stroke-width: 1.4; stroke-linecap: square"/>
   </g>
   <g id="line2d_28">
    <path d="M 255.592235 327.374509 
L 254.202029 327.925563 
L 252.763004 328.332458 
L 251.293823 328.600314 
L 249.811986 328.737666 
L 248.333148 328.75588 
L 246.870597 328.668432 
L 245.434899 328.490135 
L 244.033729 328.236333 
L 242.67188 327.922126 
L 241.351432 327.561658 
L 240.072069 327.167505 
L 238.831506 326.750191 
L 237.625992 326.317849 
L 236.45086 325.876031 
L 235.301084 325.427677 
" clip-path="url(#p4d6d31481d)" style="fill: none; stroke: #0369a1; stroke-width: 1.4; stroke-linecap: square"/>
   </g>
   <g id="line2d_29">
    <path d="M 226.069132 325.057849 
L 232.145232 310.744832 
" clip-path="url(#p4d6d31481d)" style="fill: none; stroke: #4d7c0f; stroke-width: 1.6; stroke-linecap: square"/>
   </g>
   <g id="line2d_30">
    <path d="M 232.145232 310.744832 
L 238.221332 296.431815 
" clip-path="url(#p4d6d31481d)" style="fill: none; stroke: #4d7c0f; stroke-width: 1.6; stroke-linecap: square"/>
   </g>
   <g id="line2d_31">
    <path d="M 238.221332 296.431815 
L 244.297432 282.118798 
" clip-path="url(#p4d6d31481d)" style="fill: none; stroke: #4d7c0f; stroke-width: 1.6; stroke-linecap: square"/>
   </g>
   <g id="line2d_32">
    <path d="M 244.297432 282.118798 
L 486.947358 56.656411 
" clip-path="url(#p4d6d31481d)" style="fill: none; stroke: #4d7c0f; stroke-width: 1.6; stroke-linecap: square"/>
   </g>
   <g id="line2d_33">
    <path d="M 244.297432 282.118798 
L 147.508964 95.59762 
" clip-path="url(#p4d6d31481d)" style="fill: none; stroke: #4d7c0f; stroke-width: 1.6; stroke-linecap: square"/>
   </g>
   <g id="line2d_34">
    <path d="M 232.145232 310.744832 
L 315.355871 371.057933 
" clip-path="url(#p4d6d31481d)" style="fill: none; stroke: #4d7c0f; stroke-width: 1.6; stroke-linecap: square"/>
   </g>
   <g id="line2d_35">
    <path d="M 232.145232 310.744832 
L 228.160952 449.663589 
" clip-path="url(#p4d6d31481d)" style="fill: none; stroke: #4d7c0f; stroke-width: 1.6; stroke-linecap: square"/>
   </g>
   <g id="line2d_36">
    <path d="M 232.145232 310.744832 
L 73.894517 366.053353 
" clip-path="url(#p4d6d31481d)" style="fill: none; stroke: #4d7c0f; stroke-width: 1.6; stroke-linecap: square"/>
   </g>
   <g id="patch_4">
    <path d="M 53.241875 469.313948 
L 53.241875 37.006052 
" style="fill: none; stroke: #000000; stroke-width: 0.8; stroke-linejoin: miter; stroke-linecap: square"/>
   </g>
   <g id="patch_5">
    <path d="M 507.6 469.313948 
L 507.6 37.006052 
" style="fill: none; stroke: #000000; stroke-width: 0.8; stroke-linejoin: miter; stroke-linecap: square"/>
   </g>
   <g id="patch_6">
    <path d="M 53.241875 469.313948 
L 507.6 469.313948 
" style="fill: none; stroke: #000000; stroke-width: 0.8; stroke-linejoin: miter; stroke-linecap: square"/>
   </g>
   <g id="patch_7">
    <path d="M 53.241875 37.006052 
L 507.6 37.006052 
" style="fill: none; stroke: #000000; stroke-width: 0.8; stroke-linejoin: miter; stroke-linecap: square"/>
   </g>
   <g id="line2d_37">
    <path d="M 226.069132 325.057849 
L 227.081457 325.472718 
L 228.096638 325.856174 
L 229.112866 326.211914 
L 230.128962 326.543644 
L 231.144382 326.854944 
L 232.159211 327.149112 
L 233.174125 327.429019 
L 234.190325 327.696966 
L 235.209452 327.954555 
L 236.233474 328.20258 
L 237.264551 328.440938 
L 238.304889 328.668566 
L 239.35658 328.883423 
L 240.421432 329.082483 
L 240.670141 329.125867 
" clip-path="url(#p4d6d31481d)" style="fill: none; stroke-dasharray: 8,3; stroke-dashoffset: 0; stroke: #b91c1c; stroke-width: 2"/>
   </g>
   <g id="line2d_38">
    <path d="M 240.670141 329.125867 
L 241.753014 329.299939 
L 242.851243 329.448214 
L 243.964645 329.564977 
L 245.092134 329.643956 
L 246.231633 329.678505 
L 247.380017 329.661809 
L 248.533086 329.587109 
L 249.685588 329.447941 
L 250.83128 329.23837 
L 251.963032 328.953222 
L 253.072972 328.588305 
L 254.152669 328.140598 
L 255.19335 327.608417 
L 255.592235 327.374509 
" clip-path="url(#p4d6d31481d)" style="fill: none; stroke-dasharray: 8,3; stroke-dashoffset: 0; stroke: #b91c1c; stroke-width: 2"/>
   </g>
   <g id="line2d_39">
    <path d="M 255.592235 327.374509 
L 256.563666 326.724398 
L 257.475159 325.991839 
L 258.318678 325.180312 
L 259.086996 324.294809 
L 259.773933 323.341725 
L 260.374581 322.328713 
L 260.885483 321.264473 
L 261.304755 320.158514 
L 261.632138 319.020851 
L 261.868784 317.861567 
L 262.017655 316.690888 
L 262.084723 315.519638 
L 262.076988 314.357536 
L 262.033886 313.58384 
" clip-path="url(#p4d6d31481d)" style="fill: none; stroke-dasharray: 8,3; stroke-dashoffset: 0; stroke: #b91c1c; stroke-width: 2"/>
   </g>
   <g id="line2d_40">
    <path d="M 262.033886 313.58384 
L 261.919617 312.455796 
L 261.754308 311.357243 
L 261.548054 310.293277 
L 261.311139 309.267478 
L 261.053725 308.281886 
L 260.785541 307.337032 
L 260.515598 306.432024 
L 260.251934 305.564675 
L 260.001393 304.731679 
L 259.769453 303.928821 
L 259.560106 303.151207 
L 259.375787 302.393509 
L 259.217359 301.650225 
L 259.084148 300.91592 
L 258.974027 300.185468 
L 258.88355 299.454263 
L 258.808114 298.718408 
L 258.742158 297.974865 
L 258.701804 297.491883 
" clip-path="url(#p4d6d31481d)" style="fill: none; stroke-dasharray: 8,3; stroke-dashoffset: 0; stroke: #b91c1c; stroke-width: 2"/>
   </g>
   <g id="line2d_41">
    <path d="M 258.701804 297.491883 
L 258.637514 296.73173 
L 258.565094 295.960747 
L 258.477453 295.179707 
L 258.367636 294.390438 
L 258.229045 293.59575 
L 258.05564 292.799334 
L 257.842115 292.005627 
L 257.584043 291.219661 
L 257.277988 290.446887 
L 256.921578 289.692993 
L 256.513543 288.963721 
L 256.053717 288.264679 
L 255.543 287.601173 
L 254.98329 286.978045 
L 254.377379 286.399551 
L 253.728819 285.869268 
L 253.041661 285.390187 
L 252.320612 284.964293 
L 251.739962 284.669927 
" clip-path="url(#p4d6d31481d)" style="fill: none; stroke-dasharray: 8,3; stroke-dashoffset: 0; stroke: #b91c1c; stroke-width: 2"/>
   </g>
   <g id="line2d_42">
    <path d="M 251.739962 284.669927 
L 250.972434 284.338695 
L 250.186297 284.059526 
L 249.386762 283.830559 
L 248.578721 283.649203 
L 247.766632 283.51225 
L 246.954417 283.415997 
L 246.145385 283.356394 
L 245.342185 283.329205 
L 244.546783 283.330158 
L 243.760469 283.355114 
L 242.983892 283.40021 
L 242.217123 283.462001 
L 241.459735 283.537577 
L 240.710909 283.624663 
L 239.969555 283.721693 
L 239.234436 283.827846 
L 238.504306 283.943067 
L 237.778039 284.068048 
L 237.054758 284.204175 
L 236.717129 284.272259 
" clip-path="url(#p4d6d31481d)" style="fill: none; stroke-dasharray: 8,3; stroke-dashoffset: 0; stroke: #b91c1c; stroke-width: 2"/>
   </g>
   <g id="line2d_43">
    <path d="M 236.717129 284.272259 
L 235.997424 284.428544 
L 235.280284 284.601847 
L 234.566454 284.795234 
L 233.857273 285.011962 
L 233.15469 285.255316 
L 232.461234 285.528458 
L 231.779968 285.834269 
L 231.114414 286.175212 
L 230.468445 286.553199 
L 229.846164 286.969491 
L 229.251771 287.424617 
L 228.689412 287.918331 
L 228.163034 288.449595 
L 227.676248 289.016596 
L 227.232195 289.616801 
L 226.833456 290.247043 
L 226.481998 290.903651 
L 226.179358 291.582732 
L 225.926149 292.279903 
L 225.72087 292.989763 
L 225.64211 293.318352 
" clip-path="url(#p4d6d31481d)" style="fill: none; stroke-dasharray: 8,3; stroke-dashoffset: 0; stroke: #b91c1c; stroke-width: 2"/>
   </g>
   <g id="line2d_44">
    <path d="M 225.64211 293.318352 
L 225.503273 294.037953 
L 225.406761 294.758688 
L 225.349349 295.476527 
L 225.327412 296.187949 
L 225.337061 296.890007 
L 225.374294 297.580366 
L 225.435144 298.257321 
L 225.515827 298.91978 
L 225.612868 299.56722 
L 225.723219 300.199627 
L 225.844351 300.817406 
L 225.974312 301.421287 
L 226.111773 302.012214 
L 226.25603 302.591234 
L 226.406987 303.159389 
L 226.565109 303.717612 
L 226.731356 304.266638 
L 226.90709 304.806932 
L 227.093973 305.338629 
L 227.293857 305.861507 
L 227.508658 306.374974 
L 227.740244 306.87808 
L 227.99032 307.36955 
L 228.260324 307.84784 
L 228.551341 308.311207 
L 228.572312 308.342744 
" clip-path="url(#p4d6d31481d)" style="fill: none; stroke-dasharray: 8,3; stroke-dashoffset: 0; stroke: #b91c1c; stroke-width: 2"/>
   </g>
   <g id="text_15">
    <!-- openpit-b2026-3 — spiral, 8 benches, 7 shovels, 5 dumps, seed 957093580 -->
    <g transform="translate(90.826406 31.006052) scale(0.1 -0.1)">
     <defs>
      <path id="DejaVuSans-53" d="M 1159 525 
L 1159 -1331 
L 581 -1331 
L 581 3500 
L 1159 3500 
L 1159 2969 
Q 1341 3281 1617 3432 
Q 1894 3584 2278 3584 
Q 2916 3584 3314 3078 
Q 3713 2572 3713 1747 
Q 3713 922 3314 415 
Q 2916 -91 2278 -91 
Q 1894 -91 1617 61 
Q 1341 213 1159 525 
z
M 3116 1747 
Q 3116 2381 2855 2742 
Q 2594 3103 2138 3103 
Q 1681 3103 1420 2742 
Q 1159 2381 1159 1747 
Q 1159 1113 1420 752 
Q 1681 391 2138 391 
Q 2594 391 2855 752 
Q 3116 1113 3116 1747 
z
" transform="scale(0.015625)"/>
      <path id="DejaVuSans-4c" d="M 603 3500 
L 1178 3500 
L 1178 0 
L 603 0 
L 603 3500 
z
M 603 4863 
L 1178 4863 
L 1178 4134 
L 603 4134 
L 603 4863 
z
" transform="scale(0.015625)"/>
      <path id="DejaVuSans-10" d="M 313 2009 
L 1997 2009 
L 1997 1497 
L 313 1497 
L 313 2009 
z
" transform="scale(0.015625)"/>
      <path id="DejaVuSans-45" d="M 3116 1747 
Q 3116 2381 2855 2742 
Q 2594 3103 2138 3103 
Q 1681 3103 1420 2742 
Q 1159 2381 1159 1747 
Q 1159 1113 1420 752 
Q 1681 391 2138 391 
Q 2594 391 2855 752 
Q 3116 1113 3116 1747 
z
M 1159 2969 
Q 1341 3281 1617 3432 
Q 1894 3584 2278 3584 
Q 2916 3584 3314 3078 
Q 3713 2572 3713 1747 
Q 3713 922 3314 415 
Q 2916 -91 2278 -91 
Q 1894 -91 1617 61 
Q 1341 213 1159 525 
L 1159 0 
L 581 0 
L 581 4863 
L 1159 4863 
L 1159 2969 
z
" transform="scale(0.015625)"/>
      <path id="DejaVuSans-15" d="M 1228 531 
L 3431 531 
L 3431 0 
L 469 0 
L 469 531 
Q 828 903 1448 1529 
Q 2069 2156 2228 2338 
Q 2531 2678 2651 2914 
Q 2772 3150 2772 3378 
Q 2772 3750 2511 3984 
Q 2250 4219 1831 4219 
Q 1534 4219 1204 4116 
Q 875 4013 500 3803 
L 500 4441 
Q 881 4594 1212 4672 
Q 1544 4750 1819 4750 
Q 2544 4750 2975 4387 
Q 3406 4025 3406 3419 
Q 3406 3131 3298 2873 
Q 3191 2616 2906 2266 
Q 2828 2175 2409 1742 
Q 1991 1309 1228 531 
z
" transform="scale(0.015625)"/>
      <path id="DejaVuSans-19" d="M 2113 2584 
Q 1688 2584 1439 2293 
Q 1191 2003 1191 1497 
Q 1191 994 1439 701 
Q 1688 409 2113 409 
Q 2538 409 2786 701 
Q 3034 994 3034 1497 
Q 3034 2003 2786 2293 
Q 2538 2584 2113 2584 
z
M 3366 4563 
L 3366 3988 
Q 3128 4100 2886 4159 
Q 2644 4219 2406 4219 
Q 1781 4219 1451 3797 
Q 1122 3375 1075 2522 
Q 1259 2794 1537 2939 
Q 1816 3084 2150 3084 
Q 2853 3084 3261 2657 
Q 3669 2231 3669 1497 
Q 3669 778 3244 343 
Q 2819 -91 2113 -91 
Q 1303 -91 875 529 
Q 447 1150 447 2328 
Q 447 3434 972 4092 
Q 1497 4750 2381 4750 
Q 2619 4750 2861 4703 
Q 3103 4656 3366 4563 
z
" transform="scale(0.015625)"/>
      <path id="DejaVuSans-16" d="M 2597 2516 
Q 3050 2419 3304 2112 
Q 3559 1806 3559 1356 
Q 3559 666 3084 287 
Q 2609 -91 1734 -91 
Q 1441 -91 1130 -33 
Q 819 25 488 141 
L 488 750 
Q 750 597 1062 519 
Q 1375 441 1716 441 
Q 2309 441 2620 675 
Q 2931 909 2931 1356 
Q 2931 1769 2642 2001 
Q 2353 2234 1838 2234 
L 1294 2234 
L 1294 2753 
L 1863 2753 
Q 2328 2753 2575 2939 
Q 2822 3125 2822 3475 
Q 2822 3834 2567 4026 
Q 2313 4219 1838 4219 
Q 1578 4219 1281 4162 
Q 984 4106 628 3988 
L 628 4550 
Q 988 4650 1302 4700 
Q 1616 4750 1894 4750 
Q 2613 4750 3031 4423 
Q 3450 4097 3450 3541 
Q 3450 3153 3228 2886 
Q 3006 2619 2597 2516 
z
" transform="scale(0.015625)"/>
      <path id="DejaVuSans-af6" d="M 313 1978 
L 6088 1978 
L 6088 1528 
L 313 1528 
L 313 1978 
z
" transform="scale(0.015625)"/>
      <path id="DejaVuSans-4f" d="M 603 4863 
L 1178 4863 
L 1178 0 
L 603 0 
L 603 4863 
z
" transform="scale(0.015625)"/>
      <path id="DejaVuSans-f" d="M 750 794 
L 1409 794 
L 1409 256 
L 897 -744 
L 494 -744 
L 750 256 
L 750 794 
z
" transform="scale(0.015625)"/>
      <path id="DejaVuSans-1b" d="M 2034 2216 
Q 1584 2216 1326 1975 
Q 1069 1734 1069 1313 
Q 1069 891 1326 650 
Q 1584 409 2034 409 
Q 2484 409 2743 651 
Q 3003 894 3003 1313 
Q 3003 1734 2745 1975 
Q 2488 2216 2034 2216 
z
M 1403 2484 
Q 997 2584 770 2862 
Q 544 3141 544 3541 
Q 544 4100 942 4425 
Q 1341 4750 2034 4750 
Q 2731 4750 3128 4425 
Q 3525 4100 3525 3541 
Q 3525 3141 3298 2862 
Q 3072 2584 2669 2484 
Q 3125 2378 3379 2068 
Q 3634 1759 3634 1313 
Q 3634 634 3220 271 
Q 2806 -91 2034 -91 
Q 1263 -91 848 271 
Q 434 634 434 1313 
Q 434 1759 690 2068 
Q 947 2378 1403 2484 
z
M 1172 3481 
Q 1172 3119 1398 2916 
Q 1625 2713 2034 2713 
Q 2441 2713 2670 2916 
Q 2900 3119 2900 3481 
Q 2900 3844 2670 4047 
Q 2441 4250 2034 4250 
Q 1625 4250 1398 4047 
Q 1172 3844 1172 3481 
z
" transform="scale(0.015625)"/>
      <path id="DejaVuSans-46" d="M 3122 3366 
L 3122 2828 
Q 2878 2963 2633 3030 
Q 2388 3097 2138 3097 
Q 1578 3097 1268 2742 
Q 959 2388 959 1747 
Q 959 1106 1268 751 
Q 1578 397 2138 397 
Q 2388 397 2633 464 
Q 2878 531 3122 666 
L 3122 134 
Q 2881 22 2623 -34 
Q 2366 -91 2075 -91 
Q 1284 -91 818 406 
Q 353 903 353 1747 
Q 353 2603 823 3093 
Q 1294 3584 2113 3584 
Q 2378 3584 2631 3529 
Q 2884 3475 3122 3366 
z
" transform="scale(0.015625)"/>
      <path id="DejaVuSans-1a" d="M 525 4666 
L 3525 4666 
L 3525 4397 
L 1831 0 
L 1172 0 
L 2766 4134 
L 525 4134 
L 525 4666 
z
" transform="scale(0.015625)"/>
      <path id="DejaVuSans-59" d="M 191 3500 
L 800 3500 
L 1894 563 
L 2988 3500 
L 3597 3500 
L 2284 0 
L 1503 0 
L 191 3500 
z
" transform="scale(0.015625)"/>
      <path id="DejaVuSans-47" d="M 2906 2969 
L 2906 4863 
L 3481 4863 
L 3481 0 
L 2906 0 
L 2906 525 
Q 2725 213 2448 61 
Q 2172 -91 1784 -91 
Q 1150 -91 751 415 
Q 353 922 353 1747 
Q 353 2572 751 3078 
Q 1150 3584 1784 3584 
Q 2172 3584 2448 3432 
Q 2725 3281 2906 2969 
z
M 947 1747 
Q 947 1113 1208 752 
Q 1469 391 1925 391 
Q 2381 391 2643 752 
Q 2906 1113 2906 1747 
Q 2906 2381 2643 2742 
Q 2381 3103 1925 3103 
Q 1469 3103 1208 2742 
Q 947 2381 947 1747 
z
" transform="scale(0.015625)"/>
      <path id="DejaVuSans-58" d="M 544 1381 
L 544 3500 
L 1119 3500 
L 1119 1403 
Q 1119 906 1312 657 
Q 1506 409 1894 409 
Q 2359 409 2629 706 
Q 2900 1003 2900 1516 
L 2900 3500 
L 3475 3500 
L 3475 0 
L 2900 0 
L 2900 538 
Q 2691 219 2414 64 
Q 2138 -91 1772 -91 
Q 1169 -91 856 284 
Q 544 659 544 1381 
z
M 1991 3584 
L 1991 3584 
z
" transform="scale(0.015625)"/>
      <path id="DejaVuSans-1c" d="M 703 97 
L 703 672 
Q 941 559 1184 500 
Q 1428 441 1663 441 
Q 2288 441 2617 861 
Q 2947 1281 2994 2138 
Q 2813 1869 2534 1725 
Q 2256 1581 1919 1581 
Q 1219 1581 811 2004 
Q 403 2428 403 3163 
Q 403 3881 828 4315 
Q 1253 4750 1959 4750 
Q 2769 4750 3195 4129 
Q 3622 3509 3622 2328 
Q 3622 1225 3098 567 
Q 2575 -91 1691 -91 
Q 1453 -91 1209 -44 
Q 966 3 703 97 
z
M 1959 2075 
Q 2384 2075 2632 2365 
Q 2881 2656 2881 3163 
Q 2881 3666 2632 3958 
Q 2384 4250 1959 4250 
Q 1534 4250 1286 3958 
Q 1038 3666 1038 3163 
Q 1038 2656 1286 2365 
Q 1534 2075 1959 2075 
z
" transform="scale(0.015625)"/>
     </defs>
     <use xlink:href="#DejaVuSans-52"/>
     <use xlink:href="#DejaVuSans-53" transform="translate(61.1875 0)"/>
     <use xlink:href="#DejaVuSans-48" transform="translate(124.671875 0)"/>
     <use xlink:href="#DejaVuSans-51" transform="translate(186.203125 0)"/>
     <use xlink:href="#DejaVuSans-53" transform="translate(249.578125 0)"/>
     <use xlink:href="#DejaVuSans-4c" transform="translate(313.0625 0)"/>
     <use xlink:href="#DejaVuSans-57" transform="translate(340.84375 0)"/>
     <use xlink:href="#DejaVuSans-10" transform="translate(380.046875 0)"/>
     <use xlink:href="#DejaVuSans-45" transform="translate(416.125 0)"/>
     <use xlink:href="#DejaVuSans-15" transform="translate(479.609375 0)"/>
     <use xlink:href="#DejaVuSans-13" transform="translate(543.234375 0)"/>
     <use xlink:href="#DejaVuSans-15" transform="translate(606.859375 0)"/>
     <use xlink:href="#DejaVuSans-19" transform="translate(670.484375 0)"/>
     <use xlink:href="#DejaVuSans-10" transform="translate(734.109375 0)"/>
     <use xlink:href="#DejaVuSans-16" transform="translate(770.1875 0)"/>
     <use xlink:href="#DejaVuSans-3" transform="translate(833.8125 0)"/>
     <use xlink:href="#DejaVuSans-af6" transform="translate(865.59375 0)"/>
     <use xlink:href="#DejaVuSans-3" transform="translate(965.59375 0)"/>
     <use xlink:href="#DejaVuSans-56" transform="translate(997.375 0)"/>
     <use xlink:href="#DejaVuSans-53" transform="translate(1049.46875 0)"/>
     <use xlink:href="#DejaVuSans-4c" transform="translate(1112.953125 0)"/>
     <use xlink:href="#DejaVuSans-55" transform="translate(1140.734375 0)"/>
     <use xlink:href="#DejaVuSans-44" transform="translate(1181.84375 0)"/>
     <use xlink:href="#DejaVuSans-4f" transform="translate(1243.125 0)"/>
     <use xlink:href="#DejaVuSans-f" transform="translate(1270.90625 0)"/>
     <use xlink:href="#DejaVuSans-3" transform="translate(1302.6875 0)"/>
     <use xlink:href="#DejaVuSans-1b" transform="translate(1334.46875 0)"/>
     <use xlink:href="#DejaVuSans-3" transform="translate(1398.09375 0)"/>
     <use xlink:href="#DejaVuSans-45" transform="translate(1429.875 0)"/>
     <use xlink:href="#DejaVuSans-48" transform="translate(1493.359375 0)"/>
     <use xlink:href="#DejaVuSans-51" transform="translate(1554.890625 0)"/>
     <use xlink:href="#DejaVuSans-46" transform="translate(1618.265625 0)"/>
     <use xlink:href="#DejaVuSans-4b" transform="translate(1673.25 0)"/>
     <use xlink:href="#DejaVuSans-48" transform="translate(1736.625 0)"/>
     <use xlink:href="#DejaVuSans-56" transform="translate(1798.15625 0)"/>
     <use xlink:href="#DejaVuSans-f" transform="translate(1850.25 0)"/>
     <use xlink:href="#DejaVuSans-3" transform="translate(1882.03125 0)"/>
     <use xlink:href="#DejaVuSans-1a" transform="translate(1913.8125 0)"/>
     <use xlink:href="#DejaVuSans-3" transform="translate(1977.4375 0)"/>
     <use xlink:href="#DejaVuSans-56" transform="translate(2009.21875 0)"/>
     <use xlink:href="#DejaVuSans-4b" transform="translate(2061.3125 0)"/>
     <use xlink:href="#DejaVuSans-52" transform="translate(2124.6875 0)"/>
     <use xlink:href="#DejaVuSans-59" transform="translate(2185.875 0)"/>
     <use xlink:href="#DejaVuSans-48" transform="translate(2245.0625 0)"/>
     <use xlink:href="#DejaVuSans-4f" transform="translate(2306.59375 0)"/>
     <use xlink:href="#DejaVuSans-56" transform="translate(2334.375 0)"/>
     <use xlink:href="#DejaVuSans-f" transform="translate(2386.46875 0)"/>
     <use xlink:href="#DejaVuSans-3" transform="translate(2418.25 0)"/>
     <use xlink:href="#DejaVuSans-18" transform="translate(2450.03125 0)"/>
     <use xlink:href="#DejaVuSans-3" transform="translate(2513.65625 0)"/>
     <use xlink:href="#DejaVuSans-47" transform="translate(2545.4375 0)"/>
     <use xlink:href="#DejaVuSans-58" transform="translate(2608.921875 0)"/>
     <use xlink:href="#DejaVuSans-50" transform="translate(2672.296875 0)"/>
     <use xlink:href="#DejaVuSans-53" transform="translate(2769.703125 0)"/>
     <use xlink:href="#DejaVuSans-56" transform="translate(2833.1875 0)"/>
     <use xlink:href="#DejaVuSans-f" transform="translate(2885.28125 0)"/>
     <use xlink:href="#DejaVuSans-3" transform="translate(2917.0625 0)"/>
     <use xlink:href="#DejaVuSans-56" transform="translate(2948.84375 0)"/>
     <use xlink:href="#DejaVuSans-48" transform="translate(3000.9375 0)"/>
     <use xlink:href="#DejaVuSans-48" transform="translate(3062.46875 0)"/>
     <use xlink:href="#DejaVuSans-47" transform="translate(3124 0)"/>
     <use xlink:href="#DejaVuSans-3" transform="translate(3187.484375 0)"/>
     <use xlink:href="#DejaVuSans-1c" transform="translate(3219.265625 0)"/>
     <use xlink:href="#DejaVuSans-18" transform="translate(3282.890625 0)"/>
     <use xlink:href="#DejaVuSans-1a" transform="translate(3346.515625 0)"/>
     <use xlink:href="#DejaVuSans-13" transform="translate(3410.140625 0)"/>
     <use xlink:href="#DejaVuSans-1c" transform="translate(3473.765625 0)"/>
     <use xlink:href="#DejaVuSans-16" transform="translate(3537.390625 0)"/>
     <use xlink:href="#DejaVuSans-18" transform="translate(3601.015625 0)"/>
     <use xlink:href="#DejaVuSans-1b" transform="translate(3664.640625 0)"/>
     <use xlink:href="#DejaVuSans-13" transform="translate(3728.265625 0)"/>
    </g>
   </g>
   <g id="PathCollection_1">
    <defs>
     <path id="m11f26ebb01" d="M 0 5 
L 5 0 
L 0 -5 
L -5 0 
z
" style="stroke: #7c3aed"/>
    </defs>
    <g clip-path="url(#p4d6d31481d)">
     <use xlink:href="#m11f26ebb01" x="226.069132" y="325.057849" style="fill: #7c3aed; stroke: #7c3aed"/>
    </g>
   </g>
   <g id="PathCollection_2">
    <defs>
     <path id="m7f17284bdc" d="M 0 -4.743416 
L -4.743416 4.743416 
L 4.743416 4.743416 
z
" style="stroke: #111827"/>
    </defs>
    <g clip-path="url(#p4d6d31481d)">
     <use xlink:href="#m7f17284bdc" x="253.395214" y="301.4418" style="fill: #111827; stroke: #111827"/>
    </g>
   </g>
   <g id="PathCollection_3">
    <g clip-path="url(#p4d6d31481d)">
     <use xlink:href="#m7f17284bdc" x="225.204177" y="302.561175" style="fill: #111827; stroke: #111827"/>
    </g>
   </g>
   <g id="PathCollection_4">
    <g clip-path="url(#p4d6d31481d)">
     <use xlink:href="#m7f17284bdc" x="231.174572" y="311.554602" style="fill: #111827; stroke: #111827"/>
    </g>
   </g>
   <g id="PathCollection_5">
    <g clip-path="url(#p4d6d31481d)">
     <use xlink:href="#m7f17284bdc" x="243.674092" y="318.093295" style="fill: #111827; stroke: #111827"/>
    </g>
   </g>
   <g id="PathCollection_6">
    <g clip-path="url(#p4d6d31481d)">
     <use xlink:href="#m7f17284bdc" x="233.746995" y="324.798555" style="fill: #111827; stroke: #111827"/>
    </g>
   </g>
   <g id="PathCollection_7">
    <g clip-path="url(#p4d6d31481d)">
     <use xlink:href="#m7f17284bdc" x="256.915541" y="300.98376" style="fill: #111827; stroke: #111827"/>
    </g>
   </g>
   <g id="PathCollection_8">
    <g clip-path="url(#p4d6d31481d)">
     <use xlink:href="#m7f17284bdc" x="235.301084" y="325.427677" style="fill: #111827; stroke: #111827"/>
    </g>
   </g>
   <g id="PathCollection_9">
    <defs>
     <path id="m616e67a130" d="M -4.472136 4.472136 
L 4.472136 4.472136 
L 4.472136 -4.472136 
L -4.472136 -4.472136 
z
" style="stroke: #1d4ed8"/>
    </defs>
    <g clip-path="url(#p4d6d31481d)">
     <use xlink:href="#m616e67a130" x="486.947358" y="56.656411" style="fill: #1d4ed8; stroke: #1d4ed8"/>
    </g>
   </g>
   <g id="PathCollection_10">
    <g clip-path="url(#p4d6d31481d)">
     <use xlink:href="#m616e67a130" x="147.508964" y="95.59762" style="fill: #1d4ed8; stroke: #1d4ed8"/>
    </g>
   </g>
   <g id="PathCollection_11">
    <defs>
     <path id="m6b55839e93" d="M -2.236068 4.472136 
L 0 2.236068 
L 2.236068 4.472136 
L 4.472136 2.236068 
L 2.236068 0 
L 4.472136 -2.236068 
L 2.236068 -4.472136 
L 0 -2.236068 
L -2.236068 -4.472136 
L -4.472136 -2.236068 
L -2.236068 0 
L -4.472136 2.236068 
z
" style="stroke: #a16207"/>
    </defs>
    <g clip-path="url(#p4d6d31481d)">
     <use xlink:href="#m6b55839e93" x="315.355871" y="371.057933" style="fill: #a16207; stroke: #a16207"/>
    </g>
   </g>
   <g id="PathCollection_12">
    <g clip-path="url(#p4d6d31481d)">
     <use xlink:href="#m6b55839e93" x="228.160952" y="449.663589" style="fill: #a16207; stroke: #a16207"/>
    </g>
   </g>
   <g id="PathCollection_13">
    <g clip-path="url(#p4d6d31481d)">
     <use xlink:href="#m6b55839e93" x="73.894517" y="366.053353" style="fill: #a16207; stroke: #a16207"/>
    </g>
   </g>
   <g id="PathCollection_14">
    <defs>
     <path id="m02c7ca4cf7" d="M 0 2.645751 
C 0.701661 2.645751 1.374679 2.366978 1.870829 1.870829 
C 2.366978 1.374679 2.645751 0.701661 2.645751 0 
C 2.645751 -0.701661 2.366978 -1.374679 1.870829 -1.870829 
C 1.374679 -2.366978 0.701661 -2.645751 0 -2.645751 
C -0.701661 -2.645751 -1.374679 -2.366978 -1.870829 -1.870829 
C -2.366978 -1.374679 -2.645751 -0.701661 -2.645751 0 
C -2.645751 0.701661 -2.366978 1.374679 -1.870829 1.870829 
C -1.374679 2.366978 -0.701661 2.645751 0 2.645751 
z
" style="stroke: #4d7c0f"/>
    </defs>
    <g clip-path="url(#p4d6d31481d)">
     <use xlink:href="#m02c7ca4cf7" x="232.145232" y="310.744832" style="fill: #4d7c0f; stroke: #4d7c0f"/>
    </g>
   </g>
   <g id="PathCollection_15">
    <g clip-path="url(#p4d6d31481d)">
     <use xlink:href="#m02c7ca4cf7" x="238.221332" y="296.431815" style="fill: #4d7c0f; stroke: #4d7c0f"/>
    </g>
   </g>
   <g id="PathCollection_16">
    <g clip-path="url(#p4d6d31481d)">
     <use xlink:href="#m02c7ca4cf7" x="244.297432" y="282.118798" style="fill: #4d7c0f; stroke: #4d7c0f"/>
    </g>
   </g>
   <g id="text_16">
    <!-- 1 -->
    <g transform="translate(259.395214 295.4418) scale(0.08 -0.08)">
     <defs>
      <path id="DejaVuSans-Bold-14" d="M 750 831 
L 1813 831 
L 1813 3847 
L 722 3622 
L 722 4441 
L 1806 4666 
L 2950 4666 
L 2950 831 
L 4013 831 
L 4013 0 
L 750 0 
L 750 831 
z
" transform="scale(0.015625)"/>
     </defs>
     <use xlink:href="#DejaVuSans-Bold-14"/>
    </g>
   </g>
   <g id="text_17">
    <!-- 2 -->
    <g transform="translate(231.204177 296.561175) scale(0.08 -0.08)">
     <defs>
      <path id="DejaVuSans-Bold-15" d="M 1844 884 
L 3897 884 
L 3897 0 
L 506 0 
L 506 884 
L 2209 2388 
Q 2438 2594 2547 2791 
Q 2656 2988 2656 3200 
Q 2656 3528 2436 3728 
Q 2216 3928 1850 3928 
Q 1569 3928 1234 3808 
Q 900 3688 519 3450 
L 519 4475 
Q 925 4609 1322 4679 
Q 1719 4750 2100 4750 
Q 2938 4750 3402 4381 
Q 3866 4013 3866 3353 
Q 3866 2972 3669 2642 
Q 3472 2313 2841 1759 
L 1844 884 
z
" transform="scale(0.015625)"/>
     </defs>
     <use xlink:href="#DejaVuSans-Bold-15"/>
    </g>
   </g>
   <g id="text_18">
    <!-- 3 -->
    <g transform="translate(237.174572 305.554602) scale(0.08 -0.08)">
     <defs>
      <path id="DejaVuSans-Bold-16" d="M 2981 2516 
Q 3453 2394 3698 2092 
Q 3944 1791 3944 1325 
Q 3944 631 3412 270 
Q 2881 -91 1863 -91 
Q 1503 -91 1142 -33 
Q 781 25 428 141 
L 428 1069 
Q 766 900 1098 814 
Q 1431 728 1753 728 
Q 2231 728 2486 893 
Q 2741 1059 2741 1369 
Q 2741 1688 2480 1852 
Q 2219 2016 1709 2016 
L 1228 2016 
L 1228 2791 
L 1734 2791 
Q 2188 2791 2409 2933 
Q 2631 3075 2631 3366 
Q 2631 3634 2415 3781 
Q 2200 3928 1806 3928 
Q 1516 3928 1219 3862 
Q 922 3797 628 3669 
L 628 4550 
Q 984 4650 1334 4700 
Q 1684 4750 2022 4750 
Q 2931 4750 3382 4451 
Q 3834 4153 3834 3553 
Q 3834 3144 3618 2883 
Q 3403 2622 2981 2516 
z
" transform="scale(0.015625)"/>
     </defs>
     <use xlink:href="#DejaVuSans-Bold-16"/>
    </g>
   </g>
   <g id="text_19">
    <!-- 4 -->
    <g transform="translate(249.674092 312.093295) scale(0.08 -0.08)">
     <defs>
      <path id="DejaVuSans-Bold-17" d="M 2356 3675 
L 1038 1722 
L 2356 1722 
L 2356 3675 
z
M 2156 4666 
L 3494 4666 
L 3494 1722 
L 4159 1722 
L 4159 850 
L 3494 850 
L 3494 0 
L 2356 0 
L 2356 850 
L 288 850 
L 288 1881 
L 2156 4666 
z
" transform="scale(0.015625)"/>
     </defs>
     <use xlink:href="#DejaVuSans-Bold-17"/>
    </g>
   </g>
   <g id="text_20">
    <!-- 5 -->
    <g transform="translate(239.746995 318.798555) scale(0.08 -0.08)">
     <defs>
      <path id="DejaVuSans-Bold-18" d="M 678 4666 
L 3669 4666 
L 3669 3781 
L 1638 3781 
L 1638 3059 
Q 1775 3097 1914 3117 
Q 2053 3138 2203 3138 
Q 3056 3138 3531 2711 
Q 4006 2284 4006 1522 
Q 4006 766 3489 337 
Q 2972 -91 2053 -91 
Q 1656 -91 1267 -14 
Q 878 63 494 219 
L 494 1166 
Q 875 947 1217 837 
Q 1559 728 1863 728 
Q 2300 728 2551 942 
Q 2803 1156 2803 1522 
Q 2803 1891 2551 2103 
Q 2300 2316 1863 2316 
Q 1603 2316 1309 2248 
Q 1016 2181 678 2041 
L 678 4666 
z
" transform="scale(0.015625)"/>
     </defs>
     <use xlink:href="#DejaVuSans-Bold-18"/>
    </g>
   </g>
   <g id="text_21">
    <!-- 6 -->
    <g transform="translate(262.915541 294.98376) scale(0.08 -0.08)">
     <defs>
      <path id="DejaVuSans-Bold-19" d="M 2316 2303 
Q 2000 2303 1842 2098 
Q 1684 1894 1684 1484 
Q 1684 1075 1842 870 
Q 2000 666 2316 666 
Q 2634 666 2792 870 
Q 2950 1075 2950 1484 
Q 2950 1894 2792 2098 
Q 2634 2303 2316 2303 
z
M 3803 4544 
L 3803 3681 
Q 3506 3822 3243 3889 
Q 2981 3956 2731 3956 
Q 2194 3956 1894 3657 
Q 1594 3359 1544 2772 
Q 1750 2925 1990 3001 
Q 2231 3078 2516 3078 
Q 3231 3078 3670 2659 
Q 4109 2241 4109 1563 
Q 4109 813 3618 361 
Q 3128 -91 2303 -91 
Q 1394 -91 895 523 
Q 397 1138 397 2266 
Q 397 3422 980 4083 
Q 1563 4744 2578 4744 
Q 2900 4744 3203 4694 
Q 3506 4644 3803 4544 
z
" transform="scale(0.015625)"/>
     </defs>
     <use xlink:href="#DejaVuSans-Bold-19"/>
    </g>
   </g>
   <g id="text_22">
    <!-- 7 -->
    <g transform="translate(241.301084 319.427677) scale(0.08 -0.08)">
     <defs>
      <path id="DejaVuSans-Bold-1a" d="M 428 4666 
L 3944 4666 
L 3944 3988 
L 2125 0 
L 953 0 
L 2675 3781 
L 428 3781 
L 428 4666 
z
" transform="scale(0.015625)"/>
     </defs>
     <use xlink:href="#DejaVuSans-Bold-1a"/>
    </g>
   </g>
  </g>
 </g>
 <defs>
  <clipPath id="p4d6d31481d">
   <rect x="53.241875" y="37.006052" width="454.358125" height="432.307896"/>
  </clipPath>
 </defs>
</svg>
