<?xml version="1.0" encoding="utf-8" standalone="no"?>
<!DOCTYPE svg PUBLIC "-//W3C//DTD SVG 1.1//EN"
  "http://www.w3.org/Graphics/SVG/1.1/DTD/svg11.dtd">
<svg xmlns:xlink="http://www.w3.org/1999/xlink" width="518.4pt" height="518.4pt" viewBox="0 0 518.4 518.4" xmlns="http://www.w3.org/2000/svg" version="1.1">
 <metadata>
  <rdf:RDF xmlns:dc="http://purl.org/dc/elements/1.1/" xmlns:cc="http://creativecommons.org/ns#" xmlns:rdf="http://www.w3.org/1999/02/22-rdf-syntax-ns#">
   <cc:Work>
    <dc:type rdf:resource="http://purl.org/dc/dcmitype/StillImage"/>
    <dc:date>2026-07-02T08:06:06.150545</dc:date>
    <dc:format>image/svg+xml</dc:format>
    <dc:creator>
     <cc:Agent>
      <dc:title>Matplotlib v3.11.0, https://matplotlib.org/</dc:title>
     </cc:Agent>
    </dc:creator>
   </cc:Work>
  </rdf:RDF>
 </metadata>
 <defs>
  <style type="text/css">*{stroke-linejoin: round; stroke-linecap: butt}</style>
 </defs>
 <g id="figure_1">
  <g id="patch_1">
   <path d="M 0 518.4 
L 518.4 518.4 
L 518.4 0 
L 0 0 
z
" style="fill: #ffffff"/>
  </g>
  <g id="axes_1">
   <g id="patch_2">
    <path d="M 53.241875 382.383755 
L 507.6 382.383755 
L 507.6 136.016245 
L 53.241875 136.016245 
z
" style="fill: #ffffff"/>
   </g>
   <g id="patch_3">
    <path d="M 279.454835 271.604363 
L 279.460152 271.250468 
L 279.467051 270.895802 
L 279.474372 270.539902 
L 279.481042 270.182403 
L 279.486083 269.823029 
L 279.488619 269.461579 
L 279.487886 269.09791 
L 279.483232 268.731925 
L 279.474121 268.363554 
L 279.460143 267.992743 
L 279.441023 267.619427 
L 279.416522 267.243552 
L 279.386492 266.865041 
L 279.350904 266.48378 
L 279.30982 266.099604 
L 279.263386 265.712292 
L 279.211817 265.321555 
L 279.155385 264.927028 
L 279.094405 264.528268 
L 279.029222 264.124743 
L 278.960199 263.715837 
L 278.887695 263.300843 
L 278.812059 262.878965 
L 278.733607 262.449322 
L 278.652612 262.010951 
L 278.569286 261.562813 
L 278.483769 261.103803 
L 278.396112 260.632756 
L 278.306264 260.148463 
L 278.214064 259.649679 
L 278.119226 259.135144 
L 278.021331 258.603594 
L 277.919819 258.053782 
L 277.813984 257.484498 
L 277.702965 256.894587 
L 277.585748 256.282973 
L 277.46116 255.648682 
L 277.327876 254.990868 
L 277.184415 254.308836 
L 277.029153 253.602069 
L 276.860324 252.870259 
L 276.676036 252.113329 
L 276.474282 251.331467 
L 276.252955 250.525155 
L 276.009869 249.695196 
L 275.74278 248.842747 
L 275.44941 247.969349 
L 275.12748 247.076955 
L 274.774738 246.167961 
L 274.389 245.245231 
L 273.968185 244.312128 
L 273.510364 243.372528 
L 273.013806 242.430847 
L 272.47703 241.492046 
L 271.898862 240.561641 
L 271.278493 239.645694 
L 270.61554 238.7508 
L 269.910108 237.884051 
L 269.16285 237.052993 
L 268.375024 236.265552 
L 267.548545 235.529945 
L 266.686031 234.854564 
L 265.790826 234.247835 
L 264.867018 233.718049 
L 263.919429 233.273176 
L 262.953581 232.920655 
L 261.975635 232.667167 
L 260.992302 232.518417 
L 260.010721 232.478903 
L 259.038309 232.551719 
L 258.082587 232.738377 
L 257.150985 233.03867 
L 256.250634 233.450568 
L 255.388116 233.970058 
L 254.56921 234.591068 
L 253.799393 235.307881 
L 253.083163 236.112962 
L 252.423937 236.99733 
L 251.824021 237.95098 
L 251.284588 238.963216 
L 250.805704 240.022956 
L 250.386378 241.119035 
L 250.024653 242.240476 
L 249.717717 243.376736 
L 249.462029 244.517908 
L 249.253459 245.654888 
L 249.08743 246.77949 
L 248.959051 247.884531 
L 248.863252 248.963864 
L 248.794903 250.012395 
L 248.748917 251.026057 
L 248.720346 252.001771 
L 248.704459 252.937389 
L 248.696805 253.831618 
L 248.693267 254.683946 
L 248.6901 255.494556 
L 248.68396 256.264244 
L 248.671924 256.994332 
L 248.6515 257.686586 
L 248.620632 258.343142 
L 248.577697 258.966425 
L 248.521498 259.559085 
L 248.451252 260.123929 
L 248.366572 260.663864 
L 248.267451 261.181841 
L 248.154239 261.680809 
L 248.027619 262.163666 
L 247.88858 262.633223 
L 247.738392 263.09217 
L 247.578574 263.543043 
L 247.410866 263.988198 
L 247.237201 264.429792 
L 247.059667 264.869762 
L 246.880483 265.309811 
L 246.701964 265.751399 
L 246.526487 266.195733 
L 246.356467 266.643766 
L 246.19432 267.096196 
L 246.042436 267.553467 
L 245.903152 268.015775 
L 245.77872 268.483076 
L 245.671287 268.955097 
L 245.582864 269.431351 
L 245.515308 269.911148 
L 245.470299 270.393619 
L 245.449323 270.87773 
L 245.453651 271.362303 
L 245.484332 271.846044 
L 245.542172 272.327562 
L 245.627734 272.805396 
L 245.741324 273.278037 
L 245.882991 273.743959 
L 246.052525 274.201644 
L 246.249454 274.649606 
L 246.473055 275.086417 
L 246.722352 275.510737 
L 246.996129 275.921337 
L 247.292919 276.317126 
L 247.611058 276.697171 
L 247.948773 277.060688 
L 248.304079 277.407095 
L 248.674826 277.736025 
L 249.058725 278.047336 
L 249.453374 278.341133 
L 249.856283 278.617769 
L 250.264905 278.877864 
L 250.676661 279.122299 
L 251.088968 279.352232 
L 251.499269 279.56909 
L 251.905064 279.774569 
L 252.303936 279.970631 
L 252.693581 280.159495 
L 253.071838 280.343625 
L 253.436713 280.52572 
L 253.786412 280.708695 
L 254.11936 280.895663 
L 254.434226 281.089913 
L 254.729951 281.294888 
L 255.005762 281.514155 
L 255.261194 281.751381 
L 255.496104 282.010295 
L 255.710687 282.294662 
L 255.905487 282.608241 
L 256.081403 282.954751 
L 256.239698 283.33783 
L 256.381996 283.760994 
L 256.51029 284.227593 
L 256.626928 284.740767 
L 256.734612 285.303399 
L 256.836382 285.918062 
L 256.935604 286.586977 
L 257.035948 287.311953 
L 257.141363 288.094338 
L 257.256049 288.934961 
L 257.384423 289.83408 
L 257.531078 290.791318 
L 257.700737 291.805613 
L 257.898201 292.875153 
L 258.128291 293.997325 
L 258.395781 295.168655 
L 258.705324 296.38476 
L 259.061369 297.640302 
L 259.468077 298.928948 
L 259.92922 300.243345 
L 260.44808 301.575111 
L 261.027342 302.914835 
L 261.668984 304.252114 
L 262.37416 305.575604 
L 263.1431 306.873119 
L 263.975004 308.131754 
L 264.867959 309.338052 
L 265.81887 310.478218 
L 266.823419 311.538371 
L 267.876059 312.504832 
L 268.970042 313.364447 
L 270.097494 314.104933 
L 271.249533 314.715226 
L 272.416438 315.185832 
L 273.587856 315.509145 
L 274.753057 315.679739 
L 275.901218 315.694643 
L 277.021847 315.5539 
L 278.104645 315.258972 
L 279.139634 314.812681 
L 280.117836 314.220751 
L 281.031386 313.491153 
L 281.873678 312.633761 
L 282.63947 311.659998 
L 283.324933 310.582471 
L 283.927659 309.414595 
L 284.446615 308.170233 
L 284.882063 306.863352 
L 285.235449 305.50772 
L 285.509271 304.11664 
L 285.706931 302.702737 
L 285.832588 301.277787 
L 285.891004 299.852596 
L 285.887403 298.436918 
L 285.827333 297.039412 
L 285.716547 295.667632 
L 285.560891 294.328039 
L 285.366207 293.026039 
L 285.138253 291.76603 
L 284.882632 290.551462 
L 284.604734 289.384912 
L 284.30969 288.268149 
L 284.002333 287.202217 
L 283.687173 286.187501 
L 283.368373 285.223807 
L 283.049733 284.310432 
L 282.734687 283.446229 
L 282.426294 282.629675 
L 282.127243 281.858928 
L 281.839852 281.131888 
L 281.566081 280.446246 
L 281.307539 279.799533 
L 281.0655 279.189167 
L 280.840914 278.612491 
L 280.634426 278.066811 
L 280.446395 277.549433 
L 280.276914 277.057685 
L 280.125827 276.588954 
L 279.992754 276.140699 
L 279.877115 275.710478 
L 279.778147 275.295964 
L 279.694931 274.894957 
L 279.626415 274.505396 
L 279.571437 274.12537 
L 279.528745 273.753122 
L 279.497021 273.387051 
L 279.474903 273.025716 
L 279.461007 272.667834 
L 279.453942 272.312277 
L 279.452332 271.958065 
L 279.454835 271.604363 
z
" clip-path="url(#p5d36b6d7c2)" style="fill: #e8edf2; stroke: #e8edf2; stroke-linejoin: miter"/>
   </g>
   <g id="line2d_1">
    <path d="M 292.560665 271.604363 
L 292.492578 268.212476 
L 292.259016 265.480974 
L 291.825694 262.738413 
L 291.184589 259.990934 
L 290.114648 256.539312 
L 288.504612 252.291233 
L 286.229858 246.941955 
L 283.828163 241.770168 
L 281.851641 237.963337 
L 280.086871 234.945705 
L 278.01811 231.847742 
L 276.444819 229.782094 
L 274.702632 227.759232 
L 272.785261 225.82582 
L 270.693253 224.036824 
L 268.435915 222.45419 
L 266.033008 221.144242 
L 263.515835 220.173561 
L 260.927244 219.603337 
L 259.62237 219.484381 
L 258.320079 219.482575 
L 257.027984 219.600989 
L 255.753799 219.841108 
L 254.505149 220.202692 
L 253.289355 220.683673 
L 252.113192 221.279996 
L 250.98263 221.985544 
L 248.879989 223.699416 
L 247.014459 225.759553 
L 245.401432 228.083248 
L 244.038793 230.581477 
L 242.909113 233.167926 
L 241.98337 235.766083 
L 240.896876 239.553716 
L 239.569854 245.275114 
L 238.410134 250.126785 
L 237.397134 253.492097 
L 235.970771 257.322777 
L 233.686819 263.290734 
L 233.020473 265.607585 
L 232.557514 267.981155 
L 232.352443 270.393449 
L 232.445292 272.811842 
L 232.857642 275.194155 
L 233.590376 277.494607 
L 234.623272 279.670159 
L 235.91666 281.686656 
L 237.415839 283.523849 
L 239.054755 285.179865 
L 241.334498 287.142398 
L 245.653309 290.695354 
L 247.061828 292.141491 
L 248.34167 293.796508 
L 249.522869 295.754174 
L 250.664313 298.094961 
L 253.193001 304.111835 
L 255.430399 309.074822 
L 256.82224 311.764926 
L 258.437755 314.52584 
L 260.299051 317.286149 
L 262.416886 319.958814 
L 264.787227 322.443634 
L 267.388366 324.63202 
L 268.763429 325.580587 
L 270.179296 326.414371 
L 271.627897 327.121102 
L 273.100157 327.689739 
L 274.586159 328.110812 
L 276.075357 328.376745 
L 277.556828 328.482147 
L 279.019557 328.424088 
L 280.45286 328.202653 
L 281.846249 327.819354 
L 283.189559 327.277067 
L 284.473622 326.581573 
L 285.690389 325.740907 
L 286.83307 324.765011 
L 287.896239 323.665379 
L 288.875888 322.454694 
L 289.769431 321.146453 
L 291.294653 318.293203 
L 292.47711 315.216731 
L 293.338757 312.021167 
L 293.913678 308.797502 
L 294.243441 305.620264 
L 294.373015 302.546555 
L 294.29006 298.214253 
L 293.875504 293.05726 
L 292.52985 279.959603 
L 292.491612 275.683633 
L 292.560665 271.604363 
L 292.560665 271.604363 
" clip-path="url(#p5d36b6d7c2)" style="fill: none; stroke: #9aa5b1; stroke-width: 0.6; stroke-linecap: square"/>
   </g>
   <g id="line2d_2">
    <path d="M 291.369226 271.604363 
L 291.273044 267.706569 
L 291.014683 265.086659 
L 290.563409 262.45483 
L 289.917026 259.814317 
L 288.863839 256.482526 
L 287.30619 252.341154 
L 284.757774 246.229969 
L 282.759896 241.869337 
L 280.789102 238.049817 
L 279.010195 235.03182 
L 276.911823 231.953999 
L 275.311883 229.919824 
L 273.539857 227.947876 
L 271.592494 226.089039 
L 269.474345 224.401986 
L 267.199619 222.951248 
L 264.793626 221.803883 
L 262.293387 221.024568 
L 259.746909 220.669294 
L 258.473774 220.66406 
L 257.210741 220.778328 
L 255.965507 221.013587 
L 254.745679 221.369599 
L 253.558562 221.8443 
L 252.410912 222.433638 
L 251.308682 223.131501 
L 249.262096 224.827921 
L 247.451692 226.867864 
L 245.892729 229.168676 
L 244.582962 231.641386 
L 243.504833 234.199742 
L 242.629194 236.767302 
L 241.614878 240.504505 
L 240.399255 246.130462 
L 239.338361 250.873726 
L 238.394356 254.144076 
L 237.040555 257.847268 
L 234.838606 263.595555 
L 234.191625 265.826511 
L 233.741637 268.112991 
L 233.543068 270.437475 
L 233.635917 272.767817 
L 234.041765 275.062319 
L 234.761529 277.275681 
L 235.775058 279.365337 
L 237.042789 281.297605 
L 238.51016 283.052693 
L 240.111292 284.629177 
L 242.33172 286.490419 
L 246.503532 289.860699 
L 247.848088 291.246324 
L 249.059673 292.845719 
L 250.168692 294.752955 
L 251.23443 297.048781 
L 253.602795 302.993088 
L 255.135253 306.628222 
L 257.062771 310.598019 
L 258.620512 313.348501 
L 260.423591 316.101237 
L 262.482906 318.769206 
L 264.794567 321.252217 
L 267.337007 323.441688 
L 268.682759 324.391882 
L 270.069364 325.228014 
L 271.488769 325.937814 
L 272.931918 326.510238 
L 274.388911 326.935814 
L 275.849221 327.206963 
L 277.301939 327.318292 
L 278.736072 327.266866 
L 280.140949 327.052766 
L 281.506104 326.677501 
L 282.821384 326.143941 
L 284.077641 325.457862 
L 285.266843 324.627293 
L 286.382216 323.66217 
L 287.418351 322.573981 
L 288.371256 321.375401 
L 289.238361 320.079921 
L 290.71169 317.254125 
L 291.84367 314.207632 
L 292.656378 311.044496 
L 293.184017 307.85563 
L 293.468268 304.715479 
L 293.554214 301.681053 
L 293.409575 297.411585 
L 292.92031 292.345128 
L 291.390114 279.61243 
L 291.309046 276.170186 
L 291.369226 271.604363 
L 291.369226 271.604363 
" clip-path="url(#p5d36b6d7c2)" style="fill: none; stroke: #9aa5b1; stroke-width: 0.6; stroke-linecap: square"/>
   </g>
   <g id="line2d_3">
    <path d="M 290.177787 271.604363 
L 290.094601 267.88207 
L 289.772514 264.748539 
L 289.308675 262.226027 
L 288.476274 259.051784 
L 287.16603 255.153625 
L 284.989039 249.515792 
L 282.561283 243.788366 
L 280.7895 240.096403 
L 279.185163 237.151387 
L 277.28176 234.113994 
L 275.028397 231.077046 
L 273.313721 229.117658 
L 271.424255 227.268541 
L 269.364413 225.588342 
L 267.14826 224.141579 
L 264.800966 222.9953 
L 262.359406 222.214177 
L 259.871448 221.854206 
L 258.627469 221.845544 
L 257.393497 221.955667 
L 256.177215 222.186066 
L 254.98621 222.536506 
L 253.827769 223.004926 
L 252.708632 223.58728 
L 251.634735 224.277458 
L 249.644202 225.956425 
L 247.888925 227.976176 
L 246.384027 230.254104 
L 245.127131 232.701295 
L 244.100553 235.231559 
L 243.275017 237.768521 
L 242.332881 241.455294 
L 241.228656 246.98581 
L 240.266588 251.620668 
L 239.391578 254.796055 
L 238.379748 257.677033 
L 235.763801 264.609033 
L 235.193002 266.773024 
L 234.832206 268.987549 
L 234.731513 271.2302 
L 234.92512 273.46551 
L 235.427888 275.650372 
L 236.233722 277.740164 
L 237.31572 279.695122 
L 238.629009 281.486125 
L 240.114853 283.099538 
L 242.246123 284.987668 
L 248.223421 289.890003 
L 249.410517 291.350046 
L 250.477635 293.092624 
L 251.474906 295.204412 
L 252.834372 298.703814 
L 254.940606 304.235507 
L 256.638504 308.085944 
L 258.023848 310.795656 
L 259.64409 313.548194 
L 261.516385 316.264193 
L 263.64479 318.84962 
L 266.017018 321.199339 
L 268.602089 323.203177 
L 269.959432 324.041658 
L 271.349642 324.754526 
L 272.76368 325.330737 
L 274.191664 325.760816 
L 275.623085 326.037181 
L 277.047051 326.154437 
L 278.452586 326.109644 
L 279.829039 325.902879 
L 281.165958 325.535648 
L 282.453209 325.010815 
L 283.681661 324.334151 
L 284.843297 323.513679 
L 285.931362 322.559329 
L 286.940463 321.482583 
L 287.866624 320.296108 
L 288.70729 319.013388 
L 290.128728 316.215048 
L 291.21023 313.198533 
L 291.973999 310.067825 
L 292.454355 306.913759 
L 292.693096 303.810694 
L 292.735413 300.815552 
L 292.529091 296.608918 
L 292.123402 292.806546 
L 291.159051 286.436059 
L 290.445251 281.42301 
L 290.177233 277.911439 
L 290.145816 274.080857 
L 290.177787 271.604363 
L 290.177787 271.604363 
" clip-path="url(#p5d36b6d7c2)" style="fill: none; stroke: #9aa5b1; stroke-width: 0.6; stroke-linecap: square"/>
   </g>
   <g id="line2d_4">
    <path d="M 288.986348 271.604363 
L 288.916159 268.057571 
L 288.624571 265.067527 
L 288.063729 262.051183 
L 287.243931 259.001019 
L 285.982639 255.220208 
L 283.606909 248.894106 
L 281.543124 243.918135 
L 279.779838 240.208403 
L 278.163104 237.259048 
L 276.231531 234.237705 
L 274.744912 232.234268 
L 273.087584 230.287439 
L 271.256017 228.448042 
L 269.254481 226.774699 
L 267.096902 225.331911 
L 264.808305 224.186716 
L 262.425426 223.403786 
L 259.995988 223.039118 
L 258.781163 223.027028 
L 257.576254 223.133006 
L 256.388923 223.358545 
L 255.226741 223.703413 
L 254.096977 224.165553 
L 253.006353 224.740922 
L 251.960788 225.423414 
L 250.026309 227.084929 
L 248.326158 229.084488 
L 246.875324 231.339532 
L 245.6713 233.761204 
L 244.696272 236.263375 
L 243.920841 238.76974 
L 243.050883 242.406083 
L 242.058058 247.841159 
L 241.194815 252.36761 
L 240.388799 255.448034 
L 239.436285 258.227721 
L 236.719209 265.571754 
L 236.227166 267.667339 
L 235.956864 269.806851 
L 235.953542 271.963469 
L 236.245233 274.099014 
L 236.839927 276.169651 
L 237.724556 278.132149 
L 238.865793 279.950192 
L 240.213947 281.59975 
L 241.706636 283.073786 
L 243.801208 284.792264 
L 248.203978 288.19139 
L 249.420608 289.455992 
L 250.495678 290.944141 
L 251.46034 292.750518 
L 252.374665 294.95642 
L 256.907711 306.925317 
L 258.235556 309.623177 
L 259.797785 312.36671 
L 261.611694 315.076572 
L 263.68148 317.658746 
L 265.995001 320.008104 
L 268.521419 322.014472 
L 269.849499 322.855301 
L 271.210514 323.571238 
L 272.595441 324.151236 
L 273.994417 324.585817 
L 275.396948 324.867399 
L 276.792163 324.990581 
L 278.169101 324.952421 
L 279.517129 324.752993 
L 280.825812 324.393795 
L 282.085034 323.877689 
L 283.28568 323.210439 
L 284.419752 322.400065 
L 285.480508 321.456488 
L 286.462575 320.391184 
L 287.361991 319.216815 
L 288.17622 317.946856 
L 289.545765 315.175971 
L 290.57679 312.189433 
L 291.29162 309.091155 
L 291.724694 305.971888 
L 291.917924 302.90591 
L 291.916613 299.950051 
L 291.648607 295.806251 
L 291.186043 292.071096 
L 290.123584 285.846707 
L 289.334267 280.992612 
L 289.021779 277.620831 
L 288.960159 273.963619 
L 288.986348 271.604363 
L 288.986348 271.604363 
" clip-path="url(#p5d36b6d7c2)" style="fill: none; stroke: #9aa5b1; stroke-width: 0.6; stroke-linecap: square"/>
   </g>
   <g id="line2d_5">
    <path d="M 287.794909 271.604363 
L 287.704212 267.66654 
L 287.394674 264.81334 
L 286.830854 261.929341 
L 286.03212 258.99805 
L 284.606212 254.683347 
L 281.961069 247.472139 
L 280.153254 243.153282 
L 278.283456 239.357069 
L 276.54541 236.380246 
L 274.461427 233.391491 
L 272.861448 231.457221 
L 271.087778 229.627543 
L 269.144549 227.961056 
L 267.045543 226.522243 
L 264.815644 225.378133 
L 262.491445 224.593394 
L 260.120527 224.224031 
L 258.934858 224.208512 
L 257.759011 224.310345 
L 256.600631 224.531024 
L 255.467271 224.87032 
L 254.366184 225.32618 
L 253.304073 225.894564 
L 252.286841 226.569371 
L 250.408416 228.213433 
L 248.763391 230.192799 
L 247.366622 232.42496 
L 246.215469 234.821113 
L 245.291992 237.295192 
L 244.566664 239.770959 
L 243.768886 243.356872 
L 242.887459 248.696507 
L 242.123042 253.114551 
L 241.386021 256.100012 
L 240.492822 258.778409 
L 237.884613 265.819468 
L 237.407681 267.828309 
L 237.146044 269.880197 
L 237.144891 271.948791 
L 237.432245 273.996392 
L 238.016118 275.979646 
L 238.883503 277.855798 
L 240.001166 279.589004 
L 241.319545 281.155698 
L 242.776419 282.549295 
L 244.81419 284.165052 
L 249.054201 287.356736 
L 250.206868 288.560826 
L 251.21368 289.993352 
L 252.106163 291.749299 
L 252.944782 293.91024 
L 256.621281 304.460254 
L 257.784362 307.097298 
L 259.168782 309.816484 
L 260.797209 312.5465 
L 262.680964 315.20038 
L 264.816584 317.677967 
L 267.182931 319.870693 
L 268.440749 320.825767 
L 269.739567 321.668944 
L 271.071387 322.38795 
L 272.427203 322.971735 
L 273.797169 323.410819 
L 275.170812 323.697618 
L 276.537275 323.826726 
L 277.885616 323.795199 
L 279.205219 323.603106 
L 280.485666 323.251942 
L 281.716859 322.744563 
L 282.8897 322.086728 
L 283.996206 321.286451 
L 285.029655 320.353647 
L 285.984686 319.299786 
L 286.857359 318.137522 
L 287.64515 316.880323 
L 288.962802 314.136893 
L 289.94335 311.180334 
L 290.609241 308.114484 
L 290.995032 305.030017 
L 291.142752 302.001125 
L 291.097812 299.084549 
L 290.768123 295.003583 
L 290.248684 291.335647 
L 289.271668 286.161721 
L 288.223283 280.562215 
L 287.866325 277.330222 
L 287.773881 274.411948 
L 287.794909 271.604363 
L 287.794909 271.604363 
" clip-path="url(#p5d36b6d7c2)" style="fill: none; stroke: #9aa5b1; stroke-width: 0.6; stroke-linecap: square"/>
   </g>
   <g id="line2d_6">
    <path d="M 286.603469 271.604363 
L 286.530451 267.871021 
L 286.254938 265.160513 
L 285.74242 262.413943 
L 284.843127 259.041102 
L 283.060586 253.533201 
L 280.977808 247.64295 
L 279.19629 243.296 
L 277.832602 240.45991 
L 276.177235 237.513372 
L 274.177941 234.548713 
L 272.635311 232.627003 
L 270.919539 230.807044 
L 269.034616 229.147412 
L 266.994184 227.712574 
L 264.822983 226.569549 
L 262.557465 225.783003 
L 260.245066 225.408943 
L 259.088553 225.389997 
L 257.941768 225.487684 
L 256.812339 225.703503 
L 255.707802 226.037228 
L 254.635391 226.486807 
L 253.601794 227.048206 
L 251.67427 228.482427 
L 249.965172 230.284845 
L 248.498151 232.379999 
L 247.279035 234.68107 
L 246.297012 237.099653 
L 245.527699 239.55393 
L 244.697095 243.154723 
L 243.986899 247.566392 
L 243.051269 253.861493 
L 242.383242 256.751991 
L 241.549359 259.329097 
L 238.876236 266.702217 
L 238.478128 268.640335 
L 238.30557 270.613577 
L 238.398419 272.591715 
L 238.778255 274.534975 
L 239.446139 276.399975 
L 240.382202 278.146053 
L 241.547305 279.741401 
L 242.887446 281.168069 
L 244.833076 282.811538 
L 248.21705 285.190345 
L 249.904424 286.522082 
L 250.993128 287.66566 
L 251.931683 289.042563 
L 252.751987 290.74808 
L 253.5149 292.86406 
L 256.919001 303.306612 
L 258.024893 305.93039 
L 259.351539 308.639145 
L 260.921748 311.361587 
L 262.746983 314.010771 
L 264.823923 316.486551 
L 267.131572 318.680361 
L 268.360079 319.637062 
L 269.629635 320.482587 
L 270.932259 321.204662 
L 272.258964 321.792233 
L 273.599922 322.235821 
L 274.944675 322.527836 
L 276.282386 322.662871 
L 277.60213 322.637977 
L 278.893308 322.453219 
L 280.14552 322.110089 
L 281.348684 321.611437 
L 282.493719 320.963017 
L 283.57266 320.172837 
L 284.578801 319.250807 
L 285.506798 318.208388 
L 286.352727 317.058229 
L 287.11408 315.813791 
L 288.37984 313.097816 
L 289.30991 310.171235 
L 289.926862 307.137813 
L 290.265371 304.088145 
L 290.36758 301.09634 
L 290.279011 298.219048 
L 289.887639 294.200916 
L 289.311326 290.600197 
L 288.251036 285.547036 
L 287.112299 280.131817 
L 286.710871 277.039614 
L 286.591473 274.265534 
L 286.603469 271.604363 
L 286.603469 271.604363 
" clip-path="url(#p5d36b6d7c2)" style="fill: none; stroke: #9aa5b1; stroke-width: 0.6; stroke-linecap: square"/>
   </g>
   <g id="line2d_7">
    <path d="M 285.41203 271.604363 
L 285.35669 268.075503 
L 285.115202 265.507686 
L 284.653986 262.898545 
L 283.837949 259.680746 
L 282.013822 253.726275 
L 280.027524 247.824763 
L 278.66522 244.362533 
L 277.381748 241.56275 
L 275.80906 238.646498 
L 273.894456 235.705935 
L 272.409175 233.796785 
L 270.751301 231.986545 
L 268.924684 230.333769 
L 266.942825 228.902906 
L 264.830322 227.760966 
L 262.623484 226.972611 
L 260.369606 226.593855 
L 259.242247 226.571481 
L 258.124525 226.665023 
L 257.024047 226.875982 
L 255.948332 227.204135 
L 254.904598 227.647434 
L 253.899514 228.201848 
L 252.028457 229.620002 
L 250.374966 231.403592 
L 248.962558 233.477202 
L 247.796925 235.754064 
L 246.86713 238.145834 
L 246.148659 240.570756 
L 245.391455 244.122913 
L 244.773159 248.461558 
L 243.979496 254.608434 
L 243.380464 257.40397 
L 242.605896 259.879784 
L 239.897766 267.533047 
L 239.580251 269.398038 
L 239.496908 271.288912 
L 239.681837 273.172126 
L 240.149949 275.006493 
L 240.895336 276.749308 
L 241.891426 278.362699 
L 243.093817 279.819414 
L 244.444378 281.107641 
L 246.358632 282.579411 
L 250.754647 285.687427 
L 251.779388 286.770493 
L 252.649685 288.091774 
L 253.39781 289.746861 
L 254.085017 291.817879 
L 256.765517 300.898439 
L 258.265424 304.763483 
L 259.534296 307.461806 
L 261.046287 310.176675 
L 262.813003 312.821163 
L 264.831263 315.295134 
L 267.080213 317.49003 
L 268.279409 318.448357 
L 269.519703 319.296231 
L 270.793132 320.021374 
L 272.090725 320.612732 
L 273.402674 321.060823 
L 274.718539 321.358054 
L 276.027498 321.499015 
L 277.318645 321.480755 
L 278.581398 321.303333 
L 279.805374 320.968236 
L 280.980509 320.478311 
L 282.097739 319.839306 
L 283.149115 319.059223 
L 284.127947 318.147966 
L 285.02891 317.11699 
L 285.848095 315.978936 
L 286.58301 314.747258 
L 287.796877 312.058739 
L 288.67647 309.162136 
L 289.244483 306.161142 
L 289.53571 303.146274 
L 289.592408 300.191555 
L 289.460211 297.353546 
L 289.007155 293.398249 
L 288.373967 289.864748 
L 287.230403 284.932352 
L 286.001315 279.70142 
L 285.555417 276.749006 
L 285.409064 274.11912 
L 285.41203 271.604363 
L 285.41203 271.604363 
" clip-path="url(#p5d36b6d7c2)" style="fill: none; stroke: #9aa5b1; stroke-width: 0.6; stroke-linecap: square"/>
   </g>
   <g id="line2d_8">
    <path d="M 284.220591 271.604363 
L 284.156698 267.798573 
L 283.909838 265.364449 
L 283.460041 262.881944 
L 282.542407 259.257422 
L 280.379806 251.881197 
L 278.806133 247.175158 
L 277.360962 243.603756 
L 275.972922 240.750387 
L 274.261447 237.831301 
L 272.918415 235.90622 
L 271.40453 234.050807 
L 269.71936 232.319841 
L 267.871225 230.775125 
L 265.878892 229.482892 
L 263.772668 228.50968 
L 261.594402 227.916684 
L 259.395942 227.752965 
L 258.307282 227.842362 
L 257.235755 228.048461 
L 256.188863 228.371042 
L 255.173806 228.808061 
L 254.197234 229.35549 
L 252.382644 230.757578 
L 250.78476 232.52234 
L 249.426964 234.574405 
L 248.314816 236.827058 
L 247.437247 239.192014 
L 246.769619 241.587582 
L 246.085814 245.091103 
L 245.559419 249.356724 
L 244.907724 255.355376 
L 244.377685 258.055949 
L 243.662433 260.430472 
L 241.073956 267.723053 
L 240.767262 269.50066 
L 240.688257 271.30359 
L 240.871016 273.09878 
L 241.330464 274.845523 
L 242.060739 276.501594 
L 243.035352 278.029594 
L 244.210019 279.402736 
L 245.526759 280.609667 
L 247.38676 281.977347 
L 251.60487 284.852773 
L 252.565648 285.875327 
L 253.367688 287.140985 
L 254.043634 288.745643 
L 254.859271 291.55159 
L 256.711542 298.547628 
L 257.98454 302.282809 
L 259.082388 304.933261 
L 260.412564 307.640773 
L 261.992927 310.326088 
L 263.828242 312.89525 
L 265.906936 315.243161 
L 268.198739 317.259652 
L 269.409771 318.109874 
L 270.654004 318.838085 
L 271.922487 319.433231 
L 273.205427 319.885825 
L 274.492402 320.188272 
L 275.77261 320.33516 
L 277.03516 320.323532 
L 278.269488 320.153446 
L 279.465228 319.826383 
L 280.612334 319.345185 
L 281.701758 318.715595 
L 282.725569 317.945609 
L 283.677093 317.045125 
L 284.551022 316.025591 
L 285.343462 314.899643 
L 286.05194 313.680725 
L 287.213914 311.019661 
L 288.04303 308.153037 
L 288.562104 305.184471 
L 288.806048 302.204403 
L 288.817236 299.286771 
L 288.64141 296.488045 
L 288.12667 292.595581 
L 287.436608 289.129298 
L 286.209771 284.317667 
L 284.761916 278.669266 
L 284.343984 275.943167 
L 284.217531 273.494667 
L 284.220591 271.604363 
L 284.220591 271.604363 
" clip-path="url(#p5d36b6d7c2)" style="fill: none; stroke: #9aa5b1; stroke-width: 0.6; stroke-linecap: square"/>
   </g>
   <g id="line2d_9">
    <path d="M 283.029152 271.604363 
L 282.960911 267.577396 
L 282.642772 264.808412 
L 282.066598 261.94778 
L 280.700549 256.662794 
L 278.760644 249.842961 
L 277.60308 246.495598 
L 276.480041 243.768432 
L 275.07271 240.91275 
L 273.327486 238.02038 
L 271.956902 236.136349 
L 270.414824 234.345548 
L 268.70482 232.706482 
L 266.840107 231.283569 
L 264.845001 230.143799 
L 262.755523 229.351829 
L 260.618684 228.96368 
L 259.549637 228.93445 
L 258.490038 229.019701 
L 257.447463 229.22094 
L 256.429394 229.537949 
L 255.443013 229.968688 
L 254.494955 230.509132 
L 252.736831 231.895154 
L 251.194555 233.641087 
L 249.89137 235.671608 
L 248.832706 237.900052 
L 248.007365 240.238195 
L 247.390579 242.604409 
L 246.780174 246.059293 
L 246.345679 250.251891 
L 245.738653 256.794888 
L 245.228505 259.300206 
L 244.529041 261.5187 
L 242.250147 267.913059 
L 241.954274 269.603282 
L 241.879605 271.318269 
L 242.060196 273.025434 
L 242.510979 274.684553 
L 243.226142 276.25388 
L 244.179279 277.696488 
L 245.326221 278.986058 
L 246.60914 280.111692 
L 248.414887 281.375283 
L 252.455093 284.018118 
L 253.351908 284.980161 
L 254.08569 286.190197 
L 254.689458 287.744424 
L 255.403441 290.491681 
L 257.06573 297.410052 
L 258.253747 301.122182 
L 259.294096 303.760782 
L 260.566258 306.459288 
L 262.088235 309.138467 
L 263.864932 311.704376 
L 265.884919 314.051925 
L 268.118069 316.070947 
L 269.299839 316.923517 
L 270.514877 317.654797 
L 271.754248 318.25373 
L 273.00818 318.710827 
L 274.266266 319.01849 
L 275.517722 319.171305 
L 276.751674 319.16631 
L 277.957578 319.00356 
L 279.125083 318.68453 
L 280.244159 318.212059 
L 281.305778 317.591884 
L 282.302023 316.831995 
L 283.22624 315.942284 
L 284.073134 314.934193 
L 284.83883 313.82035 
L 285.52087 312.614193 
L 286.630951 309.980584 
L 287.40959 307.143938 
L 287.879725 304.2078 
L 288.076387 301.262531 
L 288.042064 298.381986 
L 287.822609 295.622544 
L 287.246186 291.792914 
L 286.49925 288.393849 
L 285.189139 283.702982 
L 283.640666 278.266371 
L 283.244509 276.167789 
L 283.044247 273.826292 
L 283.029152 271.604363 
L 283.029152 271.604363 
" clip-path="url(#p5d36b6d7c2)" style="fill: none; stroke: #9aa5b1; stroke-width: 0.6; stroke-linecap: square"/>
   </g>
   <g id="line2d_10">
    <path d="M 281.837713 271.604363 
L 281.798648 267.839449 
L 281.531788 265.238809 
L 281.031132 262.537133 
L 279.55742 256.322779 
L 278.127204 250.85206 
L 277.07201 247.562131 
L 276.029187 244.871273 
L 274.704535 242.045876 
L 273.044 239.177602 
L 271.730766 237.30613 
L 270.246585 235.525049 
L 268.594888 233.892839 
L 266.788749 232.473901 
L 264.85234 231.335216 
L 262.821542 230.541437 
L 260.743224 230.148592 
L 259.703332 230.115934 
L 258.672795 230.19704 
L 257.659171 230.393419 
L 256.669924 230.704856 
L 255.71222 231.129315 
L 253.917105 232.299155 
L 252.31895 233.855954 
L 250.949555 235.734357 
L 249.823109 237.8521 
L 248.936315 240.120658 
L 248.27059 242.454275 
L 247.795782 244.777053 
L 247.358898 248.110817 
L 247.034465 252.973249 
L 246.685001 257.518734 
L 246.241487 259.927418 
L 245.598824 262.04319 
L 243.426338 268.103064 
L 243.141285 269.705904 
L 243.070954 271.332947 
L 243.249375 272.952088 
L 243.691494 274.523584 
L 244.391546 276.006166 
L 245.323205 277.363382 
L 246.442423 278.56938 
L 247.691521 279.613718 
L 249.443014 280.773218 
L 252.988894 282.921795 
L 253.879952 283.761341 
L 254.598984 284.820372 
L 255.1697 286.1976 
L 255.644943 287.981696 
L 257.743676 297.460568 
L 258.987015 301.262762 
L 260.082566 303.929789 
L 261.419905 306.621938 
L 263.011061 309.252337 
L 264.85328 311.720885 
L 266.926137 313.919035 
L 269.189907 315.737161 
L 270.375749 316.471509 
L 271.58601 317.074229 
L 272.810932 317.535828 
L 274.040129 317.848708 
L 275.262833 318.007449 
L 276.468189 318.009088 
L 277.645667 317.853673 
L 278.784937 317.542678 
L 279.875984 317.078933 
L 280.909797 316.468173 
L 281.878478 315.718381 
L 282.775386 314.839443 
L 283.595246 313.842795 
L 284.334198 312.741057 
L 284.989799 311.54766 
L 286.047989 308.941507 
L 286.77615 306.134838 
L 287.197346 303.231129 
L 287.346725 300.32066 
L 287.266892 297.477201 
L 287.003808 294.757042 
L 286.365702 290.990246 
L 285.561891 287.6584 
L 284.168507 283.088298 
L 282.519415 277.863476 
L 282.089055 275.877181 
L 281.861838 273.679878 
L 281.837713 271.604363 
L 281.837713 271.604363 
" clip-path="url(#p5d36b6d7c2)" style="fill: none; stroke: #9aa5b1; stroke-width: 0.6; stroke-linecap: square"/>
   </g>
   <g id="line2d_11">
    <path d="M 280.646274 271.604363 
L 280.615597 267.702134 
L 280.363429 265.254654 
L 279.817237 262.239321 
L 277.866794 253.332165 
L 276.810141 249.47203 
L 275.578333 245.974114 
L 274.33636 243.179002 
L 272.760515 240.334824 
L 271.504629 238.475912 
L 270.078347 236.70455 
L 268.484956 235.079196 
L 266.73739 233.664233 
L 264.859679 232.526632 
L 262.887562 231.731046 
L 260.867763 231.333504 
L 259.857026 231.297418 
L 258.855552 231.374379 
L 257.870879 231.565898 
L 256.910455 231.871763 
L 255.981427 232.289941 
L 254.243158 233.445111 
L 252.701056 234.984458 
L 251.386788 236.842669 
L 250.314407 238.937528 
L 249.480484 241.180567 
L 248.866309 243.486091 
L 248.441606 245.778272 
L 248.076901 249.061606 
L 247.863866 253.828597 
L 247.631349 258.24258 
L 247.254469 260.55463 
L 246.668608 262.56768 
L 244.490772 268.794127 
L 244.28112 270.320273 
L 244.292983 271.860722 
L 244.554313 273.380659 
L 245.073263 274.839611 
L 245.837182 276.197689 
L 246.8134 277.421876 
L 247.953128 278.491388 
L 249.620124 279.672987 
L 252.107943 281.043936 
L 253.859423 282.108341 
L 254.688028 282.885818 
L 255.340194 283.887561 
L 255.839995 285.212596 
L 256.240663 286.949879 
L 257.774104 295.134901 
L 258.792162 298.800929 
L 259.717512 301.415824 
L 260.873648 304.09632 
L 262.278852 306.763225 
L 263.938313 309.322628 
L 265.840886 311.669454 
L 267.956729 313.693537 
L 269.079974 314.550804 
L 270.236621 315.288221 
L 271.417771 315.894727 
L 272.613685 316.36083 
L 273.813993 316.678927 
L 275.007945 316.843594 
L 276.184704 316.851866 
L 277.333757 316.703786 
L 278.444791 316.400825 
L 279.507809 315.945807 
L 280.513817 315.344462 
L 281.454932 314.604767 
L 282.324532 313.736602 
L 283.117358 312.751396 
L 283.829566 311.661764 
L 285.003801 309.223358 
L 285.843835 306.532119 
L 286.36504 303.695924 
L 286.597238 300.812158 
L 286.579978 297.96302 
L 286.358119 295.213451 
L 285.978129 292.611095 
L 285.209682 289.04888 
L 284.022182 284.998814 
L 280.933601 275.586572 
L 280.679429 273.533464 
L 280.646274 271.604363 
L 280.646274 271.604363 
" clip-path="url(#p5d36b6d7c2)" style="fill: none; stroke: #9aa5b1; stroke-width: 0.6; stroke-linecap: square"/>
   </g>
   <g id="line2d_12">
    <path d="M 279.454835 271.604363 
L 279.416522 267.243552 
L 279.094405 264.528268 
L 278.119226 259.135144 
L 276.860324 252.870259 
L 276.009869 249.695196 
L 275.12748 247.076955 
L 273.968185 244.312128 
L 272.47703 241.492046 
L 271.278493 239.645694 
L 269.910108 237.884051 
L 268.375024 236.265552 
L 266.686031 234.854564 
L 264.867018 233.718049 
L 262.953581 232.920655 
L 260.992302 232.518417 
L 260.010721 232.478903 
L 259.038309 232.551719 
L 258.082587 232.738377 
L 257.150985 233.03867 
L 256.250634 233.450568 
L 254.56921 234.591068 
L 253.083163 236.112962 
L 251.824021 237.95098 
L 250.805704 240.022956 
L 250.024653 242.240476 
L 249.462029 244.517908 
L 249.08743 246.77949 
L 248.794903 250.012395 
L 248.693267 254.683946 
L 248.577697 258.966425 
L 248.267451 261.181841 
L 247.738392 263.09217 
L 246.526487 266.195733 
L 245.903152 268.015775 
L 245.582864 269.431351 
L 245.449323 270.87773 
L 245.542172 272.327562 
L 245.882991 273.743959 
L 246.473055 275.086417 
L 247.292919 276.317126 
L 248.304079 277.407095 
L 249.453374 278.341133 
L 251.088968 279.352232 
L 255.005762 281.514155 
L 255.710687 282.294662 
L 256.239698 283.33783 
L 256.626928 284.740767 
L 257.035948 287.311953 
L 257.700737 291.805613 
L 258.395781 295.168655 
L 259.061369 297.640302 
L 259.92922 300.243345 
L 261.027342 302.914835 
L 262.37416 305.575604 
L 263.975004 308.131754 
L 265.81887 310.478218 
L 267.876059 312.504832 
L 268.970042 313.364447 
L 270.097494 314.104933 
L 271.249533 314.715226 
L 272.416438 315.185832 
L 273.587856 315.509145 
L 274.753057 315.679739 
L 275.901218 315.694643 
L 277.021847 315.5539 
L 278.104645 315.258972 
L 279.139634 314.812681 
L 280.117836 314.220751 
L 281.031386 313.491153 
L 281.873678 312.633761 
L 282.63947 311.659998 
L 283.324933 310.582471 
L 284.446615 308.170233 
L 285.235449 305.50772 
L 285.706931 302.702737 
L 285.891004 299.852596 
L 285.827333 297.039412 
L 285.560891 294.328039 
L 285.138253 291.76603 
L 284.30969 288.268149 
L 283.368373 285.223807 
L 281.839852 281.131888 
L 280.125827 276.588954 
L 279.694931 274.894957 
L 279.474903 273.025716 
L 279.454835 271.604363 
L 279.454835 271.604363 
" clip-path="url(#p5d36b6d7c2)" style="fill: none; stroke: #9aa5b1; stroke-width: 0.6; stroke-linecap: square"/>
   </g>
   <g id="matplotlib.axis_1">
    <g id="xtick_1">
     <g id="line2d_13">
      <defs>
       <path id="md57bf5ad26" d="M 0 0 
L 0 3.5 
" style="stroke: #000000; stroke-width: 0.8"/>
      </defs>
      <g>
       <use xlink:href="#md57bf5ad26" x="96.496545" y="382.383755" style="stroke: #000000; stroke-width: 0.8"/>
      </g>
     </g>
     <g id="text_1">
      <!-- −2000 -->
      <g transform="translate(84.656154 394.702115) scale(0.07 -0.07)">
       <defs>
        <path id="DejaVuSans-c9c" d="M 678 2272 
L 4684 2272 
L 4684 1741 
L 678 1741 
L 678 2272 
z
" transform="scale(0.015625)"/>
        <path id="DejaVuSans-15" d="M 1228 531 
L 3431 531 
L 3431 0 
L 469 0 
L 469 531 
Q 828 903 1448 1529 
Q 2069 2156 2228 2338 
Q 2531 2678 2651 2914 
Q 2772 3150 2772 3378 
Q 2772 3750 2511 3984 
Q 2250 4219 1831 4219 
Q 1534 4219 1204 4116 
Q 875 4013 500 3803 
L 500 4441 
Q 881 4594 1212 4672 
Q 1544 4750 1819 4750 
Q 2544 4750 2975 4387 
Q 3406 4025 3406 3419 
Q 3406 3131 3298 2873 
Q 3191 2616 2906 2266 
Q 2828 2175 2409 1742 
Q 1991 1309 1228 531 
z
" transform="scale(0.015625)"/>
        <path id="DejaVuSans-13" d="M 2034 4250 
Q 1547 4250 1301 3770 
Q 1056 3291 1056 2328 
Q 1056 1369 1301 889 
Q 1547 409 2034 409 
Q 2525 409 2770 889 
Q 3016 1369 3016 2328 
Q 3016 3291 2770 3770 
Q 2525 4250 2034 4250 
z
M 2034 4750 
Q 2819 4750 3233 4129 
Q 3647 3509 3647 2328 
Q 3647 1150 3233 529 
Q 2819 -91 2034 -91 
Q 1250 -91 836 529 
Q 422 1150 422 2328 
Q 422 3509 836 4129 
Q 1250 4750 2034 4750 
z
" transform="scale(0.015625)"/>
       </defs>
       <use xlink:href="#DejaVuSans-c9c"/>
       <use xlink:href="#DejaVuSans-15" transform="translate(83.796875 0)"/>
       <use xlink:href="#DejaVuSans-13" transform="translate(147.421875 0)"/>
       <use xlink:href="#DejaVuSans-13" transform="translate(211.046875 0)"/>
       <use xlink:href="#DejaVuSans-13" transform="translate(274.671875 0)"/>
      </g>
     </g>
    </g>
    <g id="xtick_2">
     <g id="line2d_14">
      <g>
       <use xlink:href="#md57bf5ad26" x="180.798473" y="382.383755" style="stroke: #000000; stroke-width: 0.8"/>
      </g>
     </g>
     <g id="text_2">
      <!-- −1000 -->
      <g transform="translate(168.958082 394.702115) scale(0.07 -0.07)">
       <defs>
        <path id="DejaVuSans-14" d="M 794 531 
L 1825 531 
L 1825 4091 
L 703 3866 
L 703 4441 
L 1819 4666 
L 2450 4666 
L 2450 531 
L 3481 531 
L 3481 0 
L 794 0 
L 794 531 
z
" transform="scale(0.015625)"/>
       </defs>
       <use xlink:href="#DejaVuSans-c9c"/>
       <use xlink:href="#DejaVuSans-14" transform="translate(83.796875 0)"/>
       <use xlink:href="#DejaVuSans-13" transform="translate(147.421875 0)"/>
       <use xlink:href="#DejaVuSans-13" transform="translate(211.046875 0)"/>
       <use xlink:href="#DejaVuSans-13" transform="translate(274.671875 0)"/>
      </g>
     </g>
    </g>
    <g id="xtick_3">
     <g id="line2d_15">
      <g>
       <use xlink:href="#md57bf5ad26" x="265.100401" y="382.383755" style="stroke: #000000; stroke-width: 0.8"/>
      </g>
     </g>
     <g id="text_3">
      <!-- 0 -->
      <g transform="translate(262.873526 394.702115) scale(0.07 -0.07)">
       <use xlink:href="#DejaVuSans-13"/>
      </g>
     </g>
    </g>
    <g id="xtick_4">
     <g id="line2d_16">
      <g>
       <use xlink:href="#md57bf5ad26" x="349.402328" y="382.383755" style="stroke: #000000; stroke-width: 0.8"/>
      </g>
     </g>
     <g id="text_4">
      <!-- 1000 -->
      <g transform="translate(340.494828 394.702115) scale(0.07 -0.07)">
       <use xlink:href="#DejaVuSans-14"/>
       <use xlink:href="#DejaVuSans-13" transform="translate(63.625 0)"/>
       <use xlink:href="#DejaVuSans-13" transform="translate(127.25 0)"/>
       <use xlink:href="#DejaVuSans-13" transform="translate(190.875 0)"/>
      </g>
     </g>
    </g>
    <g id="xtick_5">
     <g id="line2d_17">
      <g>
       <use xlink:href="#md57bf5ad26" x="433.704256" y="382.383755" style="stroke: #000000; stroke-width: 0.8"/>
      </g>
     </g>
     <g id="text_5">
      <!-- 2000 -->
      <g transform="translate(424.796756 394.702115) scale(0.07 -0.07)">
       <use xlink:href="#DejaVuSans-15"/>
       <use xlink:href="#DejaVuSans-13" transform="translate(63.625 0)"/>
       <use xlink:href="#DejaVuSans-13" transform="translate(127.25 0)"/>
       <use xlink:href="#DejaVuSans-13" transform="translate(190.875 0)"/>
      </g>
     </g>
    </g>
    <g id="text_6">
     <!-- east [m] -->
     <g transform="translate(263.567813 406.462505) scale(0.08 -0.08)">
      <defs>
       <path id="DejaVuSans-48" d="M 3597 1894 
L 3597 1613 
L 953 1613 
Q 991 1019 1311 708 
Q 1631 397 2203 397 
Q 2534 397 2845 478 
Q 3156 559 3463 722 
L 3463 178 
Q 3153 47 2828 -22 
Q 2503 -91 2169 -91 
Q 1331 -91 842 396 
Q 353 884 353 1716 
Q 353 2575 817 3079 
Q 1281 3584 2069 3584 
Q 2775 3584 3186 3129 
Q 3597 2675 3597 1894 
z
M 3022 2063 
Q 3016 2534 2758 2815 
Q 2500 3097 2075 3097 
Q 1594 3097 1305 2825 
Q 1016 2553 972 2059 
L 3022 2063 
z
" transform="scale(0.015625)"/>
       <path id="DejaVuSans-44" d="M 2194 1759 
Q 1497 1759 1228 1600 
Q 959 1441 959 1056 
Q 959 750 1161 570 
Q 1363 391 1709 391 
Q 2188 391 2477 730 
Q 2766 1069 2766 1631 
L 2766 1759 
L 2194 1759 
z
M 3341 1997 
L 3341 0 
L 2766 0 
L 2766 531 
Q 2569 213 2275 61 
Q 1981 -91 1556 -91 
Q 1019 -91 701 211 
Q 384 513 384 1019 
Q 384 1609 779 1909 
Q 1175 2209 1959 2209 
L 2766 2209 
L 2766 2266 
Q 2766 2663 2505 2880 
Q 2244 3097 1772 3097 
Q 1472 3097 1187 3025 
Q 903 2953 641 2809 
L 641 3341 
Q 956 3463 1253 3523 
Q 1550 3584 1831 3584 
Q 2591 3584 2966 3190 
Q 3341 2797 3341 1997 
z
" transform="scale(0.015625)"/>
       <path id="DejaVuSans-56" d="M 2834 3397 
L 2834 2853 
Q 2591 2978 2328 3040 
Q 2066 3103 1784 3103 
Q 1356 3103 1142 2972 
Q 928 2841 928 2578 
Q 928 2378 1081 2264 
Q 1234 2150 1697 2047 
L 1894 2003 
Q 2506 1872 2764 1633 
Q 3022 1394 3022 966 
Q 3022 478 2636 193 
Q 2250 -91 1575 -91 
Q 1294 -91 989 -36 
Q 684 19 347 128 
L 347 722 
Q 666 556 975 473 
Q 1284 391 1588 391 
Q 1994 391 2212 530 
Q 2431 669 2431 922 
Q 2431 1156 2273 1281 
Q 2116 1406 1581 1522 
L 1381 1569 
Q 847 1681 609 1914 
Q 372 2147 372 2553 
Q 372 3047 722 3315 
Q 1072 3584 1716 3584 
Q 2034 3584 2315 3537 
Q 2597 3491 2834 3397 
z
" transform="scale(0.015625)"/>
       <path id="DejaVuSans-57" d="M 1172 4494 
L 1172 3500 
L 2356 3500 
L 2356 3053 
L 1172 3053 
L 1172 1153 
Q 1172 725 1289 603 
Q 1406 481 1766 481 
L 2356 481 
L 2356 0 
L 1766 0 
Q 1100 0 847 248 
Q 594 497 594 1153 
L 594 3053 
L 172 3053 
L 172 3500 
L 594 3500 
L 594 4494 
L 1172 4494 
z
" transform="scale(0.015625)"/>
       <path id="DejaVuSans-3" transform="scale(0.015625)"/>
       <path id="DejaVuSans-3e" d="M 550 4863 
L 1875 4863 
L 1875 4416 
L 1125 4416 
L 1125 -397 
L 1875 -397 
L 1875 -844 
L 550 -844 
L 550 4863 
z
" transform="scale(0.015625)"/>
       <path id="DejaVuSans-50" d="M 3328 2828 
Q 3544 3216 3844 3400 
Q 4144 3584 4550 3584 
Q 5097 3584 5394 3201 
Q 5691 2819 5691 2113 
L 5691 0 
L 5113 0 
L 5113 2094 
Q 5113 2597 4934 2840 
Q 4756 3084 4391 3084 
Q 3944 3084 3684 2787 
Q 3425 2491 3425 1978 
L 3425 0 
L 2847 0 
L 2847 2094 
Q 2847 2600 2669 2842 
Q 2491 3084 2119 3084 
Q 1678 3084 1418 2786 
Q 1159 2488 1159 1978 
L 1159 0 
L 581 0 
L 581 3500 
L 1159 3500 
L 1159 2956 
Q 1356 3278 1631 3431 
Q 1906 3584 2284 3584 
Q 2666 3584 2933 3390 
Q 3200 3197 3328 2828 
z
" transform="scale(0.015625)"/>
       <path id="DejaVuSans-40" d="M 1947 4863 
L 1947 -844 
L 622 -844 
L 622 -397 
L 1369 -397 
L 1369 4416 
L 622 4416 
L 622 4863 
L 1947 4863 
z
" transform="scale(0.015625)"/>
      </defs>
      <use xlink:href="#DejaVuSans-48"/>
      <use xlink:href="#DejaVuSans-44" transform="translate(61.53125 0)"/>
      <use xlink:href="#DejaVuSans-56" transform="translate(122.8125 0)"/>
      <use xlink:href="#DejaVuSans-57" transform="translate(174.90625 0)"/>
      <use xlink:href="#DejaVuSans-3" transform="translate(214.109375 0)"/>
      <use xlink:href="#DejaVuSans-3e" transform="translate(245.890625 0)"/>
      <use xlink:href="#DejaVuSans-50" transform="translate(284.90625 0)"/>
      <use xlink:href="#DejaVuSans-40" transform="translate(382.3125 0)"/>
     </g>
    </g>
   </g>
   <g id="matplotlib.axis_2">
    <g id="ytick_1">
     <g id="line2d_18">
      <defs>
       <path id="mb3a6795afa" d="M 0 0 
L -3.5 0 
" style="stroke: #000000; stroke-width: 0.8"/>
      </defs>
      <g>
       <use xlink:href="#mb3a6795afa" x="53.241875" y="355.906291" style="stroke: #000000; stroke-width: 0.8"/>
      </g>
     </g>
     <g id="text_7">
      <!-- −1000 -->
      <g transform="translate(22.561094 358.56547) scale(0.07 -0.07)">
       <use xlink:href="#DejaVuSans-c9c"/>
       <use xlink:href="#DejaVuSans-14" transform="translate(83.796875 0)"/>
       <use xlink:href="#DejaVuSans-13" transform="translate(147.421875 0)"/>
       <use xlink:href="#DejaVuSans-13" transform="translate(211.046875 0)"/>
       <use xlink:href="#DejaVuSans-13" transform="translate(274.671875 0)"/>
      </g>
     </g>
    </g>
    <g id="ytick_2">
     <g id="line2d_19">
      <g>
       <use xlink:href="#mb3a6795afa" x="53.241875" y="313.755327" style="stroke: #000000; stroke-width: 0.8"/>
      </g>
     </g>
     <g id="text_8">
      <!-- −500 -->
      <g transform="translate(27.014844 316.414506) scale(0.07 -0.07)">
       <defs>
        <path id="DejaVuSans-18" d="M 691 4666 
L 3169 4666 
L 3169 4134 
L 1269 4134 
L 1269 2991 
Q 1406 3038 1543 3061 
Q 1681 3084 1819 3084 
Q 2600 3084 3056 2656 
Q 3513 2228 3513 1497 
Q 3513 744 3044 326 
Q 2575 -91 1722 -91 
Q 1428 -91 1123 -41 
Q 819 9 494 109 
L 494 744 
Q 775 591 1075 516 
Q 1375 441 1709 441 
Q 2250 441 2565 725 
Q 2881 1009 2881 1497 
Q 2881 1984 2565 2268 
Q 2250 2553 1709 2553 
Q 1456 2553 1204 2497 
Q 953 2441 691 2322 
L 691 4666 
z
" transform="scale(0.015625)"/>
       </defs>
       <use xlink:href="#DejaVuSans-c9c"/>
       <use xlink:href="#DejaVuSans-18" transform="translate(83.796875 0)"/>
       <use xlink:href="#DejaVuSans-13" transform="translate(147.421875 0)"/>
       <use xlink:href="#DejaVuSans-13" transform="translate(211.046875 0)"/>
      </g>
     </g>
    </g>
    <g id="ytick_3">
     <g id="line2d_20">
      <g>
       <use xlink:href="#mb3a6795afa" x="53.241875" y="271.604363" style="stroke: #000000; stroke-width: 0.8"/>
      </g>
     </g>
     <g id="text_9">
      <!-- 0 -->
      <g transform="translate(41.788125 274.263542) scale(0.07 -0.07)">
       <use xlink:href="#DejaVuSans-13"/>
      </g>
     </g>
    </g>
    <g id="ytick_4">
     <g id="line2d_21">
      <g>
       <use xlink:href="#mb3a6795afa" x="53.241875" y="229.453399" style="stroke: #000000; stroke-width: 0.8"/>
      </g>
     </g>
     <g id="text_10">
      <!-- 500 -->
      <g transform="translate(32.880625 232.112578) scale(0.07 -0.07)">
       <use xlink:href="#DejaVuSans-18"/>
       <use xlink:href="#DejaVuSans-13" transform="translate(63.625 0)"/>
       <use xlink:href="#DejaVuSans-13" transform="translate(127.25 0)"/>
      </g>
     </g>
    </g>
    <g id="ytick_5">
     <g id="line2d_22">
      <g>
       <use xlink:href="#mb3a6795afa" x="53.241875" y="187.302435" style="stroke: #000000; stroke-width: 0.8"/>
      </g>
     </g>
     <g id="text_11">
      <!-- 1000 -->
      <g transform="translate(28.426875 189.961614) scale(0.07 -0.07)">
       <use xlink:href="#DejaVuSans-14"/>
       <use xlink:href="#DejaVuSans-13" transform="translate(63.625 0)"/>
       <use xlink:href="#DejaVuSans-13" transform="translate(127.25 0)"/>
       <use xlink:href="#DejaVuSans-13" transform="translate(190.875 0)"/>
      </g>
     </g>
    </g>
    <g id="ytick_6">
     <g id="line2d_23">
      <g>
       <use xlink:href="#mb3a6795afa" x="53.241875" y="145.151471" style="stroke: #000000; stroke-width: 0.8"/>
      </g>
     </g>
     <g id="text_12">
      <!-- 1500 -->
      <g transform="translate(28.426875 147.81065) scale(0.07 -0.07)">
       <use xlink:href="#DejaVuSans-14"/>
       <use xlink:href="#DejaVuSans-18" transform="translate(63.625 0)"/>
       <use xlink:href="#DejaVuSans-13" transform="translate(127.25 0)"/>
       <use xlink:href="#DejaVuSans-13" transform="translate(190.875 0)"/>
      </g>
     </g>
    </g>
    <g id="text_13">
     <!-- north [m] -->
     <g transform="translate(16.639219 278.21875) rotate(-90) scale(0.08 -0.08)">
      <defs>
       <path id="DejaVuSans-51" d="M 3513 2113 
L 3513 0 
L 2938 0 
L 2938 2094 
Q 2938 2591 2744 2837 
Q 2550 3084 2163 3084 
Q 1697 3084 1428 2787 
Q 1159 2491 1159 1978 
L 1159 0 
L 581 0 
L 581 3500 
L 1159 3500 
L 1159 2956 
Q 1366 3272 1645 3428 
Q 1925 3584 2291 3584 
Q 2894 3584 3203 3211 
Q 3513 2838 3513 2113 
z
" transform="scale(0.015625)"/>
       <path id="DejaVuSans-52" d="M 1959 3097 
Q 1497 3097 1228 2736 
Q 959 2375 959 1747 
Q 959 1119 1226 758 
Q 1494 397 1959 397 
Q 2419 397 2687 759 
Q 2956 1122 2956 1747 
Q 2956 2369 2687 2733 
Q 2419 3097 1959 3097 
z
M 1959 3584 
Q 2709 3584 3137 3096 
Q 3566 2609 3566 1747 
Q 3566 888 3137 398 
Q 2709 -91 1959 -91 
Q 1206 -91 779 398 
Q 353 888 353 1747 
Q 353 2609 779 3096 
Q 1206 3584 1959 3584 
z
" transform="scale(0.015625)"/>
       <path id="DejaVuSans-55" d="M 2631 2963 
Q 2534 3019 2420 3045 
Q 2306 3072 2169 3072 
Q 1681 3072 1420 2755 
Q 1159 2438 1159 1844 
L 1159 0 
L 581 0 
L 581 3500 
L 1159 3500 
L 1159 2956 
Q 1341 3275 1631 3429 
Q 1922 3584 2338 3584 
Q 2397 3584 2469 3576 
Q 2541 3569 2628 3553 
L 2631 2963 
z
" transform="scale(0.015625)"/>
       <path id="DejaVuSans-4b" d="M 3513 2113 
L 3513 0 
L 2938 0 
L 2938 2094 
Q 2938 2591 2744 2837 
Q 2550 3084 2163 3084 
Q 1697 3084 1428 2787 
Q 1159 2491 1159 1978 
L 1159 0 
L 581 0 
L 581 4863 
L 1159 4863 
L 1159 2956 
Q 1366 3272 1645 3428 
Q 1925 3584 2291 3584 
Q 2894 3584 3203 3211 
Q 3513 2838 3513 2113 
z
" transform="scale(0.015625)"/>
      </defs>
      <use xlink:href="#DejaVuSans-51"/>
      <use xlink:href="#DejaVuSans-52" transform="translate(63.375 0)"/>
      <use xlink:href="#DejaVuSans-55" transform="translate(124.5625 0)"/>
      <use xlink:href="#DejaVuSans-57" transform="translate(165.671875 0)"/>
      <use xlink:href="#DejaVuSans-4b" transform="translate(204.875 0)"/>
      <use xlink:href="#DejaVuSans-3" transform="translate(268.25 0)"/>
      <use xlink:href="#DejaVuSans-3e" transform="translate(300.03125 0)"/>
      <use xlink:href="#DejaVuSans-50" transform="translate(339.046875 0)"/>
      <use xlink:href="#DejaVuSans-40" transform="translate(436.453125 0)"/>
     </g>
    </g>
   </g>
   <g id="line2d_24">
    <path d="M 266.161066 233.275251 
L 264.216269 232.2238 
L 262.188698 231.546549 
L 260.130914 231.297612 
L 258.103215 231.511755 
L 256.16832 232.19772 
L 254.384383 233.333166 
L 252.799654 234.870304 
L 251.448754 236.742344 
L 250.347605 238.86368 
L 249.493385 241.141444 
L 248.866829 243.485398 
L 248.436223 245.815711 
L 248.162141 248.067915 
L 248.002027 250.195054 
L 247.914082 252.167542 
L 247.860204 253.971464 
L 247.80797 255.606007 
L 247.731804 257.080581 
L 247.613466 258.411964 
L 247.442055 259.621692 
L 247.213643 260.733771 
L 246.930642 261.772758 
L 246.600995 262.762183 
L 246.237228 263.723318 
L 245.855426 264.674245 
L 245.474153 265.629212 
L 245.113363 266.598255 
L 244.793327 267.587057 
L 244.533605 268.597037 
L 244.352097 269.625633 
L 244.264199 270.666768 
L 244.282089 271.711468 
L 244.414163 272.748595 
L 244.664641 273.765686 
L 245.033354 274.749832 
L 245.515712 275.688596 
L 246.102829 276.570922 
L 246.781878 277.387992 
L 247.537118 278.133819 
L 248.349977 278.806018 
L 249.199922 279.406315 
L 250.06539 279.940887 
L 250.924772 280.42053 
L 251.757418 280.860625 
L 252.544647 281.280919 
L 253.270711 281.705095 
L 253.923696 282.160155 
L 254.496319 282.675616 
L 254.986585 283.282525 
L 255.398291 284.01232 
" clip-path="url(#p5d36b6d7c2)" style="fill: none; stroke: #0369a1; stroke-width: 1.4; stroke-linecap: square"/>
   </g>
   <g id="line2d_25">
    <path d="M 254.563138 234.598501 
L 253.036095 236.173443 
L 251.750703 238.081155 
L 250.721244 240.23128 
L 249.942401 242.527075 
L 249.391985 244.875768 
L 249.035366 247.196479 
L 248.830558 249.42506 
L 248.73303 251.515957 
L 248.699687 253.441709 
L 248.691815 255.190905 
L 248.677019 256.765342 
L 248.630291 258.176923 
L 248.534413 259.444656 
L 248.379841 260.591935 
L 248.164243 261.644204 
L 247.89176 262.626995 
L 247.572096 263.564355 
L 247.219477 264.477624 
L 246.851532 265.384537 
L 246.488138 266.298625 
L 246.150251 267.228906 
L 245.858778 268.179816 
L 245.633503 269.151381 
L 245.492113 270.139602 
L 245.449345 271.137011 
L 245.516288 272.13339 
L 245.699851 273.116604 
L 246.002427 274.073519 
L 246.421749 274.990964 
L 246.950944 275.85671 
L 247.578706 276.660437 
L 248.290165 277.394498 
L 249.067417 278.054636 
L 249.890002 278.640703 
L 250.735917 279.157093 
L 251.582637 279.613011 
L 252.408185 280.022535 
L 253.192211 280.404469 
L 253.91705 280.781975 
L 254.568715 281.181998 
L 255.137796 281.634482 
L 255.620224 282.171389 
L 256.017871 282.825543 
L 256.33896 283.629305 
L 256.59825 284.613085 
L 256.816981 285.803729 
L 257.02255 287.222749 
L 257.24787 288.884437 
L 257.530397 290.793856 
L 257.910759 292.944732 
L 258.430924 295.317323 
" clip-path="url(#p5d36b6d7c2)" style="fill: none; stroke: #0369a1; stroke-width: 1.4; stroke-linecap: square"/>
   </g>
   <g id="line2d_26">
    <path d="M 246.609501 291.645689 
L 253.821554 280.264806 
" clip-path="url(#p5d36b6d7c2)" style="fill: none; stroke: #4d7c0f; stroke-width: 1.6; stroke-linecap: square"/>
   </g>
   <g id="line2d_27">
    <path d="M 253.821554 280.264806 
L 261.033608 268.883923 
" clip-path="url(#p5d36b6d7c2)" style="fill: none; stroke: #4d7c0f; stroke-width: 1.6; stroke-linecap: square"/>
   </g>
   <g id="line2d_28">
    <path d="M 261.033608 268.883923 
L 268.245662 257.503041 
" clip-path="url(#p5d36b6d7c2)" style="fill: none; stroke: #4d7c0f; stroke-width: 1.6; stroke-linecap: square"/>
   </g>
   <g id="line2d_29">
    <path d="M 268.245662 257.503041 
L 486.947358 361.094039 
" clip-path="url(#p5d36b6d7c2)" style="fill: none; stroke: #4d7c0f; stroke-width: 1.6; stroke-linecap: square"/>
   </g>
   <g id="line2d_30">
    <path d="M 268.245662 257.503041 
L 339.836156 166.149086 
" clip-path="url(#p5d36b6d7c2)" style="fill: none; stroke: #4d7c0f; stroke-width: 1.6; stroke-linecap: square"/>
   </g>
   <g id="line2d_31">
    <path d="M 268.245662 257.503041 
L 169.843462 184.967663 
" clip-path="url(#p5d36b6d7c2)" style="fill: none; stroke: #4d7c0f; stroke-width: 1.6; stroke-linecap: square"/>
   </g>
   <g id="line2d_32">
    <path d="M 253.821554 280.264806 
L 73.894517 371.185232 
" clip-path="url(#p5d36b6d7c2)" style="fill: none; stroke: #4d7c0f; stroke-width: 1.6; stroke-linecap: square"/>
   </g>
   <g id="line2d_33">
    <path d="M 268.245662 257.503041 
L 306.767087 147.214768 
" clip-path="url(#p5d36b6d7c2)" style="fill: none; stroke: #4d7c0f; stroke-width: 1.6; stroke-linecap: square"/>
   </g>
   <g id="patch_4">
    <path d="M 53.241875 382.383755 
L 53.241875 136.016245 
" style="fill: none; stroke: #000000; stroke-width: 0.8; stroke-linejoin: miter; stroke-linecap: square"/>
   </g>
   <g id="patch_5">
    <path d="M 507.6 382.383755 
L 507.6 136.016245 
" style="fill: none; stroke: #000000; stroke-width: 0.8; stroke-linejoin: miter; stroke-linecap: square"/>
   </g>
   <g id="patch_6">
    <path d="M 53.241875 382.383755 
L 507.6 382.383755 
" style="fill: none; stroke: #000000; stroke-width: 0.8; stroke-linejoin: miter; stroke-linecap: square"/>
   </g>
   <g id="patch_7">
    <path d="M 53.241875 136.016245 
L 507.6 136.016245 
" style="fill: none; stroke: #000000; stroke-width: 0.8; stroke-linejoin: miter; stroke-linecap: square"/>
   </g>
   <g id="line2d_34">
    <path d="M 246.609501 291.645689 
L 247.409859 292.387743 
L 248.166568 293.19144 
L 248.884236 294.071821 
L 249.569954 295.042967 
L 250.233261 296.117507 
L 250.886028 297.306094 
L 251.542284 298.616846 
L 252.21796 300.054773 
L 252.930545 301.621164 
L 253.698655 303.312969 
L 253.967822 303.897098 
" clip-path="url(#p5d36b6d7c2)" style="fill: none; stroke-dasharray: 8,3; stroke-dashoffset: 0; stroke: #b91c1c; stroke-width: 2"/>
   </g>
   <g id="line2d_35">
    <path d="M 253.967822 303.897098 
L 254.839512 305.742338 
L 255.8112 307.685545 
L 256.900651 309.704818 
L 258.123504 311.771522 
L 259.492182 313.850079 
L 261.014706 315.898089 
L 262.693476 317.866888 
L 263.739726 318.952927 
" clip-path="url(#p5d36b6d7c2)" style="fill: none; stroke-dasharray: 8,3; stroke-dashoffset: 0; stroke: #b91c1c; stroke-width: 2"/>
   </g>
   <g id="line2d_36">
    <path d="M 263.739726 318.952927 
L 265.653592 320.685334 
L 267.696435 322.19405 
L 269.84304 323.422438 
L 272.06025 324.318607 
L 274.308183 324.839288 
L 276.316342 324.960997 
" clip-path="url(#p5d36b6d7c2)" style="fill: none; stroke-dasharray: 8,3; stroke-dashoffset: 0; stroke: #b91c1c; stroke-width: 2"/>
   </g>
   <g id="line2d_37">
    <path d="M 276.316342 324.960997 
L 278.498368 324.696867 
L 280.579601 324.013042 
L 282.51701 322.921941 
L 284.273577 321.452141 
L 285.82079 319.646623 
L 286.588673 318.508819 
" clip-path="url(#p5d36b6d7c2)" style="fill: none; stroke-dasharray: 8,3; stroke-dashoffset: 0; stroke: #b91c1c; stroke-width: 2"/>
   </g>
   <g id="line2d_38">
    <path d="M 286.588673 318.508819 
L 287.775333 316.288078 
L 288.723994 313.878083 
L 289.439889 311.339354 
L 289.935617 308.72912 
L 290.229474 306.099026 
L 290.343738 303.493691 
L 290.344903 302.436758 
" clip-path="url(#p5d36b6d7c2)" style="fill: none; stroke-dasharray: 8,3; stroke-dashoffset: 0; stroke: #b91c1c; stroke-width: 2"/>
   </g>
   <g id="line2d_39">
    <path d="M 290.344903 302.436758 
L 290.24788 299.927391 
L 290.032228 297.518613 
L 289.723189 295.229205 
L 289.344708 293.071452 
L 288.918852 291.05197 
L 288.465428 289.172573 
L 288.001738 287.431121 
L 287.542462 285.822319 
L 287.099628 284.338452 
L 286.994728 283.991806 
" clip-path="url(#p5d36b6d7c2)" style="fill: none; stroke-dasharray: 8,3; stroke-dashoffset: 0; stroke: #b91c1c; stroke-width: 2"/>
   </g>
   <g id="line2d_40">
    <path d="M 286.994728 283.991806 
L 286.585291 282.650184 
L 286.210009 281.410637 
L 285.872939 280.261755 
L 285.576053 279.191998 
L 285.319455 278.190048 
L 285.101634 277.245093 
L 284.919717 276.347063 
L 284.769735 275.486798 
L 284.646887 274.656165 
L 284.545803 273.848131 
L 284.46079 273.056785 
L 284.386067 272.277321 
L 284.315981 271.505979 
L 284.245195 270.739964 
L 284.229345 270.574998 
" clip-path="url(#p5d36b6d7c2)" style="fill: none; stroke-dasharray: 8,3; stroke-dashoffset: 0; stroke: #b91c1c; stroke-width: 2"/>
   </g>
   <g id="line2d_41">
    <path d="M 284.229345 270.574998 
L 284.151223 269.812904 
L 284.062476 269.052759 
L 283.959739 268.29398 
L 283.840442 267.536341 
L 283.702854 266.779798 
L 283.546092 266.024315 
L 283.369764 265.269799 
L 283.174224 264.515896 
L 282.960441 263.761861 
L 282.729856 263.006461 
L 282.484234 262.247903 
L 282.225502 261.483787 
L 281.955588 260.711088 
L 281.676244 259.926177 
L 281.388883 259.12487 
L 281.264174 258.777475 
" clip-path="url(#p5d36b6d7c2)" style="fill: none; stroke-dasharray: 8,3; stroke-dashoffset: 0; stroke: #b91c1c; stroke-width: 2"/>
   </g>
   <g id="line2d_42">
    <path d="M 281.264174 258.777475 
L 280.966796 257.944646 
L 280.662434 257.083546 
L 280.350182 256.18892 
L 280.028195 255.255566 
L 279.693613 254.278549 
L 279.342523 253.25344 
L 278.969953 252.176578 
L 278.5699 251.045349 
L 278.135406 249.858484 
L 277.658679 248.616369 
L 277.131259 247.321367 
L 276.544241 245.978148 
L 276.056301 244.937586 
" clip-path="url(#p5d36b6d7c2)" style="fill: none; stroke-dasharray: 8,3; stroke-dashoffset: 0; stroke: #b91c1c; stroke-width: 2"/>
   </g>
   <g id="line2d_43">
    <path d="M 276.056301 244.937586 
L 275.342908 243.529208 
L 274.545591 242.100048 
L 273.656786 240.666236 
L 272.670396 239.247534 
L 271.582389 237.867419 
L 270.391448 236.552983 
L 269.099638 235.334609 
L 267.713059 234.245312 
L 266.24239 233.319702 
L 266.161066 233.275251 
" clip-path="url(#p5d36b6d7c2)" style="fill: none; stroke-dasharray: 8,3; stroke-dashoffset: 0; stroke: #b91c1c; stroke-width: 2"/>
   </g>
   <g id="line2d_44">
    <path d="M 266.161066 233.275251 
L 264.61878 232.559692 
L 263.029872 232.077112 
L 261.419791 231.856002 
L 259.817668 231.918114 
L 258.254877 232.276075 
L 256.763124 232.931416 
L 255.372154 233.873132 
L 254.563138 234.598501 
" clip-path="url(#p5d36b6d7c2)" style="fill: none; stroke-dasharray: 8,3; stroke-dashoffset: 0; stroke: #b91c1c; stroke-width: 2"/>
   </g>
   <g id="text_14">
    <!-- openpit-b2026-1 — spiral, 11 benches, 2 shovels, 5 dumps, seed 232224978 -->
    <g transform="translate(87.645156 130.016245) scale(0.1 -0.1)">
     <defs>
      <path id="DejaVuSans-53" d="M 1159 525 
L 1159 -1331 
L 581 -1331 
L 581 3500 
L 1159 3500 
L 1159 2969 
Q 1341 3281 1617 3432 
Q 1894 3584 2278 3584 
Q 2916 3584 3314 3078 
Q 3713 2572 3713 1747 
Q 3713 922 3314 415 
Q 2916 -91 2278 -91 
Q 1894 -91 1617 61 
Q 1341 213 1159 525 
z
M 3116 1747 
Q 3116 2381 2855 2742 
Q 2594 3103 2138 3103 
Q 1681 3103 1420 2742 
Q 1159 2381 1159 1747 
Q 1159 1113 1420 752 
Q 1681 391 2138 391 
Q 2594 391 2855 752 
Q 3116 1113 3116 1747 
z
" transform="scale(0.015625)"/>
      <path id="DejaVuSans-4c" d="M 603 3500 
L 1178 3500 
L 1178 0 
L 603 0 
L 603 3500 
z
M 603 4863 
L 1178 4863 
L 1178 4134 
L 603 4134 
L 603 4863 
z
" transform="scale(0.015625)"/>
      <path id="DejaVuSans-10" d="M 313 2009 
L 1997 2009 
L 1997 1497 
L 313 1497 
L 313 2009 
z
" transform="scale(0.015625)"/>
      <path id="DejaVuSans-45" d="M 3116 1747 
Q 3116 2381 2855 2742 
Q 2594 3103 2138 3103 
Q 1681 3103 1420 2742 
Q 1159 2381 1159 1747 
Q 1159 1113 1420 752 
Q 1681 391 2138 391 
Q 2594 391 2855 752 
Q 3116 1113 3116 1747 
z
M 1159 2969 
Q 1341 3281 1617 3432 
Q 1894 3584 2278 3584 
Q 2916 3584 3314 3078 
Q 3713 2572 3713 1747 
Q 3713 922 3314 415 
Q 2916 -91 2278 -91 
Q 1894 -91 1617 61 
Q 1341 213 1159 525 
L 1159 0 
L 581 0 
L 581 4863 
L 1159 4863 
L 1159 2969 
z
" transform="scale(0.015625)"/>
      <path id="DejaVuSans-19" d="M 2113 2584 
Q 1688 2584 1439 2293 
Q 1191 2003 1191 1497 
Q 1191 994 1439 701 
Q 1688 409 2113 409 
Q 2538 409 2786 701 
Q 3034 994 3034 1497 
Q 3034 2003 2786 2293 
Q 2538 2584 2113 2584 
z
M 3366 4563 
L 3366 3988 
Q 3128 4100 2886 4159 
Q 2644 4219 2406 4219 
Q 1781 4219 1451 3797 
Q 1122 3375 1075 2522 
Q 1259 2794 1537 2939 
Q 1816 3084 2150 3084 
Q 2853 3084 3261 2657 
Q 3669 2231 3669 1497 
Q 3669 778 3244 343 
Q 2819 -91 2113 -91 
Q 1303 -91 875 529 
Q 447 1150 447 2328 
Q 447 3434 972 4092 
Q 1497 4750 2381 4750 
Q 2619 4750 2861 4703 
Q 3103 4656 3366 4563 
z
" transform="scale(0.015625)"/>
      <path id="DejaVuSans-af6" d="M 313 1978 
L 6088 1978 
L 6088 1528 
L 313 1528 
L 313 1978 
z
" transform="scale(0.015625)"/>
      <path id="DejaVuSans-4f" d="M 603 4863 
L 1178 4863 
L 1178 0 
L 603 0 
L 603 4863 
z
" transform="scale(0.015625)"/>
      <path id="DejaVuSans-f" d="M 750 794 
L 1409 794 
L 1409 256 
L 897 -744 
L 494 -744 
L 750 256 
L 750 794 
z
" transform="scale(0.015625)"/>
      <path id="DejaVuSans-46" d="M 3122 3366 
L 3122 2828 
Q 2878 2963 2633 3030 
Q 2388 3097 2138 3097 
Q 1578 3097 1268 2742 
Q 959 2388 959 1747 
Q 959 1106 1268 751 
Q 1578 397 2138 397 
Q 2388 397 2633 464 
Q 2878 531 3122 666 
L 3122 134 
Q 2881 22 2623 -34 
Q 2366 -91 2075 -91 
Q 1284 -91 818 406 
Q 353 903 353 1747 
Q 353 2603 823 3093 
Q 1294 3584 2113 3584 
Q 2378 3584 2631 3529 
Q 2884 3475 3122 3366 
z
" transform="scale(0.015625)"/>
      <path id="DejaVuSans-59" d="M 191 3500 
L 800 3500 
L 1894 563 
L 2988 3500 
L 3597 3500 
L 2284 0 
L 1503 0 
L 191 3500 
z
" transform="scale(0.015625)"/>
      <path id="DejaVuSans-47" d="M 2906 2969 
L 2906 4863 
L 3481 4863 
L 3481 0 
L 2906 0 
L 2906 525 
Q 2725 213 2448 61 
Q 2172 -91 1784 -91 
Q 1150 -91 751 415 
Q 353 922 353 1747 
Q 353 2572 751 3078 
Q 1150 3584 1784 3584 
Q 2172 3584 2448 3432 
Q 2725 3281 2906 2969 
z
M 947 1747 
Q 947 1113 1208 752 
Q 1469 391 1925 391 
Q 2381 391 2643 752 
Q 2906 1113 2906 1747 
Q 2906 2381 2643 2742 
Q 2381 3103 1925 3103 
Q 1469 3103 1208 2742 
Q 947 2381 947 1747 
z
" transform="scale(0.015625)"/>
      <path id="DejaVuSans-58" d="M 544 1381 
L 544 3500 
L 1119 3500 
L 1119 1403 
Q 1119 906 1312 657 
Q 1506 409 1894 409 
Q 2359 409 2629 706 
Q 2900 1003 2900 1516 
L 2900 3500 
L 3475 3500 
L 3475 0 
L 2900 0 
L 2900 538 
Q 2691 219 2414 64 
Q 2138 -91 1772 -91 
Q 1169 -91 856 284 
Q 544 659 544 1381 
z
M 1991 3584 
L 1991 3584 
z
" transform="scale(0.015625)"/>
      <path id="DejaVuSans-16" d="M 2597 2516 
Q 3050 2419 3304 2112 
Q 3559 1806 3559 1356 
Q 3559 666 3084 287 
Q 2609 -91 1734 -91 
Q 1441 -91 1130 -33 
Q 819 25 488 141 
L 488 750 
Q 750 597 1062 519 
Q 1375 441 1716 441 
Q 2309 441 2620 675 
Q 2931 909 2931 1356 
Q 2931 1769 2642 2001 
Q 2353 2234 1838 2234 
L 1294 2234 
L 1294 2753 
L 1863 2753 
Q 2328 2753 2575 2939 
Q 2822 3125 2822 3475 
Q 2822 3834 2567 4026 
Q 2313 4219 1838 4219 
Q 1578 4219 1281 4162 
Q 984 4106 628 3988 
L 628 4550 
Q 988 4650 1302 4700 
Q 1616 4750 1894 4750 
Q 2613 4750 3031 4423 
Q 3450 4097 3450 3541 
Q 3450 3153 3228 2886 
Q 3006 2619 2597 2516 
z
" transform="scale(0.015625)"/>
      <path id="DejaVuSans-17" d="M 2419 4116 
L 825 1625 
L 2419 1625 
L 2419 4116 
z
M 2253 4666 
L 3047 4666 
L 3047 1625 
L 3713 1625 
L 3713 1100 
L 3047 1100 
L 3047 0 
L 2419 0 
L 2419 1100 
L 313 1100 
L 313 1709 
L 2253 4666 
z
" transform="scale(0.015625)"/>
      <path id="DejaVuSans-1c" d="M 703 97 
L 703 672 
Q 941 559 1184 500 
Q 1428 441 1663 441 
Q 2288 441 2617 861 
Q 2947 1281 2994 2138 
Q 2813 1869 2534 1725 
Q 2256 1581 1919 1581 
Q 1219 1581 811 2004 
Q 403 2428 403 3163 
Q 403 3881 828 4315 
Q 1253 4750 1959 4750 
Q 2769 4750 3195 4129 
Q 3622 3509 3622 2328 
Q 3622 1225 3098 567 
Q 2575 -91 1691 -91 
Q 1453 -91 1209 -44 
Q 966 3 703 97 
z
M 1959 2075 
Q 2384 2075 2632 2365 
Q 2881 2656 2881 3163 
Q 2881 3666 2632 3958 
Q 2384 4250 1959 4250 
Q 1534 4250 1286 3958 
Q 1038 3666 1038 3163 
Q 1038 2656 1286 2365 
Q 1534 2075 1959 2075 
z
" transform="scale(0.015625)"/>
      <path id="DejaVuSans-1a" d="M 525 4666 
L 3525 4666 
L 3525 4397 
L 1831 0 
L 1172 0 
L 2766 4134 
L 525 4134 
L 525 4666 
z
" transform="scale(0.015625)"/>
      <path id="DejaVuSans-1b" d="M 2034 2216 
Q 1584 2216 1326 1975 
Q 1069 1734 1069 1313 
Q 1069 891 1326 650 
Q 1584 409 2034 409 
Q 2484 409 2743 651 
Q 3003 894 3003 1313 
Q 3003 1734 2745 1975 
Q 2488 2216 2034 2216 
z
M 1403 2484 
Q 997 2584 770 2862 
Q 544 3141 544 3541 
Q 544 4100 942 4425 
Q 1341 4750 2034 4750 
Q 2731 4750 3128 4425 
Q 3525 4100 3525 3541 
Q 3525 3141 3298 2862 
Q 3072 2584 2669 2484 
Q 3125 2378 3379 2068 
Q 3634 1759 3634 1313 
Q 3634 634 3220 271 
Q 2806 -91 2034 -91 
Q 1263 -91 848 271 
Q 434 634 434 1313 
Q 434 1759 690 2068 
Q 947 2378 1403 2484 
z
M 1172 3481 
Q 1172 3119 1398 2916 
Q 1625 2713 2034 2713 
Q 2441 2713 2670 2916 
Q 2900 3119 2900 3481 
Q 2900 3844 2670 4047 
Q 2441 4250 2034 4250 
Q 1625 4250 1398 4047 
Q 1172 3844 1172 3481 
z
" transform="scale(0.015625)"/>
     </defs>
     <use xlink:href="#DejaVuSans-52"/>
     <use xlink:href="#DejaVuSans-53" transform="translate(61.1875 0)"/>
     <use xlink:href="#DejaVuSans-48" transform="translate(124.671875 0)"/>
     <use xlink:href="#DejaVuSans-51" transform="translate(186.203125 0)"/>
     <use xlink:href="#DejaVuSans-53" transform="translate(249.578125 0)"/>
     <use xlink:href="#DejaVuSans-4c" transform="translate(313.0625 0)"/>
     <use xlink:href="#DejaVuSans-57" transform="translate(340.84375 0)"/>
     <use xlink:href="#DejaVuSans-10" transform="translate(380.046875 0)"/>
     <use xlink:href="#DejaVuSans-45" transform="translate(416.125 0)"/>
     <use xlink:href="#DejaVuSans-15" transform="translate(479.609375 0)"/>
     <use xlink:href="#DejaVuSans-13" transform="translate(543.234375 0)"/>
     <use xlink:href="#DejaVuSans-15" transform="translate(606.859375 0)"/>
     <use xlink:href="#DejaVuSans-19" transform="translate(670.484375 0)"/>
     <use xlink:href="#DejaVuSans-10" transform="translate(734.109375 0)"/>
     <use xlink:href="#DejaVuSans-14" transform="translate(770.1875 0)"/>
     <use xlink:href="#DejaVuSans-3" transform="translate(833.8125 0)"/>
     <use xlink:href="#DejaVuSans-af6" transform="translate(865.59375 0)"/>
     <use xlink:href="#DejaVuSans-3" transform="translate(965.59375 0)"/>
     <use xlink:href="#DejaVuSans-56" transform="translate(997.375 0)"/>
     <use xlink:href="#DejaVuSans-53" transform="translate(1049.46875 0)"/>
     <use xlink:href="#DejaVuSans-4c" transform="translate(1112.953125 0)"/>
     <use xlink:href="#DejaVuSans-55" transform="translate(1140.734375 0)"/>
     <use xlink:href="#DejaVuSans-44" transform="translate(1181.84375 0)"/>
     <use xlink:href="#DejaVuSans-4f" transform="translate(1243.125 0)"/>
     <use xlink:href="#DejaVuSans-f" transform="translate(1270.90625 0)"/>
     <use xlink:href="#DejaVuSans-3" transform="translate(1302.6875 0)"/>
     <use xlink:href="#DejaVuSans-14" transform="translate(1334.46875 0)"/>
     <use xlink:href="#DejaVuSans-14" transform="translate(1398.09375 0)"/>
     <use xlink:href="#DejaVuSans-3" transform="translate(1461.71875 0)"/>
     <use xlink:href="#DejaVuSans-45" transform="translate(1493.5 0)"/>
     <use xlink:href="#DejaVuSans-48" transform="translate(1556.984375 0)"/>
     <use xlink:href="#DejaVuSans-51" transform="translate(1618.515625 0)"/>
     <use xlink:href="#DejaVuSans-46" transform="translate(1681.890625 0)"/>
     <use xlink:href="#DejaVuSans-4b" transform="translate(1736.875 0)"/>
     <use xlink:href="#DejaVuSans-48" transform="translate(1800.25 0)"/>
     <use xlink:href="#DejaVuSans-56" transform="translate(1861.78125 0)"/>
     <use xlink:href="#DejaVuSans-f" transform="translate(1913.875 0)"/>
     <use xlink:href="#DejaVuSans-3" transform="translate(1945.65625 0)"/>
     <use xlink:href="#DejaVuSans-15" transform="translate(1977.4375 0)"/>
     <use xlink:href="#DejaVuSans-3" transform="translate(2041.0625 0)"/>
     <use xlink:href="#DejaVuSans-56" transform="translate(2072.84375 0)"/>
     <use xlink:href="#DejaVuSans-4b" transform="translate(2124.9375 0)"/>
     <use xlink:href="#DejaVuSans-52" transform="translate(2188.3125 0)"/>
     <use xlink:href="#DejaVuSans-59" transform="translate(2249.5 0)"/>
     <use xlink:href="#DejaVuSans-48" transform="translate(2308.6875 0)"/>
     <use xlink:href="#DejaVuSans-4f" transform="translate(2370.21875 0)"/>
     <use xlink:href="#DejaVuSans-56" transform="translate(2398 0)"/>
     <use xlink:href="#DejaVuSans-f" transform="translate(2450.09375 0)"/>
     <use xlink:href="#DejaVuSans-3" transform="translate(2481.875 0)"/>
     <use xlink:href="#DejaVuSans-18" transform="translate(2513.65625 0)"/>
     <use xlink:href="#DejaVuSans-3" transform="translate(2577.28125 0)"/>
     <use xlink:href="#DejaVuSans-47" transform="translate(2609.0625 0)"/>
     <use xlink:href="#DejaVuSans-58" transform="translate(2672.546875 0)"/>
     <use xlink:href="#DejaVuSans-50" transform="translate(2735.921875 0)"/>
     <use xlink:href="#DejaVuSans-53" transform="translate(2833.328125 0)"/>
     <use xlink:href="#DejaVuSans-56" transform="translate(2896.8125 0)"/>
     <use xlink:href="#DejaVuSans-f" transform="translate(2948.90625 0)"/>
     <use xlink:href="#DejaVuSans-3" transform="translate(2980.6875 0)"/>
     <use xlink:href="#DejaVuSans-56" transform="translate(3012.46875 0)"/>
     <use xlink:href="#DejaVuSans-48" transform="translate(3064.5625 0)"/>
     <use xlink:href="#DejaVuSans-48" transform="translate(3126.09375 0)"/>
     <use xlink:href="#DejaVuSans-47" transform="translate(3187.625 0)"/>
     <use xlink:href="#DejaVuSans-3" transform="translate(3251.109375 0)"/>
     <use xlink:href="#DejaVuSans-15" transform="translate(3282.890625 0)"/>
     <use xlink:href="#DejaVuSans-16" transform="translate(3346.515625 0)"/>
     <use xlink:href="#DejaVuSans-15" transform="translate(3410.140625 0)"/>
     <use xlink:href="#DejaVuSans-15" transform="translate(3473.765625 0)"/>
     <use xlink:href="#DejaVuSans-15" transform="translate(3537.390625 0)"/>
     <use xlink:href="#DejaVuSans-17" transform="translate(3601.015625 0)"/>
     <use xlink:href="#DejaVuSans-1c" transform="translate(3664.640625 0)"/>
     <use xlink:href="#DejaVuSans-1a" transform="translate(3728.265625 0)"/>
     <use xlink:href="#DejaVuSans-1b" transform="translate(3791.890625 0)"/>
    </g>
   </g>
   <g id="PathCollection_1">
    <defs>
     <path id="m302b3bb1fe" d="M 0 5 
L 5 0 
L 0 -5 
L -5 0 
z
" style="stroke: #7c3aed"/>
    </defs>
    <g clip-path="url(#p5d36b6d7c2)">
     <use xlink:href="#m302b3bb1fe" x="246.609501" y="291.645689" style="fill: #7c3aed; stroke: #7c3aed"/>
    </g>
   </g>
   <g id="PathCollection_2">
    <defs>
     <path id="m185c053756" d="M 0 -4.743416 
L -4.743416 4.743416 
L 4.743416 4.743416 
z
" style="stroke: #111827"/>
    </defs>
    <g clip-path="url(#p5d36b6d7c2)">
     <use xlink:href="#m185c053756" x="255.398291" y="284.01232" style="fill: #111827; stroke: #111827"/>
    </g>
   </g>
   <g id="PathCollection_3">
    <g clip-path="url(#p5d36b6d7c2)">
     <use xlink:href="#m185c053756" x="258.430924" y="295.317323" style="fill: #111827; stroke: #111827"/>
    </g>
   </g>
   <g id="PathCollection_4">
    <defs>
     <path id="ma1b26aaeab" d="M -4.472136 4.472136 
L 4.472136 4.472136 
L 4.472136 -4.472136 
L -4.472136 -4.472136 
z
" style="stroke: #1d4ed8"/>
    </defs>
    <g clip-path="url(#p5d36b6d7c2)">
     <use xlink:href="#ma1b26aaeab" x="486.947358" y="361.094039" style="fill: #1d4ed8; stroke: #1d4ed8"/>
    </g>
   </g>
   <g id="PathCollection_5">
    <defs>
     <path id="mb174532e1d" d="M -2.236068 4.472136 
L 0 2.236068 
L 2.236068 4.472136 
L 4.472136 2.236068 
L 2.236068 0 
L 4.472136 -2.236068 
L 2.236068 -4.472136 
L 0 -2.236068 
L -2.236068 -4.472136 
L -4.472136 -2.236068 
L -2.236068 0 
L -4.472136 2.236068 
z
" style="stroke: #a16207"/>
    </defs>
    <g clip-path="url(#p5d36b6d7c2)">
     <use xlink:href="#mb174532e1d" x="339.836156" y="166.149086" style="fill: #a16207; stroke: #a16207"/>
    </g>
   </g>
   <g id="PathCollection_6">
    <g clip-path="url(#p5d36b6d7c2)">
     <use xlink:href="#mb174532e1d" x="169.843462" y="184.967663" style="fill: #a16207; stroke: #a16207"/>
    </g>
   </g>
   <g id="PathCollection_7">
    <g clip-path="url(#p5d36b6d7c2)">
     <use xlink:href="#mb174532e1d" x="73.894517" y="371.185232" style="fill: #a16207; stroke: #a16207"/>
    </g>
   </g>
   <g id="PathCollection_8">
    <g clip-path="url(#p5d36b6d7c2)">
     <use xlink:href="#mb174532e1d" x="306.767087" y="147.214768" style="fill: #a16207; stroke: #a16207"/>
    </g>
   </g>
   <g id="PathCollection_9">
    <defs>
     <path id="m769ce13a82" d="M 0 2.645751 
C 0.701661 2.645751 1.374679 2.366978 1.870829 1.870829 
C 2.366978 1.374679 2.645751 0.701661 2.645751 0 
C 2.645751 -0.701661 2.366978 -1.374679 1.870829 -1.870829 
C 1.374679 -2.366978 0.701661 -2.645751 0 -2.645751 
C -0.701661 -2.645751 -1.374679 -2.366978 -1.870829 -1.870829 
C -2.366978 -1.374679 -2.645751 -0.701661 -2.645751 0 
C -2.645751 0.701661 -2.366978 1.374679 -1.870829 1.870829 
C -1.374679 2.366978 -0.701661 2.645751 0 2.645751 
z
" style="stroke: #4d7c0f"/>
    </defs>
    <g clip-path="url(#p5d36b6d7c2)">
     <use xlink:href="#m769ce13a82" x="253.821554" y="280.264806" style="fill: #4d7c0f; stroke: #4d7c0f"/>
    </g>
   </g>
   <g id="PathCollection_10">
    <g clip-path="url(#p5d36b6d7c2)">
     <use xlink:href="#m769ce13a82" x="261.033608" y="268.883923" style="fill: #4d7c0f; stroke: #4d7c0f"/>
    </g>
   </g>
   <g id="PathCollection_11">
    <g clip-path="url(#p5d36b6d7c2)">
     <use xlink:href="#m769ce13a82" x="268.245662" y="257.503041" style="fill: #4d7c0f; stroke: #4d7c0f"/>
    </g>
   </g>
   <g id="text_15">
    <!-- 1 -->
    <g transform="translate(261.398291 278.01232) scale(0.08 -0.08)">
     <defs>
      <path id="DejaVuSans-Bold-14" d="M 750 831 
L 1813 831 
L 1813 3847 
L 722 3622 
L 722 4441 
L 1806 4666 
L 2950 4666 
L 2950 831 
L 4013 831 
L 4013 0 
L 750 0 
L 750 831 
z
" transform="scale(0.015625)"/>
     </defs>
     <use xlink:href="#DejaVuSans-Bold-14"/>
    </g>
   </g>
   <g id="text_16">
    <!-- 2 -->
    <g transform="translate(264.430924 289.317323) scale(0.08 -0.08)">
     <defs>
      <path id="DejaVuSans-Bold-15" d="M 1844 884 
L 3897 884 
L 3897 0 
L 506 0 
L 506 884 
L 2209 2388 
Q 2438 2594 2547 2791 
Q 2656 2988 2656 3200 
Q 2656 3528 2436 3728 
Q 2216 3928 1850 3928 
Q 1569 3928 1234 3808 
Q 900 3688 519 3450 
L 519 4475 
Q 925 4609 1322 4679 
Q 1719 4750 2100 4750 
Q 2938 4750 3402 4381 
Q 3866 4013 3866 3353 
Q 3866 2972 3669 2642 
Q 3472 2313 2841 1759 
L 1844 884 
z
" transform="scale(0.015625)"/>
     </defs>
     <use xlink:href="#DejaVuSans-Bold-15"/>
    </g>
   </g>
  </g>
 </g>
 <defs>
  <clipPath id="p5d36b6d7c2">
   <rect x="53.241875" y="136.016245" width="454.358125" height="246.367511"/>
  </clipPath>
 </defs>
</svg>
