<?xml version="1.0" encoding="utf-8" standalone="no"?>
<!DOCTYPE svg PUBLIC "-//W3C//DTD SVG 1.1//EN"
  "http://www.w3.org/Graphics/SVG/1.1/DTD/svg11.dtd">
<svg xmlns:xlink="http://www.w3.org/1999/xlink" width="518.4pt" height="518.4pt" viewBox="0 0 518.4 518.4" xmlns="http://www.w3.org/2000/svg" version="1.1">
 <metadata>
  <rdf:RDF xmlns:dc="http://purl.org/dc/elements/1.1/" xmlns:cc="http://creativecommons.org/ns#" xmlns:rdf="http://www.w3.org/1999/02/22-rdf-syntax-ns#">
   <cc:Work>
    <dc:type rdf:resource="http://purl.org/dc/dcmitype/StillImage"/>
    <dc:date>2026-07-02T08:06:06.637113</dc:date>
    <dc:format>image/svg+xml</dc:format>
    <dc:creator>
     <cc:Agent>
      <dc:title>Matplotlib v3.11.0, https://matplotlib.org/</dc:title>
     </cc:Agent>
    </dc:creator>
   </cc:Work>
  </rdf:RDF>
 </metadata>
 <defs>
  <style type="text/css">*{stroke-linejoin: round; stroke-linecap: butt}</style>
 </defs>
 <g id="figure_1">
  <g id="patch_1">
   <path d="M 0 518.4 
L 518.4 518.4 
L 518.4 0 
L 0 0 
z
" style="fill: #ffffff"/>
  </g>
  <g id="axes_1">
   <g id="patch_2">
    <path d="M 53.241875 416.25285 
L 507.6 416.25285 
L 507.6 102.14715 
L 53.241875 102.14715 
z
" style="fill: #ffffff"/>
   </g>
   <g id="patch_3">
    <path d="M 353.494488 231.075717 
L 352.441735 230.29941 
L 351.475749 229.569801 
L 350.599222 228.879462 
L 349.814037 228.22085 
L 349.121267 227.586374 
L 348.521179 226.968461 
L 348.013239 226.359629 
L 347.596135 225.75255 
L 347.267793 225.140114 
L 347.025409 224.515488 
L 346.865476 223.872181 
L 346.783829 223.204093 
L 346.775677 222.505571 
L 346.835643 221.771462 
L 346.95778 220.997168 
L 347.135435 220.178771 
L 347.362161 219.312724 
L 347.631352 218.395986 
L 347.93595 217.426198 
L 348.26866 216.401635 
L 348.622042 215.321205 
L 348.988587 214.184441 
L 349.360786 212.991485 
L 349.731201 211.743076 
L 350.092525 210.44052 
L 350.437641 209.085667 
L 350.759683 207.680869 
L 351.052085 206.228946 
L 351.308629 204.733135 
L 351.523489 203.197047 
L 351.691269 201.624611 
L 351.807029 200.020017 
L 351.86632 198.387661 
L 351.865193 196.732082 
L 351.80022 195.057902 
L 351.668494 193.369764 
L 351.467633 191.672271 
L 351.195767 189.969926 
L 350.85153 188.267071 
L 350.434036 186.567837 
L 349.942852 184.876085 
L 349.377967 183.195365 
L 348.739752 181.528868 
L 348.028919 179.879392 
L 347.246469 178.249314 
L 346.393645 176.640565 
L 345.471876 175.054617 
L 344.482717 173.492483 
L 343.427793 171.954717 
L 342.308742 170.441436 
L 341.127152 168.952347 
L 339.884512 167.48679 
L 338.582155 166.043787 
L 337.221216 164.622119 
L 335.80259 163.220398 
L 334.3269 161.837169 
L 332.794482 160.471018 
L 331.205374 159.120693 
L 329.559326 157.78524 
L 327.855825 156.464147 
L 326.094139 155.157501 
L 324.27338 153.866137 
L 322.39259 152.591807 
L 320.450852 151.33732 
L 318.447416 150.106693 
L 316.381853 148.905262 
L 314.254217 147.739778 
L 312.06523 146.618457 
L 309.816464 145.550985 
L 307.510531 144.548464 
L 305.15125 143.623294 
L 302.743803 142.788994 
L 300.294852 142.059945 
L 297.812617 141.451083 
L 295.306905 140.977544 
L 292.789092 140.654295 
L 290.272077 140.495824 
L 287.770273 140.516026 
L 285.300021 140.7292 
L 282.880904 141.152718 
L 280.524617 141.781116 
L 278.2429 142.609262 
L 276.047778 143.632612 
L 273.950599 144.845184 
L 271.961726 146.239316 
L 270.09036 147.805735 
L 268.34444 149.533771 
L 266.730602 151.411604 
L 265.254178 153.426547 
L 263.919233 155.56531 
L 262.728625 157.814256 
L 261.684085 160.159618 
L 260.786301 162.58769 
L 260.035002 165.084982 
L 259.429052 167.638341 
L 258.966522 170.235046 
L 258.644765 172.862874 
L 258.460481 175.510152 
L 258.409774 178.165788 
L 258.488197 180.819292 
L 258.6908 183.460789 
L 259.012166 186.081026 
L 259.446445 188.671378 
L 259.987391 191.22385 
L 260.628386 193.73108 
L 261.36248 196.186341 
L 262.182421 198.583543 
L 263.080689 200.917241 
L 264.049534 203.182632 
L 265.081015 205.375566 
L 266.167041 207.49254 
L 267.299415 209.530708 
L 268.469883 211.487875 
L 269.670178 213.362497 
L 270.892072 215.153675 
L 272.127428 216.861146 
L 273.368249 218.485275 
L 274.606732 220.027034 
L 275.835319 221.487987 
L 277.046746 222.870264 
L 278.234094 224.176536 
L 279.390832 225.409983 
L 280.510867 226.574256 
L 281.588581 227.673444 
L 282.61887 228.712025 
L 283.597177 229.694825 
L 284.51952 230.62697 
L 285.38252 231.513832 
L 286.183418 232.360979 
L 286.920089 233.17412 
L 287.591051 233.959052 
L 288.195469 234.721603 
L 288.733152 235.467576 
L 289.204547 236.202696 
L 289.610724 236.932556 
L 289.953355 237.662567 
L 290.234699 238.397903 
L 290.457564 239.143459 
L 290.625282 239.903806 
L 290.741676 240.683146 
L 290.81102 241.485276 
L 290.83802 242.313541 
L 290.827882 243.170761 
L 290.786123 244.059239 
L 290.71769 244.981127 
L 290.627982 245.938003 
L 290.522609 246.930926 
L 290.407279 247.960457 
L 290.287727 249.026672 
L 290.169652 250.129177 
L 290.058662 251.267128 
L 289.960218 252.43926 
L 289.879586 253.643915 
L 289.821792 254.879075 
L 289.791576 256.142407 
L 289.793363 257.431302 
L 289.831221 258.742927 
L 289.908843 260.07427 
L 290.029519 261.422196 
L 290.196122 262.783501 
L 290.411103 264.154968 
L 290.676479 265.533423 
L 290.993843 266.915792 
L 291.36437 268.299157 
L 291.788835 269.680807 
L 292.267631 271.058296 
L 292.8008 272.429484 
L 293.388067 273.792586 
L 294.028877 275.146214 
L 294.72244 276.489406 
L 295.467783 277.821656 
L 296.263798 279.142936 
L 297.109305 280.45371 
L 298.003105 281.754932 
L 298.944046 283.048044 
L 299.931083 284.334961 
L 300.963341 285.618035 
L 302.040173 286.900021 
L 303.161221 288.184021 
L 304.326469 289.47341 
L 305.536288 290.771759 
L 306.791478 292.082734 
L 308.093295 293.40998 
L 309.443474 294.756988 
L 310.844225 296.126955 
L 312.298226 297.522613 
L 313.808585 298.946062 
L 315.378787 300.398577 
L 317.012615 301.880413 
L 318.714047 303.390607 
L 320.487118 304.926775 
L 322.335763 306.484929 
L 324.263628 308.059294 
L 326.273859 309.642174 
L 328.368862 311.223838 
L 330.550063 312.792466 
L 332.817641 314.334164 
L 335.170288 315.83304 
L 337.604964 317.271374 
L 340.116702 318.629875 
L 342.69844 319.888022 
L 345.340922 321.024481 
L 348.032659 322.017575 
L 350.75994 322.84576 
L 353.506881 323.488012 
L 356.255348 323.923766 
L 358.983413 324.12935 
L 361.670683 324.091568 
L 364.302169 323.813107 
L 366.861188 323.293787 
L 369.331305 322.535231 
L 371.696908 321.541581 
L 373.94355 320.319552 
L 376.058176 318.878272 
L 378.029279 317.228997 
L 379.846985 315.384782 
L 381.503089 313.360126 
L 382.991036 311.170623 
L 384.30588 308.832629 
L 385.444204 306.362958 
L 386.404037 303.778624 
L 387.184752 301.09661 
L 387.786971 298.333681 
L 388.212466 295.506233 
L 388.464064 292.630171 
L 388.545562 289.720813 
L 388.461647 286.792819 
L 388.217821 283.860132 
L 387.820336 280.93594 
L 387.276129 278.032643 
L 386.592763 275.161824 
L 385.778373 272.334239 
L 384.841609 269.559792 
L 383.791579 266.847532 
L 382.637799 264.205638 
L 381.390138 261.641411 
L 380.058754 259.161271 
L 378.654042 256.770754 
L 377.186575 254.474506 
L 375.667034 252.276291 
L 374.106155 250.178989 
L 372.514657 248.184609 
L 370.903182 246.2943 
L 369.282226 244.508363 
L 367.662075 242.826277 
L 366.052743 241.246719 
L 364.463903 239.767596 
L 362.904832 238.386079 
L 361.384347 237.098637 
L 359.910752 235.901089 
L 358.491784 234.788641 
L 357.134563 233.755946 
L 355.845554 232.797152 
L 354.630518 231.905967 
L 353.494488 231.075717 
z
" clip-path="url(#p1fb4fbe9b0)" style="fill: #e8edf2; stroke: #e8edf2; stroke-linejoin: miter"/>
   </g>
   <g id="line2d_1">
    <path d="M 378.871355 231.075717 
L 375.90679 227.005316 
L 374.305792 224.467854 
L 373.013571 222.004307 
L 372.023232 219.558564 
L 371.315915 217.077956 
L 370.861749 214.515168 
L 370.621004 211.829986 
L 370.552937 207.506249 
L 370.782638 193.917724 
L 370.625211 190.077223 
L 370.277221 186.100762 
L 369.695832 182.020679 
L 368.845632 177.873394 
L 367.699341 173.697515 
L 366.238098 169.531881 
L 364.451329 165.41362 
L 362.336188 161.376338 
L 359.896603 157.448532 
L 357.14198 153.652334 
L 354.085604 150.002698 
L 350.742866 146.50713 
L 347.129394 143.166076 
L 343.259266 139.974048 
L 339.143457 136.921588 
L 334.788744 133.998096 
L 330.197307 131.195533 
L 325.367288 128.512858 
L 320.294532 125.960934 
L 314.975683 123.567383 
L 309.412625 121.380607 
L 303.617931 119.471919 
L 300.64201 118.650265 
L 297.62066 117.934642 
L 294.560916 117.339359 
L 291.471369 116.87927 
L 288.362195 116.569422 
L 285.245137 116.424682 
L 282.133456 116.459429 
L 279.041927 116.687443 
L 275.987248 117.122893 
L 272.98936 117.783021 
L 270.060305 118.662215 
L 267.212174 119.755192 
L 264.457334 121.057248 
L 261.807474 122.562233 
L 259.273292 124.262303 
L 256.86432 126.148005 
L 254.588824 128.208471 
L 252.45376 130.43168 
L 250.464778 132.804736 
L 248.626253 135.314133 
L 246.94135 137.946006 
L 245.4121 140.686357 
L 244.039483 143.52124 
L 242.823519 146.436919 
L 241.763353 149.419985 
L 240.857332 152.457458 
L 240.103077 155.536846 
L 239.497553 158.646204 
L 239.037116 161.774157 
L 238.717572 164.90993 
L 238.53421 168.043353 
L 238.481848 171.164877 
L 238.554864 174.265572 
L 238.747229 177.337132 
L 239.464045 183.36277 
L 240.577151 189.187954 
L 242.027012 194.769041 
L 243.750923 200.072699 
L 245.684373 205.075967 
L 247.762548 209.766216 
L 249.921936 214.14093 
L 253.182003 220.12954 
L 262.308492 236.144836 
L 263.588958 238.896124 
L 264.665945 241.595544 
L 265.549902 244.284007 
L 266.260402 246.998737 
L 267.063654 251.188505 
L 267.842295 257.1093 
L 268.8185 265.153846 
L 269.665202 270.29651 
L 270.420705 273.822933 
L 271.367155 277.400298 
L 272.530423 281.001857 
L 273.929661 284.599873 
L 275.577095 288.167407 
L 277.478231 291.680106 
L 279.632451 295.117887 
L 282.034006 298.466418 
L 284.673355 301.7183 
L 287.538793 304.873833 
L 290.618311 307.941267 
L 293.901551 310.936416 
L 297.38176 313.881532 
L 302.970152 318.264332 
L 309.02463 322.68745 
L 315.606446 327.218292 
L 322.8047 331.857463 
L 327.992076 334.960807 
L 333.513388 337.995723 
L 339.371526 340.859726 
L 342.421522 342.186955 
L 345.545653 343.419226 
L 348.73649 344.536093 
L 351.984405 345.516308 
L 355.277541 346.338288 
L 358.601823 346.980596 
L 361.941005 347.422317 
L 365.276592 347.643011 
L 368.5863 347.619134 
L 371.849384 347.337632 
L 375.050503 346.801337 
L 378.172631 346.010228 
L 381.19899 344.966091 
L 384.11363 343.673242 
L 386.90177 342.13858 
L 389.550028 340.371419 
L 392.046572 338.383215 
L 394.381209 336.187228 
L 396.54542 333.798171 
L 398.532343 331.23186 
L 400.336727 328.504877 
L 401.954859 325.634276 
L 403.384476 322.637312 
L 404.624666 319.531219 
L 405.675774 316.333019 
L 406.539296 313.059373 
L 407.217796 309.726456 
L 407.71481 306.349865 
L 408.034773 302.944541 
L 408.182943 299.52472 
L 408.165333 296.103884 
L 407.98865 292.694733 
L 407.660234 289.30916 
L 407.188003 285.958231 
L 406.5804 282.652171 
L 405.846334 279.400348 
L 404.995129 276.21127 
L 404.036469 273.092571 
L 401.836965 267.092456 
L 399.330259 261.443473 
L 396.600729 256.175013 
L 393.732664 251.302588 
L 390.808181 246.828268 
L 387.905164 242.741401 
L 383.745495 237.285732 
L 378.871355 231.075717 
L 378.871355 231.075717 
" clip-path="url(#p1fb4fbe9b0)" style="fill: none; stroke: #9aa5b1; stroke-width: 0.6; stroke-linecap: square"/>
   </g>
   <g id="line2d_2">
    <path d="M 376.333669 231.075717 
L 373.376033 227.192731 
L 371.787339 224.779706 
L 370.513538 222.439839 
L 369.547688 220.116719 
L 368.870871 217.757378 
L 368.453142 215.314208 
L 368.254682 212.746704 
L 368.260778 208.595223 
L 368.748139 195.434518 
L 368.667899 191.692395 
L 368.401848 187.810391 
L 367.906952 183.820613 
L 367.147588 179.759263 
L 366.096257 175.66474 
L 364.733865 171.575685 
L 363.0496 167.529041 
L 361.040366 163.558241 
L 358.709835 159.691618 
L 356.067146 155.951157 
L 353.125316 152.351677 
L 349.899453 148.900561 
L 346.404906 145.598147 
L 342.655461 142.438855 
L 338.661801 139.413146 
L 334.430407 136.510355 
L 329.963159 133.722394 
L 325.257898 131.048186 
L 320.310164 128.498573 
L 315.1163 126.101171 
L 309.677885 123.904392 
L 304.007191 121.979573 
L 301.092934 121.147568 
L 298.132974 120.420077 
L 295.134309 119.811417 
L 292.105494 119.336452 
L 289.056666 119.010234 
L 285.999532 118.847643 
L 282.947318 118.863068 
L 279.914762 119.070301 
L 276.918526 119.483524 
L 273.978514 120.11999 
L 271.106736 120.974105 
L 268.315247 122.040599 
L 265.616379 123.314785 
L 263.021787 124.790528 
L 260.542135 126.460005 
L 258.186924 128.313778 
L 255.964385 130.341001 
L 253.881445 132.529673 
L 251.943718 134.866918 
L 250.155551 137.339251 
L 248.520078 139.932831 
L 247.039298 142.633683 
L 245.714165 145.427885 
L 244.544668 148.301725 
L 243.529923 151.241821 
L 242.668251 154.235216 
L 241.957246 157.269449 
L 241.393846 160.332599 
L 240.974382 163.41332 
L 240.694634 166.500866 
L 240.549869 169.585097 
L 240.53488 172.656492 
L 240.644022 175.706153 
L 240.871245 178.725804 
L 241.653888 184.645127 
L 242.827504 190.360883 
L 244.332412 195.829694 
L 246.105772 201.0185 
L 248.082953 205.90462 
L 250.199036 210.475709 
L 252.390415 214.72954 
L 255.687212 220.53424 
L 264.836748 235.926258 
L 266.103378 238.553269 
L 267.160423 241.129245 
L 268.018381 243.695397 
L 268.69689 246.289244 
L 269.441091 250.301008 
L 269.969087 254.526999 
L 271.157795 265.404486 
L 271.998014 270.460833 
L 272.764585 273.920481 
L 273.731247 277.422025 
L 274.920768 280.938225 
L 276.349056 284.441727 
L 278.025153 287.906867 
L 279.951642 291.311415 
L 282.125441 294.638172 
L 284.53897 297.876312 
L 287.181651 301.022372 
L 290.041656 304.080772 
L 293.107829 307.06376 
L 296.371661 309.990673 
L 301.630936 314.331262 
L 307.340886 318.695845 
L 313.551783 323.164566 
L 320.34643 327.765523 
L 325.248146 330.877246 
L 330.476196 333.965591 
L 336.042674 336.944502 
L 341.939866 339.695397 
L 345.002758 340.940291 
L 348.132685 342.071286 
L 351.320057 343.067125 
L 354.553053 343.906217 
L 357.817635 344.567112 
L 361.097593 345.028887 
L 364.374468 345.271086 
L 367.626012 345.270156 
L 370.831514 345.013026 
L 373.97567 344.502514 
L 377.041487 343.738584 
L 380.012221 342.723005 
L 382.871958 341.460076 
L 385.605948 339.956677 
L 388.200843 338.222104 
L 390.644842 336.267793 
L 392.927787 334.106983 
L 395.041187 331.754367 
L 396.978212 329.225736 
L 398.733642 326.537653 
L 400.303793 323.707144 
L 401.686432 320.751443 
L 402.880675 317.687758 
L 403.886894 314.533085 
L 404.706613 311.304059 
L 405.342423 308.016828 
L 405.797885 304.68696 
L 406.07746 301.329369 
L 406.186431 297.958261 
L 406.130833 294.587089 
L 405.917398 291.228524 
L 405.553487 287.894427 
L 405.04704 284.595832 
L 404.406521 281.342933 
L 403.640858 278.145067 
L 402.759396 275.010707 
L 401.771836 271.947455 
L 399.518672 266.060286 
L 396.963936 260.526755 
L 394.192122 255.375973 
L 391.28762 250.623165 
L 388.332637 246.270113 
L 385.40513 242.305869 
L 381.220124 237.036023 
L 376.333669 231.075717 
L 376.333669 231.075717 
" clip-path="url(#p1fb4fbe9b0)" style="fill: none; stroke: #9aa5b1; stroke-width: 0.6; stroke-linecap: square"/>
   </g>
   <g id="line2d_3">
    <path d="M 373.795982 231.075717 
L 370.845277 227.380146 
L 369.268887 225.091558 
L 368.013504 222.875371 
L 367.072144 220.674874 
L 366.425827 218.436801 
L 366.044535 216.113248 
L 365.888359 213.663423 
L 365.96862 209.684197 
L 366.731781 195.149199 
L 366.644027 191.429894 
L 366.352733 187.582099 
L 365.818252 183.639974 
L 365.008744 179.640848 
L 363.900678 175.623282 
L 362.47891 171.625115 
L 360.736334 167.681568 
L 358.67313 163.823538 
L 356.295623 160.076161 
L 353.614837 156.457766 
L 350.644789 152.979321 
L 347.400659 149.644479 
L 343.896941 146.450326 
L 340.145751 143.388917 
L 336.155473 140.449669 
L 331.929986 137.622635 
L 327.468713 134.902595 
L 322.767739 132.293779 
L 317.822231 129.814827 
L 312.630214 127.503344 
L 307.197587 125.419116 
L 301.543858 123.644871 
L 298.645288 122.905512 
L 295.707703 122.283476 
L 292.739619 121.793633 
L 289.751137 121.451046 
L 286.753928 121.270605 
L 283.76118 121.266708 
L 280.787596 121.453159 
L 277.849803 121.844155 
L 274.967669 122.45696 
L 272.153167 123.285995 
L 269.418319 124.326006 
L 266.775423 125.572321 
L 264.236099 127.018823 
L 261.810979 128.657706 
L 259.509528 130.479551 
L 257.339947 132.473531 
L 255.309129 134.627665 
L 253.422658 136.929099 
L 251.684849 139.364368 
L 250.098805 141.919656 
L 248.666497 144.581009 
L 247.388846 147.33453 
L 246.265816 150.166531 
L 245.296493 153.063656 
L 244.47917 156.012975 
L 243.811415 159.002052 
L 243.290138 162.018993 
L 242.911648 165.052483 
L 242.671697 168.091802 
L 242.565528 171.126841 
L 242.587912 174.148107 
L 242.73318 177.146733 
L 242.995261 180.114476 
L 243.843732 185.927485 
L 245.077858 191.533811 
L 246.637813 196.890346 
L 248.460621 201.9643 
L 250.481534 206.733273 
L 252.635524 211.185202 
L 254.858895 215.31815 
L 258.192421 220.938939 
L 267.365004 235.707679 
L 268.617797 238.210414 
L 269.654901 240.662946 
L 270.486861 243.106786 
L 271.133378 245.579751 
L 271.622376 248.1145 
L 272.139465 252.08749 
L 273.69652 267.213023 
L 274.295237 270.544607 
L 275.075492 273.935092 
L 276.063563 277.358186 
L 277.279025 280.786583 
L 278.73455 284.193757 
L 280.436111 287.555744 
L 282.383574 290.852827 
L 284.571693 294.071016 
L 286.991443 297.203227 
L 289.631656 300.250053 
L 292.480865 303.220006 
L 295.529276 306.129137 
L 300.46329 310.42921 
L 305.836082 314.735411 
L 311.686501 319.136343 
L 318.088862 323.682473 
L 325.138755 328.341918 
L 330.242048 331.438729 
L 335.684337 334.432242 
L 341.45821 337.203839 
L 344.459863 338.461356 
L 347.52888 339.606479 
L 350.655709 340.617942 
L 353.828565 341.474145 
L 357.033446 342.153629 
L 360.25418 342.635456 
L 363.472344 342.899162 
L 366.665723 342.921177 
L 369.813643 342.688419 
L 372.900837 342.203691 
L 375.910343 341.46694 
L 378.825453 340.479919 
L 381.630285 339.24691 
L 384.310126 337.774774 
L 386.851658 336.07279 
L 389.243113 334.152371 
L 391.474364 332.026738 
L 393.536954 329.710562 
L 395.424082 327.219613 
L 397.130557 324.570428 
L 398.652728 321.780013 
L 399.988388 318.865575 
L 401.136683 315.844297 
L 402.098013 312.733151 
L 402.87393 309.548745 
L 403.46705 306.307199 
L 403.88096 303.024054 
L 404.120148 299.714197 
L 404.189919 296.391802 
L 404.096334 293.070295 
L 403.846145 289.762315 
L 403.44674 286.479693 
L 402.906077 283.233433 
L 402.232642 280.033695 
L 401.435383 276.889785 
L 400.523663 273.810144 
L 399.507203 270.802339 
L 397.20038 265.028116 
L 394.597614 259.610037 
L 391.783515 254.576932 
L 388.842576 249.943743 
L 385.857093 245.711959 
L 382.905097 241.870336 
L 378.694753 236.786314 
L 373.795982 231.075717 
L 373.795982 231.075717 
" clip-path="url(#p1fb4fbe9b0)" style="fill: none; stroke: #9aa5b1; stroke-width: 0.6; stroke-linecap: square"/>
   </g>
   <g id="line2d_4">
    <path d="M 371.258295 231.075717 
L 368.31452 227.56756 
L 366.750434 225.40341 
L 365.513471 223.310904 
L 364.5966 221.233029 
L 363.980783 219.116223 
L 363.635927 216.912289 
L 363.522037 214.580141 
L 363.676461 210.773171 
L 364.735269 196.715658 
L 364.727102 193.092799 
L 364.52005 189.337413 
L 364.07426 185.483435 
L 363.357678 181.567979 
L 362.346547 177.629406 
L 361.025487 173.705359 
L 359.387149 169.830883 
L 357.431457 166.036705 
L 355.164479 162.347806 
L 352.596967 158.782372 
L 349.742664 155.351245 
L 346.61647 152.057962 
L 343.232593 148.899509 
L 339.602856 145.867852 
L 335.735349 142.952338 
L 331.633654 140.14296 
L 327.296891 137.434458 
L 322.720845 134.831032 
L 317.900379 132.35131 
L 312.833214 130.032898 
L 307.524947 127.9356 
L 301.994782 126.142174 
L 299.157603 125.390947 
L 296.281097 124.755535 
L 293.373743 124.250814 
L 290.445608 123.891858 
L 287.508323 123.693566 
L 284.575043 123.670347 
L 281.660431 123.836018 
L 278.78108 124.204785 
L 275.956823 124.79393 
L 273.199598 125.597885 
L 270.521392 126.611413 
L 267.934468 127.829857 
L 265.450412 129.247118 
L 263.079822 130.855407 
L 260.832132 132.645324 
L 258.715509 134.606061 
L 256.736813 136.725658 
L 254.901598 138.99128 
L 253.214147 141.389486 
L 251.677533 143.906481 
L 250.293695 146.528335 
L 249.063528 149.241175 
L 247.986964 152.031338 
L 247.063063 154.885492 
L 246.290089 157.790734 
L 245.665584 160.734654 
L 245.186431 163.705388 
L 244.848914 166.691647 
L 244.648759 169.682738 
L 244.581187 172.668584 
L 244.640943 175.639722 
L 244.822338 178.587314 
L 245.119277 181.503148 
L 246.033575 187.209842 
L 247.328212 192.70674 
L 248.943213 197.950998 
L 250.815471 202.910101 
L 252.880114 207.561926 
L 255.072012 211.894695 
L 257.327375 215.906761 
L 260.69763 221.343639 
L 269.89326 235.489101 
L 271.132217 237.867559 
L 272.149379 240.196648 
L 272.955341 242.518176 
L 273.569866 244.870258 
L 274.020956 247.285847 
L 274.470297 251.083958 
L 275.712179 265.67128 
L 276.232502 268.905444 
L 276.929661 272.202489 
L 277.830133 275.53635 
L 278.953706 278.879938 
L 280.313278 282.206932 
L 281.915051 285.493563 
L 283.759136 288.720297 
L 285.840536 291.873314 
L 288.150488 294.945691 
L 290.678087 297.938162 
L 293.412143 300.859375 
L 296.343138 303.725498 
L 301.097415 307.972028 
L 306.287006 312.238108 
L 311.951761 316.612558 
L 318.16701 321.145989 
L 325.029364 325.80659 
L 330.0079 328.911868 
L 335.326 331.919982 
L 340.976554 334.712281 
L 343.916968 335.98242 
L 346.925075 337.141672 
L 349.99136 338.16876 
L 353.104076 339.042074 
L 356.249258 339.740145 
L 359.410768 340.242025 
L 362.570219 340.527237 
L 365.705434 340.572199 
L 368.795773 340.363813 
L 371.826003 339.904868 
L 374.779198 339.195296 
L 377.638684 338.236833 
L 380.388613 337.033744 
L 383.014304 335.592871 
L 385.502473 333.923475 
L 387.841384 332.036949 
L 390.020942 329.946494 
L 392.032721 327.666758 
L 393.869951 325.213489 
L 395.527473 322.603203 
L 397.001662 319.852881 
L 398.290344 316.979706 
L 399.392692 314.000836 
L 400.309133 310.933217 
L 401.041247 307.793431 
L 401.591676 304.597571 
L 401.964036 301.361149 
L 402.162835 298.099024 
L 402.193406 294.825343 
L 402.061834 291.553501 
L 401.774893 288.296106 
L 401.339992 285.064959 
L 400.765114 281.871033 
L 400.058763 278.724457 
L 399.229907 275.634503 
L 398.28793 272.609581 
L 397.24257 269.657223 
L 394.882088 263.995945 
L 392.231291 258.693318 
L 389.374908 253.777892 
L 386.397533 249.26432 
L 383.381549 245.153804 
L 380.405064 241.434804 
L 376.169382 236.536605 
L 371.258295 231.075717 
L 371.258295 231.075717 
" clip-path="url(#p1fb4fbe9b0)" style="fill: none; stroke: #9aa5b1; stroke-width: 0.6; stroke-linecap: square"/>
   </g>
   <g id="line2d_5">
    <path d="M 368.720608 231.075717 
L 365.783763 227.754975 
L 364.231982 225.715262 
L 363.013438 223.746436 
L 362.121056 221.791184 
L 361.535739 219.795646 
L 361.22732 217.711329 
L 361.155714 215.496859 
L 361.384303 211.862144 
L 362.738756 198.282117 
L 362.810178 194.755704 
L 362.687367 191.092727 
L 362.330269 187.326896 
L 361.706613 183.495111 
L 360.792417 179.63553 
L 359.572065 175.785604 
L 358.037964 171.980197 
L 356.189785 168.249871 
L 354.033335 164.61945 
L 351.579097 161.106979 
L 348.84054 157.72317 
L 345.832282 154.471446 
L 342.568245 151.348691 
L 339.059961 148.346787 
L 335.315225 145.455006 
L 331.337321 142.663286 
L 327.125069 139.966321 
L 322.673952 137.368286 
L 317.978527 134.887794 
L 313.036215 132.562452 
L 307.852307 130.452083 
L 302.445706 128.639477 
L 299.669917 127.876383 
L 296.85449 127.227593 
L 294.007868 126.707996 
L 291.140079 126.33267 
L 288.262719 126.116527 
L 285.388905 126.073987 
L 282.533266 126.218876 
L 279.712357 126.565416 
L 276.945977 127.1309 
L 274.24603 127.909776 
L 271.624464 128.89682 
L 269.093512 130.087394 
L 266.664724 131.475413 
L 264.348666 133.053108 
L 262.154736 134.811097 
L 260.09107 136.738591 
L 258.164497 138.82365 
L 256.380538 141.053461 
L 254.743445 143.414604 
L 253.25626 145.893306 
L 251.920894 148.475661 
L 250.73821 151.14782 
L 249.708113 153.896144 
L 248.829633 156.707328 
L 248.101008 159.568493 
L 247.519752 162.467257 
L 247.082724 165.391783 
L 246.786179 168.33081 
L 246.625822 171.273675 
L 246.596846 174.210328 
L 246.693975 177.131337 
L 246.911497 180.027894 
L 247.243293 182.89182 
L 248.223419 188.492199 
L 249.578566 193.879669 
L 251.248613 199.011651 
L 253.17032 203.855902 
L 255.278695 208.390579 
L 257.5085 212.604188 
L 259.795854 216.495371 
L 263.202839 221.748339 
L 272.421516 235.270523 
L 273.646636 237.524705 
L 274.643857 239.730349 
L 275.423821 241.929565 
L 276.006354 244.160764 
L 276.419537 246.457194 
L 276.80113 250.080427 
L 277.148666 256.720814 
L 277.561396 262.593604 
L 278.169768 267.266281 
L 278.78383 270.469887 
L 279.596703 273.714515 
L 280.628388 276.973293 
L 281.892005 280.220107 
L 283.393991 283.431382 
L 285.134697 286.587767 
L 287.10938 289.675613 
L 289.309532 292.688154 
L 291.724518 295.626272 
L 294.34342 298.498744 
L 297.157 301.321858 
L 301.73154 305.514847 
L 306.73793 309.740806 
L 312.217022 314.088773 
L 318.245158 318.609506 
L 324.919974 323.271262 
L 329.773752 326.385006 
L 334.967663 329.407723 
L 340.494899 332.220722 
L 343.374073 333.503485 
L 346.32127 334.676865 
L 349.327012 335.719577 
L 352.379588 336.610003 
L 355.46507 337.326661 
L 358.567356 337.848595 
L 361.668095 338.155313 
L 364.745145 338.22322 
L 367.777903 338.039207 
L 370.75117 337.606045 
L 373.648054 336.923652 
L 376.451916 335.993747 
L 379.146941 334.820578 
L 381.718482 333.410969 
L 384.153287 331.77416 
L 386.439654 329.921528 
L 388.567519 327.866249 
L 390.528487 325.622953 
L 392.31582 323.207365 
L 393.924388 320.635978 
L 395.350597 317.925749 
L 396.5923 315.093837 
L 397.648701 312.157375 
L 398.520253 309.133284 
L 399.208564 306.038117 
L 399.716303 302.887942 
L 400.047111 299.698244 
L 400.205522 296.483852 
L 400.196894 293.258885 
L 400.027334 290.036706 
L 399.703641 286.829897 
L 399.233245 283.650226 
L 398.624151 280.508634 
L 397.884883 277.415219 
L 397.024432 274.379222 
L 396.052197 271.409017 
L 394.977937 268.512107 
L 392.563796 262.963775 
L 389.864969 257.7766 
L 386.966301 252.978852 
L 383.952489 248.584898 
L 380.906006 244.595649 
L 377.905031 240.999272 
L 373.644011 236.286896 
L 368.720608 231.075717 
L 368.720608 231.075717 
" clip-path="url(#p1fb4fbe9b0)" style="fill: none; stroke: #9aa5b1; stroke-width: 0.6; stroke-linecap: square"/>
   </g>
   <g id="line2d_6">
    <path d="M 366.182922 231.075717 
L 363.253006 227.942389 
L 361.713529 226.027114 
L 360.513405 224.181968 
L 359.645513 222.349339 
L 359.090695 220.475068 
L 358.818713 218.510369 
L 358.789392 216.413577 
L 358.953622 214.151873 
L 359.64942 209.044797 
L 360.448785 203.109475 
L 360.838648 198.153084 
L 360.900355 194.648905 
L 360.751431 191.020348 
L 360.355413 187.302738 
L 359.683918 183.53364 
L 358.716933 179.750903 
L 357.442683 175.990728 
L 355.857077 172.285851 
L 353.962761 168.663962 
L 351.767813 165.146449 
L 349.284161 161.74759 
L 346.525804 158.474283 
L 343.506953 155.326433 
L 340.240241 152.298084 
L 336.735178 149.379378 
L 332.997059 146.559394 
L 329.026566 143.82984 
L 324.820334 141.189498 
L 320.372692 138.649127 
L 315.678768 136.236323 
L 310.738927 133.999532 
L 305.564231 132.010191 
L 300.182231 130.361818 
L 297.427884 129.699652 
L 294.641993 129.165177 
L 291.83455 128.773483 
L 289.017114 128.539489 
L 286.202767 128.477626 
L 283.4061 128.601735 
L 280.643635 128.926047 
L 277.935132 129.467869 
L 275.292461 130.221666 
L 272.727537 131.182227 
L 270.252556 132.34493 
L 267.879037 133.703708 
L 265.617509 135.250809 
L 263.47734 136.97687 
L 261.466632 138.871121 
L 259.592181 140.921642 
L 257.859478 143.115642 
L 256.272743 145.439722 
L 254.834988 147.880131 
L 253.548093 150.422988 
L 252.412892 153.054465 
L 251.429261 155.76095 
L 250.596203 158.529163 
L 249.911927 161.346252 
L 249.373921 164.19986 
L 248.979017 167.078178 
L 248.723445 169.969973 
L 248.602884 172.864611 
L 248.612505 175.752071 
L 248.747007 178.622952 
L 249.000655 181.468475 
L 249.840462 187.051481 
L 251.078557 192.443465 
L 252.656691 197.596984 
L 254.512879 202.474883 
L 256.5827 207.050393 
L 258.80073 211.307142 
L 261.102106 215.239031 
L 263.424158 218.849913 
L 266.818735 223.695709 
L 274.255721 233.955231 
L 275.584953 236.125612 
L 276.678502 238.226194 
L 277.542194 240.300641 
L 278.191421 242.389703 
L 278.650334 244.529679 
L 279.053636 247.899765 
L 279.27084 252.795569 
L 279.514428 259.642164 
L 279.906264 264.097088 
L 280.349757 267.174901 
L 280.974923 270.31099 
L 281.805361 273.479 
L 282.85785 276.652423 
L 284.142345 279.806396 
L 285.662379 282.919445 
L 287.415857 285.97508 
L 289.39622 288.963132 
L 291.593942 291.880745 
L 293.998274 294.732893 
L 296.599168 297.532327 
L 300.854115 301.677471 
L 305.531724 305.837156 
L 310.661428 310.105031 
L 316.309531 314.549353 
L 322.570231 319.171196 
L 327.132967 322.30149 
L 332.031725 325.394095 
L 337.270907 328.346383 
L 340.013243 329.729164 
L 342.831178 331.02455 
L 345.717465 332.212058 
L 348.662664 333.270394 
L 351.6551 334.177931 
L 354.680881 334.913178 
L 357.723943 335.455164 
L 360.76597 335.783388 
L 363.784857 335.874242 
L 366.760033 335.7146 
L 369.676336 335.307222 
L 372.51691 334.652008 
L 375.265147 333.750661 
L 377.905269 332.607411 
L 380.42266 331.229066 
L 382.804102 329.624846 
L 385.037925 327.806106 
L 387.114097 325.786005 
L 389.024254 323.579149 
L 390.76169 321.201242 
L 392.321303 318.668753 
L 393.699531 315.998617 
L 394.894256 313.207968 
L 395.904709 310.313914 
L 396.731373 307.33335 
L 397.375881 304.282803 
L 397.84093 301.178314 
L 398.130186 298.035339 
L 398.24821 294.86868 
L 398.200382 291.692426 
L 397.992834 288.519912 
L 397.632389 285.363688 
L 397.126498 282.235492 
L 396.483188 279.146235 
L 395.711004 276.105981 
L 394.818956 273.12394 
L 393.816464 270.208454 
L 392.713303 267.366991 
L 390.245504 261.931605 
L 387.498646 256.859882 
L 384.557693 252.179811 
L 381.507445 247.905475 
L 378.430462 244.037494 
L 375.404998 240.56374 
L 371.11864 236.037187 
L 366.182922 231.075717 
L 366.182922 231.075717 
" clip-path="url(#p1fb4fbe9b0)" style="fill: none; stroke: #9aa5b1; stroke-width: 0.6; stroke-linecap: square"/>
   </g>
   <g id="line2d_7">
    <path d="M 363.645235 231.075717 
L 360.722249 228.129804 
L 359.195077 226.338966 
L 358.013372 224.6175 
L 357.169969 222.907494 
L 356.645652 221.154491 
L 356.410106 219.30941 
L 356.42307 217.330295 
L 356.63533 215.184043 
L 357.443944 210.300079 
L 358.377533 204.575684 
L 358.881335 199.768257 
L 359.024982 196.358533 
L 358.96255 192.820282 
L 358.657369 189.188607 
L 358.080833 185.500865 
L 357.2127 181.794708 
L 356.040954 178.10615 
L 354.561255 174.467754 
L 352.775993 170.907048 
L 350.692979 167.445272 
L 348.323872 164.096569 
L 345.682391 160.867714 
L 342.782464 157.758504 
L 339.636436 154.762891 
L 336.253523 151.870936 
L 332.638722 149.071654 
L 328.792418 146.356701 
L 324.710943 143.724826 
L 320.388324 141.186766 
L 315.819385 138.77011 
L 311.004188 136.523317 
L 305.953491 134.517846 
L 300.694546 132.847253 
L 298.001277 132.171711 
L 295.276118 131.622358 
L 292.529021 131.214295 
L 289.77151 130.96245 
L 287.016629 130.881266 
L 284.278935 130.984593 
L 281.574912 131.286677 
L 278.924286 131.804839 
L 276.338892 132.533556 
L 273.83061 133.467634 
L 271.411601 134.602466 
L 269.093349 135.932004 
L 266.886352 137.448511 
L 264.799944 139.142643 
L 262.842193 141.003651 
L 261.019866 143.019635 
L 259.338418 145.177823 
L 257.802041 147.464839 
L 256.413715 149.866956 
L 255.175291 152.370314 
L 254.087573 154.96111 
L 253.150409 157.625757 
L 252.362773 160.350999 
L 251.722846 163.12401 
L 251.22809 165.932463 
L 250.87531 168.764573 
L 250.660711 171.609136 
L 250.579947 174.455547 
L 250.628164 177.293815 
L 250.800039 180.114567 
L 251.089813 182.909056 
L 251.998046 188.387401 
L 253.29933 193.671481 
L 254.935259 198.714114 
L 256.843712 203.478415 
L 258.960137 207.93789 
L 261.218999 212.076449 
L 263.555335 215.88828 
L 265.906391 219.377528 
L 269.333154 224.038564 
L 276.788594 233.799009 
L 278.107056 235.84481 
L 279.183711 237.821494 
L 280.024426 239.773026 
L 280.644649 241.740455 
L 281.068603 243.760373 
L 281.328274 245.863527 
L 281.496089 249.223737 
L 281.759156 261.046049 
L 282.246049 265.488507 
L 282.785842 268.533231 
L 283.52651 271.614193 
L 284.485048 274.705097 
L 285.671643 277.781278 
L 287.090063 280.821453 
L 288.738461 283.809307 
L 290.610533 286.734836 
L 292.697014 289.595338 
L 294.987428 292.395923 
L 297.472002 295.149468 
L 301.548585 299.236659 
L 306.044038 303.351721 
L 310.988788 307.588548 
L 316.450148 312.015565 
L 322.523338 316.633942 
L 326.961145 319.769627 
L 331.735393 322.873769 
L 336.850783 325.843714 
L 339.531587 327.237606 
L 342.288282 328.545615 
L 345.11366 329.747251 
L 347.998315 330.821212 
L 350.930612 331.74586 
L 353.896693 332.499694 
L 356.880531 333.061734 
L 359.863846 333.411464 
L 362.824568 333.525263 
L 365.742163 333.389994 
L 368.601503 333.008399 
L 371.385765 332.380364 
L 374.078379 331.507575 
L 376.663597 330.394245 
L 379.126838 329.047163 
L 381.454917 327.475531 
L 383.636196 325.690684 
L 385.660675 323.70576 
L 387.520021 321.535344 
L 389.207559 319.195118 
L 390.718219 316.701528 
L 392.048466 314.071485 
L 393.196212 311.322099 
L 394.160718 308.470453 
L 394.942492 305.533416 
L 395.543198 302.527489 
L 395.965557 299.468685 
L 396.213261 296.372434 
L 396.290897 293.253508 
L 396.20387 290.125967 
L 395.958335 287.003118 
L 395.561137 283.897479 
L 395.019751 280.820759 
L 394.342225 277.783836 
L 393.537125 274.796744 
L 392.613481 271.868659 
L 391.580731 269.007891 
L 390.44867 266.221875 
L 387.927211 260.899435 
L 385.132324 255.943164 
L 382.149086 251.380771 
L 379.062401 247.226053 
L 375.954918 243.479339 
L 372.904964 240.128207 
L 368.593268 235.787478 
L 363.645235 231.075717 
L 363.645235 231.075717 
" clip-path="url(#p1fb4fbe9b0)" style="fill: none; stroke: #9aa5b1; stroke-width: 0.6; stroke-linecap: square"/>
   </g>
   <g id="line2d_8">
    <path d="M 361.107548 231.075717 
L 358.191493 228.317219 
L 356.676625 226.650818 
L 355.513339 225.053033 
L 354.694425 223.465649 
L 354.200608 221.833913 
L 354.001499 220.10845 
L 354.056747 218.247014 
L 354.317038 216.216213 
L 355.238469 211.555361 
L 356.306281 206.041893 
L 356.924023 201.383429 
L 357.149609 198.068162 
L 357.17367 194.620216 
L 356.959325 191.074476 
L 356.477748 187.46809 
L 355.708467 183.838512 
L 354.639224 180.221572 
L 353.265433 176.649657 
L 351.589224 173.150134 
L 349.618146 169.744095 
L 347.363583 166.445547 
L 344.838979 163.261144 
L 342.057976 160.190575 
L 339.032631 157.227698 
L 335.771867 154.362495 
L 332.280385 151.583914 
L 328.55827 148.883563 
L 324.601552 146.260154 
L 320.403956 143.724404 
L 315.960002 141.303898 
L 311.269448 139.047102 
L 306.342751 137.0255 
L 301.20686 135.332688 
L 298.574671 134.643769 
L 295.910242 134.079539 
L 293.223492 133.655107 
L 290.525905 133.385411 
L 287.830491 133.284905 
L 285.151769 133.367451 
L 282.506189 133.647308 
L 279.913441 134.141809 
L 277.385323 134.845446 
L 274.933682 135.753041 
L 272.570645 136.860003 
L 270.307662 138.160299 
L 268.155196 139.646212 
L 266.122548 141.308416 
L 264.217755 143.136181 
L 262.44755 145.117627 
L 260.817358 147.240004 
L 259.331339 149.489957 
L 257.992443 151.853781 
L 256.80249 154.31764 
L 255.762255 156.867755 
L 254.871557 159.490563 
L 254.129343 162.172834 
L 253.533765 164.901769 
L 253.082259 167.665065 
L 252.771603 170.450968 
L 252.597976 173.248299 
L 252.557009 176.046484 
L 252.643823 178.835558 
L 252.85307 181.606181 
L 253.178971 184.349636 
L 254.155631 189.723321 
L 255.520103 194.899496 
L 257.213828 199.831243 
L 259.174544 204.481946 
L 261.337573 208.825386 
L 263.637267 212.845755 
L 266.008564 216.537529 
L 268.388623 219.905143 
L 271.847574 224.381418 
L 279.321468 233.642787 
L 280.629159 235.564008 
L 281.68892 237.416795 
L 282.506659 239.245411 
L 283.097878 241.091206 
L 283.486871 242.991066 
L 283.70571 244.97603 
L 283.801489 248.163084 
L 283.774815 259.504305 
L 284.142342 263.802112 
L 284.596761 266.755473 
L 285.247658 269.749387 
L 286.112247 272.75777 
L 287.200941 275.75616 
L 288.517748 278.723461 
L 290.061065 281.643534 
L 291.824845 284.506541 
L 293.800087 287.309931 
L 295.976583 290.058953 
L 298.344837 292.76661 
L 302.243056 296.795846 
L 306.556353 300.866285 
L 311.316147 305.072064 
L 316.590765 309.481777 
L 322.476444 314.096689 
L 326.789324 317.237764 
L 331.43906 320.353443 
L 336.430659 323.341045 
L 341.745387 326.06668 
L 344.509855 327.282443 
L 347.333967 328.372029 
L 350.206123 329.313789 
L 353.112505 330.086211 
L 356.037118 330.668303 
L 358.961722 331.039539 
L 361.864279 331.176285 
L 364.724293 331.065388 
L 367.526669 330.709576 
L 370.254621 330.10872 
L 372.89161 329.264489 
L 375.421925 328.181079 
L 377.831016 326.86526 
L 380.105732 325.326216 
L 382.234467 323.575262 
L 384.207252 321.625516 
L 386.015788 319.49154 
L 387.653428 317.188994 
L 389.115134 314.734303 
L 390.397401 312.144354 
L 391.498168 309.436231 
L 392.416726 306.626992 
L 393.153612 303.733482 
L 393.710515 300.772175 
L 394.090184 297.759056 
L 394.296336 294.709529 
L 394.333585 291.638335 
L 394.207357 288.559508 
L 393.923835 285.486323 
L 393.489885 282.43127 
L 392.913004 279.406025 
L 392.201262 276.421436 
L 391.363246 273.487506 
L 390.408005 270.613377 
L 389.344998 267.807327 
L 388.184037 265.076759 
L 385.608919 259.867265 
L 382.766001 255.026446 
L 379.740479 250.581731 
L 376.617357 246.54663 
L 373.479374 242.921184 
L 370.404931 239.692675 
L 366.067897 235.537768 
L 361.107548 231.075717 
L 361.107548 231.075717 
" clip-path="url(#p1fb4fbe9b0)" style="fill: none; stroke: #9aa5b1; stroke-width: 0.6; stroke-linecap: square"/>
   </g>
   <g id="line2d_9">
    <path d="M 358.569861 231.075717 
L 355.660736 228.504633 
L 354.158172 226.96267 
L 353.013305 225.488565 
L 352.218881 224.023804 
L 351.755564 222.513336 
L 351.592891 220.907491 
L 351.690425 219.163732 
L 352.215669 216.218039 
L 354.50664 206.052078 
L 354.96671 202.998601 
L 355.274236 199.77779 
L 355.38479 196.42015 
L 355.261281 192.960345 
L 354.874664 189.435315 
L 354.204233 185.882317 
L 353.237495 182.336994 
L 351.969611 178.83156 
L 350.402456 175.39322 
L 348.543312 172.042919 
L 346.403295 168.794526 
L 343.995566 165.654575 
L 341.333488 162.622647 
L 338.428826 159.692505 
L 335.290211 156.854053 
L 331.922048 154.096173 
L 328.324122 151.410424 
L 324.492161 148.795482 
L 320.419588 146.262043 
L 316.100619 143.837686 
L 311.534709 141.570887 
L 306.732011 139.533155 
L 301.719174 137.818123 
L 299.148065 137.115828 
L 296.544367 136.536721 
L 293.917963 136.095919 
L 291.280301 135.808373 
L 288.644353 135.688545 
L 286.024604 135.75031 
L 283.437466 136.007938 
L 280.902595 136.478779 
L 278.431754 137.157336 
L 276.036755 138.038448 
L 273.729689 139.117539 
L 271.521974 140.388594 
L 269.424039 141.843913 
L 267.445152 143.474189 
L 265.593317 145.268711 
L 263.875234 147.21562 
L 262.296298 149.302185 
L 260.860637 151.515075 
L 259.57117 153.840606 
L 258.429688 156.264966 
L 257.436937 158.7744 
L 256.592706 161.35537 
L 255.895913 163.99467 
L 255.344684 166.679528 
L 254.936428 169.397668 
L 254.667896 172.137362 
L 254.535242 174.887462 
L 254.534072 177.63742 
L 254.659482 180.377302 
L 254.906102 183.097796 
L 255.268129 185.790217 
L 256.313216 191.059241 
L 257.740876 196.127512 
L 259.492397 200.948373 
L 261.505376 205.485477 
L 263.71501 209.712882 
L 266.055535 213.615062 
L 268.461792 217.186778 
L 270.870855 220.432757 
L 274.361993 224.724273 
L 282.534539 234.396209 
L 283.704313 236.153285 
L 284.621768 237.865154 
L 285.297739 239.575124 
L 285.752306 241.322792 
L 286.013859 243.142582 
L 286.124459 246.066302 
L 285.965733 250.416488 
L 285.781902 255.320422 
L 285.837451 259.324279 
L 286.038635 262.115717 
L 286.40768 264.977714 
L 286.968806 267.884581 
L 287.739446 270.810444 
L 288.730239 273.731043 
L 289.945432 276.625468 
L 291.383669 279.47776 
L 293.039158 282.278246 
L 294.90316 285.024524 
L 296.965737 287.721984 
L 299.217671 290.383752 
L 302.937527 294.355034 
L 307.068667 298.38085 
L 311.643507 302.55558 
L 316.731382 306.947989 
L 322.42955 311.559435 
L 326.617502 314.705901 
L 331.142728 317.833118 
L 336.010535 320.838377 
L 341.202492 323.587745 
L 343.90605 324.817636 
L 346.669619 325.922847 
L 349.481635 326.881717 
L 352.328316 327.672727 
L 355.193706 328.274873 
L 358.059597 328.667615 
L 360.903991 328.827307 
L 363.706423 328.740781 
L 366.451836 328.410753 
L 369.123477 327.837076 
L 371.704842 327.021403 
L 374.180252 325.967913 
L 376.535194 324.683358 
L 378.756547 323.176902 
L 380.832737 321.459841 
L 382.75383 319.545271 
L 384.511555 317.447735 
L 386.099298 315.182871 
L 387.512049 312.767078 
L 388.746335 310.217222 
L 389.800124 307.550362 
L 390.672735 304.783532 
L 391.364732 301.933548 
L 391.877832 299.016861 
L 392.214811 296.049428 
L 392.379412 293.046623 
L 392.376272 290.023163 
L 392.210845 286.99305 
L 391.889335 283.969529 
L 391.418633 280.965061 
L 390.806257 277.991291 
L 390.060299 275.059037 
L 389.189367 272.178268 
L 388.20253 269.358095 
L 387.109265 266.606764 
L 385.919404 263.931643 
L 383.290627 258.835094 
L 380.399679 254.109727 
L 377.331872 249.78269 
L 374.172314 245.867208 
L 371.00383 242.363029 
L 367.904898 239.257143 
L 363.542526 235.288059 
L 358.569861 231.075717 
L 358.569861 231.075717 
" clip-path="url(#p1fb4fbe9b0)" style="fill: none; stroke: #9aa5b1; stroke-width: 0.6; stroke-linecap: square"/>
   </g>
   <g id="line2d_10">
    <path d="M 356.032174 231.075717 
L 353.129979 228.692048 
L 351.63972 227.274522 
L 350.513272 225.924097 
L 349.743337 224.581959 
L 349.31052 223.192758 
L 349.184284 221.706531 
L 349.324102 220.08045 
L 349.92351 217.307013 
L 352.472141 207.568873 
L 353.009397 204.613773 
L 353.398863 201.487419 
L 353.59591 198.220084 
L 353.563237 194.846213 
L 353.271579 191.402539 
L 352.7 187.926121 
L 351.835766 184.452415 
L 350.673789 181.013462 
L 349.215687 177.636306 
L 347.468479 174.341742 
L 345.443006 171.143504 
L 343.152154 168.048005 
L 340.609 165.054718 
L 337.825021 162.157312 
L 334.808556 159.345611 
L 331.563711 156.608433 
L 328.089974 153.937286 
L 324.38277 151.33081 
L 320.43522 148.799682 
L 316.241236 146.371474 
L 311.799969 144.094672 
L 307.121271 142.040809 
L 302.231488 140.303559 
L 299.721458 139.587887 
L 297.178492 138.993902 
L 294.612434 138.536732 
L 292.034696 138.231334 
L 289.458215 138.092184 
L 286.897439 138.133168 
L 284.368743 138.368569 
L 281.89175 138.815748 
L 279.478186 139.469226 
L 277.139828 140.323855 
L 274.888734 141.375075 
L 272.736287 142.616889 
L 270.692882 144.041614 
L 268.767756 145.639962 
L 266.968878 147.401241 
L 265.302918 149.313612 
L 263.775238 151.364366 
L 262.389935 153.540193 
L 261.149898 155.827431 
L 260.056887 158.212292 
L 259.111619 160.681045 
L 258.313854 163.220176 
L 257.662483 165.816506 
L 257.155603 168.457287 
L 256.790596 171.130271 
L 256.564189 173.823757 
L 256.472508 176.526625 
L 256.511134 179.228356 
L 256.675141 181.919045 
L 256.959134 184.589411 
L 257.357287 187.230798 
L 258.470801 192.39516 
L 259.961648 197.355528 
L 261.770966 202.065503 
L 263.836208 206.489009 
L 266.092446 210.600379 
L 268.473804 214.384368 
L 270.915021 217.836026 
L 273.353087 220.960372 
L 276.876412 225.067128 
L 285.062795 234.17763 
L 286.218733 235.810431 
L 287.116246 237.398855 
L 287.766219 238.986513 
L 288.188794 240.613299 
L 288.412439 242.313929 
L 288.455291 245.06277 
L 288.186506 249.188473 
L 287.826555 255.13553 
L 287.856097 259.070465 
L 288.054674 261.806873 
L 288.429553 264.605337 
L 289.001797 267.440068 
L 289.785643 270.285982 
L 290.788691 273.120477 
L 292.012505 275.925117 
L 293.453597 278.687107 
L 295.104754 281.400473 
L 296.956674 284.066822 
L 298.999806 286.695591 
L 302.406826 290.606982 
L 306.218084 294.554793 
L 310.454965 298.634609 
L 315.175786 302.928132 
L 320.471486 307.464414 
L 324.373019 310.594622 
L 328.603011 313.750699 
L 333.175978 316.846424 
L 338.08662 319.762932 
L 340.659597 321.10881 
L 343.302245 322.352829 
L 346.005271 323.473664 
L 348.757147 324.449646 
L 351.544128 325.259244 
L 354.350294 325.881442 
L 357.157473 326.29569 
L 359.943702 326.478328 
L 362.688553 326.416175 
L 365.377002 326.11193 
L 367.992332 325.565432 
L 370.518073 324.778317 
L 372.93858 323.754747 
L 375.239372 322.501455 
L 377.407361 321.027587 
L 379.431008 319.344419 
L 381.300407 317.465026 
L 383.007322 315.403931 
L 384.545167 313.176747 
L 385.908965 310.799853 
L 387.09527 308.29009 
L 388.10208 305.664493 
L 388.928743 302.940071 
L 389.575852 300.133615 
L 390.045149 297.261547 
L 390.339437 294.339799 
L 390.462487 291.383718 
L 390.418959 288.407991 
L 390.214333 285.426591 
L 389.854835 282.452735 
L 389.347381 279.498852 
L 388.69951 276.576558 
L 387.919336 273.696638 
L 387.015488 270.86903 
L 385.997054 268.102814 
L 384.873532 265.406201 
L 383.654771 262.786527 
L 380.972335 257.802924 
L 378.033357 253.193009 
L 374.923265 248.98365 
L 371.72727 245.187785 
L 368.528286 241.804874 
L 365.404865 238.821611 
L 361.017155 235.03835 
L 356.032174 231.075717 
L 356.032174 231.075717 
" clip-path="url(#p1fb4fbe9b0)" style="fill: none; stroke: #9aa5b1; stroke-width: 0.6; stroke-linecap: square"/>
   </g>
   <g id="line2d_11">
    <path d="M 353.494488 231.075717 
L 350.599222 228.879462 
L 349.121267 227.586374 
L 348.013239 226.359629 
L 347.267793 225.140114 
L 346.865476 223.872181 
L 346.775677 222.505571 
L 346.95778 220.997168 
L 347.631352 218.395986 
L 350.092525 210.44052 
L 351.052085 206.228946 
L 351.523489 203.197047 
L 351.807029 200.020017 
L 351.865193 196.732082 
L 351.668494 193.369764 
L 351.195767 189.969926 
L 350.434036 186.567837 
L 349.377967 183.195365 
L 348.028919 179.879392 
L 346.393645 176.640565 
L 344.482717 173.492483 
L 342.308742 170.441436 
L 339.884512 167.48679 
L 337.221216 164.622119 
L 334.3269 161.837169 
L 331.205374 159.120693 
L 327.855825 156.464147 
L 324.27338 153.866137 
L 320.450852 151.33732 
L 316.381853 148.905262 
L 312.06523 146.618457 
L 307.510531 144.548464 
L 302.743803 142.788994 
L 300.294852 142.059945 
L 297.812617 141.451083 
L 295.306905 140.977544 
L 292.789092 140.654295 
L 290.272077 140.495824 
L 287.770273 140.516026 
L 285.300021 140.7292 
L 282.880904 141.152718 
L 280.524617 141.781116 
L 278.2429 142.609262 
L 276.047778 143.632612 
L 273.950599 144.845184 
L 271.961726 146.239316 
L 270.09036 147.805735 
L 268.34444 149.533771 
L 266.730602 151.411604 
L 265.254178 153.426547 
L 263.919233 155.56531 
L 262.728625 157.814256 
L 261.684085 160.159618 
L 260.786301 162.58769 
L 260.035002 165.084982 
L 259.429052 167.638341 
L 258.966522 170.235046 
L 258.644765 172.862874 
L 258.460481 175.510152 
L 258.409774 178.165788 
L 258.488197 180.819292 
L 258.6908 183.460789 
L 259.012166 186.081026 
L 259.446445 188.671378 
L 260.628386 193.73108 
L 262.182421 198.583543 
L 264.049534 203.182632 
L 266.167041 207.49254 
L 268.469883 211.487875 
L 270.892072 215.153675 
L 273.368249 218.485275 
L 275.835319 221.487987 
L 279.390832 225.409983 
L 288.195469 234.721603 
L 289.204547 236.202696 
L 289.953355 237.662567 
L 290.457564 239.143459 
L 290.741676 240.683146 
L 290.83802 242.313541 
L 290.71769 244.981127 
L 289.821792 254.879075 
L 289.831221 258.742927 
L 290.029519 261.422196 
L 290.411103 264.154968 
L 290.993843 266.915792 
L 291.788835 269.680807 
L 292.8008 272.429484 
L 294.028877 275.146214 
L 295.467783 277.821656 
L 297.109305 280.45371 
L 298.944046 283.048044 
L 300.963341 285.618035 
L 304.326469 289.47341 
L 308.093295 293.40998 
L 312.298226 297.522613 
L 317.012615 301.880413 
L 322.335763 306.484929 
L 326.273859 309.642174 
L 330.550063 312.792466 
L 335.170288 315.83304 
L 340.116702 318.629875 
L 342.69844 319.888022 
L 345.340922 321.024481 
L 348.032659 322.017575 
L 350.75994 322.84576 
L 353.506881 323.488012 
L 356.255348 323.923766 
L 358.983413 324.12935 
L 361.670683 324.091568 
L 364.302169 323.813107 
L 366.861188 323.293787 
L 369.331305 322.535231 
L 371.696908 321.541581 
L 373.94355 320.319552 
L 376.058176 318.878272 
L 378.029279 317.228997 
L 379.846985 315.384782 
L 381.503089 313.360126 
L 382.991036 311.170623 
L 384.30588 308.832629 
L 385.444204 306.362958 
L 386.404037 303.778624 
L 387.184752 301.09661 
L 387.786971 298.333681 
L 388.212466 295.506233 
L 388.464064 292.630171 
L 388.545562 289.720813 
L 388.461647 286.792819 
L 388.217821 283.860132 
L 387.820336 280.93594 
L 387.276129 278.032643 
L 386.592763 275.161824 
L 385.778373 272.334239 
L 384.841609 269.559792 
L 383.791579 266.847532 
L 382.637799 264.205638 
L 381.390138 261.641411 
L 378.654042 256.770754 
L 375.667034 252.276291 
L 372.514657 248.184609 
L 369.282226 244.508363 
L 366.052743 241.246719 
L 362.904832 238.386079 
L 358.491784 234.788641 
L 353.494488 231.075717 
L 353.494488 231.075717 
" clip-path="url(#p1fb4fbe9b0)" style="fill: none; stroke: #9aa5b1; stroke-width: 0.6; stroke-linecap: square"/>
   </g>
   <g id="matplotlib.axis_1">
    <g id="xtick_1">
     <g id="line2d_12">
      <defs>
       <path id="mc1433b4b33" d="M 0 0 
L 0 3.5 
" style="stroke: #000000; stroke-width: 0.8"/>
      </defs>
      <g>
       <use xlink:href="#mc1433b4b33" x="105.445545" y="416.25285" style="stroke: #000000; stroke-width: 0.8"/>
      </g>
     </g>
     <g id="text_1">
      <!-- −1500 -->
      <g transform="translate(93.605155 428.571209) scale(0.07 -0.07)">
       <defs>
        <path id="DejaVuSans-c9c" d="M 678 2272 
L 4684 2272 
L 4684 1741 
L 678 1741 
L 678 2272 
z
" transform="scale(0.015625)"/>
        <path id="DejaVuSans-14" d="M 794 531 
L 1825 531 
L 1825 4091 
L 703 3866 
L 703 4441 
L 1819 4666 
L 2450 4666 
L 2450 531 
L 3481 531 
L 3481 0 
L 794 0 
L 794 531 
z
" transform="scale(0.015625)"/>
        <path id="DejaVuSans-18" d="M 691 4666 
L 3169 4666 
L 3169 4134 
L 1269 4134 
L 1269 2991 
Q 1406 3038 1543 3061 
Q 1681 3084 1819 3084 
Q 2600 3084 3056 2656 
Q 3513 2228 3513 1497 
Q 3513 744 3044 326 
Q 2575 -91 1722 -91 
Q 1428 -91 1123 -41 
Q 819 9 494 109 
L 494 744 
Q 775 591 1075 516 
Q 1375 441 1709 441 
Q 2250 441 2565 725 
Q 2881 1009 2881 1497 
Q 2881 1984 2565 2268 
Q 2250 2553 1709 2553 
Q 1456 2553 1204 2497 
Q 953 2441 691 2322 
L 691 4666 
z
" transform="scale(0.015625)"/>
        <path id="DejaVuSans-13" d="M 2034 4250 
Q 1547 4250 1301 3770 
Q 1056 3291 1056 2328 
Q 1056 1369 1301 889 
Q 1547 409 2034 409 
Q 2525 409 2770 889 
Q 3016 1369 3016 2328 
Q 3016 3291 2770 3770 
Q 2525 4250 2034 4250 
z
M 2034 4750 
Q 2819 4750 3233 4129 
Q 3647 3509 3647 2328 
Q 3647 1150 3233 529 
Q 2819 -91 2034 -91 
Q 1250 -91 836 529 
Q 422 1150 422 2328 
Q 422 3509 836 4129 
Q 1250 4750 2034 4750 
z
" transform="scale(0.015625)"/>
       </defs>
       <use xlink:href="#DejaVuSans-c9c"/>
       <use xlink:href="#DejaVuSans-14" transform="translate(83.796875 0)"/>
       <use xlink:href="#DejaVuSans-18" transform="translate(147.421875 0)"/>
       <use xlink:href="#DejaVuSans-13" transform="translate(211.046875 0)"/>
       <use xlink:href="#DejaVuSans-13" transform="translate(274.671875 0)"/>
      </g>
     </g>
    </g>
    <g id="xtick_2">
     <g id="line2d_13">
      <g>
       <use xlink:href="#mc1433b4b33" x="177.277712" y="416.25285" style="stroke: #000000; stroke-width: 0.8"/>
      </g>
     </g>
     <g id="text_2">
      <!-- −1000 -->
      <g transform="translate(165.437321 428.571209) scale(0.07 -0.07)">
       <use xlink:href="#DejaVuSans-c9c"/>
       <use xlink:href="#DejaVuSans-14" transform="translate(83.796875 0)"/>
       <use xlink:href="#DejaVuSans-13" transform="translate(147.421875 0)"/>
       <use xlink:href="#DejaVuSans-13" transform="translate(211.046875 0)"/>
       <use xlink:href="#DejaVuSans-13" transform="translate(274.671875 0)"/>
      </g>
     </g>
    </g>
    <g id="xtick_3">
     <g id="line2d_14">
      <g>
       <use xlink:href="#mc1433b4b33" x="249.109879" y="416.25285" style="stroke: #000000; stroke-width: 0.8"/>
      </g>
     </g>
     <g id="text_3">
      <!-- −500 -->
      <g transform="translate(239.496363 428.571209) scale(0.07 -0.07)">
       <use xlink:href="#DejaVuSans-c9c"/>
       <use xlink:href="#DejaVuSans-18" transform="translate(83.796875 0)"/>
       <use xlink:href="#DejaVuSans-13" transform="translate(147.421875 0)"/>
       <use xlink:href="#DejaVuSans-13" transform="translate(211.046875 0)"/>
      </g>
     </g>
    </g>
    <g id="xtick_4">
     <g id="line2d_15">
      <g>
       <use xlink:href="#mc1433b4b33" x="320.942045" y="416.25285" style="stroke: #000000; stroke-width: 0.8"/>
      </g>
     </g>
     <g id="text_4">
      <!-- 0 -->
      <g transform="translate(318.71517 428.571209) scale(0.07 -0.07)">
       <use xlink:href="#DejaVuSans-13"/>
      </g>
     </g>
    </g>
    <g id="xtick_5">
     <g id="line2d_16">
      <g>
       <use xlink:href="#mc1433b4b33" x="392.774212" y="416.25285" style="stroke: #000000; stroke-width: 0.8"/>
      </g>
     </g>
     <g id="text_5">
      <!-- 500 -->
      <g transform="translate(386.093587 428.571209) scale(0.07 -0.07)">
       <use xlink:href="#DejaVuSans-18"/>
       <use xlink:href="#DejaVuSans-13" transform="translate(63.625 0)"/>
       <use xlink:href="#DejaVuSans-13" transform="translate(127.25 0)"/>
      </g>
     </g>
    </g>
    <g id="xtick_6">
     <g id="line2d_17">
      <g>
       <use xlink:href="#mc1433b4b33" x="464.606379" y="416.25285" style="stroke: #000000; stroke-width: 0.8"/>
      </g>
     </g>
     <g id="text_6">
      <!-- 1000 -->
      <g transform="translate(455.698879 428.571209) scale(0.07 -0.07)">
       <use xlink:href="#DejaVuSans-14"/>
       <use xlink:href="#DejaVuSans-13" transform="translate(63.625 0)"/>
       <use xlink:href="#DejaVuSans-13" transform="translate(127.25 0)"/>
       <use xlink:href="#DejaVuSans-13" transform="translate(190.875 0)"/>
      </g>
     </g>
    </g>
    <g id="text_7">
     <!-- east [m] -->
     <g transform="translate(263.567813 440.3316) scale(0.08 -0.08)">
      <defs>
       <path id="DejaVuSans-48" d="M 3597 1894 
L 3597 1613 
L 953 1613 
Q 991 1019 1311 708 
Q 1631 397 2203 397 
Q 2534 397 2845 478 
Q 3156 559 3463 722 
L 3463 178 
Q 3153 47 2828 -22 
Q 2503 -91 2169 -91 
Q 1331 -91 842 396 
Q 353 884 353 1716 
Q 353 2575 817 3079 
Q 1281 3584 2069 3584 
Q 2775 3584 3186 3129 
Q 3597 2675 3597 1894 
z
M 3022 2063 
Q 3016 2534 2758 2815 
Q 2500 3097 2075 3097 
Q 1594 3097 1305 2825 
Q 1016 2553 972 2059 
L 3022 2063 
z
" transform="scale(0.015625)"/>
       <path id="DejaVuSans-44" d="M 2194 1759 
Q 1497 1759 1228 1600 
Q 959 1441 959 1056 
Q 959 750 1161 570 
Q 1363 391 1709 391 
Q 2188 391 2477 730 
Q 2766 1069 2766 1631 
L 2766 1759 
L 2194 1759 
z
M 3341 1997 
L 3341 0 
L 2766 0 
L 2766 531 
Q 2569 213 2275 61 
Q 1981 -91 1556 -91 
Q 1019 -91 701 211 
Q 384 513 384 1019 
Q 384 1609 779 1909 
Q 1175 2209 1959 2209 
L 2766 2209 
L 2766 2266 
Q 2766 2663 2505 2880 
Q 2244 3097 1772 3097 
Q 1472 3097 1187 3025 
Q 903 2953 641 2809 
L 641 3341 
Q 956 3463 1253 3523 
Q 1550 3584 1831 3584 
Q 2591 3584 2966 3190 
Q 3341 2797 3341 1997 
z
" transform="scale(0.015625)"/>
       <path id="DejaVuSans-56" d="M 2834 3397 
L 2834 2853 
Q 2591 2978 2328 3040 
Q 2066 3103 1784 3103 
Q 1356 3103 1142 2972 
Q 928 2841 928 2578 
Q 928 2378 1081 2264 
Q 1234 2150 1697 2047 
L 1894 2003 
Q 2506 1872 2764 1633 
Q 3022 1394 3022 966 
Q 3022 478 2636 193 
Q 2250 -91 1575 -91 
Q 1294 -91 989 -36 
Q 684 19 347 128 
L 347 722 
Q 666 556 975 473 
Q 1284 391 1588 391 
Q 1994 391 2212 530 
Q 2431 669 2431 922 
Q 2431 1156 2273 1281 
Q 2116 1406 1581 1522 
L 1381 1569 
Q 847 1681 609 1914 
Q 372 2147 372 2553 
Q 372 3047 722 3315 
Q 1072 3584 1716 3584 
Q 2034 3584 2315 3537 
Q 2597 3491 2834 3397 
z
" transform="scale(0.015625)"/>
       <path id="DejaVuSans-57" d="M 1172 4494 
L 1172 3500 
L 2356 3500 
L 2356 3053 
L 1172 3053 
L 1172 1153 
Q 1172 725 1289 603 
Q 1406 481 1766 481 
L 2356 481 
L 2356 0 
L 1766 0 
Q 1100 0 847 248 
Q 594 497 594 1153 
L 594 3053 
L 172 3053 
L 172 3500 
L 594 3500 
L 594 4494 
L 1172 4494 
z
" transform="scale(0.015625)"/>
       <path id="DejaVuSans-3" transform="scale(0.015625)"/>
       <path id="DejaVuSans-3e" d="M 550 4863 
L 1875 4863 
L 1875 4416 
L 1125 4416 
L 1125 -397 
L 1875 -397 
L 1875 -844 
L 550 -844 
L 550 4863 
z
" transform="scale(0.015625)"/>
       <path id="DejaVuSans-50" d="M 3328 2828 
Q 3544 3216 3844 3400 
Q 4144 3584 4550 3584 
Q 5097 3584 5394 3201 
Q 5691 2819 5691 2113 
L 5691 0 
L 5113 0 
L 5113 2094 
Q 5113 2597 4934 2840 
Q 4756 3084 4391 3084 
Q 3944 3084 3684 2787 
Q 3425 2491 3425 1978 
L 3425 0 
L 2847 0 
L 2847 2094 
Q 2847 2600 2669 2842 
Q 2491 3084 2119 3084 
Q 1678 3084 1418 2786 
Q 1159 2488 1159 1978 
L 1159 0 
L 581 0 
L 581 3500 
L 1159 3500 
L 1159 2956 
Q 1356 3278 1631 3431 
Q 1906 3584 2284 3584 
Q 2666 3584 2933 3390 
Q 3200 3197 3328 2828 
z
" transform="scale(0.015625)"/>
       <path id="DejaVuSans-40" d="M 1947 4863 
L 1947 -844 
L 622 -844 
L 622 -397 
L 1369 -397 
L 1369 4416 
L 622 4416 
L 622 4863 
L 1947 4863 
z
" transform="scale(0.015625)"/>
      </defs>
      <use xlink:href="#DejaVuSans-48"/>
      <use xlink:href="#DejaVuSans-44" transform="translate(61.53125 0)"/>
      <use xlink:href="#DejaVuSans-56" transform="translate(122.8125 0)"/>
      <use xlink:href="#DejaVuSans-57" transform="translate(174.90625 0)"/>
      <use xlink:href="#DejaVuSans-3" transform="translate(214.109375 0)"/>
      <use xlink:href="#DejaVuSans-3e" transform="translate(245.890625 0)"/>
      <use xlink:href="#DejaVuSans-50" transform="translate(284.90625 0)"/>
      <use xlink:href="#DejaVuSans-40" transform="translate(382.3125 0)"/>
     </g>
    </g>
   </g>
   <g id="matplotlib.axis_2">
    <g id="ytick_1">
     <g id="line2d_18">
      <defs>
       <path id="m5e26fc51cd" d="M 0 0 
L -3.5 0 
" style="stroke: #000000; stroke-width: 0.8"/>
      </defs>
      <g>
       <use xlink:href="#m5e26fc51cd" x="53.241875" y="410.656134" style="stroke: #000000; stroke-width: 0.8"/>
      </g>
     </g>
     <g id="text_8">
      <!-- −1250 -->
      <g transform="translate(22.561094 413.315314) scale(0.07 -0.07)">
       <defs>
        <path id="DejaVuSans-15" d="M 1228 531 
L 3431 531 
L 3431 0 
L 469 0 
L 469 531 
Q 828 903 1448 1529 
Q 2069 2156 2228 2338 
Q 2531 2678 2651 2914 
Q 2772 3150 2772 3378 
Q 2772 3750 2511 3984 
Q 2250 4219 1831 4219 
Q 1534 4219 1204 4116 
Q 875 4013 500 3803 
L 500 4441 
Q 881 4594 1212 4672 
Q 1544 4750 1819 4750 
Q 2544 4750 2975 4387 
Q 3406 4025 3406 3419 
Q 3406 3131 3298 2873 
Q 3191 2616 2906 2266 
Q 2828 2175 2409 1742 
Q 1991 1309 1228 531 
z
" transform="scale(0.015625)"/>
       </defs>
       <use xlink:href="#DejaVuSans-c9c"/>
       <use xlink:href="#DejaVuSans-14" transform="translate(83.796875 0)"/>
       <use xlink:href="#DejaVuSans-15" transform="translate(147.421875 0)"/>
       <use xlink:href="#DejaVuSans-18" transform="translate(211.046875 0)"/>
       <use xlink:href="#DejaVuSans-13" transform="translate(274.671875 0)"/>
      </g>
     </g>
    </g>
    <g id="ytick_2">
     <g id="line2d_19">
      <g>
       <use xlink:href="#m5e26fc51cd" x="53.241875" y="374.740051" style="stroke: #000000; stroke-width: 0.8"/>
      </g>
     </g>
     <g id="text_9">
      <!-- −1000 -->
      <g transform="translate(22.561094 377.39923) scale(0.07 -0.07)">
       <use xlink:href="#DejaVuSans-c9c"/>
       <use xlink:href="#DejaVuSans-14" transform="translate(83.796875 0)"/>
       <use xlink:href="#DejaVuSans-13" transform="translate(147.421875 0)"/>
       <use xlink:href="#DejaVuSans-13" transform="translate(211.046875 0)"/>
       <use xlink:href="#DejaVuSans-13" transform="translate(274.671875 0)"/>
      </g>
     </g>
    </g>
    <g id="ytick_3">
     <g id="line2d_20">
      <g>
       <use xlink:href="#m5e26fc51cd" x="53.241875" y="338.823967" style="stroke: #000000; stroke-width: 0.8"/>
      </g>
     </g>
     <g id="text_10">
      <!-- −750 -->
      <g transform="translate(27.014844 341.483147) scale(0.07 -0.07)">
       <defs>
        <path id="DejaVuSans-1a" d="M 525 4666 
L 3525 4666 
L 3525 4397 
L 1831 0 
L 1172 0 
L 2766 4134 
L 525 4134 
L 525 4666 
z
" transform="scale(0.015625)"/>
       </defs>
       <use xlink:href="#DejaVuSans-c9c"/>
       <use xlink:href="#DejaVuSans-1a" transform="translate(83.796875 0)"/>
       <use xlink:href="#DejaVuSans-18" transform="translate(147.421875 0)"/>
       <use xlink:href="#DejaVuSans-13" transform="translate(211.046875 0)"/>
      </g>
     </g>
    </g>
    <g id="ytick_4">
     <g id="line2d_21">
      <g>
       <use xlink:href="#m5e26fc51cd" x="53.241875" y="302.907884" style="stroke: #000000; stroke-width: 0.8"/>
      </g>
     </g>
     <g id="text_11">
      <!-- −500 -->
      <g transform="translate(27.014844 305.567064) scale(0.07 -0.07)">
       <use xlink:href="#DejaVuSans-c9c"/>
       <use xlink:href="#DejaVuSans-18" transform="translate(83.796875 0)"/>
       <use xlink:href="#DejaVuSans-13" transform="translate(147.421875 0)"/>
       <use xlink:href="#DejaVuSans-13" transform="translate(211.046875 0)"/>
      </g>
     </g>
    </g>
    <g id="ytick_5">
     <g id="line2d_22">
      <g>
       <use xlink:href="#m5e26fc51cd" x="53.241875" y="266.991801" style="stroke: #000000; stroke-width: 0.8"/>
      </g>
     </g>
     <g id="text_12">
      <!-- −250 -->
      <g transform="translate(27.014844 269.65098) scale(0.07 -0.07)">
       <use xlink:href="#DejaVuSans-c9c"/>
       <use xlink:href="#DejaVuSans-15" transform="translate(83.796875 0)"/>
       <use xlink:href="#DejaVuSans-18" transform="translate(147.421875 0)"/>
       <use xlink:href="#DejaVuSans-13" transform="translate(211.046875 0)"/>
      </g>
     </g>
    </g>
    <g id="ytick_6">
     <g id="line2d_23">
      <g>
       <use xlink:href="#m5e26fc51cd" x="53.241875" y="231.075717" style="stroke: #000000; stroke-width: 0.8"/>
      </g>
     </g>
     <g id="text_13">
      <!-- 0 -->
      <g transform="translate(41.788125 233.734897) scale(0.07 -0.07)">
       <use xlink:href="#DejaVuSans-13"/>
      </g>
     </g>
    </g>
    <g id="ytick_7">
     <g id="line2d_24">
      <g>
       <use xlink:href="#m5e26fc51cd" x="53.241875" y="195.159634" style="stroke: #000000; stroke-width: 0.8"/>
      </g>
     </g>
     <g id="text_14">
      <!-- 250 -->
      <g transform="translate(32.880625 197.818814) scale(0.07 -0.07)">
       <use xlink:href="#DejaVuSans-15"/>
       <use xlink:href="#DejaVuSans-18" transform="translate(63.625 0)"/>
       <use xlink:href="#DejaVuSans-13" transform="translate(127.25 0)"/>
      </g>
     </g>
    </g>
    <g id="ytick_8">
     <g id="line2d_25">
      <g>
       <use xlink:href="#m5e26fc51cd" x="53.241875" y="159.243551" style="stroke: #000000; stroke-width: 0.8"/>
      </g>
     </g>
     <g id="text_15">
      <!-- 500 -->
      <g transform="translate(32.880625 161.90273) scale(0.07 -0.07)">
       <use xlink:href="#DejaVuSans-18"/>
       <use xlink:href="#DejaVuSans-13" transform="translate(63.625 0)"/>
       <use xlink:href="#DejaVuSans-13" transform="translate(127.25 0)"/>
      </g>
     </g>
    </g>
    <g id="ytick_9">
     <g id="line2d_26">
      <g>
       <use xlink:href="#m5e26fc51cd" x="53.241875" y="123.327467" style="stroke: #000000; stroke-width: 0.8"/>
      </g>
     </g>
     <g id="text_16">
      <!-- 750 -->
      <g transform="translate(32.880625 125.986647) scale(0.07 -0.07)">
       <use xlink:href="#DejaVuSans-1a"/>
       <use xlink:href="#DejaVuSans-18" transform="translate(63.625 0)"/>
       <use xlink:href="#DejaVuSans-13" transform="translate(127.25 0)"/>
      </g>
     </g>
    </g>
    <g id="text_17">
     <!-- north [m] -->
     <g transform="translate(16.639219 278.21875) rotate(-90) scale(0.08 -0.08)">
      <defs>
       <path id="DejaVuSans-51" d="M 3513 2113 
L 3513 0 
L 2938 0 
L 2938 2094 
Q 2938 2591 2744 2837 
Q 2550 3084 2163 3084 
Q 1697 3084 1428 2787 
Q 1159 2491 1159 1978 
L 1159 0 
L 581 0 
L 581 3500 
L 1159 3500 
L 1159 2956 
Q 1366 3272 1645 3428 
Q 1925 3584 2291 3584 
Q 2894 3584 3203 3211 
Q 3513 2838 3513 2113 
z
" transform="scale(0.015625)"/>
       <path id="DejaVuSans-52" d="M 1959 3097 
Q 1497 3097 1228 2736 
Q 959 2375 959 1747 
Q 959 1119 1226 758 
Q 1494 397 1959 397 
Q 2419 397 2687 759 
Q 2956 1122 2956 1747 
Q 2956 2369 2687 2733 
Q 2419 3097 1959 3097 
z
M 1959 3584 
Q 2709 3584 3137 3096 
Q 3566 2609 3566 1747 
Q 3566 888 3137 398 
Q 2709 -91 1959 -91 
Q 1206 -91 779 398 
Q 353 888 353 1747 
Q 353 2609 779 3096 
Q 1206 3584 1959 3584 
z
" transform="scale(0.015625)"/>
       <path id="DejaVuSans-55" d="M 2631 2963 
Q 2534 3019 2420 3045 
Q 2306 3072 2169 3072 
Q 1681 3072 1420 2755 
Q 1159 2438 1159 1844 
L 1159 0 
L 581 0 
L 581 3500 
L 1159 3500 
L 1159 2956 
Q 1341 3275 1631 3429 
Q 1922 3584 2338 3584 
Q 2397 3584 2469 3576 
Q 2541 3569 2628 3553 
L 2631 2963 
z
" transform="scale(0.015625)"/>
       <path id="DejaVuSans-4b" d="M 3513 2113 
L 3513 0 
L 2938 0 
L 2938 2094 
Q 2938 2591 2744 2837 
Q 2550 3084 2163 3084 
Q 1697 3084 1428 2787 
Q 1159 2491 1159 1978 
L 1159 0 
L 581 0 
L 581 4863 
L 1159 4863 
L 1159 2956 
Q 1366 3272 1645 3428 
Q 1925 3584 2291 3584 
Q 2894 3584 3203 3211 
Q 3513 2838 3513 2113 
z
" transform="scale(0.015625)"/>
      </defs>
      <use xlink:href="#DejaVuSans-51"/>
      <use xlink:href="#DejaVuSans-52" transform="translate(63.375 0)"/>
      <use xlink:href="#DejaVuSans-55" transform="translate(124.5625 0)"/>
      <use xlink:href="#DejaVuSans-57" transform="translate(165.671875 0)"/>
      <use xlink:href="#DejaVuSans-4b" transform="translate(204.875 0)"/>
      <use xlink:href="#DejaVuSans-3" transform="translate(268.25 0)"/>
      <use xlink:href="#DejaVuSans-3e" transform="translate(300.03125 0)"/>
      <use xlink:href="#DejaVuSans-50" transform="translate(339.046875 0)"/>
      <use xlink:href="#DejaVuSans-40" transform="translate(436.453125 0)"/>
     </g>
    </g>
   </g>
   <g id="line2d_27">
    <path d="M 344.612872 173.690019 
L 342.272857 170.393657 
L 339.641396 167.20944 
L 336.73235 164.128996 
L 333.55515 161.139102 
" clip-path="url(#p1fb4fbe9b0)" style="fill: none; stroke: #0369a1; stroke-width: 1.4; stroke-linecap: square"/>
   </g>
   <g id="line2d_28">
    <path d="M 348.94168 172.710757 
L 350.787977 176.174066 
L 352.32387 179.725826 
L 353.542751 183.341578 
L 354.444441 186.990209 
L 355.036581 190.635491 
L 355.335577 194.237988 
L 355.367086 197.757186 
L 355.165988 201.153725 
L 354.775868 204.391622 
L 354.248017 207.440367 
L 353.640001 210.276799 
L 353.013854 212.886663 
L 352.433944 215.265803 
L 351.964584 217.420916 
L 351.667055 219.369988 
L 351.598266 221.141518 
L 351.810729 222.773301 
L 352.346696 224.312779 
L 353.23709 225.815019 
L 354.500206 227.340681 
L 356.140689 228.953781 
L 358.148961 230.71929 
L 360.501098 232.700653 
L 363.159199 234.957303 
L 366.072223 237.542271 
L 369.177251 240.499967 
L 372.40113 243.864199 
L 375.662432 247.656501 
L 378.873629 251.884778 
L 381.943426 256.542303 
L 384.779141 261.607055 
L 387.289062 267.041345 
L 389.384732 272.791716 
L 390.983104 278.789032 
L 392.008605 284.94874 
L 392.395144 291.171302 
L 392.088195 297.342887 
L 391.047097 303.336562 
" clip-path="url(#p1fb4fbe9b0)" style="fill: none; stroke: #0369a1; stroke-width: 1.4; stroke-linecap: square"/>
   </g>
   <g id="line2d_29">
    <path d="M 361.393613 169.076698 
L 363.084389 173.215262 
L 364.428328 177.398379 
L 365.437253 181.584614 
L 366.13274 185.730409 
L 366.546296 189.792469 
L 366.719003 193.730177 
L 366.700615 197.507919 
L 366.548177 201.097194 
L 366.324192 204.478425 
L 366.094434 207.642364 
" clip-path="url(#p1fb4fbe9b0)" style="fill: none; stroke: #0369a1; stroke-width: 1.4; stroke-linecap: square"/>
   </g>
   <g id="line2d_30">
    <path d="M 344.612872 173.690019 
L 341.872224 169.878327 
L 338.742887 166.215948 
L 335.244956 162.687742 
" clip-path="url(#p1fb4fbe9b0)" style="fill: none; stroke: #0369a1; stroke-width: 1.4; stroke-linecap: square"/>
   </g>
   <g id="line2d_31">
    <path d="M 353.15388 171.605053 
L 350.96646 167.866893 
L 348.446901 164.257595 
L 345.612049 160.786354 
L 342.479147 157.45304 
L 339.063276 154.24981 
L 335.375189 151.163997 
L 331.419869 148.182346 
" clip-path="url(#p1fb4fbe9b0)" style="fill: none; stroke: #0369a1; stroke-width: 1.4; stroke-linecap: square"/>
   </g>
   <g id="line2d_32">
    <path d="M 334.035384 152.945705 
L 331.184646 150.761293 
L 328.187552 148.625339 
" clip-path="url(#p1fb4fbe9b0)" style="fill: none; stroke: #0369a1; stroke-width: 1.4; stroke-linecap: square"/>
   </g>
   <g id="line2d_33">
    <path d="M 348.913799 147.927137 
L 345.282587 144.613821 
L 341.391697 141.445682 
L 337.251051 138.411979 
L 332.865853 135.501951 
L 328.236479 132.709131 
L 323.3595 130.036379 
L 318.230106 127.501269 
L 312.846038 125.141125 
L 307.212909 123.016708 
L 301.350388 121.213304 
L 295.298285 119.837971 
L 289.121173 119.012278 
L 282.910301 118.861299 
L 276.78361 119.504496 
L 270.883954 121.047384 
L 265.32039 123.467067 
L 260.191974 126.714932 
L 255.581914 130.717079 
L 251.552116 135.376556 
L 248.142501 140.582187 
L 245.372679 146.21728 
L 243.24472 152.166469 
L 241.746062 158.320297 
L 240.85206 164.57787 
L 240.527994 170.848177 
L 240.730622 177.050649 
L 241.40942 183.115361 
L 242.507719 188.983145 
L 243.96386 194.605698 
L 245.712481 199.945713 
" clip-path="url(#p1fb4fbe9b0)" style="fill: none; stroke: #0369a1; stroke-width: 1.4; stroke-linecap: square"/>
   </g>
   <g id="line2d_34">
    <path d="M 365.4699 167.659082 
L 343.432683 200.733945 
" clip-path="url(#p1fb4fbe9b0)" style="fill: none; stroke: #4d7c0f; stroke-width: 1.6; stroke-linecap: square"/>
   </g>
   <g id="line2d_35">
    <path d="M 343.432683 200.733945 
L 321.395466 233.808809 
" clip-path="url(#p1fb4fbe9b0)" style="fill: none; stroke: #4d7c0f; stroke-width: 1.6; stroke-linecap: square"/>
   </g>
   <g id="line2d_36">
    <path d="M 321.395466 233.808809 
L 73.894517 150.31178 
" clip-path="url(#p1fb4fbe9b0)" style="fill: none; stroke: #4d7c0f; stroke-width: 1.6; stroke-linecap: square"/>
   </g>
   <g id="line2d_37">
    <path d="M 321.395466 233.808809 
L 457.505829 401.975318 
" clip-path="url(#p1fb4fbe9b0)" style="fill: none; stroke: #4d7c0f; stroke-width: 1.6; stroke-linecap: square"/>
   </g>
   <g id="line2d_38">
    <path d="M 321.395466 233.808809 
L 179.085292 196.376638 
" clip-path="url(#p1fb4fbe9b0)" style="fill: none; stroke: #4d7c0f; stroke-width: 1.6; stroke-linecap: square"/>
   </g>
   <g id="line2d_39">
    <path d="M 343.432683 200.733945 
L 486.947358 318.870953 
" clip-path="url(#p1fb4fbe9b0)" style="fill: none; stroke: #4d7c0f; stroke-width: 1.6; stroke-linecap: square"/>
   </g>
   <g id="patch_4">
    <path d="M 53.241875 416.25285 
L 53.241875 102.14715 
" style="fill: none; stroke: #000000; stroke-width: 0.8; stroke-linejoin: miter; stroke-linecap: square"/>
   </g>
   <g id="patch_5">
    <path d="M 507.6 416.25285 
L 507.6 102.14715 
" style="fill: none; stroke: #000000; stroke-width: 0.8; stroke-linejoin: miter; stroke-linecap: square"/>
   </g>
   <g id="patch_6">
    <path d="M 53.241875 416.25285 
L 507.6 416.25285 
" style="fill: none; stroke: #000000; stroke-width: 0.8; stroke-linejoin: miter; stroke-linecap: square"/>
   </g>
   <g id="patch_7">
    <path d="M 53.241875 102.14715 
L 507.6 102.14715 
" style="fill: none; stroke: #000000; stroke-width: 0.8; stroke-linejoin: miter; stroke-linecap: square"/>
   </g>
   <g id="line2d_40">
    <path d="M 365.4699 167.659082 
L 364.532918 165.977022 
L 363.536863 164.315454 
L 362.482038 162.676917 
L 361.369001 161.063715 
L 360.198535 159.477897 
L 358.971628 157.921236 
L 357.689438 156.395213 
L 356.353264 154.90101 
L 354.964514 153.439499 
L 353.52467 152.011245 
L 352.035255 150.616504 
L 350.497798 149.255241 
L 348.913799 147.927137 
" clip-path="url(#p1fb4fbe9b0)" style="fill: none; stroke: #c2410c; stroke-width: 2; stroke-linecap: square"/>
   </g>
   <g id="line2d_41">
    <path d="M 348.913799 147.927137 
L 350.188724 149.442007 
L 351.414172 150.977644 
L 352.589271 152.533907 
L 353.713134 154.110492 
L 354.784882 155.706923 
L 355.803662 157.322547 
L 356.768661 158.956531 
L 357.679127 160.607856 
L 358.534388 162.275328 
L 359.333867 163.957572 
L 360.077099 165.653045 
L 360.763746 167.36004 
L 361.393613 169.076698 
" clip-path="url(#p1fb4fbe9b0)" style="fill: none; stroke: #c2410c; stroke-width: 2; stroke-linecap: square"/>
   </g>
   <g id="line2d_42">
    <path d="M 361.393613 169.076698 
L 360.413734 167.400924 
L 359.370676 165.749536 
L 358.265184 164.124987 
L 357.098256 162.52941 
L 355.871112 160.964592 
L 354.585147 159.431964 
L 353.241899 157.932587 
L 351.843001 156.467153 
L 350.390141 155.035985 
L 348.885016 153.639051 
L 347.32929 152.275984 
L 345.724553 150.946107 
L 344.072283 149.648474 
" clip-path="url(#p1fb4fbe9b0)" style="fill: none; stroke: #c2410c; stroke-width: 2; stroke-linecap: square"/>
   </g>
   <g id="line2d_43">
    <path d="M 344.072283 149.648474 
L 345.409733 151.128604 
L 346.697029 152.628716 
L 347.933347 154.149043 
L 349.117801 155.689674 
L 350.249467 157.250529 
L 351.327398 158.831347 
L 352.35065 160.431669 
L 353.318302 162.050836 
L 354.229475 163.68798 
L 355.08336 165.342021 
L 355.879234 167.011673 
L 356.616483 168.695446 
L 357.294621 170.391652 
" clip-path="url(#p1fb4fbe9b0)" style="fill: none; stroke: #c2410c; stroke-width: 2; stroke-linecap: square"/>
   </g>
   <g id="line2d_44">
    <path d="M 357.294621 170.391652 
L 356.261882 168.73097 
L 355.162391 167.098755 
L 353.997414 165.497154 
L 352.768446 163.927886 
L 351.477159 162.392233 
L 350.125349 160.89103 
L 348.714882 159.424674 
L 347.247641 157.993132 
L 345.725467 156.59597 
L 344.150112 155.232387 
L 342.523187 153.90126 
L 340.846118 152.601209 
L 339.120107 151.330663 
" clip-path="url(#p1fb4fbe9b0)" style="fill: none; stroke: #c2410c; stroke-width: 2; stroke-linecap: square"/>
   </g>
   <g id="line2d_45">
    <path d="M 339.120107 151.330663 
L 340.523881 152.777884 
L 341.8766 154.243049 
L 343.17765 155.726728 
L 344.426301 157.229396 
L 345.621721 158.751407 
L 346.763002 160.292959 
L 347.849176 161.854067 
L 348.879244 163.434543 
L 349.852198 165.033981 
L 350.767048 166.651744 
L 351.622847 168.28696 
L 352.418719 169.938514 
L 353.15388 171.605053 
" clip-path="url(#p1fb4fbe9b0)" style="fill: none; stroke: #c2410c; stroke-width: 2; stroke-linecap: square"/>
   </g>
   <g id="line2d_46">
    <path d="M 353.15388 171.605053 
L 352.057962 169.969922 
L 350.892602 168.367006 
L 349.659615 166.797831 
L 348.360971 165.26339 
L 346.998731 163.764149 
L 345.574973 162.300061 
L 344.091729 160.8706 
L 342.550918 159.474804 
L 340.954283 158.111338 
L 339.303336 156.778567 
L 337.599314 155.474654 
L 335.843135 154.197666 
L 334.035384 152.945705 
" clip-path="url(#p1fb4fbe9b0)" style="fill: none; stroke: #c2410c; stroke-width: 2; stroke-linecap: square"/>
   </g>
   <g id="line2d_47">
    <path d="M 334.035384 152.945705 
L 335.51028 154.365111 
L 336.93251 155.799374 
L 338.301868 157.249157 
L 339.61798 158.715163 
L 340.880317 160.198078 
L 342.088205 161.698519 
L 343.240841 163.216985 
L 344.337321 164.753818 
L 345.376659 166.30917 
L 346.357819 167.882975 
L 347.27974 169.474927 
L 348.141366 171.084464 
L 348.94168 172.710757 
" clip-path="url(#p1fb4fbe9b0)" style="fill: none; stroke: #c2410c; stroke-width: 2; stroke-linecap: square"/>
   </g>
   <g id="line2d_48">
    <path d="M 348.94168 172.710757 
L 347.772409 171.112617 
L 346.532214 169.54922 
L 345.223362 168.02108 
L 343.84814 166.528105 
L 342.408773 165.069631 
L 340.907342 163.644486 
L 339.345705 162.251065 
L 337.725436 160.887434 
L 336.047762 159.551444 
L 334.313524 158.240886 
L 332.523155 156.953645 
L 330.676673 155.687895 
L 328.773707 154.442294 
" clip-path="url(#p1fb4fbe9b0)" style="fill: none; stroke: #c2410c; stroke-width: 2; stroke-linecap: square"/>
   </g>
   <g id="line2d_49">
    <path d="M 328.773707 154.442294 
L 330.327211 155.84032 
L 331.825195 157.250208 
L 333.26801 158.672136 
L 334.655834 160.106555 
L 335.988661 161.554108 
L 337.266296 163.015548 
L 338.488358 164.491665 
L 339.654291 165.983216 
L 340.763382 167.490869 
L 341.814783 169.015151 
L 342.807532 170.556401 
L 343.740591 172.114735 
L 344.612872 173.690019 
" clip-path="url(#p1fb4fbe9b0)" style="fill: none; stroke: #c2410c; stroke-width: 2; stroke-linecap: square"/>
   </g>
   <g id="text_18">
    <!-- openpit-b2026-4 — switchback, 10 benches, 7 shovels, 4 dumps, seed 2020576652 -->
    <g transform="translate(70.296719 96.14715) scale(0.1 -0.1)">
     <defs>
      <path id="DejaVuSans-53" d="M 1159 525 
L 1159 -1331 
L 581 -1331 
L 581 3500 
L 1159 3500 
L 1159 2969 
Q 1341 3281 1617 3432 
Q 1894 3584 2278 3584 
Q 2916 3584 3314 3078 
Q 3713 2572 3713 1747 
Q 3713 922 3314 415 
Q 2916 -91 2278 -91 
Q 1894 -91 1617 61 
Q 1341 213 1159 525 
z
M 3116 1747 
Q 3116 2381 2855 2742 
Q 2594 3103 2138 3103 
Q 1681 3103 1420 2742 
Q 1159 2381 1159 1747 
Q 1159 1113 1420 752 
Q 1681 391 2138 391 
Q 2594 391 2855 752 
Q 3116 1113 3116 1747 
z
" transform="scale(0.015625)"/>
      <path id="DejaVuSans-4c" d="M 603 3500 
L 1178 3500 
L 1178 0 
L 603 0 
L 603 3500 
z
M 603 4863 
L 1178 4863 
L 1178 4134 
L 603 4134 
L 603 4863 
z
" transform="scale(0.015625)"/>
      <path id="DejaVuSans-10" d="M 313 2009 
L 1997 2009 
L 1997 1497 
L 313 1497 
L 313 2009 
z
" transform="scale(0.015625)"/>
      <path id="DejaVuSans-45" d="M 3116 1747 
Q 3116 2381 2855 2742 
Q 2594 3103 2138 3103 
Q 1681 3103 1420 2742 
Q 1159 2381 1159 1747 
Q 1159 1113 1420 752 
Q 1681 391 2138 391 
Q 2594 391 2855 752 
Q 3116 1113 3116 1747 
z
M 1159 2969 
Q 1341 3281 1617 3432 
Q 1894 3584 2278 3584 
Q 2916 3584 3314 3078 
Q 3713 2572 3713 1747 
Q 3713 922 3314 415 
Q 2916 -91 2278 -91 
Q 1894 -91 1617 61 
Q 1341 213 1159 525 
L 1159 0 
L 581 0 
L 581 4863 
L 1159 4863 
L 1159 2969 
z
" transform="scale(0.015625)"/>
      <path id="DejaVuSans-19" d="M 2113 2584 
Q 1688 2584 1439 2293 
Q 1191 2003 1191 1497 
Q 1191 994 1439 701 
Q 1688 409 2113 409 
Q 2538 409 2786 701 
Q 3034 994 3034 1497 
Q 3034 2003 2786 2293 
Q 2538 2584 2113 2584 
z
M 3366 4563 
L 3366 3988 
Q 3128 4100 2886 4159 
Q 2644 4219 2406 4219 
Q 1781 4219 1451 3797 
Q 1122 3375 1075 2522 
Q 1259 2794 1537 2939 
Q 1816 3084 2150 3084 
Q 2853 3084 3261 2657 
Q 3669 2231 3669 1497 
Q 3669 778 3244 343 
Q 2819 -91 2113 -91 
Q 1303 -91 875 529 
Q 447 1150 447 2328 
Q 447 3434 972 4092 
Q 1497 4750 2381 4750 
Q 2619 4750 2861 4703 
Q 3103 4656 3366 4563 
z
" transform="scale(0.015625)"/>
      <path id="DejaVuSans-17" d="M 2419 4116 
L 825 1625 
L 2419 1625 
L 2419 4116 
z
M 2253 4666 
L 3047 4666 
L 3047 1625 
L 3713 1625 
L 3713 1100 
L 3047 1100 
L 3047 0 
L 2419 0 
L 2419 1100 
L 313 1100 
L 313 1709 
L 2253 4666 
z
" transform="scale(0.015625)"/>
      <path id="DejaVuSans-af6" d="M 313 1978 
L 6088 1978 
L 6088 1528 
L 313 1528 
L 313 1978 
z
" transform="scale(0.015625)"/>
      <path id="DejaVuSans-5a" d="M 269 3500 
L 844 3500 
L 1563 769 
L 2278 3500 
L 2956 3500 
L 3675 769 
L 4391 3500 
L 4966 3500 
L 4050 0 
L 3372 0 
L 2619 2869 
L 1863 0 
L 1184 0 
L 269 3500 
z
" transform="scale(0.015625)"/>
      <path id="DejaVuSans-46" d="M 3122 3366 
L 3122 2828 
Q 2878 2963 2633 3030 
Q 2388 3097 2138 3097 
Q 1578 3097 1268 2742 
Q 959 2388 959 1747 
Q 959 1106 1268 751 
Q 1578 397 2138 397 
Q 2388 397 2633 464 
Q 2878 531 3122 666 
L 3122 134 
Q 2881 22 2623 -34 
Q 2366 -91 2075 -91 
Q 1284 -91 818 406 
Q 353 903 353 1747 
Q 353 2603 823 3093 
Q 1294 3584 2113 3584 
Q 2378 3584 2631 3529 
Q 2884 3475 3122 3366 
z
" transform="scale(0.015625)"/>
      <path id="DejaVuSans-4e" d="M 581 4863 
L 1159 4863 
L 1159 1991 
L 2875 3500 
L 3609 3500 
L 1753 1863 
L 3688 0 
L 2938 0 
L 1159 1709 
L 1159 0 
L 581 0 
L 581 4863 
z
" transform="scale(0.015625)"/>
      <path id="DejaVuSans-f" d="M 750 794 
L 1409 794 
L 1409 256 
L 897 -744 
L 494 -744 
L 750 256 
L 750 794 
z
" transform="scale(0.015625)"/>
      <path id="DejaVuSans-59" d="M 191 3500 
L 800 3500 
L 1894 563 
L 2988 3500 
L 3597 3500 
L 2284 0 
L 1503 0 
L 191 3500 
z
" transform="scale(0.015625)"/>
      <path id="DejaVuSans-4f" d="M 603 4863 
L 1178 4863 
L 1178 0 
L 603 0 
L 603 4863 
z
" transform="scale(0.015625)"/>
      <path id="DejaVuSans-47" d="M 2906 2969 
L 2906 4863 
L 3481 4863 
L 3481 0 
L 2906 0 
L 2906 525 
Q 2725 213 2448 61 
Q 2172 -91 1784 -91 
Q 1150 -91 751 415 
Q 353 922 353 1747 
Q 353 2572 751 3078 
Q 1150 3584 1784 3584 
Q 2172 3584 2448 3432 
Q 2725 3281 2906 2969 
z
M 947 1747 
Q 947 1113 1208 752 
Q 1469 391 1925 391 
Q 2381 391 2643 752 
Q 2906 1113 2906 1747 
Q 2906 2381 2643 2742 
Q 2381 3103 1925 3103 
Q 1469 3103 1208 2742 
Q 947 2381 947 1747 
z
" transform="scale(0.015625)"/>
      <path id="DejaVuSans-58" d="M 544 1381 
L 544 3500 
L 1119 3500 
L 1119 1403 
Q 1119 906 1312 657 
Q 1506 409 1894 409 
Q 2359 409 2629 706 
Q 2900 1003 2900 1516 
L 2900 3500 
L 3475 3500 
L 3475 0 
L 2900 0 
L 2900 538 
Q 2691 219 2414 64 
Q 2138 -91 1772 -91 
Q 1169 -91 856 284 
Q 544 659 544 1381 
z
M 1991 3584 
L 1991 3584 
z
" transform="scale(0.015625)"/>
     </defs>
     <use xlink:href="#DejaVuSans-52"/>
     <use xlink:href="#DejaVuSans-53" transform="translate(61.1875 0)"/>
     <use xlink:href="#DejaVuSans-48" transform="translate(124.671875 0)"/>
     <use xlink:href="#DejaVuSans-51" transform="translate(186.203125 0)"/>
     <use xlink:href="#DejaVuSans-53" transform="translate(249.578125 0)"/>
     <use xlink:href="#DejaVuSans-4c" transform="translate(313.0625 0)"/>
     <use xlink:href="#DejaVuSans-57" transform="translate(340.84375 0)"/>
     <use xlink:href="#DejaVuSans-10" transform="translate(380.046875 0)"/>
     <use xlink:href="#DejaVuSans-45" transform="translate(416.125 0)"/>
     <use xlink:href="#DejaVuSans-15" transform="translate(479.609375 0)"/>
     <use xlink:href="#DejaVuSans-13" transform="translate(543.234375 0)"/>
     <use xlink:href="#DejaVuSans-15" transform="translate(606.859375 0)"/>
     <use xlink:href="#DejaVuSans-19" transform="translate(670.484375 0)"/>
     <use xlink:href="#DejaVuSans-10" transform="translate(734.109375 0)"/>
     <use xlink:href="#DejaVuSans-17" transform="translate(770.1875 0)"/>
     <use xlink:href="#DejaVuSans-3" transform="translate(833.8125 0)"/>
     <use xlink:href="#DejaVuSans-af6" transform="translate(865.59375 0)"/>
     <use xlink:href="#DejaVuSans-3" transform="translate(965.59375 0)"/>
     <use xlink:href="#DejaVuSans-56" transform="translate(997.375 0)"/>
     <use xlink:href="#DejaVuSans-5a" transform="translate(1049.46875 0)"/>
     <use xlink:href="#DejaVuSans-4c" transform="translate(1131.25 0)"/>
     <use xlink:href="#DejaVuSans-57" transform="translate(1159.03125 0)"/>
     <use xlink:href="#DejaVuSans-46" transform="translate(1198.234375 0)"/>
     <use xlink:href="#DejaVuSans-4b" transform="translate(1253.21875 0)"/>
     <use xlink:href="#DejaVuSans-45" transform="translate(1316.59375 0)"/>
     <use xlink:href="#DejaVuSans-44" transform="translate(1380.078125 0)"/>
     <use xlink:href="#DejaVuSans-46" transform="translate(1441.359375 0)"/>
     <use xlink:href="#DejaVuSans-4e" transform="translate(1496.34375 0)"/>
     <use xlink:href="#DejaVuSans-f" transform="translate(1554.25 0)"/>
     <use xlink:href="#DejaVuSans-3" transform="translate(1586.03125 0)"/>
     <use xlink:href="#DejaVuSans-14" transform="translate(1617.8125 0)"/>
     <use xlink:href="#DejaVuSans-13" transform="translate(1681.4375 0)"/>
     <use xlink:href="#DejaVuSans-3" transform="translate(1745.0625 0)"/>
     <use xlink:href="#DejaVuSans-45" transform="translate(1776.84375 0)"/>
     <use xlink:href="#DejaVuSans-48" transform="translate(1840.328125 0)"/>
     <use xlink:href="#DejaVuSans-51" transform="translate(1901.859375 0)"/>
     <use xlink:href="#DejaVuSans-46" transform="translate(1965.234375 0)"/>
     <use xlink:href="#DejaVuSans-4b" transform="translate(2020.21875 0)"/>
     <use xlink:href="#DejaVuSans-48" transform="translate(2083.59375 0)"/>
     <use xlink:href="#DejaVuSans-56" transform="translate(2145.125 0)"/>
     <use xlink:href="#DejaVuSans-f" transform="translate(2197.21875 0)"/>
     <use xlink:href="#DejaVuSans-3" transform="translate(2229 0)"/>
     <use xlink:href="#DejaVuSans-1a" transform="translate(2260.78125 0)"/>
     <use xlink:href="#DejaVuSans-3" transform="translate(2324.40625 0)"/>
     <use xlink:href="#DejaVuSans-56" transform="translate(2356.1875 0)"/>
     <use xlink:href="#DejaVuSans-4b" transform="translate(2408.28125 0)"/>
     <use xlink:href="#DejaVuSans-52" transform="translate(2471.65625 0)"/>
     <use xlink:href="#DejaVuSans-59" transform="translate(2532.84375 0)"/>
     <use xlink:href="#DejaVuSans-48" transform="translate(2592.03125 0)"/>
     <use xlink:href="#DejaVuSans-4f" transform="translate(2653.5625 0)"/>
     <use xlink:href="#DejaVuSans-56" transform="translate(2681.34375 0)"/>
     <use xlink:href="#DejaVuSans-f" transform="translate(2733.4375 0)"/>
     <use xlink:href="#DejaVuSans-3" transform="translate(2765.21875 0)"/>
     <use xlink:href="#DejaVuSans-17" transform="translate(2797 0)"/>
     <use xlink:href="#DejaVuSans-3" transform="translate(2860.625 0)"/>
     <use xlink:href="#DejaVuSans-47" transform="translate(2892.40625 0)"/>
     <use xlink:href="#DejaVuSans-58" transform="translate(2955.890625 0)"/>
     <use xlink:href="#DejaVuSans-50" transform="translate(3019.265625 0)"/>
     <use xlink:href="#DejaVuSans-53" transform="translate(3116.671875 0)"/>
     <use xlink:href="#DejaVuSans-56" transform="translate(3180.15625 0)"/>
     <use xlink:href="#DejaVuSans-f" transform="translate(3232.25 0)"/>
     <use xlink:href="#DejaVuSans-3" transform="translate(3264.03125 0)"/>
     <use xlink:href="#DejaVuSans-56" transform="translate(3295.8125 0)"/>
     <use xlink:href="#DejaVuSans-48" transform="translate(3347.90625 0)"/>
     <use xlink:href="#DejaVuSans-48" transform="translate(3409.4375 0)"/>
     <use xlink:href="#DejaVuSans-47" transform="translate(3470.96875 0)"/>
     <use xlink:href="#DejaVuSans-3" transform="translate(3534.453125 0)"/>
     <use xlink:href="#DejaVuSans-15" transform="translate(3566.234375 0)"/>
     <use xlink:href="#DejaVuSans-13" transform="translate(3629.859375 0)"/>
     <use xlink:href="#DejaVuSans-15" transform="translate(3693.484375 0)"/>
     <use xlink:href="#DejaVuSans-13" transform="translate(3757.109375 0)"/>
     <use xlink:href="#DejaVuSans-18" transform="translate(3820.734375 0)"/>
     <use xlink:href="#DejaVuSans-1a" transform="translate(3884.359375 0)"/>
     <use xlink:href="#DejaVuSans-19" transform="translate(3947.984375 0)"/>
     <use xlink:href="#DejaVuSans-19" transform="translate(4011.609375 0)"/>
     <use xlink:href="#DejaVuSans-18" transform="translate(4075.234375 0)"/>
     <use xlink:href="#DejaVuSans-15" transform="translate(4138.859375 0)"/>
    </g>
   </g>
   <g id="PathCollection_1">
    <defs>
     <path id="m526c3326e8" d="M 0 5 
L 5 0 
L 0 -5 
L -5 0 
z
" style="stroke: #7c3aed"/>
    </defs>
    <g clip-path="url(#p1fb4fbe9b0)">
     <use xlink:href="#m526c3326e8" x="365.4699" y="167.659082" style="fill: #7c3aed; stroke: #7c3aed"/>
    </g>
   </g>
   <g id="PathCollection_2">
    <defs>
     <path id="mbe599b574d" d="M 0 -4.743416 
L -4.743416 4.743416 
L 4.743416 4.743416 
z
" style="stroke: #111827"/>
    </defs>
    <g clip-path="url(#p1fb4fbe9b0)">
     <use xlink:href="#mbe599b574d" x="333.55515" y="161.139102" style="fill: #111827; stroke: #111827"/>
    </g>
   </g>
   <g id="PathCollection_3">
    <g clip-path="url(#p1fb4fbe9b0)">
     <use xlink:href="#mbe599b574d" x="391.047097" y="303.336562" style="fill: #111827; stroke: #111827"/>
    </g>
   </g>
   <g id="PathCollection_4">
    <g clip-path="url(#p1fb4fbe9b0)">
     <use xlink:href="#mbe599b574d" x="366.094434" y="207.642364" style="fill: #111827; stroke: #111827"/>
    </g>
   </g>
   <g id="PathCollection_5">
    <g clip-path="url(#p1fb4fbe9b0)">
     <use xlink:href="#mbe599b574d" x="335.244956" y="162.687742" style="fill: #111827; stroke: #111827"/>
    </g>
   </g>
   <g id="PathCollection_6">
    <g clip-path="url(#p1fb4fbe9b0)">
     <use xlink:href="#mbe599b574d" x="331.419869" y="148.182346" style="fill: #111827; stroke: #111827"/>
    </g>
   </g>
   <g id="PathCollection_7">
    <g clip-path="url(#p1fb4fbe9b0)">
     <use xlink:href="#mbe599b574d" x="328.187552" y="148.625339" style="fill: #111827; stroke: #111827"/>
    </g>
   </g>
   <g id="PathCollection_8">
    <g clip-path="url(#p1fb4fbe9b0)">
     <use xlink:href="#mbe599b574d" x="245.712481" y="199.945713" style="fill: #111827; stroke: #111827"/>
    </g>
   </g>
   <g id="PathCollection_9">
    <defs>
     <path id="m01495290c7" d="M -4.472136 4.472136 
L 4.472136 4.472136 
L 4.472136 -4.472136 
L -4.472136 -4.472136 
z
" style="stroke: #1d4ed8"/>
    </defs>
    <g clip-path="url(#p1fb4fbe9b0)">
     <use xlink:href="#m01495290c7" x="73.894517" y="150.31178" style="fill: #1d4ed8; stroke: #1d4ed8"/>
    </g>
   </g>
   <g id="PathCollection_10">
    <defs>
     <path id="mbc9f0161ba" d="M -2.236068 4.472136 
L 0 2.236068 
L 2.236068 4.472136 
L 4.472136 2.236068 
L 2.236068 0 
L 4.472136 -2.236068 
L 2.236068 -4.472136 
L 0 -2.236068 
L -2.236068 -4.472136 
L -4.472136 -2.236068 
L -2.236068 0 
L -4.472136 2.236068 
z
" style="stroke: #a16207"/>
    </defs>
    <g clip-path="url(#p1fb4fbe9b0)">
     <use xlink:href="#mbc9f0161ba" x="457.505829" y="401.975318" style="fill: #a16207; stroke: #a16207"/>
    </g>
   </g>
   <g id="PathCollection_11">
    <g clip-path="url(#p1fb4fbe9b0)">
     <use xlink:href="#mbc9f0161ba" x="179.085292" y="196.376638" style="fill: #a16207; stroke: #a16207"/>
    </g>
   </g>
   <g id="PathCollection_12">
    <g clip-path="url(#p1fb4fbe9b0)">
     <use xlink:href="#mbc9f0161ba" x="486.947358" y="318.870953" style="fill: #a16207; stroke: #a16207"/>
    </g>
   </g>
   <g id="PathCollection_13">
    <defs>
     <path id="m6473816301" d="M 0 2.645751 
C 0.701661 2.645751 1.374679 2.366978 1.870829 1.870829 
C 2.366978 1.374679 2.645751 0.701661 2.645751 0 
C 2.645751 -0.701661 2.366978 -1.374679 1.870829 -1.870829 
C 1.374679 -2.366978 0.701661 -2.645751 0 -2.645751 
C -0.701661 -2.645751 -1.374679 -2.366978 -1.870829 -1.870829 
C -2.366978 -1.374679 -2.645751 -0.701661 -2.645751 0 
C -2.645751 0.701661 -2.366978 1.374679 -1.870829 1.870829 
C -1.374679 2.366978 -0.701661 2.645751 0 2.645751 
z
" style="stroke: #4d7c0f"/>
    </defs>
    <g clip-path="url(#p1fb4fbe9b0)">
     <use xlink:href="#m6473816301" x="343.432683" y="200.733945" style="fill: #4d7c0f; stroke: #4d7c0f"/>
    </g>
   </g>
   <g id="PathCollection_14">
    <g clip-path="url(#p1fb4fbe9b0)">
     <use xlink:href="#m6473816301" x="321.395466" y="233.808809" style="fill: #4d7c0f; stroke: #4d7c0f"/>
    </g>
   </g>
   <g id="text_19">
    <!-- 1 -->
    <g transform="translate(339.55515 155.139102) scale(0.08 -0.08)">
     <defs>
      <path id="DejaVuSans-Bold-14" d="M 750 831 
L 1813 831 
L 1813 3847 
L 722 3622 
L 722 4441 
L 1806 4666 
L 2950 4666 
L 2950 831 
L 4013 831 
L 4013 0 
L 750 0 
L 750 831 
z
" transform="scale(0.015625)"/>
     </defs>
     <use xlink:href="#DejaVuSans-Bold-14"/>
    </g>
   </g>
   <g id="text_20">
    <!-- 2 -->
    <g transform="translate(397.047097 297.336562) scale(0.08 -0.08)">
     <defs>
      <path id="DejaVuSans-Bold-15" d="M 1844 884 
L 3897 884 
L 3897 0 
L 506 0 
L 506 884 
L 2209 2388 
Q 2438 2594 2547 2791 
Q 2656 2988 2656 3200 
Q 2656 3528 2436 3728 
Q 2216 3928 1850 3928 
Q 1569 3928 1234 3808 
Q 900 3688 519 3450 
L 519 4475 
Q 925 4609 1322 4679 
Q 1719 4750 2100 4750 
Q 2938 4750 3402 4381 
Q 3866 4013 3866 3353 
Q 3866 2972 3669 2642 
Q 3472 2313 2841 1759 
L 1844 884 
z
" transform="scale(0.015625)"/>
     </defs>
     <use xlink:href="#DejaVuSans-Bold-15"/>
    </g>
   </g>
   <g id="text_21">
    <!-- 3 -->
    <g transform="translate(372.094434 201.642364) scale(0.08 -0.08)">
     <defs>
      <path id="DejaVuSans-Bold-16" d="M 2981 2516 
Q 3453 2394 3698 2092 
Q 3944 1791 3944 1325 
Q 3944 631 3412 270 
Q 2881 -91 1863 -91 
Q 1503 -91 1142 -33 
Q 781 25 428 141 
L 428 1069 
Q 766 900 1098 814 
Q 1431 728 1753 728 
Q 2231 728 2486 893 
Q 2741 1059 2741 1369 
Q 2741 1688 2480 1852 
Q 2219 2016 1709 2016 
L 1228 2016 
L 1228 2791 
L 1734 2791 
Q 2188 2791 2409 2933 
Q 2631 3075 2631 3366 
Q 2631 3634 2415 3781 
Q 2200 3928 1806 3928 
Q 1516 3928 1219 3862 
Q 922 3797 628 3669 
L 628 4550 
Q 984 4650 1334 4700 
Q 1684 4750 2022 4750 
Q 2931 4750 3382 4451 
Q 3834 4153 3834 3553 
Q 3834 3144 3618 2883 
Q 3403 2622 2981 2516 
z
" transform="scale(0.015625)"/>
     </defs>
     <use xlink:href="#DejaVuSans-Bold-16"/>
    </g>
   </g>
   <g id="text_22">
    <!-- 4 -->
    <g transform="translate(341.244956 156.687742) scale(0.08 -0.08)">
     <defs>
      <path id="DejaVuSans-Bold-17" d="M 2356 3675 
L 1038 1722 
L 2356 1722 
L 2356 3675 
z
M 2156 4666 
L 3494 4666 
L 3494 1722 
L 4159 1722 
L 4159 850 
L 3494 850 
L 3494 0 
L 2356 0 
L 2356 850 
L 288 850 
L 288 1881 
L 2156 4666 
z
" transform="scale(0.015625)"/>
     </defs>
     <use xlink:href="#DejaVuSans-Bold-17"/>
    </g>
   </g>
   <g id="text_23">
    <!-- 5 -->
    <g transform="translate(337.419869 142.182346) scale(0.08 -0.08)">
     <defs>
      <path id="DejaVuSans-Bold-18" d="M 678 4666 
L 3669 4666 
L 3669 3781 
L 1638 3781 
L 1638 3059 
Q 1775 3097 1914 3117 
Q 2053 3138 2203 3138 
Q 3056 3138 3531 2711 
Q 4006 2284 4006 1522 
Q 4006 766 3489 337 
Q 2972 -91 2053 -91 
Q 1656 -91 1267 -14 
Q 878 63 494 219 
L 494 1166 
Q 875 947 1217 837 
Q 1559 728 1863 728 
Q 2300 728 2551 942 
Q 2803 1156 2803 1522 
Q 2803 1891 2551 2103 
Q 2300 2316 1863 2316 
Q 1603 2316 1309 2248 
Q 1016 2181 678 2041 
L 678 4666 
z
" transform="scale(0.015625)"/>
     </defs>
     <use xlink:href="#DejaVuSans-Bold-18"/>
    </g>
   </g>
   <g id="text_24">
    <!-- 6 -->
    <g transform="translate(334.187552 142.625339) scale(0.08 -0.08)">
     <defs>
      <path id="DejaVuSans-Bold-19" d="M 2316 2303 
Q 2000 2303 1842 2098 
Q 1684 1894 1684 1484 
Q 1684 1075 1842 870 
Q 2000 666 2316 666 
Q 2634 666 2792 870 
Q 2950 1075 2950 1484 
Q 2950 1894 2792 2098 
Q 2634 2303 2316 2303 
z
M 3803 4544 
L 3803 3681 
Q 3506 3822 3243 3889 
Q 2981 3956 2731 3956 
Q 2194 3956 1894 3657 
Q 1594 3359 1544 2772 
Q 1750 2925 1990 3001 
Q 2231 3078 2516 3078 
Q 3231 3078 3670 2659 
Q 4109 2241 4109 1563 
Q 4109 813 3618 361 
Q 3128 -91 2303 -91 
Q 1394 -91 895 523 
Q 397 1138 397 2266 
Q 397 3422 980 4083 
Q 1563 4744 2578 4744 
Q 2900 4744 3203 4694 
Q 3506 4644 3803 4544 
z
" transform="scale(0.015625)"/>
     </defs>
     <use xlink:href="#DejaVuSans-Bold-19"/>
    </g>
   </g>
   <g id="text_25">
    <!-- 7 -->
    <g transform="translate(251.712481 193.945713) scale(0.08 -0.08)">
     <defs>
      <path id="DejaVuSans-Bold-1a" d="M 428 4666 
L 3944 4666 
L 3944 3988 
L 2125 0 
L 953 0 
L 2675 3781 
L 428 3781 
L 428 4666 
z
" transform="scale(0.015625)"/>
     </defs>
     <use xlink:href="#DejaVuSans-Bold-1a"/>
    </g>
   </g>
  </g>
 </g>
 <defs>
  <clipPath id="p1fb4fbe9b0">
   <rect x="53.241875" y="102.14715" width="454.358125" height="314.1057"/>
  </clipPath>
 </defs>
</svg>
