<?xml version="1.0" encoding="utf-8" standalone="no"?>
<!DOCTYPE svg PUBLIC "-//W3C//DTD SVG 1.1//EN"
  "http://www.w3.org/Graphics/SVG/1.1/DTD/svg11.dtd">
<svg xmlns:xlink="http://www.w3.org/1999/xlink" width="518.4pt" height="518.4pt" viewBox="0 0 518.4 518.4" xmlns="http://www.w3.org/2000/svg" version="1.1">
 <metadata>
  <rdf:RDF xmlns:dc="http://purl.org/dc/elements/1.1/" xmlns:cc="http://creativecommons.org/ns#" xmlns:rdf="http://www.w3.org/1999/02/22-rdf-syntax-ns#">
   <cc:Work>
    <dc:type rdf:resource="http://purl.org/dc/dcmitype/StillImage"/>
    <dc:date>2026-07-02T08:06:06.946009</dc:date>
    <dc:format>image/svg+xml</dc:format>
    <dc:creator>
     <cc:Agent>
      <dc:title>Matplotlib v3.11.0, https://matplotlib.org/</dc:title>
     </cc:Agent>
    </dc:creator>
   </cc:Work>
  </rdf:RDF>
 </metadata>
 <defs>
  <style type="text/css">*{stroke-linejoin: round; stroke-linecap: butt}</style>
 </defs>
 <g id="figure_1">
  <g id="patch_1">
   <path d="M 0 518.4 
L 518.4 518.4 
L 518.4 0 
L 0 0 
z
" style="fill: #ffffff"/>
  </g>
  <g id="axes_1">
   <g id="patch_2">
    <path d="M 89.446958 481.6 
L 428.953042 481.6 
L 428.953042 24.72 
L 89.446958 24.72 
z
" style="fill: #ffffff"/>
   </g>
   <g id="patch_3">
    <path d="M 345.453652 205.676549 
L 344.997762 205.110076 
L 344.572407 204.563892 
L 344.181359 204.03483 
L 343.827843 203.519432 
L 343.51455 203.014002 
L 343.243638 202.514656 
L 343.01673 202.017368 
L 342.834904 201.518019 
L 342.698693 201.012453 
L 342.608085 200.496519 
L 342.562524 199.966125 
L 342.560923 199.417287 
L 342.601672 198.846177 
L 342.682659 198.249167 
L 342.801288 197.622879 
L 342.954508 196.964223 
L 343.138842 196.270438 
L 343.350421 195.539128 
L 343.585019 194.768298 
L 343.838098 193.95638 
L 344.104848 193.102262 
L 344.380234 192.205306 
L 344.659044 191.265365 
L 344.935937 190.282797 
L 345.205498 189.258473 
L 345.462284 188.193776 
L 345.70088 187.090599 
L 345.915947 185.951343 
L 346.102274 184.778897 
L 346.254827 183.576629 
L 346.368799 182.348357 
L 346.439652 181.098329 
L 346.463163 179.831192 
L 346.435464 178.551955 
L 346.353077 177.265954 
L 346.212953 175.97881 
L 346.012497 174.696384 
L 345.749597 173.424732 
L 345.422643 172.170051 
L 345.030549 170.938631 
L 344.572761 169.736798 
L 344.049267 168.570861 
L 343.460602 167.447053 
L 342.807839 166.371472 
L 342.092592 165.350025 
L 341.316995 164.388369 
L 340.483687 163.49185 
L 339.59579 162.665448 
L 338.656877 161.913721 
L 337.67094 161.240751 
L 336.642351 160.650096 
L 335.57581 160.144747 
L 334.476301 159.72709 
L 333.349031 159.398888 
L 332.199374 159.161266 
L 331.032802 159.01473 
L 329.854826 158.959211 
L 328.670927 158.994164 
L 327.486497 159.118773 
L 326.30679 159.332364 
L 325.136887 159.635505 
L 323.981576 160.036702 
L 322.846525 160.543288 
L 321.737911 161.122047 
L 320.659155 161.754807 
L 319.612196 162.427649 
L 318.597813 163.128324 
L 317.612729 163.816768 
L 316.651344 164.465195 
L 315.708847 165.068586 
L 314.780327 165.624126 
L 313.860991 166.131056 
L 312.946364 166.590487 
L 312.032453 167.005196 
L 311.11589 167.379398 
L 310.194033 167.718515 
L 309.265043 168.028924 
L 308.327929 168.317716 
L 307.382564 168.592461 
L 306.429673 168.860975 
L 305.470803 169.131112 
L 304.508263 169.410572 
L 303.545058 169.706721 
L 302.584798 170.026448 
L 301.631604 170.376028 
L 300.690002 170.761027 
L 299.764811 171.186211 
L 298.861035 171.655493 
L 297.983744 172.171893 
L 297.13797 172.737521 
L 296.328598 173.353579 
L 295.560268 174.020383 
L 294.837284 174.737394 
L 294.163532 175.50327 
L 293.542407 176.315928 
L 292.976753 177.172612 
L 292.468816 178.069978 
L 292.020205 179.004176 
L 291.631869 179.97094 
L 291.304085 180.965685 
L 291.036461 181.983599 
L 290.82794 183.019735 
L 290.676834 184.069106 
L 290.580848 185.126768 
L 290.537128 186.187905 
L 290.542313 187.247904 
L 290.592589 188.302426 
L 290.68376 189.347462 
L 290.811315 190.379392 
L 290.970501 191.395024 
L 291.156403 192.391626 
L 291.364018 193.366955 
L 291.588335 194.319266 
L 291.824407 195.24732 
L 292.067432 196.150379 
L 292.312817 197.028189 
L 292.556245 197.880963 
L 292.800979 198.711076 
L 293.066209 199.523853 
L 293.350169 200.318655 
L 293.649382 201.0947 
L 293.960374 201.851507 
L 294.279744 202.588899 
L 294.604264 203.307002 
L 294.931103 204.006234 
L 295.259094 204.6873 
L 295.585045 205.350949 
L 295.903098 205.998231 
L 296.209365 206.63066 
L 296.500608 207.250061 
L 296.774053 207.858508 
L 297.027346 208.458291 
L 297.258537 209.051869 
L 297.466087 209.641835 
L 297.648866 210.230877 
L 297.806155 210.821739 
L 297.937651 211.41718 
L 298.043463 212.019939 
L 298.124105 212.632692 
L 298.180489 213.258016 
L 298.213913 213.898355 
L 298.226041 214.555979 
L 298.218887 215.232956 
L 298.194791 215.93112 
L 298.156389 216.652042 
L 298.106589 217.397001 
L 298.048534 218.166972 
L 297.985568 218.962594 
L 297.921203 219.784168 
L 297.859077 220.631635 
L 297.802915 221.504577 
L 297.756491 222.402209 
L 297.723584 223.323384 
L 297.707942 224.266596 
L 297.713237 225.229988 
L 297.743028 226.211372 
L 297.800726 227.208239 
L 297.889552 228.217787 
L 298.01251 229.236941 
L 298.172349 230.262385 
L 298.371542 231.290592 
L 298.612255 232.317856 
L 298.896328 233.340335 
L 299.225257 234.35408 
L 299.60018 235.355084 
L 300.02187 236.339316 
L 300.490724 237.302766 
L 301.006767 238.241486 
L 301.569655 239.151633 
L 302.178681 240.029505 
L 302.832789 240.871582 
L 303.530587 241.674563 
L 304.270373 242.4354 
L 305.050155 243.151327 
L 305.867679 243.819888 
L 306.720461 244.438956 
L 307.60582 245.006755 
L 308.520915 245.521865 
L 309.462777 245.983224 
L 310.428357 246.39013 
L 311.414554 246.742213 
L 312.418259 247.039416 
L 313.436391 247.281941 
L 314.465926 247.470186 
L 315.503927 247.604634 
L 316.547563 247.685688 
L 317.594121 247.713373 
L 318.640995 247.686699 
L 319.685666 247.6016 
L 320.725644 247.44024 
L 321.756471 247.218075 
L 322.775305 246.956324 
L 323.780936 246.666213 
L 324.773055 246.356382 
L 325.752027 246.033884 
L 326.71874 245.704504 
L 327.674469 245.372882 
L 328.620759 245.042576 
L 329.559306 244.716116 
L 330.491853 244.395054 
L 331.420089 244.080028 
L 332.345561 243.770838 
L 333.2696 243.46652 
L 334.19325 243.165446 
L 335.11722 242.865416 
L 336.041843 242.563759 
L 336.967045 242.257434 
L 337.892334 241.943131 
L 338.816794 241.617371 
L 339.739086 241.276596 
L 340.657468 240.917256 
L 341.569817 240.535896 
L 342.473655 240.129224 
L 343.366191 239.694179 
L 344.24436 239.22799 
L 345.104869 238.728226 
L 345.944244 238.192835 
L 346.758887 237.620179 
L 347.545121 237.009058 
L 348.299251 236.358729 
L 349.017613 235.66891 
L 349.696626 234.939791 
L 350.332847 234.17202 
L 350.923017 233.366697 
L 351.464109 232.525358 
L 351.953373 231.649947 
L 352.38837 230.742792 
L 352.767016 229.806572 
L 353.087608 228.844282 
L 353.348856 227.859189 
L 353.549899 226.854793 
L 353.690328 225.834781 
L 353.770197 224.802981 
L 353.790029 223.763311 
L 353.750818 222.719736 
L 353.654023 221.676212 
L 353.501566 220.636644 
L 353.295811 219.604835 
L 353.039546 218.584442 
L 352.735964 217.578933 
L 352.388629 216.591543 
L 352.001446 215.625238 
L 351.578623 214.682679 
L 351.12463 213.766189 
L 350.644155 212.877732 
L 350.142055 212.018882 
L 349.623307 211.190811 
L 349.092947 210.394272 
L 348.556012 209.629594 
L 348.017469 208.896678 
L 347.482126 208.195003 
L 346.954486 207.523632 
L 346.438303 206.881232 
L 345.935673 206.266137 
L 345.453652 205.676549 
z
" clip-path="url(#p7f017fe960)" style="fill: #e8edf2; stroke: #e8edf2; stroke-linejoin: miter"/>
   </g>
   <g id="line2d_1">
    <path d="M 363.199825 205.676549 
L 361.487893 201.773203 
L 360.499589 198.971668 
L 359.818269 196.167984 
L 359.445185 193.258446 
L 359.339356 190.147816 
L 359.472694 185.56078 
L 359.68987 179.005199 
L 359.603534 174.656361 
L 359.369408 171.621109 
L 358.949383 168.5113 
L 358.309971 165.363978 
L 357.423406 162.221906 
L 356.268776 159.132302 
L 354.832914 156.145378 
L 353.111017 153.312704 
L 351.106972 150.685457 
L 348.83336 148.312582 
L 346.311138 146.238922 
L 343.568966 144.503369 
L 340.642193 143.137148 
L 337.57147 142.162366 
L 334.401045 141.591137 
L 331.176795 141.425804 
L 327.944201 141.661893 
L 324.746552 142.307024 
L 321.628595 143.376211 
L 318.628855 144.70874 
L 311.626992 148.160359 
L 307.597987 149.822001 
L 303.573664 151.22015 
L 295.439802 153.919654 
L 292.758518 155.007392 
L 290.145438 156.27332 
L 287.641441 157.750955 
L 285.288476 159.45961 
L 283.126149 161.404128 
L 281.188693 163.575738 
L 279.502519 165.953799 
L 278.08447 168.508189 
L 276.940855 171.202107 
L 276.067245 173.995052 
L 275.449028 176.845749 
L 275.062611 179.71485 
L 274.877167 182.567247 
L 274.896437 186.752921 
L 275.156358 190.770579 
L 275.707833 195.834216 
L 276.376911 199.453906 
L 277.52504 204.031552 
L 280.447778 214.511376 
L 281.269415 218.637816 
L 281.895161 222.948866 
L 283.146901 232.476263 
L 283.887538 236.355487 
L 284.923255 240.333966 
L 285.818635 243.002574 
L 286.90112 245.651122 
L 288.185135 248.24805 
L 289.679567 250.760253 
L 291.387394 253.154378 
L 293.305595 255.398142 
L 295.42533 257.46163 
L 297.732408 259.318493 
L 300.207992 260.946967 
L 302.829535 262.330638 
L 305.571886 263.458854 
L 308.408489 264.326648 
L 311.312591 264.933953 
L 314.258321 265.283586 
L 317.221403 265.376002 
L 320.179149 265.177996 
L 323.103234 264.699467 
L 327.389437 263.704355 
L 332.927549 262.139709 
L 341.015246 259.602798 
L 346.333159 257.693158 
L 350.252894 256.01268 
L 352.801112 254.724446 
L 355.268726 253.275483 
L 357.627002 251.649104 
L 359.845236 249.83526 
L 361.892447 247.831207 
L 363.739063 245.641698 
L 365.358526 243.278727 
L 366.728728 240.760899 
L 367.833228 238.112463 
L 368.662191 235.362109 
L 369.213032 232.54156 
L 369.490719 229.684067 
L 369.507747 226.822854 
L 369.283778 223.989591 
L 368.844959 221.212968 
L 368.222946 218.517426 
L 367.025822 214.666319 
L 365.629136 211.077475 
L 363.199825 205.676549 
L 363.199825 205.676549 
" clip-path="url(#p7f017fe960)" style="fill: none; stroke: #9aa5b1; stroke-width: 0.6; stroke-linecap: square"/>
   </g>
   <g id="line2d_2">
    <path d="M 361.425208 205.676549 
L 359.721888 201.947826 
L 358.751303 199.276238 
L 358.097251 196.600837 
L 357.760834 193.817219 
L 357.700871 190.829457 
L 357.909234 186.40034 
L 358.241433 180.030526 
L 358.234776 175.785859 
L 358.05795 172.816661 
L 357.69841 169.770003 
L 357.122521 166.682776 
L 356.302361 163.597596 
L 355.216858 160.561545 
L 353.852677 157.624703 
L 352.204842 154.83852 
L 350.277059 152.254058 
L 348.081724 149.920161 
L 345.639603 147.881574 
L 342.979164 146.177108 
L 340.135555 144.837907 
L 337.149226 143.886018 
L 334.064221 143.333496 
L 330.926209 143.18264 
L 327.78046 143.42894 
L 324.670054 144.079992 
L 321.639527 145.150794 
L 318.727189 146.480631 
L 311.942326 149.906736 
L 308.041433 151.540321 
L 304.142802 152.901028 
L 296.250327 155.498361 
L 293.645826 156.544255 
L 291.107376 157.764609 
L 288.675671 159.193049 
L 286.392488 160.849007 
L 284.297263 162.737454 
L 282.424065 164.849757 
L 280.799148 167.165417 
L 279.43921 169.654464 
L 278.350415 172.280257 
L 277.528204 175.002458 
L 276.957838 177.779964 
L 276.615609 180.573607 
L 276.470582 183.348462 
L 276.543195 187.414324 
L 276.847466 191.308559 
L 277.44367 196.20318 
L 278.135258 199.693666 
L 279.298445 204.097127 
L 281.949256 213.165643 
L 282.789468 217.098061 
L 283.398064 221.185587 
L 285.021897 233.969938 
L 285.86594 237.82198 
L 286.615045 240.425703 
L 287.539072 243.027209 
L 288.655153 245.596311 
L 289.975167 248.100661 
L 291.505242 250.506997 
L 293.245522 252.782458 
L 295.190214 254.895905 
L 297.327914 256.819171 
L 299.642192 258.528182 
L 302.112421 260.00386 
L 304.714804 261.232727 
L 307.423534 262.207088 
L 310.212015 262.924639 
L 313.054023 263.387174 
L 315.924639 263.597435 
L 318.800658 263.548617 
L 321.658087 263.189328 
L 324.469414 262.622924 
L 328.583781 261.566793 
L 335.220284 259.592898 
L 341.719584 257.492049 
L 345.581523 256.085579 
L 349.384586 254.465002 
L 351.85762 253.221419 
L 354.25234 251.820757 
L 356.54019 250.246212 
L 358.690638 248.487607 
L 360.672865 246.542065 
L 362.457458 244.414198 
L 364.01801 242.115849 
L 365.332557 239.665466 
L 366.38479 237.087136 
L 367.165005 234.409376 
L 367.670732 231.663735 
L 367.907049 228.883282 
L 367.886553 226.101052 
L 367.628997 223.348525 
L 367.160608 220.654195 
L 366.513114 218.042302 
L 365.28557 214.318768 
L 363.867969 210.859396 
L 361.425208 205.676549 
L 361.425208 205.676549 
" clip-path="url(#p7f017fe960)" style="fill: none; stroke: #9aa5b1; stroke-width: 0.6; stroke-linecap: square"/>
   </g>
   <g id="line2d_3">
    <path d="M 359.650591 205.676549 
L 357.955883 202.122449 
L 357.003017 199.580808 
L 356.547976 197.889888 
L 356.241177 196.165136 
L 356.043245 193.448355 
L 356.108391 190.496022 
L 356.866017 176.915357 
L 356.746492 174.012213 
L 356.447437 171.028706 
L 355.93507 168.001573 
L 355.181316 164.973287 
L 354.16494 161.990788 
L 352.872441 159.104029 
L 351.298667 156.364335 
L 349.447146 153.82266 
L 347.330087 151.527739 
L 344.968068 149.524227 
L 342.389361 147.850846 
L 339.628916 146.538667 
L 336.726982 145.609671 
L 333.727396 145.075855 
L 330.675622 144.939476 
L 327.616719 145.195987 
L 324.593556 145.85296 
L 321.650458 146.925378 
L 318.825523 148.252522 
L 312.257659 151.653113 
L 308.48488 153.25864 
L 304.71194 154.581905 
L 297.060853 157.077068 
L 294.533135 158.081119 
L 292.069313 159.255898 
L 289.709901 160.635143 
L 287.4965 162.238404 
L 285.468376 164.070781 
L 283.659436 166.123776 
L 282.095778 168.377035 
L 280.79395 170.800739 
L 279.759976 173.358406 
L 278.989162 176.009863 
L 278.466648 178.71418 
L 278.168607 181.432365 
L 278.063997 184.129676 
L 278.189954 188.075728 
L 278.682029 193.058972 
L 279.179508 196.572143 
L 279.893604 199.933426 
L 281.071851 204.162702 
L 283.693657 212.839558 
L 284.493317 216.601909 
L 285.044822 220.524183 
L 286.431457 232.891789 
L 287.192028 236.642675 
L 287.88143 239.182507 
L 288.74268 241.72314 
L 289.793061 244.234536 
L 291.044613 246.684486 
L 292.503629 249.03986 
L 294.170425 251.267922 
L 296.039389 253.337647 
L 298.099299 255.220974 
L 300.333913 256.893927 
L 302.722799 258.337515 
L 305.242356 259.538338 
L 307.86698 260.488769 
L 310.570279 261.186562 
L 313.326235 261.633559 
L 316.110137 261.832539 
L 318.898992 261.776727 
L 321.669019 261.414744 
L 325.734301 260.520741 
L 330.971117 259.043608 
L 339.835641 256.255322 
L 344.829886 254.478001 
L 348.516278 252.917323 
L 350.914128 251.718392 
L 353.235954 250.366031 
L 355.453379 248.843319 
L 357.536039 247.139954 
L 359.453283 245.252924 
L 361.175854 243.186698 
L 362.677495 240.952971 
L 363.936385 238.570033 
L 364.936353 236.061808 
L 365.667819 233.456643 
L 366.128432 230.78591 
L 366.32338 228.082496 
L 366.26536 225.37925 
L 365.974215 222.707459 
L 365.476257 220.095422 
L 364.803283 217.567178 
L 363.545319 213.971217 
L 362.106802 210.641316 
L 359.650591 205.676549 
L 359.650591 205.676549 
" clip-path="url(#p7f017fe960)" style="fill: none; stroke: #9aa5b1; stroke-width: 0.6; stroke-linecap: square"/>
   </g>
   <g id="line2d_4">
    <path d="M 357.875973 205.676549 
L 356.189878 202.297072 
L 355.254731 199.885378 
L 354.816816 198.280209 
L 354.531346 196.64026 
L 354.373172 194.048456 
L 354.487197 191.217824 
L 355.497258 178.044855 
L 355.435034 175.207765 
L 355.196464 172.287409 
L 354.747619 169.320371 
L 354.06027 166.348977 
L 353.113022 163.420031 
L 351.892204 160.583354 
L 350.392492 157.890151 
L 348.617232 155.391261 
L 346.578451 153.135318 
L 344.296533 151.16688 
L 341.799558 149.524584 
L 339.122278 148.239427 
L 336.304738 147.333323 
L 333.390572 146.818215 
L 330.425035 146.696312 
L 327.452978 146.963034 
L 324.517059 147.625928 
L 321.66139 148.699962 
L 318.923857 150.024413 
L 312.572993 153.399489 
L 308.928327 154.97696 
L 305.281077 156.262782 
L 296.640574 159.11864 
L 294.215676 160.159274 
L 291.872327 161.385536 
L 289.651849 162.824294 
L 287.59491 164.487957 
L 285.738278 166.374789 
L 284.112058 168.470242 
L 282.737593 170.749044 
L 281.626096 173.177836 
L 280.778071 175.718078 
L 280.1835 178.329031 
L 279.822732 180.970593 
L 279.667972 183.605817 
L 279.746663 187.479204 
L 280.08303 191.190952 
L 280.717436 195.829748 
L 281.386043 199.113641 
L 282.532343 203.241505 
L 285.655291 213.404485 
L 286.197165 216.105756 
L 286.69158 219.86278 
L 288.035248 233.017837 
L 288.813144 236.699112 
L 289.524749 239.180517 
L 290.41446 241.651143 
L 291.497171 244.079859 
L 292.782258 246.433972 
L 294.273206 248.68051 
L 295.967521 250.78755 
L 297.856907 252.72551 
L 299.927732 254.468344 
L 302.161732 255.994564 
L 304.536949 257.288006 
L 307.028827 258.338237 
L 309.61142 259.140478 
L 312.258592 259.694823 
L 314.945094 260.004217 
L 317.64728 260.069211 
L 320.343098 259.856669 
L 323.004856 259.376524 
L 326.898214 258.403213 
L 333.149398 256.529777 
L 341.667788 253.756002 
L 345.276191 252.396602 
L 348.81688 250.809934 
L 351.106015 249.583267 
L 353.30767 248.197535 
L 355.392438 246.638891 
L 357.329768 244.900494 
L 359.089658 242.98294 
L 360.644316 240.894222 
L 361.969681 238.649279 
L 363.046761 236.269196 
L 363.862711 233.780106 
L 364.411631 231.211878 
L 364.695034 228.596656 
L 364.721993 225.967318 
L 364.50894 223.355927 
L 364.079142 220.792254 
L 363.46187 218.302416 
L 362.691284 215.907707 
L 361.330949 212.526262 
L 359.342884 208.441051 
L 357.875973 205.676549 
L 357.875973 205.676549 
" clip-path="url(#p7f017fe960)" style="fill: none; stroke: #9aa5b1; stroke-width: 0.6; stroke-linecap: square"/>
   </g>
   <g id="line2d_5">
    <path d="M 356.101356 205.676549 
L 354.423873 202.471695 
L 353.506445 200.189948 
L 353.085656 198.670529 
L 352.821514 197.115383 
L 352.70778 195.493538 
L 352.785417 192.874379 
L 353.218856 188.91902 
L 353.896121 183.106509 
L 354.128499 179.174354 
L 354.123576 176.403317 
L 353.945491 173.546112 
L 353.560168 170.639169 
L 352.939225 167.724667 
L 352.061104 164.849274 
L 350.911968 162.062679 
L 349.486317 159.415967 
L 347.787319 156.959863 
L 345.826814 154.742897 
L 343.624998 152.809532 
L 341.209756 151.198322 
L 338.61564 149.940187 
L 335.882494 149.056975 
L 333.053748 148.560574 
L 330.174448 148.453148 
L 327.289237 148.730082 
L 324.440561 149.398895 
L 321.672321 150.474545 
L 319.022191 151.796304 
L 312.888326 155.145866 
L 309.371773 156.695279 
L 305.850215 157.94366 
L 297.489749 160.676899 
L 295.140579 161.67381 
L 292.870714 162.852672 
L 290.721294 164.240469 
L 288.732818 165.849732 
L 286.941886 167.678858 
L 285.378443 169.713437 
L 284.063681 171.928349 
L 283.008666 174.290386 
L 282.213767 176.761172 
L 281.668836 179.300136 
L 281.3541 181.867351 
L 281.241656 184.426052 
L 281.376626 188.180979 
L 281.76037 191.770433 
L 282.443657 196.241366 
L 283.137949 199.396649 
L 284.303594 203.350752 
L 287.182459 212.187388 
L 287.750131 214.744077 
L 288.149875 217.375242 
L 288.48332 221.10236 
L 289.109411 229.581948 
L 289.61459 233.089023 
L 290.4142 236.696116 
L 291.149895 239.115003 
L 292.068878 241.510986 
L 293.183505 243.852135 
L 294.500402 246.105586 
L 296.020233 248.23885 
L 297.737739 250.221131 
L 299.642067 252.024581 
L 301.717354 253.625417 
L 303.943554 255.004825 
L 306.297462 256.14956 
L 308.753874 257.05213 
L 311.286807 257.710407 
L 313.870658 258.126327 
L 316.481133 258.302747 
L 319.095661 258.232945 
L 321.690882 257.865577 
L 325.49399 256.979651 
L 330.383527 255.54335 
L 339.827004 252.515952 
L 344.485176 250.808029 
L 347.910705 249.284118 
L 350.125779 248.103941 
L 352.255752 246.768293 
L 354.271393 245.263201 
L 356.142317 243.581697 
L 357.838685 241.724237 
L 359.332858 239.69867 
L 360.600922 237.519781 
L 361.624025 235.208494 
L 362.389452 232.790775 
L 362.891426 230.296321 
L 363.131575 227.757096 
L 363.119075 225.205793 
L 362.870455 222.674287 
L 362.409069 220.192153 
L 361.764264 217.78531 
L 360.970265 215.474853 
L 359.582663 212.221692 
L 357.573113 208.309991 
L 356.101356 205.676549 
L 356.101356 205.676549 
" clip-path="url(#p7f017fe960)" style="fill: none; stroke: #9aa5b1; stroke-width: 0.6; stroke-linecap: square"/>
   </g>
   <g id="line2d_6">
    <path d="M 354.326739 205.676549 
L 352.657868 202.646318 
L 351.758159 200.494518 
L 351.354495 199.06085 
L 351.111682 197.590507 
L 351.023429 196.052311 
L 351.146932 193.55602 
L 351.655396 189.75858 
L 352.447684 184.131836 
L 352.759741 180.303852 
L 352.812118 177.598869 
L 352.694518 174.804815 
L 352.372718 171.957966 
L 351.81818 169.100358 
L 351.009186 166.278517 
L 349.931731 163.542004 
L 348.580142 160.941783 
L 346.957406 158.528464 
L 345.075178 156.350475 
L 342.953464 154.452185 
L 340.619953 152.87206 
L 338.109001 151.640947 
L 335.460251 150.780627 
L 332.716924 150.302933 
L 329.923861 150.209984 
L 327.125496 150.497129 
L 324.364064 151.171863 
L 321.683253 152.249129 
L 319.120526 153.568194 
L 313.20366 156.892243 
L 309.81522 158.413598 
L 306.419353 159.624537 
L 298.338923 162.235157 
L 296.065483 163.188346 
L 293.8691 164.319809 
L 291.79074 165.656645 
L 289.870727 167.211507 
L 288.145493 168.982927 
L 286.644828 170.956633 
L 285.389768 173.107653 
L 284.391236 175.402936 
L 283.649462 177.804266 
L 283.154171 180.271242 
L 282.885469 182.76411 
L 282.81534 185.246287 
L 283.006589 188.882753 
L 283.437709 192.349914 
L 284.169877 196.652984 
L 284.889854 199.679658 
L 286.074846 203.459999 
L 288.92686 211.861303 
L 289.465687 214.290054 
L 289.827215 216.795761 
L 290.095498 220.36064 
L 290.545106 228.538854 
L 290.969329 231.942748 
L 291.680585 235.45292 
L 292.353503 237.810935 
L 293.206786 240.149211 
L 294.252951 242.43596 
L 295.498789 244.63845 
L 296.945137 246.724314 
L 298.586914 248.662873 
L 300.413452 250.426384 
L 302.409075 251.991162 
L 304.553932 253.33848 
L 306.825014 254.455171 
L 309.19732 255.33381 
L 311.645071 255.972329 
L 314.142869 256.372712 
L 316.666631 256.537852 
L 319.193995 256.461054 
L 321.701813 256.090993 
L 325.373834 255.209106 
L 331.243427 253.427913 
L 341.451343 250.071177 
L 344.807035 248.760264 
L 348.083652 247.209312 
L 350.186797 246.001854 
L 352.192944 244.634642 
L 354.072244 243.096994 
L 355.794536 241.385499 
L 357.33104 239.504198 
L 358.655949 237.464337 
L 359.747872 235.283735 
L 360.591042 232.985826 
L 361.17626 230.598445 
L 361.501531 228.152436 
L 361.572371 225.68014 
L 361.401779 223.213844 
L 361.009871 220.784262 
L 360.423203 218.419103 
L 359.673788 216.141808 
L 358.324565 212.928565 
L 356.823303 209.987077 
L 354.326739 205.676549 
L 354.326739 205.676549 
" clip-path="url(#p7f017fe960)" style="fill: none; stroke: #9aa5b1; stroke-width: 0.6; stroke-linecap: square"/>
   </g>
   <g id="line2d_7">
    <path d="M 352.552121 205.676549 
L 350.891863 202.82094 
L 350.009873 200.799088 
L 349.623335 199.451171 
L 349.401851 198.06563 
L 349.339077 196.611084 
L 349.508447 194.23766 
L 350.091936 190.59814 
L 350.999247 185.157163 
L 351.390982 181.43335 
L 351.500659 178.794421 
L 351.443545 176.063517 
L 351.185267 173.276764 
L 350.697134 170.476048 
L 349.957268 167.70776 
L 348.951495 165.02133 
L 347.673967 162.467598 
L 346.127493 160.097066 
L 344.323541 157.958054 
L 342.281929 156.094838 
L 340.030151 154.545799 
L 337.602363 153.341707 
L 335.038007 152.504279 
L 332.380099 152.045293 
L 329.673274 151.96682 
L 326.961755 152.264176 
L 324.287566 152.944831 
L 321.694185 154.023712 
L 319.21886 155.340085 
L 313.518993 158.638619 
L 310.258667 160.131918 
L 306.988491 161.305414 
L 299.188098 163.793415 
L 296.990387 164.702882 
L 294.867487 165.786946 
L 292.860186 167.07282 
L 291.008635 168.573282 
L 289.349101 170.286995 
L 287.911213 172.199829 
L 286.715855 174.286958 
L 285.773806 176.515486 
L 285.085158 178.84736 
L 284.639507 181.242347 
L 284.416838 183.660869 
L 284.389024 186.066522 
L 284.636551 189.584528 
L 285.115049 192.929395 
L 286.122859 198.047998 
L 286.926989 200.892466 
L 288.165472 204.425001 
L 290.225152 210.01091 
L 290.862804 212.297594 
L 291.308711 214.6173 
L 291.575827 217.038502 
L 291.73293 220.521859 
L 291.980802 227.49576 
L 292.324069 230.796472 
L 292.94697 234.209724 
L 293.557111 236.506866 
L 294.344694 238.787435 
L 295.322397 241.019785 
L 296.497176 243.171313 
L 297.87004 245.209778 
L 299.436089 247.104614 
L 301.184836 248.828187 
L 303.100796 250.356908 
L 305.164309 251.672135 
L 307.352567 252.760781 
L 309.640767 253.615491 
L 312.003335 254.234251 
L 314.415081 254.619096 
L 316.852129 254.772956 
L 319.292329 254.689163 
L 321.712745 254.31641 
L 325.253678 253.438561 
L 330.906603 251.685553 
L 341.82334 248.047686 
L 345.043048 246.72661 
L 348.165306 245.145291 
L 350.151916 243.909807 
L 352.029303 242.51182 
L 353.767416 240.944101 
L 355.336739 239.206831 
L 356.709942 237.307566 
L 357.863405 235.260785 
L 358.778553 233.08709 
L 359.442934 230.812114 
L 359.851016 228.465208 
L 360.004656 226.077976 
L 359.913239 223.682743 
L 359.593486 221.311005 
L 359.068923 218.991949 
L 358.36905 216.7511 
L 357.066697 213.580165 
L 355.577049 210.675211 
L 353.528155 207.230902 
L 352.552121 205.676549 
L 352.552121 205.676549 
" clip-path="url(#p7f017fe960)" style="fill: none; stroke: #9aa5b1; stroke-width: 0.6; stroke-linecap: square"/>
   </g>
   <g id="line2d_8">
    <path d="M 350.777504 205.676549 
L 349.125858 202.995563 
L 348.261587 201.103658 
L 347.892174 199.841491 
L 347.692019 198.540754 
L 347.654726 197.169858 
L 347.869962 194.919301 
L 348.528477 191.4377 
L 349.55081 186.182491 
L 350.022223 182.562848 
L 350.189201 179.989973 
L 350.192572 177.32222 
L 349.997816 174.595562 
L 349.576089 171.851739 
L 348.90535 169.137003 
L 347.971258 166.500655 
L 346.767792 163.993414 
L 345.297579 161.665667 
L 343.571905 159.565633 
L 341.610394 157.73749 
L 339.440348 156.219537 
L 337.095725 155.042467 
L 334.615763 154.227931 
L 332.043275 153.787652 
L 329.422687 153.723656 
L 326.798014 154.031223 
L 324.211068 154.717799 
L 321.705116 155.798296 
L 319.317194 157.111976 
L 313.834327 160.384996 
L 310.702113 161.850237 
L 307.557629 162.986292 
L 298.969678 165.765437 
L 296.878999 166.712344 
L 294.881053 167.845612 
L 293.016561 169.185388 
L 291.323944 170.737414 
L 289.836293 172.493871 
L 288.578927 174.435125 
L 287.567649 176.532115 
L 286.807779 178.749151 
L 286.293957 181.04689 
L 286.010698 183.385258 
L 285.933596 185.726153 
L 286.03107 188.035749 
L 286.423744 191.382745 
L 287.201271 195.539733 
L 288.116965 199.3404 
L 289.300197 202.848443 
L 292.415662 211.209133 
L 292.896797 213.382008 
L 293.181894 215.636798 
L 293.319855 218.877201 
L 293.47926 227.501043 
L 293.822464 230.746153 
L 294.466235 234.084442 
L 295.098914 236.317836 
L 295.91322 238.522271 
L 296.919179 240.665597 
L 298.120955 242.715354 
L 299.516755 244.640096 
L 301.09901 246.410683 
L 302.854831 248.001477 
L 304.76672 249.39136 
L 306.813501 250.564497 
L 308.971416 251.510747 
L 311.215328 252.225585 
L 313.519925 252.709316 
L 315.860791 252.965057 
L 318.215117 252.99349 
L 320.561695 252.761567 
L 322.873684 252.279267 
L 326.24325 251.335025 
L 335.838411 248.22873 
L 341.071704 246.440107 
L 344.17474 245.178931 
L 347.18507 243.665966 
L 349.099998 242.480564 
L 350.908257 241.13613 
L 352.579965 239.625303 
L 354.085766 237.948128 
L 355.398484 236.112014 
L 356.494646 234.131286 
L 357.355817 232.026388 
L 357.969675 229.822784 
L 358.330812 227.549651 
L 358.441196 225.238416 
L 358.310321 222.921218 
L 357.955001 220.629364 
L 357.398849 218.391848 
L 356.671443 216.233994 
L 355.335537 213.189844 
L 353.821789 210.413807 
L 351.755692 207.143484 
L 350.777504 205.676549 
L 350.777504 205.676549 
" clip-path="url(#p7f017fe960)" style="fill: none; stroke: #9aa5b1; stroke-width: 0.6; stroke-linecap: square"/>
   </g>
   <g id="line2d_9">
    <path d="M 349.002887 205.676549 
L 347.359853 203.170186 
L 346.513302 201.408228 
L 346.161014 200.231812 
L 345.982187 199.015878 
L 345.970375 197.728631 
L 346.231477 195.600942 
L 346.965017 192.27726 
L 348.102372 187.207818 
L 348.653465 183.692347 
L 348.877743 181.185525 
L 348.941599 178.580923 
L 348.810365 175.914359 
L 348.455044 173.227429 
L 347.853432 170.566246 
L 346.991022 167.97998 
L 345.861617 165.51923 
L 344.467666 163.234269 
L 342.820268 161.173212 
L 340.938859 159.380143 
L 338.850546 157.893275 
L 336.589086 156.743227 
L 334.193519 155.951584 
L 331.706451 155.530011 
L 329.1721 155.480492 
L 326.634273 155.79827 
L 324.134571 156.490767 
L 321.716048 157.57288 
L 319.415528 158.883867 
L 314.14966 162.131373 
L 312.14441 163.133041 
L 309.138928 164.329737 
L 305.046232 165.592465 
L 300.886448 166.909931 
L 298.840194 167.731955 
L 296.864261 168.72122 
L 294.999078 169.90517 
L 293.284451 171.296833 
L 291.756317 172.895133 
L 290.443983 174.686221 
L 289.36803 176.645567 
L 288.538946 178.740585 
L 287.956549 180.933548 
L 287.610177 183.184558 
L 287.479575 185.454387 
L 287.536392 187.706992 
L 287.896477 190.988077 
L 288.469728 194.088358 
L 289.594534 198.785926 
L 290.443682 201.371986 
L 291.712283 204.55615 
L 293.741845 209.531389 
L 294.334479 211.559666 
L 294.716408 213.624996 
L 294.900934 215.79724 
L 294.91976 218.95943 
L 294.852193 225.409572 
L 295.033549 228.503922 
L 295.47974 231.723332 
L 295.964326 233.898729 
L 296.620511 236.063885 
L 297.461288 238.187434 
L 298.49395 240.237039 
L 299.719848 242.180705 
L 301.134439 243.988098 
L 302.727604 245.631794 
L 304.484237 247.088398 
L 306.385065 248.339445 
L 308.407672 249.372003 
L 310.52766 250.178852 
L 312.719863 250.758096 
L 314.959504 251.111865 
L 317.223125 251.243164 
L 319.488997 251.145382 
L 321.734608 250.767242 
L 325.013366 249.897471 
L 331.251151 247.862117 
L 341.321116 244.45374 
L 344.286005 243.180855 
L 346.204833 242.18664 
L 348.04808 241.051321 
L 349.787212 239.760439 
L 351.392514 238.306506 
L 352.834793 236.689426 
L 354.087026 234.916462 
L 355.125887 233.001788 
L 355.933081 230.965686 
L 356.496416 228.833453 
L 356.810607 226.634094 
L 356.877737 224.398856 
L 356.707403 222.159693 
L 356.316516 219.947724 
L 355.728776 217.791746 
L 354.973836 215.716889 
L 353.604376 212.799524 
L 352.06653 210.152403 
L 349.983229 207.056067 
L 349.002887 205.676549 
L 349.002887 205.676549 
" clip-path="url(#p7f017fe960)" style="fill: none; stroke: #9aa5b1; stroke-width: 0.6; stroke-linecap: square"/>
   </g>
   <g id="line2d_10">
    <path d="M 347.228269 205.676549 
L 345.593848 203.344809 
L 344.765016 201.712798 
L 344.429853 200.622133 
L 344.272356 199.491001 
L 344.286023 198.287404 
L 344.592993 196.282582 
L 345.401558 193.11682 
L 346.653935 188.233146 
L 347.284706 184.821845 
L 347.566285 182.381077 
L 347.690625 179.839626 
L 347.622915 177.233157 
L 347.333999 174.603119 
L 346.801515 171.995489 
L 346.010785 169.459305 
L 344.955442 167.045045 
L 343.637753 164.80287 
L 342.068632 162.78079 
L 340.267324 161.022796 
L 338.260743 159.567013 
L 336.082448 158.443987 
L 333.771275 157.675236 
L 331.369626 157.272371 
L 328.921513 157.237328 
L 326.470532 157.565317 
L 324.058073 158.263734 
L 321.726979 159.347463 
L 319.513862 160.655758 
L 315.436636 163.31497 
L 312.545387 164.861764 
L 309.666481 166.024126 
L 305.737952 167.22672 
L 301.735623 168.46819 
L 299.765098 169.246491 
L 297.862648 170.188356 
L 296.068524 171.321345 
L 294.42236 172.658608 
L 292.959925 174.199201 
L 291.710368 175.929416 
L 290.694117 177.824871 
L 289.921516 179.853135 
L 289.392245 181.976641 
L 289.095513 184.155663 
L 289.010944 186.351146 
L 289.110076 188.527227 
L 289.52644 191.689851 
L 290.376325 195.612399 
L 291.330372 199.154889 
L 292.202028 201.611747 
L 293.810562 205.329086 
L 295.263626 208.654658 
L 295.904465 210.556962 
L 296.327907 212.473962 
L 296.536573 214.477836 
L 296.544211 217.393761 
L 296.298382 225.344745 
L 296.474639 228.387544 
L 296.936978 231.536404 
L 297.441141 233.651183 
L 298.121244 235.743477 
L 298.987639 237.781409 
L 300.04483 239.732775 
L 301.291373 241.566368 
L 302.720061 243.25327 
L 304.31838 244.768044 
L 306.069214 246.089758 
L 307.951777 247.202742 
L 309.94271 248.097002 
L 312.017282 248.768139 
L 314.150592 249.216563 
L 316.318639 249.445478 
L 318.499035 249.45563 
L 320.670994 249.214015 
L 322.808098 248.730638 
L 325.915768 247.800931 
L 340.530101 242.865168 
L 343.37983 241.655039 
L 346.121254 240.182952 
L 347.845698 239.023071 
L 349.45385 237.706382 
L 350.916208 236.228933 
L 352.204621 234.594197 
L 353.293888 232.812825 
L 354.163187 230.902005 
L 354.797293 228.884516 
L 355.187514 226.787514 
L 355.33233 224.641136 
L 355.237693 222.476997 
L 354.917004 220.326637 
L 354.390746 218.219999 
L 353.685798 216.184011 
L 352.834461 214.241313 
L 351.363559 211.538362 
L 349.778636 209.114758 
L 347.228269 205.676549 
L 347.228269 205.676549 
" clip-path="url(#p7f017fe960)" style="fill: none; stroke: #9aa5b1; stroke-width: 0.6; stroke-linecap: square"/>
   </g>
   <g id="line2d_11">
    <path d="M 345.453652 205.676549 
L 343.827843 203.519432 
L 343.01673 202.017368 
L 342.698693 201.012453 
L 342.562524 199.966125 
L 342.601672 198.846177 
L 342.954508 196.964223 
L 343.838098 193.95638 
L 345.205498 189.258473 
L 345.915947 185.951343 
L 346.254827 183.576629 
L 346.439652 181.098329 
L 346.435464 178.551955 
L 346.212953 175.97881 
L 345.749597 173.424732 
L 345.030549 170.938631 
L 344.049267 168.570861 
L 342.807839 166.371472 
L 341.316995 164.388369 
L 339.59579 162.665448 
L 337.67094 161.240751 
L 335.57581 160.144747 
L 333.349031 159.398888 
L 331.032802 159.01473 
L 328.670927 158.994164 
L 326.30679 159.332364 
L 323.981576 160.036702 
L 321.737911 161.122047 
L 319.612196 162.427649 
L 315.708847 165.068586 
L 313.860991 166.131056 
L 312.032453 167.005196 
L 309.265043 168.028924 
L 300.690002 170.761027 
L 298.861035 171.655493 
L 297.13797 172.737521 
L 295.560268 174.020383 
L 294.163532 175.50327 
L 292.976753 177.172612 
L 292.020205 179.004176 
L 291.304085 180.965685 
L 290.82794 183.019735 
L 290.580848 185.126768 
L 290.542313 187.247904 
L 290.68376 189.347462 
L 291.156403 192.391626 
L 292.067432 196.150379 
L 293.066209 199.523853 
L 293.960374 201.851507 
L 295.585045 205.350949 
L 297.027346 208.458291 
L 297.648866 210.230877 
L 298.043463 212.019939 
L 298.213913 213.898355 
L 298.156389 216.652042 
L 297.707942 224.266596 
L 297.800726 227.208239 
L 298.172349 230.262385 
L 298.612255 232.317856 
L 299.225257 234.35408 
L 300.02187 236.339316 
L 301.006767 238.241486 
L 302.178681 240.029505 
L 303.530587 241.674563 
L 305.050155 243.151327 
L 306.720461 244.438956 
L 308.520915 245.521865 
L 310.428357 246.39013 
L 312.418259 247.039416 
L 314.465926 247.470186 
L 316.547563 247.685688 
L 318.640995 247.686699 
L 320.725644 247.44024 
L 322.775305 246.956324 
L 326.71874 245.704504 
L 342.473655 240.129224 
L 345.104869 238.728226 
L 346.758887 237.620179 
L 348.299251 236.358729 
L 349.696626 234.939791 
L 350.923017 233.366697 
L 351.953373 231.649947 
L 352.767016 229.806572 
L 353.348856 227.859189 
L 353.690328 225.834781 
L 353.790029 223.763311 
L 353.654023 221.676212 
L 353.295811 219.604835 
L 352.735964 217.578933 
L 352.001446 215.625238 
L 351.12463 213.766189 
L 349.623307 211.190811 
L 348.017469 208.896678 
L 345.453652 205.676549 
L 345.453652 205.676549 
" clip-path="url(#p7f017fe960)" style="fill: none; stroke: #9aa5b1; stroke-width: 0.6; stroke-linecap: square"/>
   </g>
   <g id="matplotlib.axis_1">
    <g id="xtick_1">
     <g id="line2d_12">
      <defs>
       <path id="m2038fb679e" d="M 0 0 
L 0 3.5 
" style="stroke: #000000; stroke-width: 0.8"/>
      </defs>
      <g>
       <use xlink:href="#m2038fb679e" x="94.977593" y="481.6" style="stroke: #000000; stroke-width: 0.8"/>
      </g>
     </g>
     <g id="text_1">
      <!-- −2000 -->
      <g transform="translate(83.137202 493.918359) scale(0.07 -0.07)">
       <defs>
        <path id="DejaVuSans-c9c" d="M 678 2272 
L 4684 2272 
L 4684 1741 
L 678 1741 
L 678 2272 
z
" transform="scale(0.015625)"/>
        <path id="DejaVuSans-15" d="M 1228 531 
L 3431 531 
L 3431 0 
L 469 0 
L 469 531 
Q 828 903 1448 1529 
Q 2069 2156 2228 2338 
Q 2531 2678 2651 2914 
Q 2772 3150 2772 3378 
Q 2772 3750 2511 3984 
Q 2250 4219 1831 4219 
Q 1534 4219 1204 4116 
Q 875 4013 500 3803 
L 500 4441 
Q 881 4594 1212 4672 
Q 1544 4750 1819 4750 
Q 2544 4750 2975 4387 
Q 3406 4025 3406 3419 
Q 3406 3131 3298 2873 
Q 3191 2616 2906 2266 
Q 2828 2175 2409 1742 
Q 1991 1309 1228 531 
z
" transform="scale(0.015625)"/>
        <path id="DejaVuSans-13" d="M 2034 4250 
Q 1547 4250 1301 3770 
Q 1056 3291 1056 2328 
Q 1056 1369 1301 889 
Q 1547 409 2034 409 
Q 2525 409 2770 889 
Q 3016 1369 3016 2328 
Q 3016 3291 2770 3770 
Q 2525 4250 2034 4250 
z
M 2034 4750 
Q 2819 4750 3233 4129 
Q 3647 3509 3647 2328 
Q 3647 1150 3233 529 
Q 2819 -91 2034 -91 
Q 1250 -91 836 529 
Q 422 1150 422 2328 
Q 422 3509 836 4129 
Q 1250 4750 2034 4750 
z
" transform="scale(0.015625)"/>
       </defs>
       <use xlink:href="#DejaVuSans-c9c"/>
       <use xlink:href="#DejaVuSans-15" transform="translate(83.796875 0)"/>
       <use xlink:href="#DejaVuSans-13" transform="translate(147.421875 0)"/>
       <use xlink:href="#DejaVuSans-13" transform="translate(211.046875 0)"/>
       <use xlink:href="#DejaVuSans-13" transform="translate(274.671875 0)"/>
      </g>
     </g>
    </g>
    <g id="xtick_2">
     <g id="line2d_13">
      <g>
       <use xlink:href="#m2038fb679e" x="151.736287" y="481.6" style="stroke: #000000; stroke-width: 0.8"/>
      </g>
     </g>
     <g id="text_2">
      <!-- −1500 -->
      <g transform="translate(139.895896 493.918359) scale(0.07 -0.07)">
       <defs>
        <path id="DejaVuSans-14" d="M 794 531 
L 1825 531 
L 1825 4091 
L 703 3866 
L 703 4441 
L 1819 4666 
L 2450 4666 
L 2450 531 
L 3481 531 
L 3481 0 
L 794 0 
L 794 531 
z
" transform="scale(0.015625)"/>
        <path id="DejaVuSans-18" d="M 691 4666 
L 3169 4666 
L 3169 4134 
L 1269 4134 
L 1269 2991 
Q 1406 3038 1543 3061 
Q 1681 3084 1819 3084 
Q 2600 3084 3056 2656 
Q 3513 2228 3513 1497 
Q 3513 744 3044 326 
Q 2575 -91 1722 -91 
Q 1428 -91 1123 -41 
Q 819 9 494 109 
L 494 744 
Q 775 591 1075 516 
Q 1375 441 1709 441 
Q 2250 441 2565 725 
Q 2881 1009 2881 1497 
Q 2881 1984 2565 2268 
Q 2250 2553 1709 2553 
Q 1456 2553 1204 2497 
Q 953 2441 691 2322 
L 691 4666 
z
" transform="scale(0.015625)"/>
       </defs>
       <use xlink:href="#DejaVuSans-c9c"/>
       <use xlink:href="#DejaVuSans-14" transform="translate(83.796875 0)"/>
       <use xlink:href="#DejaVuSans-18" transform="translate(147.421875 0)"/>
       <use xlink:href="#DejaVuSans-13" transform="translate(211.046875 0)"/>
       <use xlink:href="#DejaVuSans-13" transform="translate(274.671875 0)"/>
      </g>
     </g>
    </g>
    <g id="xtick_3">
     <g id="line2d_14">
      <g>
       <use xlink:href="#m2038fb679e" x="208.494981" y="481.6" style="stroke: #000000; stroke-width: 0.8"/>
      </g>
     </g>
     <g id="text_3">
      <!-- −1000 -->
      <g transform="translate(196.654591 493.918359) scale(0.07 -0.07)">
       <use xlink:href="#DejaVuSans-c9c"/>
       <use xlink:href="#DejaVuSans-14" transform="translate(83.796875 0)"/>
       <use xlink:href="#DejaVuSans-13" transform="translate(147.421875 0)"/>
       <use xlink:href="#DejaVuSans-13" transform="translate(211.046875 0)"/>
       <use xlink:href="#DejaVuSans-13" transform="translate(274.671875 0)"/>
      </g>
     </g>
    </g>
    <g id="xtick_4">
     <g id="line2d_15">
      <g>
       <use xlink:href="#m2038fb679e" x="265.253675" y="481.6" style="stroke: #000000; stroke-width: 0.8"/>
      </g>
     </g>
     <g id="text_4">
      <!-- −500 -->
      <g transform="translate(255.64016 493.918359) scale(0.07 -0.07)">
       <use xlink:href="#DejaVuSans-c9c"/>
       <use xlink:href="#DejaVuSans-18" transform="translate(83.796875 0)"/>
       <use xlink:href="#DejaVuSans-13" transform="translate(147.421875 0)"/>
       <use xlink:href="#DejaVuSans-13" transform="translate(211.046875 0)"/>
      </g>
     </g>
    </g>
    <g id="xtick_5">
     <g id="line2d_16">
      <g>
       <use xlink:href="#m2038fb679e" x="322.012369" y="481.6" style="stroke: #000000; stroke-width: 0.8"/>
      </g>
     </g>
     <g id="text_5">
      <!-- 0 -->
      <g transform="translate(319.785494 493.918359) scale(0.07 -0.07)">
       <use xlink:href="#DejaVuSans-13"/>
      </g>
     </g>
    </g>
    <g id="xtick_6">
     <g id="line2d_17">
      <g>
       <use xlink:href="#m2038fb679e" x="378.771063" y="481.6" style="stroke: #000000; stroke-width: 0.8"/>
      </g>
     </g>
     <g id="text_6">
      <!-- 500 -->
      <g transform="translate(372.090438 493.918359) scale(0.07 -0.07)">
       <use xlink:href="#DejaVuSans-18"/>
       <use xlink:href="#DejaVuSans-13" transform="translate(63.625 0)"/>
       <use xlink:href="#DejaVuSans-13" transform="translate(127.25 0)"/>
      </g>
     </g>
    </g>
    <g id="text_7">
     <!-- east [m] -->
     <g transform="translate(242.346875 505.67875) scale(0.08 -0.08)">
      <defs>
       <path id="DejaVuSans-48" d="M 3597 1894 
L 3597 1613 
L 953 1613 
Q 991 1019 1311 708 
Q 1631 397 2203 397 
Q 2534 397 2845 478 
Q 3156 559 3463 722 
L 3463 178 
Q 3153 47 2828 -22 
Q 2503 -91 2169 -91 
Q 1331 -91 842 396 
Q 353 884 353 1716 
Q 353 2575 817 3079 
Q 1281 3584 2069 3584 
Q 2775 3584 3186 3129 
Q 3597 2675 3597 1894 
z
M 3022 2063 
Q 3016 2534 2758 2815 
Q 2500 3097 2075 3097 
Q 1594 3097 1305 2825 
Q 1016 2553 972 2059 
L 3022 2063 
z
" transform="scale(0.015625)"/>
       <path id="DejaVuSans-44" d="M 2194 1759 
Q 1497 1759 1228 1600 
Q 959 1441 959 1056 
Q 959 750 1161 570 
Q 1363 391 1709 391 
Q 2188 391 2477 730 
Q 2766 1069 2766 1631 
L 2766 1759 
L 2194 1759 
z
M 3341 1997 
L 3341 0 
L 2766 0 
L 2766 531 
Q 2569 213 2275 61 
Q 1981 -91 1556 -91 
Q 1019 -91 701 211 
Q 384 513 384 1019 
Q 384 1609 779 1909 
Q 1175 2209 1959 2209 
L 2766 2209 
L 2766 2266 
Q 2766 2663 2505 2880 
Q 2244 3097 1772 3097 
Q 1472 3097 1187 3025 
Q 903 2953 641 2809 
L 641 3341 
Q 956 3463 1253 3523 
Q 1550 3584 1831 3584 
Q 2591 3584 2966 3190 
Q 3341 2797 3341 1997 
z
" transform="scale(0.015625)"/>
       <path id="DejaVuSans-56" d="M 2834 3397 
L 2834 2853 
Q 2591 2978 2328 3040 
Q 2066 3103 1784 3103 
Q 1356 3103 1142 2972 
Q 928 2841 928 2578 
Q 928 2378 1081 2264 
Q 1234 2150 1697 2047 
L 1894 2003 
Q 2506 1872 2764 1633 
Q 3022 1394 3022 966 
Q 3022 478 2636 193 
Q 2250 -91 1575 -91 
Q 1294 -91 989 -36 
Q 684 19 347 128 
L 347 722 
Q 666 556 975 473 
Q 1284 391 1588 391 
Q 1994 391 2212 530 
Q 2431 669 2431 922 
Q 2431 1156 2273 1281 
Q 2116 1406 1581 1522 
L 1381 1569 
Q 847 1681 609 1914 
Q 372 2147 372 2553 
Q 372 3047 722 3315 
Q 1072 3584 1716 3584 
Q 2034 3584 2315 3537 
Q 2597 3491 2834 3397 
z
" transform="scale(0.015625)"/>
       <path id="DejaVuSans-57" d="M 1172 4494 
L 1172 3500 
L 2356 3500 
L 2356 3053 
L 1172 3053 
L 1172 1153 
Q 1172 725 1289 603 
Q 1406 481 1766 481 
L 2356 481 
L 2356 0 
L 1766 0 
Q 1100 0 847 248 
Q 594 497 594 1153 
L 594 3053 
L 172 3053 
L 172 3500 
L 594 3500 
L 594 4494 
L 1172 4494 
z
" transform="scale(0.015625)"/>
       <path id="DejaVuSans-3" transform="scale(0.015625)"/>
       <path id="DejaVuSans-3e" d="M 550 4863 
L 1875 4863 
L 1875 4416 
L 1125 4416 
L 1125 -397 
L 1875 -397 
L 1875 -844 
L 550 -844 
L 550 4863 
z
" transform="scale(0.015625)"/>
       <path id="DejaVuSans-50" d="M 3328 2828 
Q 3544 3216 3844 3400 
Q 4144 3584 4550 3584 
Q 5097 3584 5394 3201 
Q 5691 2819 5691 2113 
L 5691 0 
L 5113 0 
L 5113 2094 
Q 5113 2597 4934 2840 
Q 4756 3084 4391 3084 
Q 3944 3084 3684 2787 
Q 3425 2491 3425 1978 
L 3425 0 
L 2847 0 
L 2847 2094 
Q 2847 2600 2669 2842 
Q 2491 3084 2119 3084 
Q 1678 3084 1418 2786 
Q 1159 2488 1159 1978 
L 1159 0 
L 581 0 
L 581 3500 
L 1159 3500 
L 1159 2956 
Q 1356 3278 1631 3431 
Q 1906 3584 2284 3584 
Q 2666 3584 2933 3390 
Q 3200 3197 3328 2828 
z
" transform="scale(0.015625)"/>
       <path id="DejaVuSans-40" d="M 1947 4863 
L 1947 -844 
L 622 -844 
L 622 -397 
L 1369 -397 
L 1369 4416 
L 622 4416 
L 622 4863 
L 1947 4863 
z
" transform="scale(0.015625)"/>
      </defs>
      <use xlink:href="#DejaVuSans-48"/>
      <use xlink:href="#DejaVuSans-44" transform="translate(61.53125 0)"/>
      <use xlink:href="#DejaVuSans-56" transform="translate(122.8125 0)"/>
      <use xlink:href="#DejaVuSans-57" transform="translate(174.90625 0)"/>
      <use xlink:href="#DejaVuSans-3" transform="translate(214.109375 0)"/>
      <use xlink:href="#DejaVuSans-3e" transform="translate(245.890625 0)"/>
      <use xlink:href="#DejaVuSans-50" transform="translate(284.90625 0)"/>
      <use xlink:href="#DejaVuSans-40" transform="translate(382.3125 0)"/>
     </g>
    </g>
   </g>
   <g id="matplotlib.axis_2">
    <g id="ytick_1">
     <g id="line2d_18">
      <defs>
       <path id="m7380c88529" d="M 0 0 
L -3.5 0 
" style="stroke: #000000; stroke-width: 0.8"/>
      </defs>
      <g>
       <use xlink:href="#m7380c88529" x="89.446958" y="432.711326" style="stroke: #000000; stroke-width: 0.8"/>
      </g>
     </g>
     <g id="text_8">
      <!-- −2000 -->
      <g transform="translate(58.766177 435.370505) scale(0.07 -0.07)">
       <use xlink:href="#DejaVuSans-c9c"/>
       <use xlink:href="#DejaVuSans-15" transform="translate(83.796875 0)"/>
       <use xlink:href="#DejaVuSans-13" transform="translate(147.421875 0)"/>
       <use xlink:href="#DejaVuSans-13" transform="translate(211.046875 0)"/>
       <use xlink:href="#DejaVuSans-13" transform="translate(274.671875 0)"/>
      </g>
     </g>
    </g>
    <g id="ytick_2">
     <g id="line2d_19">
      <g>
       <use xlink:href="#m7380c88529" x="89.446958" y="375.952631" style="stroke: #000000; stroke-width: 0.8"/>
      </g>
     </g>
     <g id="text_9">
      <!-- −1500 -->
      <g transform="translate(58.766177 378.611811) scale(0.07 -0.07)">
       <use xlink:href="#DejaVuSans-c9c"/>
       <use xlink:href="#DejaVuSans-14" transform="translate(83.796875 0)"/>
       <use xlink:href="#DejaVuSans-18" transform="translate(147.421875 0)"/>
       <use xlink:href="#DejaVuSans-13" transform="translate(211.046875 0)"/>
       <use xlink:href="#DejaVuSans-13" transform="translate(274.671875 0)"/>
      </g>
     </g>
    </g>
    <g id="ytick_3">
     <g id="line2d_20">
      <g>
       <use xlink:href="#m7380c88529" x="89.446958" y="319.193937" style="stroke: #000000; stroke-width: 0.8"/>
      </g>
     </g>
     <g id="text_10">
      <!-- −1000 -->
      <g transform="translate(58.766177 321.853117) scale(0.07 -0.07)">
       <use xlink:href="#DejaVuSans-c9c"/>
       <use xlink:href="#DejaVuSans-14" transform="translate(83.796875 0)"/>
       <use xlink:href="#DejaVuSans-13" transform="translate(147.421875 0)"/>
       <use xlink:href="#DejaVuSans-13" transform="translate(211.046875 0)"/>
       <use xlink:href="#DejaVuSans-13" transform="translate(274.671875 0)"/>
      </g>
     </g>
    </g>
    <g id="ytick_4">
     <g id="line2d_21">
      <g>
       <use xlink:href="#m7380c88529" x="89.446958" y="262.435243" style="stroke: #000000; stroke-width: 0.8"/>
      </g>
     </g>
     <g id="text_11">
      <!-- −500 -->
      <g transform="translate(63.219927 265.094423) scale(0.07 -0.07)">
       <use xlink:href="#DejaVuSans-c9c"/>
       <use xlink:href="#DejaVuSans-18" transform="translate(83.796875 0)"/>
       <use xlink:href="#DejaVuSans-13" transform="translate(147.421875 0)"/>
       <use xlink:href="#DejaVuSans-13" transform="translate(211.046875 0)"/>
      </g>
     </g>
    </g>
    <g id="ytick_5">
     <g id="line2d_22">
      <g>
       <use xlink:href="#m7380c88529" x="89.446958" y="205.676549" style="stroke: #000000; stroke-width: 0.8"/>
      </g>
     </g>
     <g id="text_12">
      <!-- 0 -->
      <g transform="translate(77.993208 208.335729) scale(0.07 -0.07)">
       <use xlink:href="#DejaVuSans-13"/>
      </g>
     </g>
    </g>
    <g id="ytick_6">
     <g id="line2d_23">
      <g>
       <use xlink:href="#m7380c88529" x="89.446958" y="148.917855" style="stroke: #000000; stroke-width: 0.8"/>
      </g>
     </g>
     <g id="text_13">
      <!-- 500 -->
      <g transform="translate(69.085708 151.577035) scale(0.07 -0.07)">
       <use xlink:href="#DejaVuSans-18"/>
       <use xlink:href="#DejaVuSans-13" transform="translate(63.625 0)"/>
       <use xlink:href="#DejaVuSans-13" transform="translate(127.25 0)"/>
      </g>
     </g>
    </g>
    <g id="ytick_7">
     <g id="line2d_24">
      <g>
       <use xlink:href="#m7380c88529" x="89.446958" y="92.159161" style="stroke: #000000; stroke-width: 0.8"/>
      </g>
     </g>
     <g id="text_14">
      <!-- 1000 -->
      <g transform="translate(64.631958 94.818341) scale(0.07 -0.07)">
       <use xlink:href="#DejaVuSans-14"/>
       <use xlink:href="#DejaVuSans-13" transform="translate(63.625 0)"/>
       <use xlink:href="#DejaVuSans-13" transform="translate(127.25 0)"/>
       <use xlink:href="#DejaVuSans-13" transform="translate(190.875 0)"/>
      </g>
     </g>
    </g>
    <g id="ytick_8">
     <g id="line2d_25">
      <g>
       <use xlink:href="#m7380c88529" x="89.446958" y="35.400467" style="stroke: #000000; stroke-width: 0.8"/>
      </g>
     </g>
     <g id="text_15">
      <!-- 1500 -->
      <g transform="translate(64.631958 38.059647) scale(0.07 -0.07)">
       <use xlink:href="#DejaVuSans-14"/>
       <use xlink:href="#DejaVuSans-18" transform="translate(63.625 0)"/>
       <use xlink:href="#DejaVuSans-13" transform="translate(127.25 0)"/>
       <use xlink:href="#DejaVuSans-13" transform="translate(190.875 0)"/>
      </g>
     </g>
    </g>
    <g id="text_16">
     <!-- north [m] -->
     <g transform="translate(52.844302 272.17875) rotate(-90) scale(0.08 -0.08)">
      <defs>
       <path id="DejaVuSans-51" d="M 3513 2113 
L 3513 0 
L 2938 0 
L 2938 2094 
Q 2938 2591 2744 2837 
Q 2550 3084 2163 3084 
Q 1697 3084 1428 2787 
Q 1159 2491 1159 1978 
L 1159 0 
L 581 0 
L 581 3500 
L 1159 3500 
L 1159 2956 
Q 1366 3272 1645 3428 
Q 1925 3584 2291 3584 
Q 2894 3584 3203 3211 
Q 3513 2838 3513 2113 
z
" transform="scale(0.015625)"/>
       <path id="DejaVuSans-52" d="M 1959 3097 
Q 1497 3097 1228 2736 
Q 959 2375 959 1747 
Q 959 1119 1226 758 
Q 1494 397 1959 397 
Q 2419 397 2687 759 
Q 2956 1122 2956 1747 
Q 2956 2369 2687 2733 
Q 2419 3097 1959 3097 
z
M 1959 3584 
Q 2709 3584 3137 3096 
Q 3566 2609 3566 1747 
Q 3566 888 3137 398 
Q 2709 -91 1959 -91 
Q 1206 -91 779 398 
Q 353 888 353 1747 
Q 353 2609 779 3096 
Q 1206 3584 1959 3584 
z
" transform="scale(0.015625)"/>
       <path id="DejaVuSans-55" d="M 2631 2963 
Q 2534 3019 2420 3045 
Q 2306 3072 2169 3072 
Q 1681 3072 1420 2755 
Q 1159 2438 1159 1844 
L 1159 0 
L 581 0 
L 581 3500 
L 1159 3500 
L 1159 2956 
Q 1341 3275 1631 3429 
Q 1922 3584 2338 3584 
Q 2397 3584 2469 3576 
Q 2541 3569 2628 3553 
L 2631 2963 
z
" transform="scale(0.015625)"/>
       <path id="DejaVuSans-4b" d="M 3513 2113 
L 3513 0 
L 2938 0 
L 2938 2094 
Q 2938 2591 2744 2837 
Q 2550 3084 2163 3084 
Q 1697 3084 1428 2787 
Q 1159 2491 1159 1978 
L 1159 0 
L 581 0 
L 581 4863 
L 1159 4863 
L 1159 2956 
Q 1366 3272 1645 3428 
Q 1925 3584 2291 3584 
Q 2894 3584 3203 3211 
Q 3513 2838 3513 2113 
z
" transform="scale(0.015625)"/>
      </defs>
      <use xlink:href="#DejaVuSans-51"/>
      <use xlink:href="#DejaVuSans-52" transform="translate(63.375 0)"/>
      <use xlink:href="#DejaVuSans-55" transform="translate(124.5625 0)"/>
      <use xlink:href="#DejaVuSans-57" transform="translate(165.671875 0)"/>
      <use xlink:href="#DejaVuSans-4b" transform="translate(204.875 0)"/>
      <use xlink:href="#DejaVuSans-3" transform="translate(268.25 0)"/>
      <use xlink:href="#DejaVuSans-3e" transform="translate(300.03125 0)"/>
      <use xlink:href="#DejaVuSans-50" transform="translate(339.046875 0)"/>
      <use xlink:href="#DejaVuSans-40" transform="translate(436.453125 0)"/>
     </g>
    </g>
   </g>
   <g id="line2d_26">
    <path d="M 356.244689 238.012985 
L 354.766537 239.891806 
L 353.094589 241.59813 
L 351.258971 243.126941 
L 349.291473 244.481281 
L 347.22369 245.672089 
L 345.085151 246.717495 
L 342.901551 247.64153 
L 340.693211 248.472239 
L 338.473913 249.239219 
L 336.250263 249.970638 
L 334.021713 250.689875 
L 331.781394 251.411982 
L 329.517816 252.140269 
L 327.217452 252.863326 
L 324.868102 253.552706 
L 322.462875 254.160763 
L 320.005104 254.613186 
L 317.517829 254.778317 
L 315.027905 254.683319 
" clip-path="url(#p7f017fe960)" style="fill: none; stroke: #0369a1; stroke-width: 1.4; stroke-linecap: square"/>
   </g>
   <g id="line2d_27">
    <path d="M 346.019072 174.715132 
L 345.410776 172.117424 
L 344.527376 169.619221 
L 343.366739 167.275354 
L 341.936436 165.139195 
L 340.253548 163.26052 
L 338.344063 161.683359 
L 336.24187 160.443946 
L 333.987313 159.568925 
L 331.625352 159.07407 
L 329.203377 158.964082 
L 326.768868 159.234827 
L 324.367288 159.885873 
L 322.04379 160.950637 
L 319.84123 162.270478 
L 317.772729 163.699531 
L 315.808758 164.998174 
L 313.906162 166.097741 
L 312.024886 166.998047 
L 310.133113 167.728702 
L 308.211767 168.34074 
L 306.2567 168.897751 
L 304.278758 169.467454 
L 302.302109 170.11438 
L 300.361288 170.894095 
L 298.497464 171.849129 
L 296.754361 173.006635 
L 295.174249 174.377636 
L 293.794315 175.957664 
L 292.643665 177.728523 
" clip-path="url(#p7f017fe960)" style="fill: none; stroke: #0369a1; stroke-width: 1.4; stroke-linecap: square"/>
   </g>
   <g id="line2d_28">
    <path d="M 350.202802 207.362087 
L 349.17316 205.910419 
L 348.237156 204.561343 
L 347.434575 203.289827 
L 346.792996 202.065083 
L 346.330108 200.852626 
L 346.053612 199.616166 
L 345.961168 198.319518 
L 346.040639 196.928486 
L 346.270667 195.412671 
L 346.621606 193.747122 
L 347.056769 191.91377 
L 347.533949 189.902584 
L 348.007159 187.712402 
L 348.428516 185.351405 
L 348.750196 182.837207 
L 348.926396 180.196566 
L 348.915204 177.464708 
L 348.680327 174.684312 
L 348.192603 171.904158 
L 347.431235 169.177512 
L 346.384721 166.560267 
L 345.051418 164.10891 
L 343.439731 161.878359 
L 341.567899 159.919723 
L 339.463357 158.278072 
L 337.161658 156.990301 
L 334.704954 156.083275 
L 332.140044 155.572544 
L 329.516078 155.462241 
L 326.882119 155.747755 
L 324.284955 156.432488 
L 321.772023 157.539748 
L 319.385163 158.8971 
L 317.133975 160.348828 
L 314.984278 161.656935 
L 312.892586 162.769677 
L 310.819125 163.691578 
L 308.733463 164.45676 
L 306.618837 165.120066 
L 304.474064 165.74783 
L 302.313275 166.40924 
L 300.163897 167.168969 
" clip-path="url(#p7f017fe960)" style="fill: none; stroke: #0369a1; stroke-width: 1.4; stroke-linecap: square"/>
   </g>
   <g id="line2d_29">
    <path d="M 346.019072 174.715132 
L 345.399825 172.079933 
L 344.497265 169.548008 
L 343.309388 167.176619 
L 341.844473 165.021416 
L 340.120856 163.134132 
L 338.166265 161.560284 
L 336.016701 160.336974 
L 333.714851 159.490991 
L 331.30807 159.037524 
L 328.846 158.980132 
L 326.378057 159.313766 
L 323.951179 160.04561 
L 321.613734 161.187188 
L 319.405735 162.560971 
L 317.33325 164.001038 
L 315.358354 165.274631 
L 313.436549 166.340147 
L 311.527536 167.205632 
L 309.601158 167.908603 
L 307.641597 168.506808 
L 305.649079 169.068738 
L 303.639364 169.664843 
L 301.641482 170.360131 
L 299.69424 171.208521 
L 297.842035 172.249087 
L 296.13045 173.50415 
" clip-path="url(#p7f017fe960)" style="fill: none; stroke: #0369a1; stroke-width: 1.4; stroke-linecap: square"/>
   </g>
   <g id="line2d_30">
    <path d="M 334.750417 254.178478 
L 337.152842 253.409165 
L 339.547322 252.620579 
L 341.934502 251.789944 
L 344.307892 250.889439 
L 346.65379 249.889585 
L 348.951876 248.762276 
L 351.176353 247.483289 
L 353.297467 246.034225 
L 355.28327 244.403839 
L 357.1015 242.588796 
L 358.721451 240.593869 
L 360.115742 238.431642 
L 361.261899 236.121785 
L 362.143679 233.689968 
L 362.752083 231.166489 
L 363.086016 228.584702 
L 363.152575 225.979337 
L 362.966956 223.384772 
L 362.551983 220.833358 
L 361.93728 218.353872 
L 361.158115 215.970149 
L 360.253956 213.699981 
L 359.266745 211.554318 
L 358.238861 209.536818 
L 357.210136 207.643803 
L 356.211775 205.864921 
L 355.289189 204.184172 
L 354.479456 202.57819 
L 353.808607 201.01831 
L 353.293426 199.472446 
L 352.941351 197.90683 
L 352.750427 196.287787 
L 352.709523 194.583468 
L 352.798861 192.765534 
L 352.990865 190.810682 
L 353.251302 188.701984 
L 353.54067 186.429979 
L 353.815795 183.993462 
L 354.031561 181.39996 
L 354.14272 178.665849 
L 354.105706 175.816136 
L 353.880381 172.883881 
L 353.431665 169.909303 
L 352.730963 166.938584 
L 351.757372 164.022408 
L 350.498589 161.21429 
L 348.951519 158.56872 
L 347.122528 156.139181 
L 345.027342 153.976095 
L 342.69056 152.12474 
L 340.144772 150.623234 
L 337.429274 149.50072 
L 334.588378 148.775961 
L 331.669381 148.456787 
L 328.72031 148.541351 
L 325.787777 149.02511 
" clip-path="url(#p7f017fe960)" style="fill: none; stroke: #0369a1; stroke-width: 1.4; stroke-linecap: square"/>
   </g>
   <g id="line2d_31">
    <path d="M 346.848755 247.844121 
L 344.595734 248.859711 
L 342.30834 249.765876 
L 340.003405 250.592086 
L 337.690683 251.367621 
L 335.372599 252.118291 
L 333.044754 252.862884 
L 330.697308 253.609618 
L 328.317263 254.352906 
L 325.891589 255.070751 
L 323.411045 255.722655 
L 320.874666 256.245795 
L 318.297711 256.521671 
L 315.709784 256.50673 
L 313.134278 256.24401 
L 310.595885 255.733952 
L 308.121098 254.97321 
L 305.737464 253.961289 
L 303.472393 252.702946 
L 301.35181 251.209112 
L 299.398803 249.496986 
L 297.632393 247.589571 
L 296.066496 245.514806 
L 294.709138 243.304405 
L 293.561971 240.992503 
L 292.620096 238.614201 
L 291.872209 236.204079 
L 291.301062 233.794763 
L 290.884205 231.415613 
L 290.594978 229.091591 
L 290.403713 226.842353 
L 290.279069 224.681618 
L 290.189465 222.616824 
L 290.104525 220.649093 
L 289.996479 218.773497 
L 289.841455 216.979611 
L 289.620611 215.252325 
L 289.321053 213.572878 
L 288.936504 211.920055 
L 288.467712 210.271516 
L 287.922603 208.605173 
L 287.31624 206.900586 
L 286.6709 205.140362 
L 286.01942 203.311836 
L 285.394574 201.408258 
L 284.816805 199.426602 
L 284.314396 197.368823 
L 283.909648 195.240206 
L 283.537719 193.021265 
L 283.20481 190.704268 
" clip-path="url(#p7f017fe960)" style="fill: none; stroke: #0369a1; stroke-width: 1.4; stroke-linecap: square"/>
   </g>
   <g id="line2d_32">
    <path d="M 334.750417 254.178478 
L 332.325235 254.945185 
L 329.873676 255.708911 
L 327.382474 256.456664 
L 324.840035 257.157984 
L 322.240564 257.76265 
L 319.589281 258.191017 
L 316.911943 258.31255 
L 314.235148 258.169264 
L 311.582862 257.774709 
L 308.980983 257.126156 
L 306.456942 256.221201 
L 304.038693 255.061717 
L 301.75342 253.655433 
L 299.626154 252.016412 
L 297.678467 250.164867 
L 295.927315 248.126472 
L 294.384109 245.931345 
L 293.054067 243.61277 
L 291.935873 241.205782 
L 291.021657 238.745669 
L 290.297291 236.266506 
L 289.742998 233.799754 
L 289.334221 231.373024 
L 289.04273 229.009045 
L 288.837904 226.724879 
L 288.688129 224.531426 
L 288.562248 222.433229 
L 288.431006 220.428584 
L 288.268409 218.509955 
L 288.052951 216.664663 
L 287.768652 214.875812 
L 287.405857 213.123422 
L 286.961786 211.385699 
L 286.440808 209.640406 
L 285.854483 207.866257 
L 285.221512 206.044324 
L 284.568374 204.159475 
L 283.933394 202.202403 
L 283.338678 200.168465 
L 282.809551 198.057244 
L 282.375327 195.873606 
L 282.019299 193.613843 
L 281.689997 191.257146 
L 281.424289 188.806247 
L 281.26394 186.272923 
L 281.251173 183.67772 
L 281.425899 181.049434 
L 281.822993 178.423878 
L 282.469809 175.84197 
L 283.38412 173.347218 
L 284.572659 170.982728 
" clip-path="url(#p7f017fe960)" style="fill: none; stroke: #0369a1; stroke-width: 1.4; stroke-linecap: square"/>
   </g>
   <g id="line2d_33">
    <path d="M 286.448157 244.61572 
L 292.794359 243.877292 
" clip-path="url(#p7f017fe960)" style="fill: none; stroke: #4d7c0f; stroke-width: 1.6; stroke-linecap: square"/>
   </g>
   <g id="line2d_34">
    <path d="M 292.794359 243.877292 
L 379.021682 460.832727 
" clip-path="url(#p7f017fe960)" style="fill: none; stroke: #4d7c0f; stroke-width: 1.6; stroke-linecap: square"/>
   </g>
   <g id="line2d_35">
    <path d="M 292.794359 243.877292 
L 413.520947 223.09659 
" clip-path="url(#p7f017fe960)" style="fill: none; stroke: #4d7c0f; stroke-width: 1.6; stroke-linecap: square"/>
   </g>
   <g id="line2d_36">
    <path d="M 292.794359 243.877292 
L 104.879053 45.487273 
" clip-path="url(#p7f017fe960)" style="fill: none; stroke: #4d7c0f; stroke-width: 1.6; stroke-linecap: square"/>
   </g>
   <g id="patch_4">
    <path d="M 89.446958 481.6 
L 89.446958 24.72 
" style="fill: none; stroke: #000000; stroke-width: 0.8; stroke-linejoin: miter; stroke-linecap: square"/>
   </g>
   <g id="patch_5">
    <path d="M 428.953042 481.6 
L 428.953042 24.72 
" style="fill: none; stroke: #000000; stroke-width: 0.8; stroke-linejoin: miter; stroke-linecap: square"/>
   </g>
   <g id="patch_6">
    <path d="M 89.446958 481.6 
L 428.953042 481.6 
" style="fill: none; stroke: #000000; stroke-width: 0.8; stroke-linejoin: miter; stroke-linecap: square"/>
   </g>
   <g id="patch_7">
    <path d="M 89.446958 24.72 
L 428.953042 24.72 
" style="fill: none; stroke: #000000; stroke-width: 0.8; stroke-linejoin: miter; stroke-linecap: square"/>
   </g>
   <g id="line2d_37">
    <path d="M 286.448157 244.61572 
L 287.586399 246.537744 
L 288.845556 248.400068 
L 290.228111 250.185782 
L 291.733982 251.878136 
L 293.360525 253.461005 
L 295.102615 254.919341 
L 295.580321 255.281148 
" clip-path="url(#p7f017fe960)" style="fill: none; stroke: #c2410c; stroke-width: 2; stroke-linecap: square"/>
   </g>
   <g id="line2d_38">
    <path d="M 295.580321 255.281148 
L 297.457482 256.562978 
L 299.430356 257.692356 
L 301.487179 258.660445 
L 303.614849 259.460892 
L 305.79933 260.089925 
L 308.026093 260.546302 
L 308.059275 260.551766 
" clip-path="url(#p7f017fe960)" style="fill: none; stroke: #c2410c; stroke-width: 2; stroke-linecap: square"/>
   </g>
   <g id="line2d_39">
    <path d="M 308.059275 260.551766 
L 310.314027 260.834023 
L 312.582013 260.947561 
L 314.849681 260.895976 
L 317.104368 260.681321 
L 319.334292 260.295291 
L 321.526492 259.703753 
L 321.767992 259.628756 
" clip-path="url(#p7f017fe960)" style="fill: none; stroke: #c2410c; stroke-width: 2; stroke-linecap: square"/>
   </g>
   <g id="line2d_40">
    <path d="M 321.767992 259.628756 
L 323.900951 258.89792 
L 325.97579 258.092958 
L 327.993675 257.245547 
L 329.959159 256.378506 
L 331.878735 255.507001 
L 333.75955 254.639204 
L 334.750417 254.178478 
" clip-path="url(#p7f017fe960)" style="fill: none; stroke: #c2410c; stroke-width: 2; stroke-linecap: square"/>
   </g>
   <g id="line2d_41">
    <path d="M 334.750417 254.178478 
L 336.58432 253.318174 
L 338.393429 252.456342 
L 340.179594 251.583373 
L 341.941927 250.687091 
L 343.676664 249.75389 
L 345.377227 248.76979 
L 346.848755 247.844121 
" clip-path="url(#p7f017fe960)" style="fill: none; stroke: #c2410c; stroke-width: 2; stroke-linecap: square"/>
   </g>
   <g id="line2d_42">
    <path d="M 346.848755 247.844121 
L 348.458081 246.728624 
L 350.001064 245.527881 
L 351.463418 244.2342 
L 352.830145 242.842789 
L 354.08613 241.351971 
L 355.216743 239.763273 
L 356.208415 238.081378 
L 356.244689 238.012985 
" clip-path="url(#p7f017fe960)" style="fill: none; stroke: #c2410c; stroke-width: 2; stroke-linecap: square"/>
   </g>
   <g id="line2d_43">
    <path d="M 356.244689 238.012985 
L 357.079255 236.24237 
L 357.752673 234.397078 
L 358.257645 232.489945 
L 358.58971 230.535722 
L 358.747475 228.550587 
L 358.732774 226.55162 
L 358.55071 224.556261 
L 358.349904 223.285144 
" clip-path="url(#p7f017fe960)" style="fill: none; stroke: #c2410c; stroke-width: 2; stroke-linecap: square"/>
   </g>
   <g id="line2d_44">
    <path d="M 358.349904 223.285144 
L 357.912516 221.332788 
L 357.336355 219.4278 
L 356.637349 217.584423 
L 355.833715 215.814927 
L 354.94551 214.129242 
L 353.994122 212.534657 
L 353.001697 211.035617 
L 351.99049 209.633595 
L 350.98207 208.327077 
L 350.202802 207.362087 
" clip-path="url(#p7f017fe960)" style="fill: none; stroke: #c2410c; stroke-width: 2; stroke-linecap: square"/>
   </g>
   <g id="line2d_45">
    <path d="M 350.202802 207.362087 
L 349.243673 206.213621 
L 348.340739 205.142537 
L 347.515815 204.137338 
L 346.784788 203.184011 
L 346.159649 202.266774 
L 345.648617 201.368636 
L 345.25611 200.471964 
L 344.98274 199.559049 
L 344.825365 198.612664 
L 344.777218 197.616611 
L 344.828118 196.556241 
L 344.964757 195.418935 
L 345.171059 194.194529 
L 345.311967 193.457164 
" clip-path="url(#p7f017fe960)" style="fill: none; stroke: #c2410c; stroke-width: 2; stroke-linecap: square"/>
   </g>
   <g id="line2d_46">
    <path d="M 345.311967 193.457164 
L 345.589723 192.082575 
L 345.88631 190.608406 
L 346.179615 189.035738 
L 346.447076 187.369158 
L 346.666257 185.616755 
L 346.815424 183.790028 
L 346.874102 181.903704 
L 346.823599 179.975475 
L 346.647487 178.025657 
L 346.332034 176.076781 
L 346.019072 174.715132 
" clip-path="url(#p7f017fe960)" style="fill: none; stroke: #c2410c; stroke-width: 2; stroke-linecap: square"/>
   </g>
   <g id="text_17">
    <!-- openpit-b2026-6 — spiral, 10 benches, 7 shovels, 3 dumps, seed 1422408349 -->
    <g transform="translate(63.242969 18.72) scale(0.1 -0.1)">
     <defs>
      <path id="DejaVuSans-53" d="M 1159 525 
L 1159 -1331 
L 581 -1331 
L 581 3500 
L 1159 3500 
L 1159 2969 
Q 1341 3281 1617 3432 
Q 1894 3584 2278 3584 
Q 2916 3584 3314 3078 
Q 3713 2572 3713 1747 
Q 3713 922 3314 415 
Q 2916 -91 2278 -91 
Q 1894 -91 1617 61 
Q 1341 213 1159 525 
z
M 3116 1747 
Q 3116 2381 2855 2742 
Q 2594 3103 2138 3103 
Q 1681 3103 1420 2742 
Q 1159 2381 1159 1747 
Q 1159 1113 1420 752 
Q 1681 391 2138 391 
Q 2594 391 2855 752 
Q 3116 1113 3116 1747 
z
" transform="scale(0.015625)"/>
      <path id="DejaVuSans-4c" d="M 603 3500 
L 1178 3500 
L 1178 0 
L 603 0 
L 603 3500 
z
M 603 4863 
L 1178 4863 
L 1178 4134 
L 603 4134 
L 603 4863 
z
" transform="scale(0.015625)"/>
      <path id="DejaVuSans-10" d="M 313 2009 
L 1997 2009 
L 1997 1497 
L 313 1497 
L 313 2009 
z
" transform="scale(0.015625)"/>
      <path id="DejaVuSans-45" d="M 3116 1747 
Q 3116 2381 2855 2742 
Q 2594 3103 2138 3103 
Q 1681 3103 1420 2742 
Q 1159 2381 1159 1747 
Q 1159 1113 1420 752 
Q 1681 391 2138 391 
Q 2594 391 2855 752 
Q 3116 1113 3116 1747 
z
M 1159 2969 
Q 1341 3281 1617 3432 
Q 1894 3584 2278 3584 
Q 2916 3584 3314 3078 
Q 3713 2572 3713 1747 
Q 3713 922 3314 415 
Q 2916 -91 2278 -91 
Q 1894 -91 1617 61 
Q 1341 213 1159 525 
L 1159 0 
L 581 0 
L 581 4863 
L 1159 4863 
L 1159 2969 
z
" transform="scale(0.015625)"/>
      <path id="DejaVuSans-19" d="M 2113 2584 
Q 1688 2584 1439 2293 
Q 1191 2003 1191 1497 
Q 1191 994 1439 701 
Q 1688 409 2113 409 
Q 2538 409 2786 701 
Q 3034 994 3034 1497 
Q 3034 2003 2786 2293 
Q 2538 2584 2113 2584 
z
M 3366 4563 
L 3366 3988 
Q 3128 4100 2886 4159 
Q 2644 4219 2406 4219 
Q 1781 4219 1451 3797 
Q 1122 3375 1075 2522 
Q 1259 2794 1537 2939 
Q 1816 3084 2150 3084 
Q 2853 3084 3261 2657 
Q 3669 2231 3669 1497 
Q 3669 778 3244 343 
Q 2819 -91 2113 -91 
Q 1303 -91 875 529 
Q 447 1150 447 2328 
Q 447 3434 972 4092 
Q 1497 4750 2381 4750 
Q 2619 4750 2861 4703 
Q 3103 4656 3366 4563 
z
" transform="scale(0.015625)"/>
      <path id="DejaVuSans-af6" d="M 313 1978 
L 6088 1978 
L 6088 1528 
L 313 1528 
L 313 1978 
z
" transform="scale(0.015625)"/>
      <path id="DejaVuSans-4f" d="M 603 4863 
L 1178 4863 
L 1178 0 
L 603 0 
L 603 4863 
z
" transform="scale(0.015625)"/>
      <path id="DejaVuSans-f" d="M 750 794 
L 1409 794 
L 1409 256 
L 897 -744 
L 494 -744 
L 750 256 
L 750 794 
z
" transform="scale(0.015625)"/>
      <path id="DejaVuSans-46" d="M 3122 3366 
L 3122 2828 
Q 2878 2963 2633 3030 
Q 2388 3097 2138 3097 
Q 1578 3097 1268 2742 
Q 959 2388 959 1747 
Q 959 1106 1268 751 
Q 1578 397 2138 397 
Q 2388 397 2633 464 
Q 2878 531 3122 666 
L 3122 134 
Q 2881 22 2623 -34 
Q 2366 -91 2075 -91 
Q 1284 -91 818 406 
Q 353 903 353 1747 
Q 353 2603 823 3093 
Q 1294 3584 2113 3584 
Q 2378 3584 2631 3529 
Q 2884 3475 3122 3366 
z
" transform="scale(0.015625)"/>
      <path id="DejaVuSans-1a" d="M 525 4666 
L 3525 4666 
L 3525 4397 
L 1831 0 
L 1172 0 
L 2766 4134 
L 525 4134 
L 525 4666 
z
" transform="scale(0.015625)"/>
      <path id="DejaVuSans-59" d="M 191 3500 
L 800 3500 
L 1894 563 
L 2988 3500 
L 3597 3500 
L 2284 0 
L 1503 0 
L 191 3500 
z
" transform="scale(0.015625)"/>
      <path id="DejaVuSans-16" d="M 2597 2516 
Q 3050 2419 3304 2112 
Q 3559 1806 3559 1356 
Q 3559 666 3084 287 
Q 2609 -91 1734 -91 
Q 1441 -91 1130 -33 
Q 819 25 488 141 
L 488 750 
Q 750 597 1062 519 
Q 1375 441 1716 441 
Q 2309 441 2620 675 
Q 2931 909 2931 1356 
Q 2931 1769 2642 2001 
Q 2353 2234 1838 2234 
L 1294 2234 
L 1294 2753 
L 1863 2753 
Q 2328 2753 2575 2939 
Q 2822 3125 2822 3475 
Q 2822 3834 2567 4026 
Q 2313 4219 1838 4219 
Q 1578 4219 1281 4162 
Q 984 4106 628 3988 
L 628 4550 
Q 988 4650 1302 4700 
Q 1616 4750 1894 4750 
Q 2613 4750 3031 4423 
Q 3450 4097 3450 3541 
Q 3450 3153 3228 2886 
Q 3006 2619 2597 2516 
z
" transform="scale(0.015625)"/>
      <path id="DejaVuSans-47" d="M 2906 2969 
L 2906 4863 
L 3481 4863 
L 3481 0 
L 2906 0 
L 2906 525 
Q 2725 213 2448 61 
Q 2172 -91 1784 -91 
Q 1150 -91 751 415 
Q 353 922 353 1747 
Q 353 2572 751 3078 
Q 1150 3584 1784 3584 
Q 2172 3584 2448 3432 
Q 2725 3281 2906 2969 
z
M 947 1747 
Q 947 1113 1208 752 
Q 1469 391 1925 391 
Q 2381 391 2643 752 
Q 2906 1113 2906 1747 
Q 2906 2381 2643 2742 
Q 2381 3103 1925 3103 
Q 1469 3103 1208 2742 
Q 947 2381 947 1747 
z
" transform="scale(0.015625)"/>
      <path id="DejaVuSans-58" d="M 544 1381 
L 544 3500 
L 1119 3500 
L 1119 1403 
Q 1119 906 1312 657 
Q 1506 409 1894 409 
Q 2359 409 2629 706 
Q 2900 1003 2900 1516 
L 2900 3500 
L 3475 3500 
L 3475 0 
L 2900 0 
L 2900 538 
Q 2691 219 2414 64 
Q 2138 -91 1772 -91 
Q 1169 -91 856 284 
Q 544 659 544 1381 
z
M 1991 3584 
L 1991 3584 
z
" transform="scale(0.015625)"/>
      <path id="DejaVuSans-17" d="M 2419 4116 
L 825 1625 
L 2419 1625 
L 2419 4116 
z
M 2253 4666 
L 3047 4666 
L 3047 1625 
L 3713 1625 
L 3713 1100 
L 3047 1100 
L 3047 0 
L 2419 0 
L 2419 1100 
L 313 1100 
L 313 1709 
L 2253 4666 
z
" transform="scale(0.015625)"/>
      <path id="DejaVuSans-1b" d="M 2034 2216 
Q 1584 2216 1326 1975 
Q 1069 1734 1069 1313 
Q 1069 891 1326 650 
Q 1584 409 2034 409 
Q 2484 409 2743 651 
Q 3003 894 3003 1313 
Q 3003 1734 2745 1975 
Q 2488 2216 2034 2216 
z
M 1403 2484 
Q 997 2584 770 2862 
Q 544 3141 544 3541 
Q 544 4100 942 4425 
Q 1341 4750 2034 4750 
Q 2731 4750 3128 4425 
Q 3525 4100 3525 3541 
Q 3525 3141 3298 2862 
Q 3072 2584 2669 2484 
Q 3125 2378 3379 2068 
Q 3634 1759 3634 1313 
Q 3634 634 3220 271 
Q 2806 -91 2034 -91 
Q 1263 -91 848 271 
Q 434 634 434 1313 
Q 434 1759 690 2068 
Q 947 2378 1403 2484 
z
M 1172 3481 
Q 1172 3119 1398 2916 
Q 1625 2713 2034 2713 
Q 2441 2713 2670 2916 
Q 2900 3119 2900 3481 
Q 2900 3844 2670 4047 
Q 2441 4250 2034 4250 
Q 1625 4250 1398 4047 
Q 1172 3844 1172 3481 
z
" transform="scale(0.015625)"/>
      <path id="DejaVuSans-1c" d="M 703 97 
L 703 672 
Q 941 559 1184 500 
Q 1428 441 1663 441 
Q 2288 441 2617 861 
Q 2947 1281 2994 2138 
Q 2813 1869 2534 1725 
Q 2256 1581 1919 1581 
Q 1219 1581 811 2004 
Q 403 2428 403 3163 
Q 403 3881 828 4315 
Q 1253 4750 1959 4750 
Q 2769 4750 3195 4129 
Q 3622 3509 3622 2328 
Q 3622 1225 3098 567 
Q 2575 -91 1691 -91 
Q 1453 -91 1209 -44 
Q 966 3 703 97 
z
M 1959 2075 
Q 2384 2075 2632 2365 
Q 2881 2656 2881 3163 
Q 2881 3666 2632 3958 
Q 2384 4250 1959 4250 
Q 1534 4250 1286 3958 
Q 1038 3666 1038 3163 
Q 1038 2656 1286 2365 
Q 1534 2075 1959 2075 
z
" transform="scale(0.015625)"/>
     </defs>
     <use xlink:href="#DejaVuSans-52"/>
     <use xlink:href="#DejaVuSans-53" transform="translate(61.1875 0)"/>
     <use xlink:href="#DejaVuSans-48" transform="translate(124.671875 0)"/>
     <use xlink:href="#DejaVuSans-51" transform="translate(186.203125 0)"/>
     <use xlink:href="#DejaVuSans-53" transform="translate(249.578125 0)"/>
     <use xlink:href="#DejaVuSans-4c" transform="translate(313.0625 0)"/>
     <use xlink:href="#DejaVuSans-57" transform="translate(340.84375 0)"/>
     <use xlink:href="#DejaVuSans-10" transform="translate(380.046875 0)"/>
     <use xlink:href="#DejaVuSans-45" transform="translate(416.125 0)"/>
     <use xlink:href="#DejaVuSans-15" transform="translate(479.609375 0)"/>
     <use xlink:href="#DejaVuSans-13" transform="translate(543.234375 0)"/>
     <use xlink:href="#DejaVuSans-15" transform="translate(606.859375 0)"/>
     <use xlink:href="#DejaVuSans-19" transform="translate(670.484375 0)"/>
     <use xlink:href="#DejaVuSans-10" transform="translate(734.109375 0)"/>
     <use xlink:href="#DejaVuSans-19" transform="translate(770.1875 0)"/>
     <use xlink:href="#DejaVuSans-3" transform="translate(833.8125 0)"/>
     <use xlink:href="#DejaVuSans-af6" transform="translate(865.59375 0)"/>
     <use xlink:href="#DejaVuSans-3" transform="translate(965.59375 0)"/>
     <use xlink:href="#DejaVuSans-56" transform="translate(997.375 0)"/>
     <use xlink:href="#DejaVuSans-53" transform="translate(1049.46875 0)"/>
     <use xlink:href="#DejaVuSans-4c" transform="translate(1112.953125 0)"/>
     <use xlink:href="#DejaVuSans-55" transform="translate(1140.734375 0)"/>
     <use xlink:href="#DejaVuSans-44" transform="translate(1181.84375 0)"/>
     <use xlink:href="#DejaVuSans-4f" transform="translate(1243.125 0)"/>
     <use xlink:href="#DejaVuSans-f" transform="translate(1270.90625 0)"/>
     <use xlink:href="#DejaVuSans-3" transform="translate(1302.6875 0)"/>
     <use xlink:href="#DejaVuSans-14" transform="translate(1334.46875 0)"/>
     <use xlink:href="#DejaVuSans-13" transform="translate(1398.09375 0)"/>
     <use xlink:href="#DejaVuSans-3" transform="translate(1461.71875 0)"/>
     <use xlink:href="#DejaVuSans-45" transform="translate(1493.5 0)"/>
     <use xlink:href="#DejaVuSans-48" transform="translate(1556.984375 0)"/>
     <use xlink:href="#DejaVuSans-51" transform="translate(1618.515625 0)"/>
     <use xlink:href="#DejaVuSans-46" transform="translate(1681.890625 0)"/>
     <use xlink:href="#DejaVuSans-4b" transform="translate(1736.875 0)"/>
     <use xlink:href="#DejaVuSans-48" transform="translate(1800.25 0)"/>
     <use xlink:href="#DejaVuSans-56" transform="translate(1861.78125 0)"/>
     <use xlink:href="#DejaVuSans-f" transform="translate(1913.875 0)"/>
     <use xlink:href="#DejaVuSans-3" transform="translate(1945.65625 0)"/>
     <use xlink:href="#DejaVuSans-1a" transform="translate(1977.4375 0)"/>
     <use xlink:href="#DejaVuSans-3" transform="translate(2041.0625 0)"/>
     <use xlink:href="#DejaVuSans-56" transform="translate(2072.84375 0)"/>
     <use xlink:href="#DejaVuSans-4b" transform="translate(2124.9375 0)"/>
     <use xlink:href="#DejaVuSans-52" transform="translate(2188.3125 0)"/>
     <use xlink:href="#DejaVuSans-59" transform="translate(2249.5 0)"/>
     <use xlink:href="#DejaVuSans-48" transform="translate(2308.6875 0)"/>
     <use xlink:href="#DejaVuSans-4f" transform="translate(2370.21875 0)"/>
     <use xlink:href="#DejaVuSans-56" transform="translate(2398 0)"/>
     <use xlink:href="#DejaVuSans-f" transform="translate(2450.09375 0)"/>
     <use xlink:href="#DejaVuSans-3" transform="translate(2481.875 0)"/>
     <use xlink:href="#DejaVuSans-16" transform="translate(2513.65625 0)"/>
     <use xlink:href="#DejaVuSans-3" transform="translate(2577.28125 0)"/>
     <use xlink:href="#DejaVuSans-47" transform="translate(2609.0625 0)"/>
     <use xlink:href="#DejaVuSans-58" transform="translate(2672.546875 0)"/>
     <use xlink:href="#DejaVuSans-50" transform="translate(2735.921875 0)"/>
     <use xlink:href="#DejaVuSans-53" transform="translate(2833.328125 0)"/>
     <use xlink:href="#DejaVuSans-56" transform="translate(2896.8125 0)"/>
     <use xlink:href="#DejaVuSans-f" transform="translate(2948.90625 0)"/>
     <use xlink:href="#DejaVuSans-3" transform="translate(2980.6875 0)"/>
     <use xlink:href="#DejaVuSans-56" transform="translate(3012.46875 0)"/>
     <use xlink:href="#DejaVuSans-48" transform="translate(3064.5625 0)"/>
     <use xlink:href="#DejaVuSans-48" transform="translate(3126.09375 0)"/>
     <use xlink:href="#DejaVuSans-47" transform="translate(3187.625 0)"/>
     <use xlink:href="#DejaVuSans-3" transform="translate(3251.109375 0)"/>
     <use xlink:href="#DejaVuSans-14" transform="translate(3282.890625 0)"/>
     <use xlink:href="#DejaVuSans-17" transform="translate(3346.515625 0)"/>
     <use xlink:href="#DejaVuSans-15" transform="translate(3410.140625 0)"/>
     <use xlink:href="#DejaVuSans-15" transform="translate(3473.765625 0)"/>
     <use xlink:href="#DejaVuSans-17" transform="translate(3537.390625 0)"/>
     <use xlink:href="#DejaVuSans-13" transform="translate(3601.015625 0)"/>
     <use xlink:href="#DejaVuSans-1b" transform="translate(3664.640625 0)"/>
     <use xlink:href="#DejaVuSans-16" transform="translate(3728.265625 0)"/>
     <use xlink:href="#DejaVuSans-17" transform="translate(3791.890625 0)"/>
     <use xlink:href="#DejaVuSans-1c" transform="translate(3855.515625 0)"/>
    </g>
   </g>
   <g id="PathCollection_1">
    <defs>
     <path id="m5082114bc5" d="M 0 5 
L 5 0 
L 0 -5 
L -5 0 
z
" style="stroke: #7c3aed"/>
    </defs>
    <g clip-path="url(#p7f017fe960)">
     <use xlink:href="#m5082114bc5" x="286.448157" y="244.61572" style="fill: #7c3aed; stroke: #7c3aed"/>
    </g>
   </g>
   <g id="PathCollection_2">
    <defs>
     <path id="m8337a7f1a2" d="M 0 -4.743416 
L -4.743416 4.743416 
L 4.743416 4.743416 
z
" style="stroke: #111827"/>
    </defs>
    <g clip-path="url(#p7f017fe960)">
     <use xlink:href="#m8337a7f1a2" x="315.027905" y="254.683319" style="fill: #111827; stroke: #111827"/>
    </g>
   </g>
   <g id="PathCollection_3">
    <g clip-path="url(#p7f017fe960)">
     <use xlink:href="#m8337a7f1a2" x="292.643665" y="177.728523" style="fill: #111827; stroke: #111827"/>
    </g>
   </g>
   <g id="PathCollection_4">
    <g clip-path="url(#p7f017fe960)">
     <use xlink:href="#m8337a7f1a2" x="300.163897" y="167.168969" style="fill: #111827; stroke: #111827"/>
    </g>
   </g>
   <g id="PathCollection_5">
    <g clip-path="url(#p7f017fe960)">
     <use xlink:href="#m8337a7f1a2" x="296.13045" y="173.50415" style="fill: #111827; stroke: #111827"/>
    </g>
   </g>
   <g id="PathCollection_6">
    <g clip-path="url(#p7f017fe960)">
     <use xlink:href="#m8337a7f1a2" x="325.787777" y="149.02511" style="fill: #111827; stroke: #111827"/>
    </g>
   </g>
   <g id="PathCollection_7">
    <g clip-path="url(#p7f017fe960)">
     <use xlink:href="#m8337a7f1a2" x="283.20481" y="190.704268" style="fill: #111827; stroke: #111827"/>
    </g>
   </g>
   <g id="PathCollection_8">
    <g clip-path="url(#p7f017fe960)">
     <use xlink:href="#m8337a7f1a2" x="284.572659" y="170.982728" style="fill: #111827; stroke: #111827"/>
    </g>
   </g>
   <g id="PathCollection_9">
    <defs>
     <path id="m5f3030e5fe" d="M -4.472136 4.472136 
L 4.472136 4.472136 
L 4.472136 -4.472136 
L -4.472136 -4.472136 
z
" style="stroke: #1d4ed8"/>
    </defs>
    <g clip-path="url(#p7f017fe960)">
     <use xlink:href="#m5f3030e5fe" x="379.021682" y="460.832727" style="fill: #1d4ed8; stroke: #1d4ed8"/>
    </g>
   </g>
   <g id="PathCollection_10">
    <defs>
     <path id="m9e137c677c" d="M -2.236068 4.472136 
L 0 2.236068 
L 2.236068 4.472136 
L 4.472136 2.236068 
L 2.236068 0 
L 4.472136 -2.236068 
L 2.236068 -4.472136 
L 0 -2.236068 
L -2.236068 -4.472136 
L -4.472136 -2.236068 
L -2.236068 0 
L -4.472136 2.236068 
z
" style="stroke: #a16207"/>
    </defs>
    <g clip-path="url(#p7f017fe960)">
     <use xlink:href="#m9e137c677c" x="413.520947" y="223.09659" style="fill: #a16207; stroke: #a16207"/>
    </g>
   </g>
   <g id="PathCollection_11">
    <g clip-path="url(#p7f017fe960)">
     <use xlink:href="#m9e137c677c" x="104.879053" y="45.487273" style="fill: #a16207; stroke: #a16207"/>
    </g>
   </g>
   <g id="PathCollection_12">
    <defs>
     <path id="md3076e9d12" d="M 0 2.645751 
C 0.701661 2.645751 1.374679 2.366978 1.870829 1.870829 
C 2.366978 1.374679 2.645751 0.701661 2.645751 0 
C 2.645751 -0.701661 2.366978 -1.374679 1.870829 -1.870829 
C 1.374679 -2.366978 0.701661 -2.645751 0 -2.645751 
C -0.701661 -2.645751 -1.374679 -2.366978 -1.870829 -1.870829 
C -2.366978 -1.374679 -2.645751 -0.701661 -2.645751 0 
C -2.645751 0.701661 -2.366978 1.374679 -1.870829 1.870829 
C -1.374679 2.366978 -0.701661 2.645751 0 2.645751 
z
" style="stroke: #4d7c0f"/>
    </defs>
    <g clip-path="url(#p7f017fe960)">
     <use xlink:href="#md3076e9d12" x="292.794359" y="243.877292" style="fill: #4d7c0f; stroke: #4d7c0f"/>
    </g>
   </g>
   <g id="text_18">
    <!-- 1 -->
    <g transform="translate(321.027905 248.683319) scale(0.08 -0.08)">
     <defs>
      <path id="DejaVuSans-Bold-14" d="M 750 831 
L 1813 831 
L 1813 3847 
L 722 3622 
L 722 4441 
L 1806 4666 
L 2950 4666 
L 2950 831 
L 4013 831 
L 4013 0 
L 750 0 
L 750 831 
z
" transform="scale(0.015625)"/>
     </defs>
     <use xlink:href="#DejaVuSans-Bold-14"/>
    </g>
   </g>
   <g id="text_19">
    <!-- 2 -->
    <g transform="translate(298.643665 171.728523) scale(0.08 -0.08)">
     <defs>
      <path id="DejaVuSans-Bold-15" d="M 1844 884 
L 3897 884 
L 3897 0 
L 506 0 
L 506 884 
L 2209 2388 
Q 2438 2594 2547 2791 
Q 2656 2988 2656 3200 
Q 2656 3528 2436 3728 
Q 2216 3928 1850 3928 
Q 1569 3928 1234 3808 
Q 900 3688 519 3450 
L 519 4475 
Q 925 4609 1322 4679 
Q 1719 4750 2100 4750 
Q 2938 4750 3402 4381 
Q 3866 4013 3866 3353 
Q 3866 2972 3669 2642 
Q 3472 2313 2841 1759 
L 1844 884 
z
" transform="scale(0.015625)"/>
     </defs>
     <use xlink:href="#DejaVuSans-Bold-15"/>
    </g>
   </g>
   <g id="text_20">
    <!-- 3 -->
    <g transform="translate(306.163897 161.168969) scale(0.08 -0.08)">
     <defs>
      <path id="DejaVuSans-Bold-16" d="M 2981 2516 
Q 3453 2394 3698 2092 
Q 3944 1791 3944 1325 
Q 3944 631 3412 270 
Q 2881 -91 1863 -91 
Q 1503 -91 1142 -33 
Q 781 25 428 141 
L 428 1069 
Q 766 900 1098 814 
Q 1431 728 1753 728 
Q 2231 728 2486 893 
Q 2741 1059 2741 1369 
Q 2741 1688 2480 1852 
Q 2219 2016 1709 2016 
L 1228 2016 
L 1228 2791 
L 1734 2791 
Q 2188 2791 2409 2933 
Q 2631 3075 2631 3366 
Q 2631 3634 2415 3781 
Q 2200 3928 1806 3928 
Q 1516 3928 1219 3862 
Q 922 3797 628 3669 
L 628 4550 
Q 984 4650 1334 4700 
Q 1684 4750 2022 4750 
Q 2931 4750 3382 4451 
Q 3834 4153 3834 3553 
Q 3834 3144 3618 2883 
Q 3403 2622 2981 2516 
z
" transform="scale(0.015625)"/>
     </defs>
     <use xlink:href="#DejaVuSans-Bold-16"/>
    </g>
   </g>
   <g id="text_21">
    <!-- 4 -->
    <g transform="translate(302.13045 167.50415) scale(0.08 -0.08)">
     <defs>
      <path id="DejaVuSans-Bold-17" d="M 2356 3675 
L 1038 1722 
L 2356 1722 
L 2356 3675 
z
M 2156 4666 
L 3494 4666 
L 3494 1722 
L 4159 1722 
L 4159 850 
L 3494 850 
L 3494 0 
L 2356 0 
L 2356 850 
L 288 850 
L 288 1881 
L 2156 4666 
z
" transform="scale(0.015625)"/>
     </defs>
     <use xlink:href="#DejaVuSans-Bold-17"/>
    </g>
   </g>
   <g id="text_22">
    <!-- 5 -->
    <g transform="translate(331.787777 143.02511) scale(0.08 -0.08)">
     <defs>
      <path id="DejaVuSans-Bold-18" d="M 678 4666 
L 3669 4666 
L 3669 3781 
L 1638 3781 
L 1638 3059 
Q 1775 3097 1914 3117 
Q 2053 3138 2203 3138 
Q 3056 3138 3531 2711 
Q 4006 2284 4006 1522 
Q 4006 766 3489 337 
Q 2972 -91 2053 -91 
Q 1656 -91 1267 -14 
Q 878 63 494 219 
L 494 1166 
Q 875 947 1217 837 
Q 1559 728 1863 728 
Q 2300 728 2551 942 
Q 2803 1156 2803 1522 
Q 2803 1891 2551 2103 
Q 2300 2316 1863 2316 
Q 1603 2316 1309 2248 
Q 1016 2181 678 2041 
L 678 4666 
z
" transform="scale(0.015625)"/>
     </defs>
     <use xlink:href="#DejaVuSans-Bold-18"/>
    </g>
   </g>
   <g id="text_23">
    <!-- 6 -->
    <g transform="translate(289.20481 184.704268) scale(0.08 -0.08)">
     <defs>
      <path id="DejaVuSans-Bold-19" d="M 2316 2303 
Q 2000 2303 1842 2098 
Q 1684 1894 1684 1484 
Q 1684 1075 1842 870 
Q 2000 666 2316 666 
Q 2634 666 2792 870 
Q 2950 1075 2950 1484 
Q 2950 1894 2792 2098 
Q 2634 2303 2316 2303 
z
M 3803 4544 
L 3803 3681 
Q 3506 3822 3243 3889 
Q 2981 3956 2731 3956 
Q 2194 3956 1894 3657 
Q 1594 3359 1544 2772 
Q 1750 2925 1990 3001 
Q 2231 3078 2516 3078 
Q 3231 3078 3670 2659 
Q 4109 2241 4109 1563 
Q 4109 813 3618 361 
Q 3128 -91 2303 -91 
Q 1394 -91 895 523 
Q 397 1138 397 2266 
Q 397 3422 980 4083 
Q 1563 4744 2578 4744 
Q 2900 4744 3203 4694 
Q 3506 4644 3803 4544 
z
" transform="scale(0.015625)"/>
     </defs>
     <use xlink:href="#DejaVuSans-Bold-19"/>
    </g>
   </g>
   <g id="text_24">
    <!-- 7 -->
    <g transform="translate(290.572659 164.982728) scale(0.08 -0.08)">
     <defs>
      <path id="DejaVuSans-Bold-1a" d="M 428 4666 
L 3944 4666 
L 3944 3988 
L 2125 0 
L 953 0 
L 2675 3781 
L 428 3781 
L 428 4666 
z
" transform="scale(0.015625)"/>
     </defs>
     <use xlink:href="#DejaVuSans-Bold-1a"/>
    </g>
   </g>
  </g>
 </g>
 <defs>
  <clipPath id="p7f017fe960">
   <rect x="89.446958" y="24.72" width="339.506084" height="456.88"/>
  </clipPath>
 </defs>
</svg>
