<?xml version="1.0" encoding="utf-8" standalone="no"?>
<!DOCTYPE svg PUBLIC "-//W3C//DTD SVG 1.1//EN"
  "http://www.w3.org/Graphics/SVG/1.1/DTD/svg11.dtd">
<svg xmlns:xlink="http://www.w3.org/1999/xlink" width="518.4pt" height="518.4pt" viewBox="0 0 518.4 518.4" xmlns="http://www.w3.org/2000/svg" version="1.1">
 <metadata>
  <rdf:RDF xmlns:dc="http://purl.org/dc/elements/1.1/" xmlns:cc="http://creativecommons.org/ns#" xmlns:rdf="http://www.w3.org/1999/02/22-rdf-syntax-ns#">
   <cc:Work>
    <dc:type rdf:resource="http://purl.org/dc/dcmitype/StillImage"/>
    <dc:date>2026-07-02T08:06:06.304429</dc:date>
    <dc:format>image/svg+xml</dc:format>
    <dc:creator>
     <cc:Agent>
      <dc:title>Matplotlib v3.11.0, https://matplotlib.org/</dc:title>
     </cc:Agent>
    </dc:creator>
   </cc:Work>
  </rdf:RDF>
 </metadata>
 <defs>
  <style type="text/css">*{stroke-linejoin: round; stroke-linecap: butt}</style>
 </defs>
 <g id="figure_1">
  <g id="patch_1">
   <path d="M 0 518.4 
L 518.4 518.4 
L 518.4 0 
L 0 0 
z
" style="fill: #ffffff"/>
  </g>
  <g id="axes_1">
   <g id="patch_2">
    <path d="M 48.921875 437.038184 
L 507.6 437.038184 
L 507.6 81.361816 
L 48.921875 81.361816 
z
" style="fill: #ffffff"/>
   </g>
   <g id="patch_3">
    <path d="M 371.83403 355.410855 
L 371.438649 355.048194 
L 371.080892 354.702737 
L 370.762751 354.37116 
L 370.486055 354.049983 
L 370.251992 353.735629 
L 370.061206 353.424478 
L 369.914169 353.112852 
L 369.811126 352.79703 
L 369.752067 352.473271 
L 369.736709 352.137831 
L 369.764491 351.78698 
L 369.834566 351.417028 
L 369.9458 351.024346 
L 370.09677 350.605384 
L 370.28577 350.156695 
L 370.510813 349.674955 
L 370.76964 349.156985 
L 371.059727 348.599772 
L 371.378296 348.000487 
L 371.722327 347.356504 
L 372.08857 346.66542 
L 372.47356 345.925073 
L 372.873632 345.133559 
L 373.284935 344.289246 
L 373.703451 343.390798 
L 374.125008 342.437182 
L 374.545301 341.427691 
L 374.959905 340.361962 
L 375.364292 339.239988 
L 375.753848 338.062144 
L 376.123892 336.829206 
L 376.469686 335.542374 
L 376.786458 334.2033 
L 377.069412 332.814119 
L 377.313751 331.377484 
L 377.514693 329.896604 
L 377.667495 328.375285 
L 377.767474 326.817985 
L 377.810037 325.229857 
L 377.790719 323.616807 
L 377.705225 321.985547 
L 377.549479 320.343638 
L 377.319694 318.699537 
L 377.012445 317.062619 
L 376.624758 315.443177 
L 376.154219 313.85239 
L 375.599083 312.302255 
L 374.958408 310.805452 
L 374.232178 309.375156 
L 373.421429 308.024778 
L 372.528361 306.767631 
L 371.556421 305.616528 
L 370.510342 304.583327 
L 369.396134 303.678443 
L 368.221006 302.910359 
L 366.993216 302.285162 
L 365.721859 301.806163 
L 364.416575 301.47362 
L 363.087229 301.284584 
L 361.743546 301.232908 
L 360.394748 301.309375 
L 359.049208 301.501954 
L 357.714131 301.796113 
L 356.395284 302.17514 
L 355.096762 302.620364 
L 353.820752 303.111064 
L 352.567202 303.623392 
L 351.333517 304.131263 
L 350.119072 304.643353 
L 348.925398 305.176451 
L 347.7548 305.742046 
L 346.610249 306.348918 
L 345.495212 307.003805 
L 344.413476 307.711611 
L 343.368952 308.475474 
L 342.365478 309.29678 
L 341.406621 310.175207 
L 340.495499 311.108808 
L 339.63463 312.094163 
L 338.825826 313.126592 
L 338.070134 314.200419 
L 337.367822 315.309268 
L 336.718421 316.446375 
L 336.120801 317.604877 
L 335.573278 318.778081 
L 335.073737 319.959679 
L 334.619761 321.143913 
L 334.208757 322.325686 
L 333.838069 323.500619 
L 333.505077 324.665065 
L 333.207272 325.816086 
L 332.942314 326.951403 
L 332.708074 328.069328 
L 332.502653 329.168684 
L 332.324387 330.248725 
L 332.17185 331.309052 
L 332.043833 332.349538 
L 331.939327 333.370257 
L 331.857501 334.371424 
L 331.79767 335.353339 
L 331.759267 336.316348 
L 331.741819 337.260805 
L 331.744913 338.187044 
L 331.768175 339.095364 
L 331.811241 339.98601 
L 331.873738 340.859172 
L 331.955264 341.714975 
L 332.05537 342.553486 
L 332.173548 343.374717 
L 332.309216 344.17863 
L 332.461712 344.965151 
L 332.630287 345.734177 
L 332.814101 346.485588 
L 333.01222 347.219264 
L 333.223618 347.935093 
L 333.447177 348.632988 
L 333.681696 349.312897 
L 333.925889 349.974817 
L 334.178401 350.618805 
L 334.437808 351.244989 
L 334.702632 351.853577 
L 334.971349 352.444868 
L 335.242399 353.019258 
L 335.514199 353.577245 
L 335.78515 354.119439 
L 336.053653 354.646561 
L 336.318114 355.159452 
L 336.576954 355.659069 
L 336.828614 356.146492 
L 337.071554 356.622928 
L 337.30422 357.089709 
L 337.525197 357.548293 
L 337.733815 358.000164 
L 337.929471 358.446858 
L 338.111586 358.889972 
L 338.279644 359.331158 
L 338.433219 359.772116 
L 338.571989 360.214592 
L 338.695748 360.660364 
L 338.804408 361.111239 
L 338.898014 361.569042 
L 338.976741 362.03561 
L 339.040899 362.512776 
L 339.090937 363.002369 
L 339.127438 363.506199 
L 339.151123 364.026048 
L 339.16285 364.563664 
L 339.163606 365.120753 
L 339.15451 365.698968 
L 339.136805 366.299901 
L 339.111859 366.92508 
L 339.081155 367.575954 
L 339.046294 368.253893 
L 339.008986 368.960173 
L 338.971049 369.695973 
L 338.934406 370.46236 
L 338.901081 371.260285 
L 338.873199 372.090563 
L 338.852983 372.953864 
L 338.842756 373.850694 
L 338.844938 374.781372 
L 338.862049 375.746009 
L 338.896705 376.744476 
L 338.951623 377.776369 
L 339.029616 378.840972 
L 339.133589 379.937206 
L 339.266534 381.063582 
L 339.431516 382.218143 
L 339.631659 383.398402 
L 339.870117 384.601285 
L 340.150043 385.823067 
L 340.474542 387.059324 
L 340.846612 388.304891 
L 341.269073 389.553845 
L 341.744485 390.799515 
L 342.275049 392.034528 
L 342.86251 393.250907 
L 343.508044 394.440215 
L 344.212164 395.593761 
L 344.974631 396.702862 
L 345.794395 397.75915 
L 346.669572 398.754914 
L 347.597458 399.683457 
L 348.574603 400.539441 
L 349.596928 401.319189 
L 350.659896 402.020925 
L 351.758717 402.644938 
L 352.888582 403.193643 
L 354.044907 403.671573 
L 355.223576 404.085301 
L 356.421176 404.443344 
L 357.635222 404.756113 
L 358.86438 405.036033 
L 360.10876 405.298184 
L 361.3705 405.562997 
L 362.652194 405.837129 
L 363.952863 406.097059 
L 365.269897 406.32322 
L 366.599306 406.498889 
L 367.935832 406.609207 
L 369.273102 406.641032 
L 370.603834 406.583049 
L 371.920082 406.425974 
L 373.213516 406.162768 
L 374.475718 405.788786 
L 375.69848 405.301852 
L 376.874083 404.702222 
L 377.995526 403.992437 
L 379.056706 403.177076 
L 380.052539 402.262444 
L 380.979003 401.256197 
L 381.833135 400.166963 
L 382.612972 399.003972 
L 383.31746 397.776715 
L 383.946334 396.494657 
L 384.499996 395.167011 
L 384.979385 393.802562 
L 385.385866 392.409554 
L 385.721123 390.995624 
L 385.987075 389.567772 
L 386.185802 388.132367 
L 386.3195 386.695174 
L 386.390439 385.261388 
L 386.400937 383.83569 
L 386.353352 382.422289 
L 386.250073 381.024982 
L 386.093519 379.647194 
L 385.886151 378.292021 
L 385.63047 376.962272 
L 385.329036 375.660493 
L 384.984469 374.388994 
L 384.599462 373.149869 
L 384.176787 371.945007 
L 383.719302 370.776106 
L 383.22995 369.644668 
L 382.711767 368.552013 
L 382.167874 367.499268 
L 381.60148 366.48737 
L 381.015871 365.517058 
L 380.414406 364.588869 
L 379.800503 363.703133 
L 379.177632 362.859966 
L 378.549297 362.059261 
L 377.919025 361.300691 
L 377.290344 360.583694 
L 376.666771 359.90748 
L 376.051792 359.271021 
L 375.44884 358.673056 
L 374.861281 358.112088 
L 374.29239 357.586389 
L 373.745334 357.094004 
L 373.223156 356.632753 
L 372.728751 356.200244 
L 372.264855 355.793877 
L 371.83403 355.410855 
z
" clip-path="url(#p819342a0bd)" style="fill: #e8edf2; stroke: #e8edf2; stroke-linejoin: miter"/>
   </g>
   <g id="line2d_1">
    <path d="M 386.433911 355.410855 
L 385.322762 353.292922 
L 384.501826 351.273891 
L 383.994426 349.262081 
L 383.800877 347.162773 
L 383.899753 344.882609 
L 384.247029 342.334663 
L 386.39279 329.672921 
L 386.761516 325.186951 
L 386.838639 321.964293 
L 386.737599 318.578718 
L 386.421664 315.059519 
L 385.855182 311.446312 
L 385.004634 307.790662 
L 383.84019 304.157643 
L 382.337977 300.626746 
L 380.483165 297.291252 
L 379.422302 295.728942 
L 378.273769 294.254836 
L 377.039972 292.882319 
L 375.724564 291.624276 
L 374.332486 290.49263 
L 372.86996 289.497856 
L 371.344403 288.648489 
L 369.76429 287.950669 
L 368.138925 287.40775 
L 366.478168 287.020026 
L 364.792096 286.784586 
L 363.090653 286.695307 
L 361.383277 286.742998 
L 357.98392 287.198725 
L 354.647158 288.027407 
L 349.807414 289.611361 
L 346.685898 290.749352 
L 343.66279 292.049652 
L 340.765214 293.574896 
L 338.025272 295.35694 
L 335.473886 297.39969 
L 333.134999 299.681481 
L 331.021598 302.160809 
L 329.134589 304.784995 
L 327.4645 307.499501 
L 325.994969 310.255465 
L 324.124498 314.385436 
L 322.600501 318.440035 
L 321.376384 322.381486 
L 320.423186 326.200326 
L 319.725518 329.89906 
L 319.275077 333.481484 
L 319.064431 336.947619 
L 319.082312 340.292772 
L 319.310778 343.5091 
L 319.724172 346.588409 
L 320.50533 350.472348 
L 321.463743 354.107074 
L 323.998805 362.366644 
L 325.298816 367.141575 
L 326.21606 371.311786 
L 329.535067 387.94788 
L 330.624916 391.801396 
L 332.022421 395.85858 
L 333.163831 398.642949 
L 334.500388 401.453349 
L 336.053657 404.244626 
L 337.840897 406.960025 
L 339.871957 409.533601 
L 342.146133 411.895865 
L 344.649999 413.982723 
L 347.357428 415.746287 
L 350.232614 417.164839 
L 353.235906 418.249023 
L 356.331242 419.042949 
L 359.49373 419.622343 
L 366.014456 420.550652 
L 369.37038 420.833382 
L 372.746927 420.82162 
L 376.088225 420.418226 
L 377.725127 420.04808 
L 379.328058 419.558728 
L 380.888604 418.948066 
L 382.39884 418.216422 
L 383.85156 417.366418 
L 385.240464 416.402721 
L 386.560266 415.331721 
L 387.806748 414.161173 
L 388.976753 412.899804 
L 391.079625 410.142204 
L 392.861861 407.135124 
L 394.327128 403.951233 
L 395.486024 400.654993 
L 396.353074 397.301018 
L 396.944773 393.934405 
L 397.278571 390.592049 
L 397.372533 387.30421 
L 397.245414 384.095922 
L 396.916902 380.988057 
L 396.407897 377.998022 
L 395.740709 375.140123 
L 394.939135 372.425676 
L 393.540294 368.640204 
L 391.98591 365.209561 
L 389.832092 361.17877 
L 386.433911 355.410855 
L 386.433911 355.410855 
" clip-path="url(#p819342a0bd)" style="fill: none; stroke: #9aa5b1; stroke-width: 0.6; stroke-linecap: square"/>
   </g>
   <g id="line2d_2">
    <path d="M 384.348214 355.410855 
L 383.242761 353.446956 
L 382.43888 351.581118 
L 381.959803 349.720822 
L 381.821821 348.43652 
L 381.873734 346.373609 
L 382.201916 344.067008 
L 383.193687 339.468783 
L 384.390772 333.702958 
L 385.001942 329.631393 
L 385.386664 325.112576 
L 385.455708 321.874152 
L 385.331434 318.482417 
L 384.97735 314.971474 
L 384.358509 311.386556 
L 383.442796 307.785673 
L 382.20281 304.240939 
L 380.618542 300.838842 
L 379.693914 299.221852 
L 378.680855 297.678401 
L 377.580578 296.22197 
L 376.395456 294.865935 
L 375.129115 293.623169 
L 373.786466 292.505587 
L 372.373699 291.523654 
L 370.898204 290.685899 
L 369.368422 289.998454 
L 367.79363 289.464666 
L 366.183655 289.084825 
L 364.548544 288.856014 
L 362.898209 288.772107 
L 361.242059 288.823909 
L 357.945379 289.284066 
L 354.711387 290.112115 
L 350.025429 291.685633 
L 347.005826 292.810366 
L 344.083856 294.092404 
L 341.286395 295.594427 
L 338.645301 297.348346 
L 336.191259 299.358135 
L 333.947974 301.602211 
L 331.928201 304.039161 
L 330.132619 306.616407 
L 328.551534 309.279527 
L 327.168367 311.979783 
L 325.422037 316.018386 
L 324.015094 319.972699 
L 322.900305 323.805493 
L 322.048112 327.507899 
L 321.442575 331.083058 
L 321.074886 334.53544 
L 320.937162 337.865776 
L 321.017737 341.070115 
L 321.298327 344.141385 
L 321.752989 347.072182 
L 322.571905 350.754136 
L 323.80488 355.005281 
L 326.879117 364.904947 
L 327.758736 368.736631 
L 328.637623 373.773086 
L 330.131208 382.834775 
L 331.166389 387.574069 
L 332.226145 391.409486 
L 333.613025 395.438886 
L 334.758906 398.191992 
L 336.10877 400.95455 
L 337.682609 403.675589 
L 339.494617 406.293366 
L 341.549962 408.739325 
L 343.841976 410.945463 
L 346.350946 412.854478 
L 349.045576 414.430549 
L 351.88752 415.667723 
L 354.838201 416.59355 
L 357.86647 417.26816 
L 364.113509 418.265699 
L 367.341668 418.664718 
L 370.61303 418.833667 
L 373.879958 418.660789 
L 375.492776 418.419333 
L 377.080611 418.064464 
L 378.634867 417.591594 
L 380.147158 416.998606 
L 381.609589 416.285822 
L 383.014984 415.45585 
L 384.35707 414.513343 
L 385.630591 413.464682 
L 386.831356 412.317605 
L 387.956236 411.080827 
L 389.970745 408.375705 
L 391.667308 405.425394 
L 393.049805 402.302422 
L 394.129032 399.071104 
L 394.919707 395.785897 
L 395.438511 392.491731 
L 395.703071 389.225325 
L 395.731621 386.016754 
L 395.543074 382.890861 
L 395.157268 379.868316 
L 394.595241 376.96632 
L 393.879432 374.198964 
L 393.033756 371.577347 
L 391.577467 367.934908 
L 389.976355 364.651151 
L 387.777341 360.820811 
L 384.348214 355.410855 
L 384.348214 355.410855 
" clip-path="url(#p819342a0bd)" style="fill: none; stroke: #9aa5b1; stroke-width: 0.6; stroke-linecap: square"/>
   </g>
   <g id="line2d_3">
    <path d="M 382.262517 355.410855 
L 381.162759 353.60099 
L 380.375935 351.888345 
L 380.037663 350.754658 
L 379.850223 349.59418 
L 379.843841 347.740733 
L 380.139321 345.669313 
L 380.909951 342.422854 
L 382.485675 336.203997 
L 383.24179 332.406369 
L 383.820993 328.145643 
L 384.047431 325.064243 
L 384.102483 321.812399 
L 383.949039 318.419081 
L 383.55105 314.923596 
L 382.87459 311.377227 
L 381.889406 307.844779 
L 380.571189 304.405502 
L 378.904663 301.152452 
L 377.939409 299.62786 
L 376.887386 298.189105 
L 375.750941 296.849551 
L 374.533666 295.622062 
L 373.240445 294.518543 
L 371.877438 293.549452 
L 370.452004 292.723309 
L 368.972555 292.046238 
L 367.448335 291.521582 
L 365.889141 291.149624 
L 364.304991 290.927442 
L 362.705765 290.848907 
L 361.10084 290.90482 
L 357.906838 291.369407 
L 354.775616 292.196823 
L 350.243444 293.759904 
L 345.901753 295.479514 
L 343.138883 296.845014 
L 340.515062 298.445088 
L 338.062099 300.297581 
L 335.807597 302.393279 
L 333.769882 304.699831 
L 331.95539 307.169152 
L 330.359035 309.746747 
L 328.966965 312.380396 
L 327.760445 315.026197 
L 326.25543 318.948971 
L 325.064764 322.76199 
L 324.146614 326.440109 
L 323.476026 329.980636 
L 323.039645 333.388692 
L 322.829118 336.668511 
L 322.835298 339.819937 
L 323.044155 342.83847 
L 323.434562 345.717365 
L 324.186886 349.32876 
L 325.124468 352.679009 
L 326.914489 357.987945 
L 328.49058 362.882645 
L 329.363774 366.399494 
L 330.037461 370.167217 
L 331.108368 378.190433 
L 331.980034 383.581264 
L 332.745049 387.163084 
L 333.77872 390.98166 
L 335.159892 394.980125 
L 336.313595 397.696647 
L 337.679608 400.403166 
L 339.275643 403.043134 
L 341.112016 405.550789 
L 343.188494 407.856803 
L 345.49213 409.897219 
L 347.997285 411.624259 
L 350.668644 413.016296 
L 353.467049 414.084037 
L 356.356937 414.871633 
L 360.814852 415.702739 
L 366.996373 416.607801 
L 370.16683 416.796257 
L 373.333937 416.647832 
L 374.897327 416.42044 
L 376.436095 416.080848 
L 377.941675 415.624459 
L 379.405712 415.049147 
L 380.820338 414.355222 
L 382.178408 413.545281 
L 383.473676 412.623965 
L 384.700915 411.597642 
L 385.855964 410.474037 
L 387.938083 407.970383 
L 389.706665 405.187868 
L 391.160949 402.201466 
L 392.308913 399.079828 
L 393.163822 395.882243 
L 393.741745 392.658119 
L 394.060097 389.447915 
L 394.13699 386.284657 
L 393.991137 383.195456 
L 393.642032 380.202765 
L 393.110226 377.32525 
L 392.417574 374.578318 
L 391.587376 371.974347 
L 390.13868 368.356073 
L 388.525234 365.098015 
L 386.839885 362.201187 
L 384.641834 358.867928 
L 382.262517 355.410855 
L 382.262517 355.410855 
" clip-path="url(#p819342a0bd)" style="fill: none; stroke: #9aa5b1; stroke-width: 0.6; stroke-linecap: square"/>
   </g>
   <g id="line2d_4">
    <path d="M 380.176819 355.410855 
L 379.082758 353.755024 
L 378.312989 352.195571 
L 377.992356 351.163133 
L 377.82752 350.10291 
L 377.815315 348.986025 
L 378.065189 347.142932 
L 378.595328 345.01971 
L 381.394681 335.051991 
L 382.148941 331.058512 
L 382.519928 328.142818 
L 382.741722 325.041929 
L 382.776788 321.78004 
L 382.588246 318.390935 
L 382.140748 314.919553 
L 381.401762 311.423628 
L 380.34346 307.975018 
L 378.945389 304.65998 
L 377.197963 301.577319 
L 376.194195 300.15624 
L 375.106425 298.833167 
L 373.938217 297.620955 
L 372.694424 296.5315 
L 371.381177 295.57525 
L 370.005804 294.760719 
L 368.576687 294.094023 
L 367.10304 293.578499 
L 365.594628 293.214424 
L 364.061439 292.998871 
L 362.513321 292.925708 
L 360.959622 292.985731 
L 357.868296 293.454748 
L 354.839845 294.281531 
L 350.461458 295.834176 
L 346.272362 297.532021 
L 343.610149 298.876772 
L 341.08584 300.451165 
L 338.731003 302.273106 
L 336.573003 304.333456 
L 334.629932 306.599949 
L 332.907997 309.024596 
L 331.401884 311.553014 
L 330.097524 314.1331 
L 328.477423 318.007375 
L 327.202463 321.801124 
L 326.218351 325.464569 
L 325.48863 328.982582 
L 324.992361 332.357036 
L 324.718058 335.594098 
L 324.657204 338.697417 
L 324.798969 341.665985 
L 325.126751 344.49502 
L 325.616568 347.178455 
L 326.466615 350.523104 
L 327.716562 354.338283 
L 330.506861 362.349034 
L 331.160784 364.953304 
L 331.764684 368.419734 
L 332.296836 373.157661 
L 333.035057 379.840081 
L 333.761467 384.308169 
L 334.572941 387.960851 
L 335.698722 391.826352 
L 336.664118 394.481102 
L 337.828871 397.154315 
L 339.213423 399.795235 
L 340.832426 402.342316 
L 342.691518 404.727171 
L 344.784508 406.881947 
L 347.092165 408.749466 
L 349.583683 410.294008 
L 352.221207 411.509696 
L 354.966659 412.424134 
L 357.789387 413.097477 
L 363.626404 414.122842 
L 366.651078 414.550885 
L 369.720631 414.758847 
L 372.787916 414.634875 
L 374.301878 414.421547 
L 375.791579 414.097232 
L 377.248484 413.657324 
L 378.664265 413.099688 
L 380.031087 412.424622 
L 381.341831 411.634712 
L 382.590282 410.734587 
L 383.77124 409.730602 
L 384.880572 408.630469 
L 386.873061 406.177101 
L 388.554599 403.449226 
L 389.924636 400.521685 
L 390.991355 397.462987 
L 391.768218 394.332268 
L 392.271484 391.178773 
L 392.518748 388.04279 
L 392.528296 384.957164 
L 392.319003 381.948819 
L 391.910519 379.04001 
L 391.323538 376.249201 
L 390.580049 373.591588 
L 389.703475 371.079331 
L 388.193825 367.602632 
L 386.530046 364.490265 
L 384.805262 361.742446 
L 382.571945 358.61162 
L 380.176819 355.410855 
L 380.176819 355.410855 
" clip-path="url(#p819342a0bd)" style="fill: none; stroke: #9aa5b1; stroke-width: 0.6; stroke-linecap: square"/>
   </g>
   <g id="line2d_5">
    <path d="M 378.091122 355.410855 
L 377.002756 353.909058 
L 376.250043 352.502798 
L 375.947048 351.571607 
L 375.804817 350.61164 
L 375.820128 349.593776 
L 376.120334 347.896372 
L 376.962129 345.177012 
L 379.141408 338.697271 
L 380.090791 335.139817 
L 380.88047 331.104335 
L 381.256223 328.164194 
L 381.467367 325.046081 
L 381.476413 321.778643 
L 381.246918 318.400881 
L 380.744545 314.963791 
L 379.938622 311.531915 
L 378.804401 308.184257 
L 377.326161 305.013652 
L 376.456517 303.526779 
L 375.501003 302.123374 
L 374.461909 300.816783 
L 373.342768 299.619848 
L 372.148404 298.544457 
L 370.884916 297.601049 
L 369.559605 296.798129 
L 368.180819 296.141808 
L 366.757744 295.635415 
L 365.300115 295.279223 
L 363.817886 295.070299 
L 362.320877 295.002508 
L 360.818403 295.066642 
L 357.829755 295.540089 
L 354.904074 296.366239 
L 350.679473 297.908448 
L 346.642972 299.584527 
L 344.081415 300.90853 
L 341.656618 302.457242 
L 339.399908 304.248631 
L 337.33841 306.273633 
L 335.489983 308.500066 
L 333.860603 310.880041 
L 332.444732 313.359281 
L 331.228083 315.885803 
L 329.734336 319.671797 
L 328.578866 323.368175 
L 327.706725 326.92569 
L 327.080848 330.329792 
L 326.679725 333.582978 
L 326.491354 336.692076 
L 326.506746 339.661434 
L 326.714654 342.490777 
L 327.098118 345.176081 
L 327.839439 348.5235 
L 328.771627 351.599502 
L 330.320337 355.736154 
L 332.159284 360.63208 
L 332.841763 363.008093 
L 333.343879 365.476744 
L 333.755084 368.860834 
L 334.884574 381.545935 
L 335.487015 385.021859 
L 336.370557 388.738479 
L 337.155952 391.317302 
L 338.126801 393.939944 
L 339.305558 396.561705 
L 340.71039 399.126243 
L 342.352075 401.567978 
L 344.230855 403.817742 
L 346.334262 405.811714 
L 348.637142 407.502231 
L 351.104673 408.867753 
L 353.698192 409.919052 
L 356.382633 410.700318 
L 360.532415 411.540917 
L 366.305783 412.493969 
L 369.274431 412.721437 
L 372.241896 412.621919 
L 373.706429 412.422654 
L 375.147064 412.113616 
L 376.555292 411.69019 
L 377.922819 411.150229 
L 379.241836 410.494022 
L 380.505255 409.724143 
L 381.706888 408.84521 
L 382.841565 407.863563 
L 383.905179 406.786901 
L 385.808039 404.383819 
L 387.402533 401.710584 
L 388.688324 398.841904 
L 389.673797 395.846146 
L 390.372614 392.782293 
L 390.801223 389.699427 
L 390.977399 386.637665 
L 390.919601 383.629671 
L 390.64687 380.702183 
L 390.179007 377.877256 
L 389.53685 375.173153 
L 388.742524 372.604858 
L 387.819575 370.184315 
L 386.24897 366.849191 
L 384.534859 363.882514 
L 382.770639 361.283704 
L 380.502056 358.355313 
L 378.091122 355.410855 
L 378.091122 355.410855 
" clip-path="url(#p819342a0bd)" style="fill: none; stroke: #9aa5b1; stroke-width: 0.6; stroke-linecap: square"/>
   </g>
   <g id="line2d_6">
    <path d="M 376.005425 355.410855 
L 374.637205 353.639517 
L 374.02367 352.396933 
L 373.821312 351.555788 
L 373.783601 350.67016 
L 374.022424 349.194792 
L 374.580399 347.460326 
L 378.177293 337.706976 
L 379.136417 333.943859 
L 379.653193 331.173059 
L 380.027736 328.209707 
L 380.222142 325.077663 
L 380.199141 321.810396 
L 379.922986 318.45255 
L 379.360728 315.061583 
L 378.484109 311.709097 
L 377.272236 308.481117 
L 375.71507 305.476238 
L 374.807812 304.090509 
L 373.817393 302.800399 
L 372.747319 301.618742 
L 371.602383 300.557413 
L 370.388656 299.626847 
L 369.113405 298.835539 
L 367.784952 298.189592 
L 366.412449 297.692331 
L 365.005601 297.344022 
L 363.574334 297.141728 
L 362.128433 297.079308 
L 360.677185 297.147553 
L 357.791213 297.62543 
L 354.968304 298.450947 
L 350.897488 299.982719 
L 347.013581 301.637033 
L 344.552681 302.940288 
L 342.227396 304.463319 
L 340.068812 306.224157 
L 338.103817 308.21381 
L 336.350033 310.400184 
L 334.813209 312.735486 
L 333.487581 315.165548 
L 332.358642 317.638507 
L 330.99125 321.33622 
L 329.955269 324.935226 
L 329.1951 328.38681 
L 328.673066 331.677003 
L 328.36709 334.80892 
L 328.26465 337.790054 
L 328.356287 340.625451 
L 328.63034 343.315568 
L 329.069486 345.857142 
L 329.868256 349.007272 
L 330.838201 351.881291 
L 332.405876 355.710459 
L 334.011217 359.656464 
L 334.690701 361.826613 
L 335.170049 364.067463 
L 335.463767 366.491699 
L 335.647042 369.943949 
L 335.938907 376.845388 
L 336.356545 381.042269 
L 336.919738 384.512217 
L 337.78442 388.213819 
L 338.56933 390.770213 
L 339.548972 393.35408 
L 340.744236 395.914882 
L 342.170235 398.391265 
L 343.833074 400.715016 
L 345.72704 402.81843 
L 347.833384 404.644453 
L 350.121789 406.157467 
L 352.554895 407.35167 
L 355.095118 408.254718 
L 357.712304 408.926795 
L 363.139299 409.979986 
L 365.960487 410.437053 
L 368.828231 410.684027 
L 371.695875 410.608962 
L 374.502548 410.13 
L 375.862101 409.723055 
L 377.181373 409.20077 
L 378.452585 408.563422 
L 379.668678 407.813574 
L 380.823494 406.955832 
L 381.91189 405.996523 
L 382.929787 404.943333 
L 384.743017 402.590536 
L 386.250467 399.971941 
L 387.452011 397.162123 
L 388.356239 394.229305 
L 388.97701 391.232318 
L 389.330961 388.220081 
L 389.43605 385.23254 
L 389.310907 382.302179 
L 388.974737 379.455546 
L 388.447494 376.714502 
L 387.750163 374.097104 
L 386.905 371.618128 
L 385.935675 369.2893 
L 384.304116 366.095751 
L 382.539672 363.274763 
L 380.736017 360.824963 
L 378.432167 358.099005 
L 376.005425 355.410855 
L 376.005425 355.410855 
" clip-path="url(#p819342a0bd)" style="fill: none; stroke: #9aa5b1; stroke-width: 0.6; stroke-linecap: square"/>
   </g>
   <g id="line2d_7">
    <path d="M 373.919727 355.410855 
L 372.56163 353.84475 
L 371.968919 352.754892 
L 371.786689 352.01453 
L 371.774046 351.22857 
L 372.059597 349.900088 
L 372.675019 348.308656 
L 375.797142 341.190545 
L 376.939792 337.873264 
L 377.939948 334.063027 
L 378.465015 331.264144 
L 378.832251 328.279763 
L 379.003787 325.138204 
L 378.942785 321.878165 
L 378.614501 318.550355 
L 377.987837 315.219051 
L 377.037613 311.963013 
L 375.747659 308.874852 
L 374.973624 307.425697 
L 374.11462 306.057644 
L 373.172877 304.784015 
L 372.15187 303.617635 
L 371.056363 302.57037 
L 369.892395 301.652645 
L 368.667205 300.872949 
L 367.389084 300.237377 
L 366.067154 299.749247 
L 364.711088 299.408821 
L 363.330781 299.213156 
L 361.93599 299.156108 
L 360.535967 299.228464 
L 357.752672 299.710772 
L 355.032533 300.535655 
L 349.850019 302.575082 
L 347.384191 303.689539 
L 345.023947 304.972047 
L 342.798174 306.469397 
L 340.737717 308.199682 
L 338.869223 310.153987 
L 337.210083 312.300301 
L 335.765815 314.59093 
L 334.53043 316.971815 
L 333.489202 319.39121 
L 332.248163 323.000642 
L 331.331672 326.502277 
L 330.683475 329.847931 
L 330.265283 333.024213 
L 330.054454 336.034862 
L 330.037945 338.888032 
L 330.205829 341.589469 
L 330.546026 344.14036 
L 331.040853 346.538203 
L 331.897072 349.491045 
L 332.904775 352.16308 
L 334.491415 355.684764 
L 336.061402 359.273218 
L 336.693225 361.243488 
L 337.105474 363.29012 
L 337.313309 365.527682 
L 337.364098 368.759952 
L 337.390831 375.348041 
L 337.654084 379.409319 
L 338.093136 382.787899 
L 338.827268 386.407552 
L 339.521936 388.914768 
L 340.409022 391.453962 
L 341.509643 393.974705 
L 342.839139 396.41574 
L 344.403852 398.708939 
L 346.198306 400.786672 
L 348.203993 402.591947 
L 350.390843 404.089196 
L 352.721739 405.272656 
L 355.159347 406.17001 
L 357.673763 406.841454 
L 364.247376 408.161858 
L 366.995174 408.546674 
L 369.769362 408.66683 
L 372.515531 408.424867 
L 373.858032 408.146384 
L 375.168909 407.75592 
L 376.439927 407.251311 
L 377.663334 406.632822 
L 378.832102 405.903005 
L 379.9401 405.066454 
L 380.982214 404.129483 
L 382.853652 401.98594 
L 384.426341 399.543213 
L 385.694548 396.876741 
L 386.663189 394.058365 
L 387.344067 391.15166 
L 387.752868 388.210294 
L 387.907199 385.278363 
L 387.825572 382.391706 
L 387.527062 379.579477 
L 387.031376 376.865554 
L 386.359096 374.26961 
L 385.531958 371.807808 
L 384.573044 369.493172 
L 383.50686 367.335699 
L 381.76333 364.408429 
L 379.92858 361.859101 
L 378.097099 359.679495 
L 375.303157 356.786787 
L 373.919727 355.410855 
L 373.919727 355.410855 
" clip-path="url(#p819342a0bd)" style="fill: none; stroke: #9aa5b1; stroke-width: 0.6; stroke-linecap: square"/>
   </g>
   <g id="line2d_8">
    <path d="M 371.83403 355.410855 
L 370.486055 354.049983 
L 369.914169 353.112852 
L 369.752067 352.473271 
L 369.764491 351.78698 
L 370.09677 350.605384 
L 371.059727 348.599772 
L 373.703451 343.390798 
L 374.959905 340.361962 
L 376.123892 336.829206 
L 376.786458 334.2033 
L 377.313751 331.377484 
L 377.667495 328.375285 
L 377.810037 325.229857 
L 377.705225 321.985547 
L 377.319694 318.699537 
L 376.624758 315.443177 
L 375.599083 312.302255 
L 374.232178 309.375156 
L 373.421429 308.024778 
L 372.528361 306.767631 
L 371.556421 305.616528 
L 370.510342 304.583327 
L 369.396134 303.678443 
L 368.221006 302.910359 
L 366.993216 302.285162 
L 365.721859 301.806163 
L 364.416575 301.47362 
L 363.087229 301.284584 
L 361.743546 301.232908 
L 360.394748 301.309375 
L 357.714131 301.796113 
L 355.096762 302.620364 
L 350.119072 304.643353 
L 347.7548 305.742046 
L 345.495212 307.003805 
L 343.368952 308.475474 
L 341.406621 310.175207 
L 339.63463 312.094163 
L 338.070134 314.200419 
L 336.718421 316.446375 
L 335.573278 318.778081 
L 334.619761 321.143913 
L 333.505077 324.665065 
L 332.708074 328.069328 
L 332.17185 331.309052 
L 331.857501 334.371424 
L 331.741819 337.260805 
L 331.811241 339.98601 
L 332.05537 342.553486 
L 332.461712 344.965151 
L 333.223618 347.935093 
L 334.178401 350.618805 
L 335.514199 353.577245 
L 338.279644 359.331158 
L 338.804408 361.111239 
L 339.090937 363.002369 
L 339.163606 365.120753 
L 339.008986 368.960173 
L 338.842756 373.850694 
L 338.951623 377.776369 
L 339.266534 381.063582 
L 339.870117 384.601285 
L 340.474542 387.059324 
L 341.269073 389.553845 
L 342.275049 392.034528 
L 343.508044 394.440215 
L 344.974631 396.702862 
L 346.669572 398.754914 
L 348.574603 400.539441 
L 350.659896 402.020925 
L 352.888582 403.193643 
L 355.223576 404.085301 
L 357.635222 404.756113 
L 363.952863 406.097059 
L 366.599306 406.498889 
L 369.273102 406.641032 
L 371.920082 406.425974 
L 373.213516 406.162768 
L 374.475718 405.788786 
L 375.69848 405.301852 
L 376.874083 404.702222 
L 377.995526 403.992437 
L 379.056706 403.177076 
L 380.052539 402.262444 
L 381.833135 400.166963 
L 383.31746 397.776715 
L 384.499996 395.167011 
L 385.385866 392.409554 
L 385.987075 389.567772 
L 386.3195 386.695174 
L 386.400937 383.83569 
L 386.250073 381.024982 
L 385.886151 378.292021 
L 385.329036 375.660493 
L 384.599462 373.149869 
L 383.719302 370.776106 
L 382.711767 368.552013 
L 381.60148 366.48737 
L 379.800503 363.703133 
L 377.919025 361.300691 
L 376.051792 359.271021 
L 373.745334 357.094004 
L 371.83403 355.410855 
L 371.83403 355.410855 
" clip-path="url(#p819342a0bd)" style="fill: none; stroke: #9aa5b1; stroke-width: 0.6; stroke-linecap: square"/>
   </g>
   <g id="matplotlib.axis_1">
    <g id="xtick_1">
     <g id="line2d_9">
      <defs>
       <path id="m345f4b0ffc" d="M 0 0 
L 0 3.5 
" style="stroke: #000000; stroke-width: 0.8"/>
      </defs>
      <g>
       <use xlink:href="#m345f4b0ffc" x="104.52282" y="437.038184" style="stroke: #000000; stroke-width: 0.8"/>
      </g>
     </g>
     <g id="text_1">
      <!-- −2000 -->
      <g transform="translate(92.682429 449.356543) scale(0.07 -0.07)">
       <defs>
        <path id="DejaVuSans-c9c" d="M 678 2272 
L 4684 2272 
L 4684 1741 
L 678 1741 
L 678 2272 
z
" transform="scale(0.015625)"/>
        <path id="DejaVuSans-15" d="M 1228 531 
L 3431 531 
L 3431 0 
L 469 0 
L 469 531 
Q 828 903 1448 1529 
Q 2069 2156 2228 2338 
Q 2531 2678 2651 2914 
Q 2772 3150 2772 3378 
Q 2772 3750 2511 3984 
Q 2250 4219 1831 4219 
Q 1534 4219 1204 4116 
Q 875 4013 500 3803 
L 500 4441 
Q 881 4594 1212 4672 
Q 1544 4750 1819 4750 
Q 2544 4750 2975 4387 
Q 3406 4025 3406 3419 
Q 3406 3131 3298 2873 
Q 3191 2616 2906 2266 
Q 2828 2175 2409 1742 
Q 1991 1309 1228 531 
z
" transform="scale(0.015625)"/>
        <path id="DejaVuSans-13" d="M 2034 4250 
Q 1547 4250 1301 3770 
Q 1056 3291 1056 2328 
Q 1056 1369 1301 889 
Q 1547 409 2034 409 
Q 2525 409 2770 889 
Q 3016 1369 3016 2328 
Q 3016 3291 2770 3770 
Q 2525 4250 2034 4250 
z
M 2034 4750 
Q 2819 4750 3233 4129 
Q 3647 3509 3647 2328 
Q 3647 1150 3233 529 
Q 2819 -91 2034 -91 
Q 1250 -91 836 529 
Q 422 1150 422 2328 
Q 422 3509 836 4129 
Q 1250 4750 2034 4750 
z
" transform="scale(0.015625)"/>
       </defs>
       <use xlink:href="#DejaVuSans-c9c"/>
       <use xlink:href="#DejaVuSans-15" transform="translate(83.796875 0)"/>
       <use xlink:href="#DejaVuSans-13" transform="translate(147.421875 0)"/>
       <use xlink:href="#DejaVuSans-13" transform="translate(211.046875 0)"/>
       <use xlink:href="#DejaVuSans-13" transform="translate(274.671875 0)"/>
      </g>
     </g>
    </g>
    <g id="xtick_2">
     <g id="line2d_10">
      <g>
       <use xlink:href="#m345f4b0ffc" x="167.57292" y="437.038184" style="stroke: #000000; stroke-width: 0.8"/>
      </g>
     </g>
     <g id="text_2">
      <!-- −1500 -->
      <g transform="translate(155.732529 449.356543) scale(0.07 -0.07)">
       <defs>
        <path id="DejaVuSans-14" d="M 794 531 
L 1825 531 
L 1825 4091 
L 703 3866 
L 703 4441 
L 1819 4666 
L 2450 4666 
L 2450 531 
L 3481 531 
L 3481 0 
L 794 0 
L 794 531 
z
" transform="scale(0.015625)"/>
        <path id="DejaVuSans-18" d="M 691 4666 
L 3169 4666 
L 3169 4134 
L 1269 4134 
L 1269 2991 
Q 1406 3038 1543 3061 
Q 1681 3084 1819 3084 
Q 2600 3084 3056 2656 
Q 3513 2228 3513 1497 
Q 3513 744 3044 326 
Q 2575 -91 1722 -91 
Q 1428 -91 1123 -41 
Q 819 9 494 109 
L 494 744 
Q 775 591 1075 516 
Q 1375 441 1709 441 
Q 2250 441 2565 725 
Q 2881 1009 2881 1497 
Q 2881 1984 2565 2268 
Q 2250 2553 1709 2553 
Q 1456 2553 1204 2497 
Q 953 2441 691 2322 
L 691 4666 
z
" transform="scale(0.015625)"/>
       </defs>
       <use xlink:href="#DejaVuSans-c9c"/>
       <use xlink:href="#DejaVuSans-14" transform="translate(83.796875 0)"/>
       <use xlink:href="#DejaVuSans-18" transform="translate(147.421875 0)"/>
       <use xlink:href="#DejaVuSans-13" transform="translate(211.046875 0)"/>
       <use xlink:href="#DejaVuSans-13" transform="translate(274.671875 0)"/>
      </g>
     </g>
    </g>
    <g id="xtick_3">
     <g id="line2d_11">
      <g>
       <use xlink:href="#m345f4b0ffc" x="230.62302" y="437.038184" style="stroke: #000000; stroke-width: 0.8"/>
      </g>
     </g>
     <g id="text_3">
      <!-- −1000 -->
      <g transform="translate(218.782629 449.356543) scale(0.07 -0.07)">
       <use xlink:href="#DejaVuSans-c9c"/>
       <use xlink:href="#DejaVuSans-14" transform="translate(83.796875 0)"/>
       <use xlink:href="#DejaVuSans-13" transform="translate(147.421875 0)"/>
       <use xlink:href="#DejaVuSans-13" transform="translate(211.046875 0)"/>
       <use xlink:href="#DejaVuSans-13" transform="translate(274.671875 0)"/>
      </g>
     </g>
    </g>
    <g id="xtick_4">
     <g id="line2d_12">
      <g>
       <use xlink:href="#m345f4b0ffc" x="293.67312" y="437.038184" style="stroke: #000000; stroke-width: 0.8"/>
      </g>
     </g>
     <g id="text_4">
      <!-- −500 -->
      <g transform="translate(284.059604 449.356543) scale(0.07 -0.07)">
       <use xlink:href="#DejaVuSans-c9c"/>
       <use xlink:href="#DejaVuSans-18" transform="translate(83.796875 0)"/>
       <use xlink:href="#DejaVuSans-13" transform="translate(147.421875 0)"/>
       <use xlink:href="#DejaVuSans-13" transform="translate(211.046875 0)"/>
      </g>
     </g>
    </g>
    <g id="xtick_5">
     <g id="line2d_13">
      <g>
       <use xlink:href="#m345f4b0ffc" x="356.72322" y="437.038184" style="stroke: #000000; stroke-width: 0.8"/>
      </g>
     </g>
     <g id="text_5">
      <!-- 0 -->
      <g transform="translate(354.496345 449.356543) scale(0.07 -0.07)">
       <use xlink:href="#DejaVuSans-13"/>
      </g>
     </g>
    </g>
    <g id="xtick_6">
     <g id="line2d_14">
      <g>
       <use xlink:href="#m345f4b0ffc" x="419.77332" y="437.038184" style="stroke: #000000; stroke-width: 0.8"/>
      </g>
     </g>
     <g id="text_6">
      <!-- 500 -->
      <g transform="translate(413.092695 449.356543) scale(0.07 -0.07)">
       <use xlink:href="#DejaVuSans-18"/>
       <use xlink:href="#DejaVuSans-13" transform="translate(63.625 0)"/>
       <use xlink:href="#DejaVuSans-13" transform="translate(127.25 0)"/>
      </g>
     </g>
    </g>
    <g id="xtick_7">
     <g id="line2d_15">
      <g>
       <use xlink:href="#m345f4b0ffc" x="482.823419" y="437.038184" style="stroke: #000000; stroke-width: 0.8"/>
      </g>
     </g>
     <g id="text_7">
      <!-- 1000 -->
      <g transform="translate(473.915919 449.356543) scale(0.07 -0.07)">
       <use xlink:href="#DejaVuSans-14"/>
       <use xlink:href="#DejaVuSans-13" transform="translate(63.625 0)"/>
       <use xlink:href="#DejaVuSans-13" transform="translate(127.25 0)"/>
       <use xlink:href="#DejaVuSans-13" transform="translate(190.875 0)"/>
      </g>
     </g>
    </g>
    <g id="text_8">
     <!-- east [m] -->
     <g transform="translate(261.407813 461.116934) scale(0.08 -0.08)">
      <defs>
       <path id="DejaVuSans-48" d="M 3597 1894 
L 3597 1613 
L 953 1613 
Q 991 1019 1311 708 
Q 1631 397 2203 397 
Q 2534 397 2845 478 
Q 3156 559 3463 722 
L 3463 178 
Q 3153 47 2828 -22 
Q 2503 -91 2169 -91 
Q 1331 -91 842 396 
Q 353 884 353 1716 
Q 353 2575 817 3079 
Q 1281 3584 2069 3584 
Q 2775 3584 3186 3129 
Q 3597 2675 3597 1894 
z
M 3022 2063 
Q 3016 2534 2758 2815 
Q 2500 3097 2075 3097 
Q 1594 3097 1305 2825 
Q 1016 2553 972 2059 
L 3022 2063 
z
" transform="scale(0.015625)"/>
       <path id="DejaVuSans-44" d="M 2194 1759 
Q 1497 1759 1228 1600 
Q 959 1441 959 1056 
Q 959 750 1161 570 
Q 1363 391 1709 391 
Q 2188 391 2477 730 
Q 2766 1069 2766 1631 
L 2766 1759 
L 2194 1759 
z
M 3341 1997 
L 3341 0 
L 2766 0 
L 2766 531 
Q 2569 213 2275 61 
Q 1981 -91 1556 -91 
Q 1019 -91 701 211 
Q 384 513 384 1019 
Q 384 1609 779 1909 
Q 1175 2209 1959 2209 
L 2766 2209 
L 2766 2266 
Q 2766 2663 2505 2880 
Q 2244 3097 1772 3097 
Q 1472 3097 1187 3025 
Q 903 2953 641 2809 
L 641 3341 
Q 956 3463 1253 3523 
Q 1550 3584 1831 3584 
Q 2591 3584 2966 3190 
Q 3341 2797 3341 1997 
z
" transform="scale(0.015625)"/>
       <path id="DejaVuSans-56" d="M 2834 3397 
L 2834 2853 
Q 2591 2978 2328 3040 
Q 2066 3103 1784 3103 
Q 1356 3103 1142 2972 
Q 928 2841 928 2578 
Q 928 2378 1081 2264 
Q 1234 2150 1697 2047 
L 1894 2003 
Q 2506 1872 2764 1633 
Q 3022 1394 3022 966 
Q 3022 478 2636 193 
Q 2250 -91 1575 -91 
Q 1294 -91 989 -36 
Q 684 19 347 128 
L 347 722 
Q 666 556 975 473 
Q 1284 391 1588 391 
Q 1994 391 2212 530 
Q 2431 669 2431 922 
Q 2431 1156 2273 1281 
Q 2116 1406 1581 1522 
L 1381 1569 
Q 847 1681 609 1914 
Q 372 2147 372 2553 
Q 372 3047 722 3315 
Q 1072 3584 1716 3584 
Q 2034 3584 2315 3537 
Q 2597 3491 2834 3397 
z
" transform="scale(0.015625)"/>
       <path id="DejaVuSans-57" d="M 1172 4494 
L 1172 3500 
L 2356 3500 
L 2356 3053 
L 1172 3053 
L 1172 1153 
Q 1172 725 1289 603 
Q 1406 481 1766 481 
L 2356 481 
L 2356 0 
L 1766 0 
Q 1100 0 847 248 
Q 594 497 594 1153 
L 594 3053 
L 172 3053 
L 172 3500 
L 594 3500 
L 594 4494 
L 1172 4494 
z
" transform="scale(0.015625)"/>
       <path id="DejaVuSans-3" transform="scale(0.015625)"/>
       <path id="DejaVuSans-3e" d="M 550 4863 
L 1875 4863 
L 1875 4416 
L 1125 4416 
L 1125 -397 
L 1875 -397 
L 1875 -844 
L 550 -844 
L 550 4863 
z
" transform="scale(0.015625)"/>
       <path id="DejaVuSans-50" d="M 3328 2828 
Q 3544 3216 3844 3400 
Q 4144 3584 4550 3584 
Q 5097 3584 5394 3201 
Q 5691 2819 5691 2113 
L 5691 0 
L 5113 0 
L 5113 2094 
Q 5113 2597 4934 2840 
Q 4756 3084 4391 3084 
Q 3944 3084 3684 2787 
Q 3425 2491 3425 1978 
L 3425 0 
L 2847 0 
L 2847 2094 
Q 2847 2600 2669 2842 
Q 2491 3084 2119 3084 
Q 1678 3084 1418 2786 
Q 1159 2488 1159 1978 
L 1159 0 
L 581 0 
L 581 3500 
L 1159 3500 
L 1159 2956 
Q 1356 3278 1631 3431 
Q 1906 3584 2284 3584 
Q 2666 3584 2933 3390 
Q 3200 3197 3328 2828 
z
" transform="scale(0.015625)"/>
       <path id="DejaVuSans-40" d="M 1947 4863 
L 1947 -844 
L 622 -844 
L 622 -397 
L 1369 -397 
L 1369 4416 
L 622 4416 
L 622 4863 
L 1947 4863 
z
" transform="scale(0.015625)"/>
      </defs>
      <use xlink:href="#DejaVuSans-48"/>
      <use xlink:href="#DejaVuSans-44" transform="translate(61.53125 0)"/>
      <use xlink:href="#DejaVuSans-56" transform="translate(122.8125 0)"/>
      <use xlink:href="#DejaVuSans-57" transform="translate(174.90625 0)"/>
      <use xlink:href="#DejaVuSans-3" transform="translate(214.109375 0)"/>
      <use xlink:href="#DejaVuSans-3e" transform="translate(245.890625 0)"/>
      <use xlink:href="#DejaVuSans-50" transform="translate(284.90625 0)"/>
      <use xlink:href="#DejaVuSans-40" transform="translate(382.3125 0)"/>
     </g>
    </g>
   </g>
   <g id="matplotlib.axis_2">
    <g id="ytick_1">
     <g id="line2d_16">
      <defs>
       <path id="m9f8a822162" d="M 0 0 
L -3.5 0 
" style="stroke: #000000; stroke-width: 0.8"/>
      </defs>
      <g>
       <use xlink:href="#m9f8a822162" x="48.921875" y="418.460954" style="stroke: #000000; stroke-width: 0.8"/>
      </g>
     </g>
     <g id="text_9">
      <!-- −500 -->
      <g transform="translate(22.694844 421.120134) scale(0.07 -0.07)">
       <use xlink:href="#DejaVuSans-c9c"/>
       <use xlink:href="#DejaVuSans-18" transform="translate(83.796875 0)"/>
       <use xlink:href="#DejaVuSans-13" transform="translate(147.421875 0)"/>
       <use xlink:href="#DejaVuSans-13" transform="translate(211.046875 0)"/>
      </g>
     </g>
    </g>
    <g id="ytick_2">
     <g id="line2d_17">
      <g>
       <use xlink:href="#m9f8a822162" x="48.921875" y="355.410855" style="stroke: #000000; stroke-width: 0.8"/>
      </g>
     </g>
     <g id="text_10">
      <!-- 0 -->
      <g transform="translate(37.468125 358.070034) scale(0.07 -0.07)">
       <use xlink:href="#DejaVuSans-13"/>
      </g>
     </g>
    </g>
    <g id="ytick_3">
     <g id="line2d_18">
      <g>
       <use xlink:href="#m9f8a822162" x="48.921875" y="292.360755" style="stroke: #000000; stroke-width: 0.8"/>
      </g>
     </g>
     <g id="text_11">
      <!-- 500 -->
      <g transform="translate(28.560625 295.019934) scale(0.07 -0.07)">
       <use xlink:href="#DejaVuSans-18"/>
       <use xlink:href="#DejaVuSans-13" transform="translate(63.625 0)"/>
       <use xlink:href="#DejaVuSans-13" transform="translate(127.25 0)"/>
      </g>
     </g>
    </g>
    <g id="ytick_4">
     <g id="line2d_19">
      <g>
       <use xlink:href="#m9f8a822162" x="48.921875" y="229.310655" style="stroke: #000000; stroke-width: 0.8"/>
      </g>
     </g>
     <g id="text_12">
      <!-- 1000 -->
      <g transform="translate(24.106875 231.969834) scale(0.07 -0.07)">
       <use xlink:href="#DejaVuSans-14"/>
       <use xlink:href="#DejaVuSans-13" transform="translate(63.625 0)"/>
       <use xlink:href="#DejaVuSans-13" transform="translate(127.25 0)"/>
       <use xlink:href="#DejaVuSans-13" transform="translate(190.875 0)"/>
      </g>
     </g>
    </g>
    <g id="ytick_5">
     <g id="line2d_20">
      <g>
       <use xlink:href="#m9f8a822162" x="48.921875" y="166.260555" style="stroke: #000000; stroke-width: 0.8"/>
      </g>
     </g>
     <g id="text_13">
      <!-- 1500 -->
      <g transform="translate(24.106875 168.919735) scale(0.07 -0.07)">
       <use xlink:href="#DejaVuSans-14"/>
       <use xlink:href="#DejaVuSans-18" transform="translate(63.625 0)"/>
       <use xlink:href="#DejaVuSans-13" transform="translate(127.25 0)"/>
       <use xlink:href="#DejaVuSans-13" transform="translate(190.875 0)"/>
      </g>
     </g>
    </g>
    <g id="ytick_6">
     <g id="line2d_21">
      <g>
       <use xlink:href="#m9f8a822162" x="48.921875" y="103.210455" style="stroke: #000000; stroke-width: 0.8"/>
      </g>
     </g>
     <g id="text_14">
      <!-- 2000 -->
      <g transform="translate(24.106875 105.869635) scale(0.07 -0.07)">
       <use xlink:href="#DejaVuSans-15"/>
       <use xlink:href="#DejaVuSans-13" transform="translate(63.625 0)"/>
       <use xlink:href="#DejaVuSans-13" transform="translate(127.25 0)"/>
       <use xlink:href="#DejaVuSans-13" transform="translate(190.875 0)"/>
      </g>
     </g>
    </g>
    <g id="text_15">
     <!-- north [m] -->
     <g transform="translate(16.772969 278.21875) rotate(-90) scale(0.08 -0.08)">
      <defs>
       <path id="DejaVuSans-51" d="M 3513 2113 
L 3513 0 
L 2938 0 
L 2938 2094 
Q 2938 2591 2744 2837 
Q 2550 3084 2163 3084 
Q 1697 3084 1428 2787 
Q 1159 2491 1159 1978 
L 1159 0 
L 581 0 
L 581 3500 
L 1159 3500 
L 1159 2956 
Q 1366 3272 1645 3428 
Q 1925 3584 2291 3584 
Q 2894 3584 3203 3211 
Q 3513 2838 3513 2113 
z
" transform="scale(0.015625)"/>
       <path id="DejaVuSans-52" d="M 1959 3097 
Q 1497 3097 1228 2736 
Q 959 2375 959 1747 
Q 959 1119 1226 758 
Q 1494 397 1959 397 
Q 2419 397 2687 759 
Q 2956 1122 2956 1747 
Q 2956 2369 2687 2733 
Q 2419 3097 1959 3097 
z
M 1959 3584 
Q 2709 3584 3137 3096 
Q 3566 2609 3566 1747 
Q 3566 888 3137 398 
Q 2709 -91 1959 -91 
Q 1206 -91 779 398 
Q 353 888 353 1747 
Q 353 2609 779 3096 
Q 1206 3584 1959 3584 
z
" transform="scale(0.015625)"/>
       <path id="DejaVuSans-55" d="M 2631 2963 
Q 2534 3019 2420 3045 
Q 2306 3072 2169 3072 
Q 1681 3072 1420 2755 
Q 1159 2438 1159 1844 
L 1159 0 
L 581 0 
L 581 3500 
L 1159 3500 
L 1159 2956 
Q 1341 3275 1631 3429 
Q 1922 3584 2338 3584 
Q 2397 3584 2469 3576 
Q 2541 3569 2628 3553 
L 2631 2963 
z
" transform="scale(0.015625)"/>
       <path id="DejaVuSans-4b" d="M 3513 2113 
L 3513 0 
L 2938 0 
L 2938 2094 
Q 2938 2591 2744 2837 
Q 2550 3084 2163 3084 
Q 1697 3084 1428 2787 
Q 1159 2491 1159 1978 
L 1159 0 
L 581 0 
L 581 4863 
L 1159 4863 
L 1159 2956 
Q 1366 3272 1645 3428 
Q 1925 3584 2291 3584 
Q 2894 3584 3203 3211 
Q 3513 2838 3513 2113 
z
" transform="scale(0.015625)"/>
      </defs>
      <use xlink:href="#DejaVuSans-51"/>
      <use xlink:href="#DejaVuSans-52" transform="translate(63.375 0)"/>
      <use xlink:href="#DejaVuSans-55" transform="translate(124.5625 0)"/>
      <use xlink:href="#DejaVuSans-57" transform="translate(165.671875 0)"/>
      <use xlink:href="#DejaVuSans-4b" transform="translate(204.875 0)"/>
      <use xlink:href="#DejaVuSans-3" transform="translate(268.25 0)"/>
      <use xlink:href="#DejaVuSans-3e" transform="translate(300.03125 0)"/>
      <use xlink:href="#DejaVuSans-50" transform="translate(339.046875 0)"/>
      <use xlink:href="#DejaVuSans-40" transform="translate(436.453125 0)"/>
     </g>
    </g>
   </g>
   <g id="line2d_22">
    <path d="M 389.420625 363.623035 
L 390.540943 365.743365 
L 391.622137 368.030939 
L 392.634555 370.485991 
L 393.549262 373.10492 
L 394.338482 375.880511 
L 394.97591 378.802124 
L 395.436852 381.855819 
L 395.698204 385.024307 
L 395.738269 388.28665 
L 395.536469 391.617602 
L 395.073042 394.986542 
L 394.32889 398.355984 
L 393.285819 401.679831 
L 391.927481 404.901781 
L 390.241348 407.954656 
L 388.22188 410.761776 
L 385.874659 413.241621 
L 383.220617 415.316547 
L 380.298752 416.924928 
L 377.165548 418.03419 
L 373.890013 418.650785 
L 370.544921 418.823659 
L 367.196474 418.640773 
L 363.8951 418.223157 
L 360.668709 417.729521 
L 357.512007 417.190535 
L 354.42055 416.471998 
L 351.414207 415.479683 
L 348.528072 414.154145 
L 345.804042 412.472078 
L 343.282262 410.446641 
L 340.993853 408.122217 
L 338.956562 405.564131 
L 337.173918 402.846426 
L 335.637206 400.041144 
L 334.32888 397.211158 
L 333.226111 394.406846 
L 332.303698 391.665726 
L 331.536066 389.013824 
L 330.898447 386.467729 
L 330.367462 384.036664 
L 329.921351 381.72426 
L 329.540031 379.529916 
L 329.205087 377.449788 
L 328.899794 375.47749 
L 328.609166 373.604575 
L 328.320052 371.820907 
L 328.021267 370.114958 
L 327.70372 368.474085 
L 327.360541 366.884817 
L 326.987159 365.333148 
L 326.581336 363.804855 
L 326.143105 362.285818 
L 325.674616 360.762336 
L 325.179829 359.221413 
L 324.663865 357.650984 
L 324.13483 356.039921 
L 323.605717 354.378609 
L 323.089955 352.659623 
L 322.601145 350.877645 
L 322.152779 349.029353 
" clip-path="url(#p819342a0bd)" style="fill: none; stroke: #0369a1; stroke-width: 1.4; stroke-linecap: square"/>
   </g>
   <g id="line2d_23">
    <path d="M 330.397068 384.180892 
L 329.945137 381.854403 
L 329.559509 379.646822 
L 329.22151 377.554433 
L 328.91417 375.570914 
L 328.622274 373.687836 
L 328.332464 371.895045 
L 328.033361 370.180961 
L 327.715703 368.532869 
L 327.372469 366.9372 
L 326.998966 365.379835 
L 326.592859 363.846423 
L 326.154118 362.322706 
L 325.684861 360.794846 
L 325.189047 359.249708 
L 324.671825 357.675097 
L 324.141282 356.059767 
L 323.610496 354.393989 
L 323.093019 352.670246 
L 322.602574 350.883154 
L 322.152779 349.029353 
" clip-path="url(#p819342a0bd)" style="fill: none; stroke: #0369a1; stroke-width: 1.4; stroke-linecap: square"/>
   </g>
   <g id="line2d_24">
    <path d="M 347.40888 401.926188 
L 345.445659 399.971202 
L 343.711327 397.754811 
L 342.219811 395.343418 
L 340.971231 392.81006 
L 339.954154 390.224374 
L 339.149038 387.646178 
L 338.531653 385.122726 
L 338.075811 382.688683 
L 337.755195 380.367614 
L 337.544431 378.174035 
L 337.419597 376.115416 
L 337.35842 374.19387 
L 337.340319 372.407442 
L 337.346407 370.751034 
L 337.359509 369.217068 
L 337.364223 367.795946 
L 337.34702 366.476401 
L 337.296368 365.245792 
L 337.202873 364.090376 
L 337.059388 362.995588 
L 336.861099 361.946344 
L 336.605542 360.927344 
" clip-path="url(#p819342a0bd)" style="fill: none; stroke: #0369a1; stroke-width: 1.4; stroke-linecap: square"/>
   </g>
   <g id="line2d_25">
    <path d="M 387.581212 389.702114 
L 387.013813 392.7271 
L 386.146728 395.685306 
L 384.964757 398.511452 
L 383.458959 401.129745 
L 381.630776 403.457799 
L 379.496548 405.414707 
L 377.090878 406.933053 
L 374.466923 407.97263 
L 371.692208 408.531861 
L 368.84015 408.652976 
L 365.979371 408.419625 
L 363.163699 407.950488 
L 360.424902 407.403056 
L 357.761389 406.851562 
L 355.163721 406.161994 
L 352.647938 405.232033 
L 350.247065 403.995832 
L 348.002325 402.424574 
L 345.95418 400.527333 
L 344.134489 398.346331 
L 342.56159 395.946652 
L 341.239072 393.403525 
L 340.157621 390.790879 
L 339.298512 388.173529 
L 338.637345 385.603422 
L 338.14714 383.119101 
L 337.800475 380.747053 
L 337.570766 378.503843 
L 337.432893 376.39829 
L 337.363456 374.433323 
L 337.340831 372.607418 
L 337.345179 370.91564 
L 337.358457 369.350371 
L 337.364479 367.901825 
L 337.34902 366.558427 
L 337.299948 365.307136 
L 337.207368 364.13373 
L 337.063749 363.023109 
L 336.864009 361.959611 
L 336.605542 360.927344 
" clip-path="url(#p819342a0bd)" style="fill: none; stroke: #0369a1; stroke-width: 1.4; stroke-linecap: square"/>
   </g>
   <g id="line2d_26">
    <path d="M 347.40888 401.926188 
L 345.392971 399.91138 
L 343.619737 397.621941 
L 342.103671 395.130586 
L 340.843921 392.516757 
L 339.827023 389.855343 
L 339.03089 387.209744 
L 338.428677 384.629175 
L 337.991757 382.148971 
L 337.691652 379.79249 
L 337.501108 377.573493 
L 337.394575 375.49838 
L 337.348369 373.568006 
L 337.340706 371.779035 
L 337.351694 370.124895 
L 337.363382 368.596448 
L 337.35984 367.182464 
L 337.327292 365.869988 
L 337.254269 364.644668 
L 337.131756 363.491071 
L 336.953309 362.393013 
L 336.715115 361.333915 
L 336.415961 360.29716 
" clip-path="url(#p819342a0bd)" style="fill: none; stroke: #0369a1; stroke-width: 1.4; stroke-linecap: square"/>
   </g>
   <g id="line2d_27">
    <path d="M 387.581212 389.702114 
L 387.020439 392.699201 
L 386.165678 395.631303 
L 385.00208 398.435097 
L 383.520758 401.037083 
L 381.722706 403.35724 
L 379.623117 405.316599 
L 377.25469 406.84858 
L 374.668102 407.912101 
L 371.928284 408.502748 
L 369.106565 408.658221 
L 366.270525 408.456559 
L 363.474287 408.01005 
L 360.751359 407.467117 
L 358.104318 406.928488 
L 355.521541 406.270619 
L 353.015713 405.388513 
L 350.617113 404.213155 
L 348.365191 402.710843 
L 346.300001 400.884565 
L 344.454411 398.770449 
L 342.848831 396.428679 
L 341.489416 393.931493 
L 340.369366 391.351789 
L 339.472071 388.75488 
L 338.774715 386.194148 
L 338.251412 383.709966 
L 337.875456 381.33069 
L 337.620718 379.074597 
L 337.462374 376.951993 
L 337.377216 374.967087 
L 337.343744 373.119467 
L 337.342173 371.405189 
L 337.354444 369.817549 
L 337.364263 368.347622 
L 337.357193 366.984661 
L 337.320767 365.716409 
L 337.244633 364.529383 
L 337.120673 363.409157 
L 336.943111 362.340656 
L 336.708552 361.308465 
L 336.415961 360.29716 
" clip-path="url(#p819342a0bd)" style="fill: none; stroke: #0369a1; stroke-width: 1.4; stroke-linecap: square"/>
   </g>
   <g id="line2d_28">
    <path d="M 339.401188 382.027693 
L 339.947032 384.957786 
L 340.748619 387.992566 
L 341.849678 391.055002 
" clip-path="url(#p819342a0bd)" style="fill: none; stroke: #0369a1; stroke-width: 1.4; stroke-linecap: square"/>
   </g>
   <g id="line2d_29">
    <path d="M 381.840819 366.901982 
L 382.973456 369.087103 
L 383.988258 371.442251 
L 384.857965 373.955512 
L 385.556957 376.611411 
L 386.061119 379.390683 
L 386.347555 382.269698 
L 386.394264 385.219441 
L 386.179899 388.204024 
L 385.683893 391.178848 
L 384.887247 394.088778 
L 383.774369 396.867085 
L 382.336202 399.436309 
L 380.574517 401.712447 
L 378.506565 403.613481 
L 376.168439 405.071938 
L 373.615153 406.049038 
L 370.916019 406.546207 
L 368.145655 406.609886 
L 365.372899 406.328571 
L 362.650657 405.826293 
L 360.008494 405.267046 
L 357.44116 404.698944 
L 354.941306 403.982906 
L 352.527437 403.01914 
L 350.234426 401.744868 
L 348.104431 400.135613 
L 346.177673 398.20551 
L 344.484654 396.001543 
L 343.04159 393.592338 
L 341.849678 391.055002 
" clip-path="url(#p819342a0bd)" style="fill: none; stroke: #0369a1; stroke-width: 1.4; stroke-linecap: square"/>
   </g>
   <g id="line2d_30">
    <path d="M 362.153989 409.78281 
L 365.016876 410.291909 
L 367.940321 410.627517 
L 370.880729 410.659342 
L 373.776652 410.289539 
L 376.557263 409.457371 
L 379.152604 408.144092 
L 381.503042 406.371583 
L 383.565421 404.193977 
L 385.314835 401.685102 
L 386.74267 398.925773 
L 387.852639 395.993991 
L 388.656496 392.95917 
L 389.170559 389.879957 
L 389.413399 386.804443 
L 389.404633 383.771591 
L 389.164521 380.812986 
L 388.714026 377.954427 
L 388.075095 375.217117 
L 387.270959 372.618437 
L 386.326353 370.172344 
L 385.267583 367.889475 
L 384.122434 365.77708 
L 382.919901 363.838835 
L 381.68979 362.074635 
L 380.462179 360.480408 
L 379.266802 359.047994 
L 378.132375 357.765129 
L 377.085911 356.615522 
L 376.152062 355.579066 
L 375.352547 354.632135 
L 374.705835 353.747954 
L 374.225568 352.897169 
L 373.917592 352.049112 
L 373.78335 351.172388 
L 373.819658 350.235491 
L 374.018386 349.20754 
L 374.3664 348.059042 
" clip-path="url(#p819342a0bd)" style="fill: none; stroke: #0369a1; stroke-width: 1.4; stroke-linecap: square"/>
   </g>
   <g id="line2d_31">
    <path d="M 380.979557 406.823417 
L 383.127365 404.716451 
L 384.961486 402.255113 
L 386.469713 399.521516 
L 387.653519 396.59673 
L 388.523562 393.553894 
L 389.095837 390.455258 
L 389.389037 387.352013 
L 389.423095 384.285613 
L 389.218635 381.289585 
L 388.796976 378.391225 
L 388.180401 375.612925 
L 387.392469 372.973033 
L 386.458269 370.486322 
L 385.404506 368.164146 
L 384.259435 366.014377 
L 383.052602 364.041228 
L 381.814445 362.245038 
L 380.575744 360.622073 
L 379.366996 359.16439 
L 378.217712 357.859809 
L 377.155706 356.691989 
L 376.206408 355.640629 
L 375.39226 354.681776 
L 374.732358 353.788202 
L 374.241035 352.929973 
L 373.924545 352.075741 
L 373.784516 351.193389 
L 373.817824 350.250669 
L 374.016246 349.215955 
L 374.3664 348.059042 
" clip-path="url(#p819342a0bd)" style="fill: none; stroke: #0369a1; stroke-width: 1.4; stroke-linecap: square"/>
   </g>
   <g id="line2d_32">
    <path d="M 383.811114 347.522846 
L 365.706863 316.876289 
" clip-path="url(#p819342a0bd)" style="fill: none; stroke: #4d7c0f; stroke-width: 1.6; stroke-linecap: square"/>
   </g>
   <g id="line2d_33">
    <path d="M 325.584005 368.35594 
L 365.706863 316.876289 
" clip-path="url(#p819342a0bd)" style="fill: none; stroke: #4d7c0f; stroke-width: 1.6; stroke-linecap: square"/>
   </g>
   <g id="line2d_34">
    <path d="M 365.706863 316.876289 
L 347.602612 286.229732 
" clip-path="url(#p819342a0bd)" style="fill: none; stroke: #4d7c0f; stroke-width: 1.6; stroke-linecap: square"/>
   </g>
   <g id="line2d_35">
    <path d="M 347.602612 286.229732 
L 329.498361 255.583175 
" clip-path="url(#p819342a0bd)" style="fill: none; stroke: #4d7c0f; stroke-width: 1.6; stroke-linecap: square"/>
   </g>
   <g id="line2d_36">
    <path d="M 329.498361 255.583175 
L 292.534842 196.522186 
" clip-path="url(#p819342a0bd)" style="fill: none; stroke: #4d7c0f; stroke-width: 1.6; stroke-linecap: square"/>
   </g>
   <g id="line2d_37">
    <path d="M 365.706863 316.876289 
L 456.458225 358.146127 
" clip-path="url(#p819342a0bd)" style="fill: none; stroke: #4d7c0f; stroke-width: 1.6; stroke-linecap: square"/>
   </g>
   <g id="line2d_38">
    <path d="M 329.498361 255.583175 
L 251.455611 97.528924 
" clip-path="url(#p819342a0bd)" style="fill: none; stroke: #4d7c0f; stroke-width: 1.6; stroke-linecap: square"/>
   </g>
   <g id="line2d_39">
    <path d="M 329.498361 255.583175 
L 69.770881 316.642726 
" clip-path="url(#p819342a0bd)" style="fill: none; stroke: #4d7c0f; stroke-width: 1.6; stroke-linecap: square"/>
   </g>
   <g id="line2d_40">
    <path d="M 329.498361 255.583175 
L 486.750994 155.84313 
" clip-path="url(#p819342a0bd)" style="fill: none; stroke: #4d7c0f; stroke-width: 1.6; stroke-linecap: square"/>
   </g>
   <g id="patch_4">
    <path d="M 48.921875 437.038184 
L 48.921875 81.361816 
" style="fill: none; stroke: #000000; stroke-width: 0.8; stroke-linejoin: miter; stroke-linecap: square"/>
   </g>
   <g id="patch_5">
    <path d="M 507.6 437.038184 
L 507.6 81.361816 
" style="fill: none; stroke: #000000; stroke-width: 0.8; stroke-linejoin: miter; stroke-linecap: square"/>
   </g>
   <g id="patch_6">
    <path d="M 48.921875 437.038184 
L 507.6 437.038184 
" style="fill: none; stroke: #000000; stroke-width: 0.8; stroke-linejoin: miter; stroke-linecap: square"/>
   </g>
   <g id="patch_7">
    <path d="M 48.921875 81.361816 
L 507.6 81.361816 
" style="fill: none; stroke: #000000; stroke-width: 0.8; stroke-linejoin: miter; stroke-linecap: square"/>
   </g>
   <g id="line2d_41">
    <path d="M 383.811114 347.522846 
L 383.756577 348.698861 
L 383.792431 349.828773 
L 383.92035 350.927858 
L 384.140136 352.011318 
L 384.449947 353.094062 
L 384.84608 354.190557 
L 385.321204 355.314638 
L 385.866385 356.479008 
L 386.47146 357.695101 
L 387.12512 358.972964 
L 387.815064 360.321166 
L 388.528201 361.746715 
L 389.25086 363.255015 
L 389.420625 363.623035 
" clip-path="url(#p819342a0bd)" style="fill: none; stroke: #c2410c; stroke-width: 2; stroke-linecap: square"/>
   </g>
   <g id="line2d_42">
    <path d="M 389.420625 363.623035 
L 390.135658 365.238617 
L 390.828673 366.943157 
L 391.485604 368.736864 
L 392.09268 370.618432 
L 392.636579 372.58512 
L 393.104558 374.632828 
L 393.484533 376.756175 
L 393.765134 378.948546 
L 393.935698 381.202118 
L 393.986013 383.095285 
" clip-path="url(#p819342a0bd)" style="fill: none; stroke: #c2410c; stroke-width: 2; stroke-linecap: square"/>
   </g>
   <g id="line2d_43">
    <path d="M 393.986013 383.095285 
L 393.930769 385.436104 
L 393.738768 387.808902 
L 393.401448 390.200205 
L 392.910559 392.59436 
L 392.258131 394.973045 
L 391.436539 397.314728 
L 390.438746 399.594148 
L 389.793981 400.843611 
" clip-path="url(#p819342a0bd)" style="fill: none; stroke: #c2410c; stroke-width: 2; stroke-linecap: square"/>
   </g>
   <g id="line2d_44">
    <path d="M 389.793981 400.843611 
L 388.509061 402.965098 
L 387.036666 404.941094 
L 385.377735 406.733399 
L 383.538161 408.30314 
L 381.530056 409.613854 
L 379.372558 410.635378 
L 378.020632 411.099677 
" clip-path="url(#p819342a0bd)" style="fill: none; stroke: #c2410c; stroke-width: 2; stroke-linecap: square"/>
   </g>
   <g id="line2d_45">
    <path d="M 378.020632 411.099677 
L 375.681191 411.623791 
L 373.271748 411.837885 
L 370.828928 411.762969 
L 368.388087 411.436299 
L 365.980111 410.909334 
L 363.628766 410.245758 
L 362.153989 409.78281 
" clip-path="url(#p819342a0bd)" style="fill: none; stroke: #c2410c; stroke-width: 2; stroke-linecap: square"/>
   </g>
   <g id="line2d_46">
    <path d="M 362.153989 409.78281 
L 359.92248 409.069792 
L 357.758246 408.342185 
L 355.657342 407.528904 
L 353.626341 406.580239 
L 351.678836 405.460516 
L 349.832815 404.147906 
L 348.107954 402.635185 
L 347.40888 401.926188 
" clip-path="url(#p819342a0bd)" style="fill: none; stroke: #c2410c; stroke-width: 2; stroke-linecap: square"/>
   </g>
   <g id="line2d_47">
    <path d="M 347.40888 401.926188 
L 345.88881 400.1433 
L 344.528919 398.199593 
L 343.337014 396.128158 
L 342.315088 393.966417 
L 341.459742 391.752409 
L 340.763139 389.521847 
L 340.21418 387.306193 
L 339.799661 385.131693 
L 339.505253 383.019196 
L 339.401188 382.027693 
" clip-path="url(#p819342a0bd)" style="fill: none; stroke: #c2410c; stroke-width: 2; stroke-linecap: square"/>
   </g>
   <g id="line2d_48">
    <path d="M 330.397068 384.180892 
L 329.94044 382.657383 
L 329.463972 381.008941 
L 329.015314 379.419063 
L 328.586281 377.885371 
L 328.169314 376.404549 
L 327.757502 374.97248 
L 327.344615 373.584354 
L 326.925147 372.234766 
L 326.49436 370.917794 
L 326.048333 369.627085 
L 325.584005 368.35594 
" clip-path="url(#p819342a0bd)" style="fill: none; stroke: #c2410c; stroke-width: 2; stroke-linecap: square"/>
   </g>
   <g id="line2d_49">
    <path d="M 338.124034 401.187681 
L 336.985466 399.482393 
L 335.81286 397.50241 
L 334.762483 395.507632 
L 333.823565 393.520687 
L 332.984555 391.559295 
L 332.233713 389.636717 
L 331.5595 387.762384 
L 330.950805 385.94255 
L 330.397068 384.180892 
" clip-path="url(#p819342a0bd)" style="fill: none; stroke: #c2410c; stroke-width: 2; stroke-linecap: square"/>
   </g>
   <g id="line2d_50">
    <path d="M 351.444519 411.182295 
L 350.813603 410.9917 
L 348.672425 410.188807 
L 346.613071 409.159882 
L 344.656207 407.91017 
L 342.819192 406.457702 
L 341.114489 404.830266 
L 339.548964 403.061619 
L 338.124034 401.187681 
" clip-path="url(#p819342a0bd)" style="fill: none; stroke: #c2410c; stroke-width: 2; stroke-linecap: square"/>
   </g>
   <g id="line2d_51">
    <path d="M 366.911808 412.552043 
L 365.104586 412.55497 
L 362.773165 412.471301 
L 360.466871 412.368685 
L 358.180571 412.254439 
L 355.909345 412.053124 
L 353.659373 411.709502 
L 351.444519 411.182295 
" clip-path="url(#p819342a0bd)" style="fill: none; stroke: #c2410c; stroke-width: 2; stroke-linecap: square"/>
   </g>
   <g id="line2d_52">
    <path d="M 380.979557 406.823417 
L 379.922543 407.859723 
L 378.042201 409.34152 
L 376.002588 410.534306 
L 373.83512 411.432414 
L 371.574622 412.046937 
L 369.256176 412.405771 
L 366.911808 412.552043 
" clip-path="url(#p819342a0bd)" style="fill: none; stroke: #c2410c; stroke-width: 2; stroke-linecap: square"/>
   </g>
   <g id="line2d_53">
    <path d="M 387.581212 389.702114 
L 387.524027 390.469867 
L 387.212115 393.049648 
L 386.703715 395.607887 
L 385.989282 398.112617 
L 385.061354 400.527384 
L 383.915749 402.81204 
L 382.55296 404.924477 
L 380.979557 406.823417 
" clip-path="url(#p819342a0bd)" style="fill: none; stroke: #c2410c; stroke-width: 2; stroke-linecap: square"/>
   </g>
   <g id="line2d_54">
    <path d="M 381.840819 366.901982 
L 382.07746 367.286731 
L 383.099076 369.077036 
L 384.051628 370.987302 
L 384.92093 373.012811 
L 385.693312 375.147452 
L 386.355604 377.383684 
L 386.895079 379.712414 
L 387.299378 382.122802 
L 387.556407 384.601956 
L 387.654264 387.13451 
L 387.581212 389.702114 
" clip-path="url(#p819342a0bd)" style="fill: none; stroke: #c2410c; stroke-width: 2; stroke-linecap: square"/>
   </g>
   <g id="text_16">
    <!-- openpit-b2026-2 — dual_spiral, 7 benches, 5 shovels, 5 dumps, seed 80433100 -->
    <g transform="translate(78.551562 75.361816) scale(0.1 -0.1)">
     <defs>
      <path id="DejaVuSans-53" d="M 1159 525 
L 1159 -1331 
L 581 -1331 
L 581 3500 
L 1159 3500 
L 1159 2969 
Q 1341 3281 1617 3432 
Q 1894 3584 2278 3584 
Q 2916 3584 3314 3078 
Q 3713 2572 3713 1747 
Q 3713 922 3314 415 
Q 2916 -91 2278 -91 
Q 1894 -91 1617 61 
Q 1341 213 1159 525 
z
M 3116 1747 
Q 3116 2381 2855 2742 
Q 2594 3103 2138 3103 
Q 1681 3103 1420 2742 
Q 1159 2381 1159 1747 
Q 1159 1113 1420 752 
Q 1681 391 2138 391 
Q 2594 391 2855 752 
Q 3116 1113 3116 1747 
z
" transform="scale(0.015625)"/>
      <path id="DejaVuSans-4c" d="M 603 3500 
L 1178 3500 
L 1178 0 
L 603 0 
L 603 3500 
z
M 603 4863 
L 1178 4863 
L 1178 4134 
L 603 4134 
L 603 4863 
z
" transform="scale(0.015625)"/>
      <path id="DejaVuSans-10" d="M 313 2009 
L 1997 2009 
L 1997 1497 
L 313 1497 
L 313 2009 
z
" transform="scale(0.015625)"/>
      <path id="DejaVuSans-45" d="M 3116 1747 
Q 3116 2381 2855 2742 
Q 2594 3103 2138 3103 
Q 1681 3103 1420 2742 
Q 1159 2381 1159 1747 
Q 1159 1113 1420 752 
Q 1681 391 2138 391 
Q 2594 391 2855 752 
Q 3116 1113 3116 1747 
z
M 1159 2969 
Q 1341 3281 1617 3432 
Q 1894 3584 2278 3584 
Q 2916 3584 3314 3078 
Q 3713 2572 3713 1747 
Q 3713 922 3314 415 
Q 2916 -91 2278 -91 
Q 1894 -91 1617 61 
Q 1341 213 1159 525 
L 1159 0 
L 581 0 
L 581 4863 
L 1159 4863 
L 1159 2969 
z
" transform="scale(0.015625)"/>
      <path id="DejaVuSans-19" d="M 2113 2584 
Q 1688 2584 1439 2293 
Q 1191 2003 1191 1497 
Q 1191 994 1439 701 
Q 1688 409 2113 409 
Q 2538 409 2786 701 
Q 3034 994 3034 1497 
Q 3034 2003 2786 2293 
Q 2538 2584 2113 2584 
z
M 3366 4563 
L 3366 3988 
Q 3128 4100 2886 4159 
Q 2644 4219 2406 4219 
Q 1781 4219 1451 3797 
Q 1122 3375 1075 2522 
Q 1259 2794 1537 2939 
Q 1816 3084 2150 3084 
Q 2853 3084 3261 2657 
Q 3669 2231 3669 1497 
Q 3669 778 3244 343 
Q 2819 -91 2113 -91 
Q 1303 -91 875 529 
Q 447 1150 447 2328 
Q 447 3434 972 4092 
Q 1497 4750 2381 4750 
Q 2619 4750 2861 4703 
Q 3103 4656 3366 4563 
z
" transform="scale(0.015625)"/>
      <path id="DejaVuSans-af6" d="M 313 1978 
L 6088 1978 
L 6088 1528 
L 313 1528 
L 313 1978 
z
" transform="scale(0.015625)"/>
      <path id="DejaVuSans-47" d="M 2906 2969 
L 2906 4863 
L 3481 4863 
L 3481 0 
L 2906 0 
L 2906 525 
Q 2725 213 2448 61 
Q 2172 -91 1784 -91 
Q 1150 -91 751 415 
Q 353 922 353 1747 
Q 353 2572 751 3078 
Q 1150 3584 1784 3584 
Q 2172 3584 2448 3432 
Q 2725 3281 2906 2969 
z
M 947 1747 
Q 947 1113 1208 752 
Q 1469 391 1925 391 
Q 2381 391 2643 752 
Q 2906 1113 2906 1747 
Q 2906 2381 2643 2742 
Q 2381 3103 1925 3103 
Q 1469 3103 1208 2742 
Q 947 2381 947 1747 
z
" transform="scale(0.015625)"/>
      <path id="DejaVuSans-58" d="M 544 1381 
L 544 3500 
L 1119 3500 
L 1119 1403 
Q 1119 906 1312 657 
Q 1506 409 1894 409 
Q 2359 409 2629 706 
Q 2900 1003 2900 1516 
L 2900 3500 
L 3475 3500 
L 3475 0 
L 2900 0 
L 2900 538 
Q 2691 219 2414 64 
Q 2138 -91 1772 -91 
Q 1169 -91 856 284 
Q 544 659 544 1381 
z
M 1991 3584 
L 1991 3584 
z
" transform="scale(0.015625)"/>
      <path id="DejaVuSans-4f" d="M 603 4863 
L 1178 4863 
L 1178 0 
L 603 0 
L 603 4863 
z
" transform="scale(0.015625)"/>
      <path id="DejaVuSans-42" d="M 3263 -1063 
L 3263 -1509 
L -63 -1509 
L -63 -1063 
L 3263 -1063 
z
" transform="scale(0.015625)"/>
      <path id="DejaVuSans-f" d="M 750 794 
L 1409 794 
L 1409 256 
L 897 -744 
L 494 -744 
L 750 256 
L 750 794 
z
" transform="scale(0.015625)"/>
      <path id="DejaVuSans-1a" d="M 525 4666 
L 3525 4666 
L 3525 4397 
L 1831 0 
L 1172 0 
L 2766 4134 
L 525 4134 
L 525 4666 
z
" transform="scale(0.015625)"/>
      <path id="DejaVuSans-46" d="M 3122 3366 
L 3122 2828 
Q 2878 2963 2633 3030 
Q 2388 3097 2138 3097 
Q 1578 3097 1268 2742 
Q 959 2388 959 1747 
Q 959 1106 1268 751 
Q 1578 397 2138 397 
Q 2388 397 2633 464 
Q 2878 531 3122 666 
L 3122 134 
Q 2881 22 2623 -34 
Q 2366 -91 2075 -91 
Q 1284 -91 818 406 
Q 353 903 353 1747 
Q 353 2603 823 3093 
Q 1294 3584 2113 3584 
Q 2378 3584 2631 3529 
Q 2884 3475 3122 3366 
z
" transform="scale(0.015625)"/>
      <path id="DejaVuSans-59" d="M 191 3500 
L 800 3500 
L 1894 563 
L 2988 3500 
L 3597 3500 
L 2284 0 
L 1503 0 
L 191 3500 
z
" transform="scale(0.015625)"/>
      <path id="DejaVuSans-1b" d="M 2034 2216 
Q 1584 2216 1326 1975 
Q 1069 1734 1069 1313 
Q 1069 891 1326 650 
Q 1584 409 2034 409 
Q 2484 409 2743 651 
Q 3003 894 3003 1313 
Q 3003 1734 2745 1975 
Q 2488 2216 2034 2216 
z
M 1403 2484 
Q 997 2584 770 2862 
Q 544 3141 544 3541 
Q 544 4100 942 4425 
Q 1341 4750 2034 4750 
Q 2731 4750 3128 4425 
Q 3525 4100 3525 3541 
Q 3525 3141 3298 2862 
Q 3072 2584 2669 2484 
Q 3125 2378 3379 2068 
Q 3634 1759 3634 1313 
Q 3634 634 3220 271 
Q 2806 -91 2034 -91 
Q 1263 -91 848 271 
Q 434 634 434 1313 
Q 434 1759 690 2068 
Q 947 2378 1403 2484 
z
M 1172 3481 
Q 1172 3119 1398 2916 
Q 1625 2713 2034 2713 
Q 2441 2713 2670 2916 
Q 2900 3119 2900 3481 
Q 2900 3844 2670 4047 
Q 2441 4250 2034 4250 
Q 1625 4250 1398 4047 
Q 1172 3844 1172 3481 
z
" transform="scale(0.015625)"/>
      <path id="DejaVuSans-17" d="M 2419 4116 
L 825 1625 
L 2419 1625 
L 2419 4116 
z
M 2253 4666 
L 3047 4666 
L 3047 1625 
L 3713 1625 
L 3713 1100 
L 3047 1100 
L 3047 0 
L 2419 0 
L 2419 1100 
L 313 1100 
L 313 1709 
L 2253 4666 
z
" transform="scale(0.015625)"/>
      <path id="DejaVuSans-16" d="M 2597 2516 
Q 3050 2419 3304 2112 
Q 3559 1806 3559 1356 
Q 3559 666 3084 287 
Q 2609 -91 1734 -91 
Q 1441 -91 1130 -33 
Q 819 25 488 141 
L 488 750 
Q 750 597 1062 519 
Q 1375 441 1716 441 
Q 2309 441 2620 675 
Q 2931 909 2931 1356 
Q 2931 1769 2642 2001 
Q 2353 2234 1838 2234 
L 1294 2234 
L 1294 2753 
L 1863 2753 
Q 2328 2753 2575 2939 
Q 2822 3125 2822 3475 
Q 2822 3834 2567 4026 
Q 2313 4219 1838 4219 
Q 1578 4219 1281 4162 
Q 984 4106 628 3988 
L 628 4550 
Q 988 4650 1302 4700 
Q 1616 4750 1894 4750 
Q 2613 4750 3031 4423 
Q 3450 4097 3450 3541 
Q 3450 3153 3228 2886 
Q 3006 2619 2597 2516 
z
" transform="scale(0.015625)"/>
     </defs>
     <use xlink:href="#DejaVuSans-52"/>
     <use xlink:href="#DejaVuSans-53" transform="translate(61.1875 0)"/>
     <use xlink:href="#DejaVuSans-48" transform="translate(124.671875 0)"/>
     <use xlink:href="#DejaVuSans-51" transform="translate(186.203125 0)"/>
     <use xlink:href="#DejaVuSans-53" transform="translate(249.578125 0)"/>
     <use xlink:href="#DejaVuSans-4c" transform="translate(313.0625 0)"/>
     <use xlink:href="#DejaVuSans-57" transform="translate(340.84375 0)"/>
     <use xlink:href="#DejaVuSans-10" transform="translate(380.046875 0)"/>
     <use xlink:href="#DejaVuSans-45" transform="translate(416.125 0)"/>
     <use xlink:href="#DejaVuSans-15" transform="translate(479.609375 0)"/>
     <use xlink:href="#DejaVuSans-13" transform="translate(543.234375 0)"/>
     <use xlink:href="#DejaVuSans-15" transform="translate(606.859375 0)"/>
     <use xlink:href="#DejaVuSans-19" transform="translate(670.484375 0)"/>
     <use xlink:href="#DejaVuSans-10" transform="translate(734.109375 0)"/>
     <use xlink:href="#DejaVuSans-15" transform="translate(770.1875 0)"/>
     <use xlink:href="#DejaVuSans-3" transform="translate(833.8125 0)"/>
     <use xlink:href="#DejaVuSans-af6" transform="translate(865.59375 0)"/>
     <use xlink:href="#DejaVuSans-3" transform="translate(965.59375 0)"/>
     <use xlink:href="#DejaVuSans-47" transform="translate(997.375 0)"/>
     <use xlink:href="#DejaVuSans-58" transform="translate(1060.859375 0)"/>
     <use xlink:href="#DejaVuSans-44" transform="translate(1124.234375 0)"/>
     <use xlink:href="#DejaVuSans-4f" transform="translate(1185.515625 0)"/>
     <use xlink:href="#DejaVuSans-42" transform="translate(1213.296875 0)"/>
     <use xlink:href="#DejaVuSans-56" transform="translate(1263.296875 0)"/>
     <use xlink:href="#DejaVuSans-53" transform="translate(1315.390625 0)"/>
     <use xlink:href="#DejaVuSans-4c" transform="translate(1378.875 0)"/>
     <use xlink:href="#DejaVuSans-55" transform="translate(1406.65625 0)"/>
     <use xlink:href="#DejaVuSans-44" transform="translate(1447.765625 0)"/>
     <use xlink:href="#DejaVuSans-4f" transform="translate(1509.046875 0)"/>
     <use xlink:href="#DejaVuSans-f" transform="translate(1536.828125 0)"/>
     <use xlink:href="#DejaVuSans-3" transform="translate(1568.609375 0)"/>
     <use xlink:href="#DejaVuSans-1a" transform="translate(1600.390625 0)"/>
     <use xlink:href="#DejaVuSans-3" transform="translate(1664.015625 0)"/>
     <use xlink:href="#DejaVuSans-45" transform="translate(1695.796875 0)"/>
     <use xlink:href="#DejaVuSans-48" transform="translate(1759.28125 0)"/>
     <use xlink:href="#DejaVuSans-51" transform="translate(1820.8125 0)"/>
     <use xlink:href="#DejaVuSans-46" transform="translate(1884.1875 0)"/>
     <use xlink:href="#DejaVuSans-4b" transform="translate(1939.171875 0)"/>
     <use xlink:href="#DejaVuSans-48" transform="translate(2002.546875 0)"/>
     <use xlink:href="#DejaVuSans-56" transform="translate(2064.078125 0)"/>
     <use xlink:href="#DejaVuSans-f" transform="translate(2116.171875 0)"/>
     <use xlink:href="#DejaVuSans-3" transform="translate(2147.953125 0)"/>
     <use xlink:href="#DejaVuSans-18" transform="translate(2179.734375 0)"/>
     <use xlink:href="#DejaVuSans-3" transform="translate(2243.359375 0)"/>
     <use xlink:href="#DejaVuSans-56" transform="translate(2275.140625 0)"/>
     <use xlink:href="#DejaVuSans-4b" transform="translate(2327.234375 0)"/>
     <use xlink:href="#DejaVuSans-52" transform="translate(2390.609375 0)"/>
     <use xlink:href="#DejaVuSans-59" transform="translate(2451.796875 0)"/>
     <use xlink:href="#DejaVuSans-48" transform="translate(2510.984375 0)"/>
     <use xlink:href="#DejaVuSans-4f" transform="translate(2572.515625 0)"/>
     <use xlink:href="#DejaVuSans-56" transform="translate(2600.296875 0)"/>
     <use xlink:href="#DejaVuSans-f" transform="translate(2652.390625 0)"/>
     <use xlink:href="#DejaVuSans-3" transform="translate(2684.171875 0)"/>
     <use xlink:href="#DejaVuSans-18" transform="translate(2715.953125 0)"/>
     <use xlink:href="#DejaVuSans-3" transform="translate(2779.578125 0)"/>
     <use xlink:href="#DejaVuSans-47" transform="translate(2811.359375 0)"/>
     <use xlink:href="#DejaVuSans-58" transform="translate(2874.84375 0)"/>
     <use xlink:href="#DejaVuSans-50" transform="translate(2938.21875 0)"/>
     <use xlink:href="#DejaVuSans-53" transform="translate(3035.625 0)"/>
     <use xlink:href="#DejaVuSans-56" transform="translate(3099.109375 0)"/>
     <use xlink:href="#DejaVuSans-f" transform="translate(3151.203125 0)"/>
     <use xlink:href="#DejaVuSans-3" transform="translate(3182.984375 0)"/>
     <use xlink:href="#DejaVuSans-56" transform="translate(3214.765625 0)"/>
     <use xlink:href="#DejaVuSans-48" transform="translate(3266.859375 0)"/>
     <use xlink:href="#DejaVuSans-48" transform="translate(3328.390625 0)"/>
     <use xlink:href="#DejaVuSans-47" transform="translate(3389.921875 0)"/>
     <use xlink:href="#DejaVuSans-3" transform="translate(3453.40625 0)"/>
     <use xlink:href="#DejaVuSans-1b" transform="translate(3485.1875 0)"/>
     <use xlink:href="#DejaVuSans-13" transform="translate(3548.8125 0)"/>
     <use xlink:href="#DejaVuSans-17" transform="translate(3612.4375 0)"/>
     <use xlink:href="#DejaVuSans-16" transform="translate(3676.0625 0)"/>
     <use xlink:href="#DejaVuSans-16" transform="translate(3739.6875 0)"/>
     <use xlink:href="#DejaVuSans-14" transform="translate(3803.3125 0)"/>
     <use xlink:href="#DejaVuSans-13" transform="translate(3866.9375 0)"/>
     <use xlink:href="#DejaVuSans-13" transform="translate(3930.5625 0)"/>
    </g>
   </g>
   <g id="PathCollection_1">
    <defs>
     <path id="m80da9a855d" d="M 0 5 
L 5 0 
L 0 -5 
L -5 0 
z
" style="stroke: #7c3aed"/>
    </defs>
    <g clip-path="url(#p819342a0bd)">
     <use xlink:href="#m80da9a855d" x="383.811114" y="347.522846" style="fill: #7c3aed; stroke: #7c3aed"/>
    </g>
   </g>
   <g id="PathCollection_2">
    <g clip-path="url(#p819342a0bd)">
     <use xlink:href="#m80da9a855d" x="325.584005" y="368.35594" style="fill: #7c3aed; stroke: #7c3aed"/>
    </g>
   </g>
   <g id="PathCollection_3">
    <defs>
     <path id="m91b99fdf2c" d="M 0 -4.743416 
L -4.743416 4.743416 
L 4.743416 4.743416 
z
" style="stroke: #111827"/>
    </defs>
    <g clip-path="url(#p819342a0bd)">
     <use xlink:href="#m91b99fdf2c" x="322.152779" y="349.029353" style="fill: #111827; stroke: #111827"/>
    </g>
   </g>
   <g id="PathCollection_4">
    <g clip-path="url(#p819342a0bd)">
     <use xlink:href="#m91b99fdf2c" x="336.605542" y="360.927344" style="fill: #111827; stroke: #111827"/>
    </g>
   </g>
   <g id="PathCollection_5">
    <g clip-path="url(#p819342a0bd)">
     <use xlink:href="#m91b99fdf2c" x="336.415961" y="360.29716" style="fill: #111827; stroke: #111827"/>
    </g>
   </g>
   <g id="PathCollection_6">
    <g clip-path="url(#p819342a0bd)">
     <use xlink:href="#m91b99fdf2c" x="341.849678" y="391.055002" style="fill: #111827; stroke: #111827"/>
    </g>
   </g>
   <g id="PathCollection_7">
    <g clip-path="url(#p819342a0bd)">
     <use xlink:href="#m91b99fdf2c" x="374.3664" y="348.059042" style="fill: #111827; stroke: #111827"/>
    </g>
   </g>
   <g id="PathCollection_8">
    <defs>
     <path id="m934ea6742f" d="M -4.472136 4.472136 
L 4.472136 4.472136 
L 4.472136 -4.472136 
L -4.472136 -4.472136 
z
" style="stroke: #1d4ed8"/>
    </defs>
    <g clip-path="url(#p819342a0bd)">
     <use xlink:href="#m934ea6742f" x="292.534842" y="196.522186" style="fill: #1d4ed8; stroke: #1d4ed8"/>
    </g>
   </g>
   <g id="PathCollection_9">
    <defs>
     <path id="mf53984bf1d" d="M -2.236068 4.472136 
L 0 2.236068 
L 2.236068 4.472136 
L 4.472136 2.236068 
L 2.236068 0 
L 4.472136 -2.236068 
L 2.236068 -4.472136 
L 0 -2.236068 
L -2.236068 -4.472136 
L -4.472136 -2.236068 
L -2.236068 0 
L -4.472136 2.236068 
z
" style="stroke: #a16207"/>
    </defs>
    <g clip-path="url(#p819342a0bd)">
     <use xlink:href="#mf53984bf1d" x="456.458225" y="358.146127" style="fill: #a16207; stroke: #a16207"/>
    </g>
   </g>
   <g id="PathCollection_10">
    <g clip-path="url(#p819342a0bd)">
     <use xlink:href="#mf53984bf1d" x="251.455611" y="97.528924" style="fill: #a16207; stroke: #a16207"/>
    </g>
   </g>
   <g id="PathCollection_11">
    <g clip-path="url(#p819342a0bd)">
     <use xlink:href="#mf53984bf1d" x="69.770881" y="316.642726" style="fill: #a16207; stroke: #a16207"/>
    </g>
   </g>
   <g id="PathCollection_12">
    <g clip-path="url(#p819342a0bd)">
     <use xlink:href="#mf53984bf1d" x="486.750994" y="155.84313" style="fill: #a16207; stroke: #a16207"/>
    </g>
   </g>
   <g id="PathCollection_13">
    <defs>
     <path id="m363af758f2" d="M 0 2.645751 
C 0.701661 2.645751 1.374679 2.366978 1.870829 1.870829 
C 2.366978 1.374679 2.645751 0.701661 2.645751 0 
C 2.645751 -0.701661 2.366978 -1.374679 1.870829 -1.870829 
C 1.374679 -2.366978 0.701661 -2.645751 0 -2.645751 
C -0.701661 -2.645751 -1.374679 -2.366978 -1.870829 -1.870829 
C -2.366978 -1.374679 -2.645751 -0.701661 -2.645751 0 
C -2.645751 0.701661 -2.366978 1.374679 -1.870829 1.870829 
C -1.374679 2.366978 -0.701661 2.645751 0 2.645751 
z
" style="stroke: #4d7c0f"/>
    </defs>
    <g clip-path="url(#p819342a0bd)">
     <use xlink:href="#m363af758f2" x="365.706863" y="316.876289" style="fill: #4d7c0f; stroke: #4d7c0f"/>
    </g>
   </g>
   <g id="PathCollection_14">
    <g clip-path="url(#p819342a0bd)">
     <use xlink:href="#m363af758f2" x="347.602612" y="286.229732" style="fill: #4d7c0f; stroke: #4d7c0f"/>
    </g>
   </g>
   <g id="PathCollection_15">
    <g clip-path="url(#p819342a0bd)">
     <use xlink:href="#m363af758f2" x="329.498361" y="255.583175" style="fill: #4d7c0f; stroke: #4d7c0f"/>
    </g>
   </g>
   <g id="text_17">
    <!-- 1 -->
    <g transform="translate(328.152779 343.029353) scale(0.08 -0.08)">
     <defs>
      <path id="DejaVuSans-Bold-14" d="M 750 831 
L 1813 831 
L 1813 3847 
L 722 3622 
L 722 4441 
L 1806 4666 
L 2950 4666 
L 2950 831 
L 4013 831 
L 4013 0 
L 750 0 
L 750 831 
z
" transform="scale(0.015625)"/>
     </defs>
     <use xlink:href="#DejaVuSans-Bold-14"/>
    </g>
   </g>
   <g id="text_18">
    <!-- 2 -->
    <g transform="translate(342.605542 354.927344) scale(0.08 -0.08)">
     <defs>
      <path id="DejaVuSans-Bold-15" d="M 1844 884 
L 3897 884 
L 3897 0 
L 506 0 
L 506 884 
L 2209 2388 
Q 2438 2594 2547 2791 
Q 2656 2988 2656 3200 
Q 2656 3528 2436 3728 
Q 2216 3928 1850 3928 
Q 1569 3928 1234 3808 
Q 900 3688 519 3450 
L 519 4475 
Q 925 4609 1322 4679 
Q 1719 4750 2100 4750 
Q 2938 4750 3402 4381 
Q 3866 4013 3866 3353 
Q 3866 2972 3669 2642 
Q 3472 2313 2841 1759 
L 1844 884 
z
" transform="scale(0.015625)"/>
     </defs>
     <use xlink:href="#DejaVuSans-Bold-15"/>
    </g>
   </g>
   <g id="text_19">
    <!-- 3 -->
    <g transform="translate(342.415961 354.29716) scale(0.08 -0.08)">
     <defs>
      <path id="DejaVuSans-Bold-16" d="M 2981 2516 
Q 3453 2394 3698 2092 
Q 3944 1791 3944 1325 
Q 3944 631 3412 270 
Q 2881 -91 1863 -91 
Q 1503 -91 1142 -33 
Q 781 25 428 141 
L 428 1069 
Q 766 900 1098 814 
Q 1431 728 1753 728 
Q 2231 728 2486 893 
Q 2741 1059 2741 1369 
Q 2741 1688 2480 1852 
Q 2219 2016 1709 2016 
L 1228 2016 
L 1228 2791 
L 1734 2791 
Q 2188 2791 2409 2933 
Q 2631 3075 2631 3366 
Q 2631 3634 2415 3781 
Q 2200 3928 1806 3928 
Q 1516 3928 1219 3862 
Q 922 3797 628 3669 
L 628 4550 
Q 984 4650 1334 4700 
Q 1684 4750 2022 4750 
Q 2931 4750 3382 4451 
Q 3834 4153 3834 3553 
Q 3834 3144 3618 2883 
Q 3403 2622 2981 2516 
z
" transform="scale(0.015625)"/>
     </defs>
     <use xlink:href="#DejaVuSans-Bold-16"/>
    </g>
   </g>
   <g id="text_20">
    <!-- 4 -->
    <g transform="translate(347.849678 385.055002) scale(0.08 -0.08)">
     <defs>
      <path id="DejaVuSans-Bold-17" d="M 2356 3675 
L 1038 1722 
L 2356 1722 
L 2356 3675 
z
M 2156 4666 
L 3494 4666 
L 3494 1722 
L 4159 1722 
L 4159 850 
L 3494 850 
L 3494 0 
L 2356 0 
L 2356 850 
L 288 850 
L 288 1881 
L 2156 4666 
z
" transform="scale(0.015625)"/>
     </defs>
     <use xlink:href="#DejaVuSans-Bold-17"/>
    </g>
   </g>
   <g id="text_21">
    <!-- 5 -->
    <g transform="translate(380.3664 342.059042) scale(0.08 -0.08)">
     <defs>
      <path id="DejaVuSans-Bold-18" d="M 678 4666 
L 3669 4666 
L 3669 3781 
L 1638 3781 
L 1638 3059 
Q 1775 3097 1914 3117 
Q 2053 3138 2203 3138 
Q 3056 3138 3531 2711 
Q 4006 2284 4006 1522 
Q 4006 766 3489 337 
Q 2972 -91 2053 -91 
Q 1656 -91 1267 -14 
Q 878 63 494 219 
L 494 1166 
Q 875 947 1217 837 
Q 1559 728 1863 728 
Q 2300 728 2551 942 
Q 2803 1156 2803 1522 
Q 2803 1891 2551 2103 
Q 2300 2316 1863 2316 
Q 1603 2316 1309 2248 
Q 1016 2181 678 2041 
L 678 4666 
z
" transform="scale(0.015625)"/>
     </defs>
     <use xlink:href="#DejaVuSans-Bold-18"/>
    </g>
   </g>
  </g>
 </g>
 <defs>
  <clipPath id="p819342a0bd">
   <rect x="48.921875" y="81.361816" width="458.678125" height="355.676368"/>
  </clipPath>
 </defs>
</svg>
